<svg width="122" height="75" viewBox="0 0 122 75" fill="none" xmlns="http://www.w3.org/2000/svg">
<path d="M22.592 43.704H16.1309V45.3825H22.592V43.704Z" fill="#EBEBEB"/>
<path d="M18.9881 45.8205H12.527V47.499H18.9881V45.8205Z" fill="#EBEBEB"/>
<path d="M69.4644 22.5705H63.0032V24.249H69.4644V22.5705Z" fill="#EBEBEB"/>
<path d="M65.8605 24.687H59.3994V26.3655H65.8605V24.687Z" fill="#EBEBEB"/>
<path d="M62.2712 22.5705H55.8101V24.249H62.2712V22.5705Z" fill="#EBEBEB"/>
<path d="M109.473 45.8205H103.012V47.499H109.473V45.8205Z" fill="#EBEBEB"/>
<path d="M105.869 7.845H99.4081V9.5235H105.869V7.845Z" fill="#EBEBEB"/>
<path d="M109.473 9.9615H103.012V11.64H109.473V9.9615Z" fill="#EBEBEB"/>
<path d="M18.9881 7.845H12.527V9.5235H18.9881V7.845Z" fill="#EBEBEB"/>
<path d="M109.5 19.899H79.0438V21.1815H109.5V19.899Z" fill="#C7C7C7"/>
<path d="M105.103 15.266L104.876 15.2936L106.309 19.7478L106.537 19.7202L105.103 15.266Z" fill="#EBEBEB"/>
<path d="M106.9 15.2339L105.171 19.8469L105.397 19.8789L107.126 15.2659L106.9 15.2339Z" fill="#EBEBEB"/>
<path d="M107.728 15.3217L105.473 19.8419L105.695 19.8837L107.95 15.3635L107.728 15.3217Z" fill="#EBEBEB"/>
<path d="M105.245 15.4191L105.024 15.462L107.234 19.7631L107.455 19.7201L105.245 15.4191Z" fill="#EBEBEB"/>
<path d="M106.389 15.4064L106.157 15.4092L106.306 19.9782L106.537 19.9754L106.389 15.4064Z" fill="#EBEBEB"/>
<path d="M107.585 19.899H104.988L105.503 17.901H107.07L107.585 19.899Z" fill="#A6A6A6"/>
<path d="M95.6846 14.1315H89.3358V19.899H95.6846V14.1315Z" fill="#DBDBDB"/>
<path d="M93.8034 12.966H91.2145V14.1315H93.8034V12.966Z" fill="#A6A6A6"/>
<path d="M94.7794 15.594H90.219V18.276H94.7794V15.594Z" fill="#EBEBEB"/>
<path d="M88.5842 15.594H83.9458V19.899H88.5842V15.594Z" fill="#EBEBEB"/>
<path d="M87.557 14.004H84.9681V15.1695H87.557V14.004Z" fill="#A6A6A6"/>
<path d="M85.3146 15.594H87.2154V15.1695H85.3146V15.594Z" fill="#EBEBEB"/>
<path d="M103.529 13.38H98.0856V19.899H103.529V13.38Z" fill="#DBDBDB"/>
<path d="M101.919 12.381H99.6984V13.38H101.919V12.381Z" fill="#C7C7C7"/>
<path d="M103.529 15.8655H98.0856V18.165H103.529V15.8655Z" fill="#C7C7C7"/>
<path d="M54.6829 20.526C55.7178 20.526 56.5568 20.0102 56.5568 19.374C56.5568 18.7378 55.7178 18.222 54.6829 18.222C53.6479 18.222 52.809 18.7378 52.809 19.374C52.809 20.0102 53.6479 20.526 54.6829 20.526Z" fill="#EBEBEB"/>
<path d="M54.8049 0H54.5609V13.7805H54.8049V0Z" fill="#C7C7C7"/>
<path d="M55.8297 12.984H53.5385V14.508H55.8297V12.984Z" fill="#DBDBDB"/>
<path d="M59.3725 19.374H49.9956C50.1859 17.181 51.8866 13.674 54.6828 13.674C57.4791 13.674 59.1846 17.181 59.3725 19.374Z" fill="#DBDBDB"/>
<path d="M67.3172 16.761C68.3521 16.761 69.1911 16.2452 69.1911 15.609C69.1911 14.9728 68.3521 14.457 67.3172 14.457C66.2822 14.457 65.4432 14.9728 65.4432 15.609C65.4432 16.2452 66.2822 16.761 67.3172 16.761Z" fill="#EBEBEB"/>
<path d="M67.4392 0H67.1952V10.0155H67.4392V0Z" fill="#C7C7C7"/>
<path d="M68.4616 9.2205H66.1704V10.7445H68.4616V9.2205Z" fill="#DBDBDB"/>
<path d="M72.0044 15.609H62.6275C62.8178 13.4175 64.5185 9.909 67.3172 9.909C70.1159 9.909 71.8165 13.4175 72.0044 15.609Z" fill="#DBDBDB"/>
<path d="M61 68.6955C76.4526 68.6955 88.9795 67.9198 88.9795 66.963C88.9795 66.0062 76.4526 65.2305 61 65.2305C45.5473 65.2305 33.0205 66.0062 33.0205 66.963C33.0205 67.9198 45.5473 68.6955 61 68.6955Z" fill="#EBEBEB"/>
<path d="M25.6518 13.5075H15.8625V32.697H25.6518V13.5075Z" fill="white"/>
<path d="M25.6518 32.7L15.86 32.7315H15.8039V32.7L15.7405 13.5075V13.4325H15.86L25.6493 13.4445H25.7518V13.5075L25.7152 23.1195L25.6518 32.7ZM25.6518 32.7L25.5859 23.088L25.5493 13.5105L25.6518 13.5735L15.86 13.5825L15.982 13.5075L15.921 32.7L15.8625 32.6655L25.6518 32.7Z" fill="#DBDBDB"/>
<path d="M26.2886 12.459H15.2232V13.5075H26.2886V12.459Z" fill="#455A64"/>
<path d="M27.3915 11.412H14.1252V12.4605H27.3915V11.412Z" fill="#37474F"/>
<path d="M20.7571 8.2905C20.1141 8.2903 19.4774 8.36799 18.8833 8.51912C18.2892 8.67024 17.7493 8.89186 17.2945 9.17129C16.8397 9.45072 16.479 9.78249 16.2329 10.1477C15.9867 10.5128 15.86 10.9042 15.86 11.2995V11.412H25.6493V11.2995C25.6493 10.5017 25.134 9.7366 24.2166 9.17235C23.2992 8.60809 22.0548 8.2909 20.7571 8.2905Z" fill="#455A64"/>
<path d="M15.2256 33.7455H26.291V32.697H15.2256V33.7455Z" fill="#455A64"/>
<path d="M14.1228 34.7925H27.389V33.744H14.1228V34.7925Z" fill="#37474F"/>
<path d="M20.7571 37.914C22.0553 37.914 23.3002 37.597 24.2182 37.0327C25.1361 36.4684 25.6518 35.703 25.6518 34.905V34.8H15.86V34.911C15.8626 35.7083 16.3798 36.4723 17.298 37.0353C18.2161 37.5984 19.4603 37.9144 20.7571 37.914Z" fill="#455A64"/>
<path d="M21.9796 13.5075L15.8649 15.075V13.5075H21.9796Z" fill="#37474F"/>
<path d="M25.6518 15.969L15.8625 18.477V16.629L25.6518 14.1225V15.969Z" fill="#FFC727"/>
<path d="M25.6518 19.371L15.8625 21.8775V20.031L25.6518 17.523V19.371Z" fill="#37474F"/>
<path d="M25.6518 22.773L15.8625 25.2795V23.433L25.6518 20.925V22.773Z" fill="#FFC727"/>
<path d="M25.6518 26.175L15.8625 28.6815V26.8335L25.6518 24.327V26.175Z" fill="#37474F"/>
<path d="M25.6518 29.5755L15.8625 32.0835V30.2355L25.6518 27.7275V29.5755Z" fill="#FFC727"/>
<path d="M25.6517 31.1295V32.697H19.5298L25.6517 31.1295Z" fill="#37474F"/>
<path d="M17.6632 14.7765H16.7726V31.428H17.6632V14.7765Z" fill="white"/>
<path d="M87.9156 39.5505L87.8522 39.7005C87.8522 39.7125 87.84 39.726 87.8351 39.741C87.7985 39.8265 87.7497 39.9405 87.6912 40.0815C87.6765 40.116 87.6594 40.1535 87.6448 40.191L87.5667 40.371C87.5448 40.4235 87.5228 40.479 87.4984 40.536C87.3666 40.836 87.2105 41.211 87.0299 41.637C87.0128 41.679 86.9958 41.721 86.9762 41.7645C86.4516 43.002 85.7562 44.6775 84.9364 46.5885C84.8852 46.71 84.8339 46.833 84.7802 46.956L84.646 47.277C84.5924 47.4015 84.5411 47.526 84.4874 47.6505C84.3044 48.0825 84.119 48.5235 83.9311 48.9705C83.8303 49.2065 83.7302 49.4435 83.631 49.6815C82.8551 51.525 82.0377 53.469 81.2374 55.3815C81.1202 55.659 81.0056 55.935 80.8884 56.211L80.1857 57.8925C79.6758 59.109 79.1878 60.2835 78.7339 61.377C78.4314 62.109 78.1459 62.805 77.8799 63.453H60.6901C62.5884 59.0925 65.6775 52.758 68.1956 47.703C70.4867 43.0905 72.307 39.546 72.307 39.546L87.9156 39.5505Z" fill="#37474F"/>
<path d="M84.6168 42.3945C84.2288 43.239 83.8457 44.0835 83.4456 44.9265C82.6534 46.5945 81.8547 48.262 81.0495 49.929C80.6786 50.703 80.3053 51.476 79.9295 52.248C79.2024 53.748 78.4704 55.248 77.7335 56.748C77.2276 57.789 76.7201 58.83 76.211 59.871C75.6286 61.064 75.0447 62.2575 74.4591 63.4515H73.9393C74.2419 62.859 74.5469 62.268 74.8348 61.677C75.7506 59.807 76.6689 57.9375 77.5896 56.0685C78.276 54.6745 78.9633 53.2815 79.6514 51.8895C79.7295 51.7395 79.8075 51.576 79.8832 51.42C80.6152 49.944 81.3472 48.47 82.0792 46.998C82.4923 46.176 82.9063 45.354 83.3211 44.532C83.7311 43.728 84.1971 42.9315 84.568 42.1215C84.729 41.7945 84.8095 41.9745 84.6168 42.3945Z" fill="#263238"/>
<path d="M74.0784 39.5505C75.152 44.7 77.2284 54.3675 78.7339 61.3785C82.2548 52.884 87.9156 39.5505 87.9156 39.5505H74.0784Z" fill="#263238"/>
<path d="M96.2067 63.45H80.415C80.3492 61.713 80.2662 59.757 80.1857 57.8895C80.0905 55.737 79.9978 53.7 79.9295 52.2465C79.9148 51.9465 79.9026 51.669 79.8904 51.4215C79.8587 50.7585 79.8368 50.3055 79.8294 50.1435C79.8294 50.1015 79.8294 50.079 79.8294 50.079L79.5586 49.9785C78.9096 49.7385 78.3215 49.536 77.8018 49.3665L77.631 49.3125C76.9771 49.1025 76.4403 48.948 76.0523 48.8415C75.5863 48.7155 75.3203 48.6585 75.3203 48.6585L75.2691 48.5685C75.1276 48.312 74.9958 48.0465 74.8738 47.778C73.1658 44.142 72.8047 39.5505 72.8047 39.5505H94.0742C94.0742 39.5505 94.4353 43.2255 94.8745 47.9925C95.3381 52.938 95.892 59.0565 96.2067 63.45Z" fill="#37474F"/>
<path d="M93.9717 63.45H93.696C93.3804 59.601 93.1218 55.751 92.9201 51.9C92.7224 48.3285 92.5711 44.757 92.3979 41.1855C92.3979 41.1345 92.5223 41.139 92.5248 41.1855C92.8639 47.502 93.2226 53.8185 93.6838 60.132C93.7545 60.981 93.8521 62.115 93.9717 63.45Z" fill="#263238"/>
<path d="M74.5615 48.384C76.3923 48.8543 78.1533 49.4215 79.8246 50.079C79.8905 50.1045 79.8417 50.1675 79.7709 50.1465C77.9946 49.6155 76.1792 49.1055 74.4542 48.5145C74.4292 48.5047 74.4111 48.4895 74.4033 48.472C74.3955 48.4544 74.3986 48.4357 74.412 48.4194C74.4253 48.4032 74.448 48.3906 74.4757 48.384C74.5033 48.3775 74.5339 48.3775 74.5615 48.384Z" fill="#263238"/>
<path d="M74.459 44.4885C74.5786 44.892 74.7372 45.2895 74.8787 45.6885C75.0129 46.0635 75.1105 46.4385 75.2716 46.818C75.4039 47.177 75.7001 47.5054 76.1256 47.7645C76.3696 47.901 76.6306 48.021 76.8844 48.147C77.0235 48.2145 77.1723 48.279 77.3138 48.348C77.2968 48.2955 77.2821 48.24 77.265 48.186C77.2211 48.036 77.1797 47.886 77.1382 47.7285C77.0455 47.3895 76.9576 47.049 76.8722 46.71C76.7063 46.0425 76.555 45.36 76.3281 44.706C76.3267 44.7008 76.3285 44.6955 76.3331 44.6911C76.3378 44.6867 76.3449 44.6835 76.3532 44.6822C76.3615 44.6809 76.3702 44.6815 76.3778 44.684C76.3853 44.6864 76.3911 44.6906 76.394 44.6955C76.6648 45.351 76.9649 45.999 77.1992 46.6605C77.3163 46.9845 77.7286 48.5835 77.7457 48.696C77.7628 48.8085 77.7799 48.93 77.7872 49.0485C77.8128 49.1675 77.8128 49.288 77.7872 49.407C77.7872 49.437 77.7189 49.431 77.6994 49.407C77.6206 49.2957 77.5649 49.1788 77.5334 49.059C77.4871 48.945 77.4432 48.8295 77.4114 48.714C77.3992 48.672 77.3895 48.6285 77.3797 48.5865C77.1235 48.4905 76.8917 48.363 76.6477 48.2565C76.4037 48.15 76.1256 48.03 75.8816 47.904C75.4304 47.6683 75.1049 47.3548 74.947 47.004C74.7894 46.6274 74.6873 46.2429 74.642 45.855C74.5591 45.405 74.4981 44.943 74.398 44.49C74.3834 44.4735 74.4493 44.4615 74.459 44.4885Z" fill="#263238"/>
<path d="M79.0706 28.548C77.2504 32.13 72.7876 39.7815 69.6717 41.148C67.4172 42.138 56.281 41.2545 52.6771 40.7145C49.2001 40.1925 53.1163 34.1775 55.1757 34.4475C58.5039 34.8825 63.5864 35.5575 64.5868 35.301C65.2871 35.121 71.4481 30.9315 76.1085 27.468C79.3244 25.08 79.949 26.817 79.0706 28.548Z" fill="#D3766A"/>
<path d="M69.296 31.884L75.884 36.33C75.884 36.33 78.4972 32.307 79.8026 29.2935C81.108 26.28 80.2906 24.357 76.6672 26.685C73.0438 29.013 69.296 31.884 69.296 31.884Z" fill="#DBDBDB"/>
<path d="M79.6611 25.2765L79.3927 25.2795L79.7075 25.23L79.6611 25.2765Z" fill="#C7C7C7"/>
<path d="M79.788 29.2935C78.4874 32.307 75.884 36.33 75.884 36.33L71.5164 33.3825L79.2829 25.65C80.5834 25.692 80.6834 27.24 79.788 29.2935Z" fill="#C7C7C7"/>
<path d="M70.9674 31.2075C71.4822 31.5075 71.9434 31.8345 72.4143 32.157C72.8852 32.4795 73.3293 32.7915 73.7831 33.111C74.7006 33.7575 75.6229 34.401 76.4671 35.0895C76.4697 35.0913 76.4717 35.0933 76.4729 35.0956C76.4742 35.0978 76.4747 35.1002 76.4745 35.1026C76.4743 35.1049 76.4733 35.1072 76.4716 35.1094C76.4699 35.1115 76.4676 35.1134 76.4647 35.115C76.4618 35.1166 76.4585 35.1178 76.4548 35.1186C76.4512 35.1193 76.4473 35.1197 76.4435 35.1195C76.4396 35.1194 76.4358 35.1188 76.4324 35.1178C76.4289 35.1167 76.4258 35.1153 76.4232 35.1135C75.4277 34.5135 74.5225 33.858 73.6075 33.21C73.1553 32.889 72.7071 32.5665 72.263 32.2425C71.8092 31.9125 71.3383 31.5855 70.9332 31.23C70.9319 31.227 70.9318 31.2239 70.933 31.2209C70.9341 31.2179 70.9366 31.2151 70.94 31.2128C70.9434 31.2106 70.9478 31.2089 70.9526 31.208C70.9574 31.207 70.9625 31.2069 70.9674 31.2075Z" fill="#263238"/>
<path d="M49.4173 40.1265C51.262 40.6935 55.7735 40.9455 56.8984 40.7505C58.0232 40.5555 58.9797 35.853 58.1184 35.3325C57.257 34.812 50.8154 33.198 48.7585 33.4695C46.7016 33.741 47.5068 39.5385 49.4173 40.1265Z" fill="#D3766A"/>
<path d="M57.096 34.9395C57.096 34.9395 55.2904 33.72 54.3705 32.3805C53.5994 31.2555 52.6625 29.5305 51.6596 29.7615C49.6076 30.2385 51.95 34.542 51.95 34.542C51.95 34.542 53.4799 36.342 55.5832 35.976C55.9665 35.906 56.3107 35.7721 56.5778 35.5891C56.8448 35.4062 57.0242 35.1813 57.096 34.9395Z" fill="#D3766A"/>
<path d="M52.0671 33.45C52.1257 34.122 51.2278 34.116 51.2278 34.116L45.1936 34.5765C45.1936 34.5765 40.5015 34.179 40.5259 33.411C40.5723 32.0865 50.342 32.8935 51.2204 32.877C51.6914 32.8605 52.0403 33.15 52.0671 33.45Z" fill="#D3766A"/>
<path d="M53.6336 36.891C53.8215 36.528 53.9215 36.1275 53.4652 35.7075C53.4457 35.6145 53.5824 35.5785 53.558 35.535C53.3975 35.3965 53.1881 35.2822 52.9455 35.2005C52.8528 35.1915 52.7601 35.2965 52.6844 35.274C51.6474 34.974 50.6348 35.124 50.4055 35.115C50.1273 35.1015 49.2245 34.593 48.6975 34.1655C48.1949 33.7142 47.9284 33.1794 47.9338 32.6325C47.9338 32.6325 42.4169 29.823 37.5589 28.6965L37.4052 28.806L47.5238 33.831C47.9833 34.4063 48.6313 34.917 49.427 35.331C49.5222 35.382 49.5588 35.4165 49.5466 35.5515C49.5344 35.6865 49.0049 36.6375 50.3542 37.3035C51.7035 37.9695 53.3066 37.5165 53.6336 36.891ZM50.0956 36.2655C50.1018 36.1421 50.1519 36.021 50.2422 35.9107C50.3325 35.8004 50.461 35.7035 50.6186 35.627C50.7761 35.5504 50.959 35.4959 51.1545 35.4673C51.3499 35.4387 51.5531 35.4367 51.7499 35.4615C52.6478 35.5425 53.2139 35.9115 53.1944 36.393C53.1578 37.0425 52.2379 37.2675 51.5986 37.2375C50.8984 37.2 50.0444 36.7995 50.0956 36.2655Z" fill="#37474F"/>
<path d="M48.1022 33.3975L46.3234 33.2385L42.7708 31.473L45.9989 31.716C47.1847 32.253 47.9289 32.6325 47.9289 32.6325C47.9132 32.8918 47.9718 33.1507 48.1022 33.3975Z" fill="#263238"/>
<path d="M37.7516 28.8165C38.203 28.9305 38.6422 29.058 39.0814 29.187C39.5206 29.316 39.9501 29.4555 40.3771 29.598C41.2311 29.883 42.0688 30.186 42.8903 30.507C43.7077 30.8325 44.5153 31.167 45.2912 31.527C45.484 31.617 45.6816 31.704 45.872 31.7985L46.4429 32.076C46.6332 32.169 46.8187 32.2665 47.0041 32.364L47.558 32.655C46.7967 32.283 46.0354 31.905 45.2449 31.5645C44.4543 31.224 43.6564 30.879 42.8366 30.5595C42.0168 30.24 41.1847 29.9325 40.3405 29.64C39.4962 29.3475 38.6325 29.07 37.7516 28.8165Z" fill="#455A64"/>
<path d="M49.9883 32.5845C50.8618 32.5545 52.0769 32.643 52.2745 32.7645C52.4722 32.886 53.1578 33.7545 54.5145 33.8145C54.949 33.8368 55.385 33.7838 55.7732 33.6616C56.1613 33.5394 56.486 33.3528 56.7105 33.123C57.1033 32.739 57.3985 32.8485 57.8548 32.832C58.4663 32.7911 59.0369 32.6234 59.4725 32.3565C59.8995 32.076 59.5287 31.7565 58.9992 32.082C58.8017 32.2179 58.5487 32.3189 58.2664 32.3745C57.9842 32.4301 57.6829 32.4384 57.3937 32.3985C56.769 32.3415 56.6153 31.4655 54.9293 31.314C53.2432 31.1625 52.399 31.986 52.2453 32.0805C52.0915 32.175 52.0208 32.1795 51.8988 32.1675C50.8676 32.0633 49.8126 32.0914 48.8 32.25L36.0046 30.8115L35.9705 30.9615C40.5284 32.4915 47.5897 33.228 47.5897 33.228C48.2643 32.8687 49.101 32.6442 49.9883 32.5845ZM53.1139 32.469C53.1205 32.3455 53.1708 32.2244 53.2614 32.1141C53.3521 32.0038 53.4807 31.907 53.6385 31.8304C53.7963 31.7539 53.9793 31.6994 54.1749 31.6708C54.3704 31.6423 54.5737 31.6403 54.7707 31.665C55.6686 31.746 56.2347 32.115 56.2151 32.5965C56.1785 33.246 55.2587 33.471 54.6194 33.4395C53.924 33.4065 53.0651 33 53.1139 32.469Z" fill="#455A64"/>
<path d="M46.4746 32.4615C46.4535 32.4186 46.4121 32.3805 46.3557 32.352C46.2993 32.3235 46.2305 32.306 46.1579 32.3017C46.0853 32.2973 46.0122 32.3063 45.9479 32.3275C45.8836 32.3487 45.831 32.3811 45.7967 32.4207C45.7624 32.4603 45.7481 32.5053 45.7554 32.5499C45.7628 32.5945 45.7915 32.6368 45.838 32.6714C45.8845 32.7059 45.9466 32.7312 46.0165 32.7441C46.0864 32.7569 46.1609 32.7567 46.2306 32.7435C46.3237 32.7258 46.4015 32.6863 46.4473 32.6334C46.493 32.5806 46.5028 32.5188 46.4746 32.4615Z" fill="#C7C7C7"/>
<path d="M46.3722 32.4795C46.3519 32.439 46.3065 32.4049 46.2458 32.3848C46.1851 32.3646 46.114 32.3598 46.0477 32.3715C45.9981 32.3805 45.9541 32.3984 45.9211 32.4228C45.8881 32.4473 45.8677 32.4772 45.8623 32.5087C45.857 32.5403 45.867 32.5722 45.8911 32.6002C45.9152 32.6283 45.9523 32.6514 45.9977 32.6665C46.0431 32.6816 46.0948 32.6881 46.1462 32.6852C46.1977 32.6822 46.2465 32.67 46.2866 32.6499C46.3267 32.6299 46.3562 32.603 46.3714 32.5727C46.3867 32.5424 46.3869 32.5099 46.3722 32.4795Z" fill="#EBEBEB"/>
<path d="M36.1461 30.9135C36.6 31.0365 37.0571 31.154 37.5174 31.266C37.9777 31.378 38.4389 31.4875 38.9009 31.5945C39.8281 31.8075 40.7626 32.0085 41.7069 32.1945C42.1754 32.2905 42.6512 32.3745 43.1245 32.4645C43.5979 32.5545 44.0761 32.6325 44.5544 32.7075L45.2864 32.823L46.0184 32.928L46.3795 32.9805L46.743 33.0285L47.475 33.1245C46.499 33.021 45.523 32.904 44.5666 32.7525L44.2054 32.6985L43.8443 32.6385L43.1294 32.5185C42.6536 32.43 42.1778 32.3475 41.7044 32.253C40.7626 32.064 39.8256 31.8645 38.9033 31.641C37.981 31.4175 37.0367 31.1805 36.1461 30.9135Z" fill="#263238"/>
<path d="M56.6763 33C56.4888 33.2335 56.2022 33.4315 55.8467 33.573C55.4855 33.715 55.0615 33.7847 54.6332 33.7723C54.2049 33.76 53.7934 33.6662 53.4555 33.504C53.1206 33.3429 52.8334 33.1475 52.6064 32.9265C52.5478 32.8755 52.4917 32.8155 52.4331 32.7765C52.364 32.7341 52.2807 32.7013 52.1891 32.6805C51.9973 32.635 51.7975 32.6033 51.5938 32.586C51.1824 32.5503 50.7673 32.5332 50.3518 32.535C49.9385 32.5338 49.5273 32.5707 49.1318 32.6445C48.7272 32.7077 48.3439 32.8143 47.9996 32.9595C48.1633 32.8789 48.3418 32.8104 48.5316 32.7555C48.7218 32.701 48.9174 32.6539 49.1172 32.6145C49.5184 32.534 49.9371 32.4911 50.3591 32.487C50.78 32.4797 51.2012 32.4943 51.6182 32.5305C51.8292 32.5471 52.0364 32.5788 52.2355 32.625C52.3411 32.6489 52.4369 32.6868 52.5161 32.736C52.5917 32.7915 52.6381 32.844 52.6991 32.898C52.9175 33.114 53.1949 33.3053 53.5189 33.4635C53.843 33.6206 54.2368 33.7137 54.6486 33.7305C55.063 33.7456 55.4753 33.684 55.832 33.5535C56.1871 33.4174 56.4781 33.2266 56.6763 33Z" fill="#263238"/>
<path d="M51.24 34.1085C51.24 34.1085 53.3433 34.272 53.5751 35.0085C53.7971 35.7105 52.072 35.7915 51.9476 35.7975C52.0598 35.8065 53.985 35.988 54.0972 36.735C54.2119 37.512 52.4575 37.41 52.3453 37.4025C52.4453 37.431 53.7629 37.8285 53.6385 38.4075C53.4213 39.4035 50.0053 38.4465 48.7878 38.763C48.7878 38.763 49.4246 40.0935 49.4295 40.134C49.4295 40.134 46.1477 39.264 45.545 38.2305C45.4535 38.0808 45.4479 37.9164 45.5291 37.7644C45.6103 37.6125 45.7734 37.4822 45.9915 37.395C45.9915 37.395 44.8838 37.1865 44.7715 36.6C44.7105 36.3 45.4425 35.973 45.4425 35.973C45.4425 35.973 44.5666 35.7825 44.5153 35.2575C44.498 35.1109 44.5542 34.9646 44.6764 34.8383C44.7986 34.7119 44.9808 34.6117 45.1985 34.551C46.9114 33.9405 51.24 34.1085 51.24 34.1085Z" fill="#D3766A"/>
<path d="M45.301 34.5165C45.2815 34.5165 45.2717 34.503 45.301 34.4985C47.1237 34.0155 49.3685 33.8295 51.3156 34.098C51.379 34.107 51.5889 34.248 51.5181 34.236C49.6906 34.0575 47.336 34.2 45.301 34.5165Z" fill="#263238"/>
<path d="M45.384 35.961C45.362 35.961 45.3523 35.9415 45.384 35.937C47.2652 35.4465 49.8028 35.2785 51.9866 35.751C52.0623 35.7675 52.1038 35.8275 52.0159 35.8125C50.5251 35.5665 47.2286 35.67 45.384 35.961Z" fill="#263238"/>
<path d="M52.46 37.461C50.3347 37.0575 48.2144 37.1145 46.0476 37.365C46.0208 37.365 46.0159 37.3425 46.0476 37.3365C47.0529 37.0365 48.4608 36.9645 49.5612 36.966C50.5844 36.9562 51.594 37.1113 52.4892 37.416C52.5258 37.4265 52.5112 37.4685 52.46 37.461Z" fill="#263238"/>
<path d="M51.2546 34.0935C51.3327 34.104 51.1424 34.1985 51.2204 34.2105C52.0452 34.3455 53.5019 34.632 53.475 35.07C53.4531 35.421 52.6698 35.646 52.3136 35.6595L51.4205 35.694L52.2794 35.853C52.6619 35.9208 53.0238 36.0267 53.3506 36.1665C53.508 36.2262 53.6432 36.3057 53.747 36.3998C53.8509 36.4939 53.9212 36.6005 53.9532 36.7125C53.9819 36.8165 53.9515 36.9233 53.867 37.0151C53.7826 37.1069 53.6493 37.178 53.4897 37.2165C53.1291 37.2991 52.7401 37.3233 52.3599 37.287L51.3059 37.2105L52.2574 37.494C52.5216 37.574 52.7677 37.6749 52.9894 37.794C53.2081 37.9 53.3717 38.0428 53.4604 38.205C53.4941 38.2796 53.4935 38.3585 53.4586 38.4329C53.4237 38.5074 53.3559 38.5744 53.2627 38.6265C53.0262 38.722 52.7503 38.7741 52.4673 38.7765C51.853 38.7907 51.2378 38.7752 50.6275 38.73C50.3201 38.7135 50.0078 38.697 49.6954 38.6895C49.3829 38.6718 49.0678 38.6948 48.7707 38.757C49.0728 38.7152 49.3853 38.7101 49.6906 38.742C49.9956 38.7645 50.303 38.7945 50.608 38.826C51.2265 38.8984 51.8548 38.9346 52.4844 38.934C52.8253 38.9379 53.1605 38.88 53.4482 38.7675C53.5946 38.6962 53.7036 38.6001 53.7618 38.491C53.8199 38.3819 53.8246 38.2647 53.7751 38.154C53.6771 37.9498 53.4816 37.7685 53.2139 37.6335C52.968 37.5002 52.6949 37.3873 52.4014 37.2975L52.2989 37.5045C52.7478 37.5516 53.209 37.5252 53.6361 37.428C53.87 37.37 54.064 37.264 54.1851 37.128C54.2967 36.9918 54.3392 36.8382 54.3071 36.687C54.2662 36.5454 54.1771 36.4106 54.0454 36.2917C53.9138 36.1728 53.7427 36.0723 53.5433 35.997C53.1805 35.8454 52.7788 35.7323 52.3551 35.6625L52.3209 35.856C52.7723 35.829 53.6922 35.637 53.8386 35.0955C53.863 34.3725 51.6621 34.122 51.2546 34.0935Z" fill="#263238"/>
<path d="M96.0018 46.371C95.9359 46.4115 68.952 45.276 68.725 45.096C68.4103 44.841 76.9503 27.984 79.0902 25.5075C80.0027 24.4575 84.3654 24.3 86.0905 25.2975C90.4093 27.795 93.4105 35.8665 94.0449 38.2875C95.0941 42.276 96.2434 46.2255 96.0018 46.371Z" fill="#DBDBDB"/>
<path d="M88.633 39.138C88.8623 39.69 94.8257 40.7565 94.9599 40.8C95.0941 40.8435 95.2771 41.5005 95.2771 41.5005C95.2771 41.5005 89.4357 41.6145 89.1283 41.6295C88.8209 41.6445 91.5195 63.0795 91.3707 63.3C91.2218 63.5205 78.0043 63.15 73.8661 62.775C69.7279 62.4 61.0854 61.596 61.0244 61.3785C60.9634 61.161 69.2374 42.948 70.6599 39.8085C72.0825 36.669 75.396 31.275 75.5643 31.296C75.7766 31.3215 82.755 31.3995 83.4943 31.506C83.7749 31.5465 88.4036 38.586 88.633 39.138Z" fill="#263238"/>
<path d="M75.2886 31.9995C75.2886 31.9995 78.041 26.406 78.3655 25.9995C78.6437 25.7022 79.0046 25.4372 79.4318 25.2165L76.2598 32.0205L75.2886 31.9995Z" fill="#FFC727"/>
<path d="M76.189 31.725C76.1719 31.7544 76.1414 31.7801 76.1013 31.7992C76.0611 31.8183 76.0129 31.8299 75.9624 31.8327C75.9118 31.8355 75.861 31.8293 75.816 31.8149C75.7709 31.8005 75.7336 31.7785 75.7082 31.7515C75.6829 31.7245 75.6706 31.6935 75.6729 31.6624C75.6753 31.6312 75.692 31.6011 75.7213 31.5756C75.7506 31.5501 75.7911 31.5303 75.8381 31.5185C75.885 31.5067 75.9365 31.5034 75.9865 31.509C76.0598 31.5213 76.1222 31.5509 76.1601 31.5914C76.198 31.6318 76.2084 31.6799 76.189 31.725Z" fill="#263238"/>
<path d="M81.6912 32.1765L83.1552 32.2485C83.1552 32.2485 84.6509 27.8235 84.9388 26.952C85.1604 26.3455 85.4708 25.7526 85.866 25.1805C85.6064 24.9937 85.2408 24.8747 84.8436 24.8475C84.8436 24.8475 83.6822 26.766 83.2894 27.8475C82.9404 28.785 81.6912 32.1765 81.6912 32.1765Z" fill="#FFC727"/>
<path d="M82.9234 31.8075C82.9229 31.8502 82.9019 31.8918 82.863 31.9271C82.8241 31.9624 82.769 31.9899 82.7048 32.006C82.6405 32.0221 82.57 32.0262 82.502 32.0177C82.434 32.0092 82.3716 31.9885 82.3227 31.9582C82.2738 31.9279 82.2406 31.8894 82.2272 31.8476C82.2139 31.8057 82.221 31.7624 82.2476 31.723C82.2743 31.6836 82.3193 31.65 82.377 31.6263C82.4348 31.6026 82.5026 31.59 82.572 31.59C82.6183 31.59 82.6642 31.5956 82.707 31.6066C82.7498 31.6175 82.7887 31.6336 82.8213 31.6538C82.854 31.674 82.8798 31.698 82.8973 31.7244C82.9148 31.7508 82.9237 31.779 82.9234 31.8075Z" fill="#263238"/>
<path d="M78.7654 44.2404L83.1706 44.1709L83.1104 42.7298L78.7053 42.7993L78.7654 44.2404Z" fill="#455A64"/>
<path d="M78.6461 44.238L78.6753 44.928L80.376 45.9405L81.7156 45.9195L83.3284 44.8545L83.2991 44.1645L78.6461 44.238Z" fill="#DBDBDB"/>
<path d="M81.0275 52.6875L81.6253 52.6785L81.7156 45.9195L80.376 45.9405L81.0275 52.6875Z" fill="#DBDBDB"/>
<path d="M74.2663 42.579L77.6603 42.315L77.5822 42.0345L74.2443 42.4995L74.2663 42.579Z" fill="#FFC727"/>
<path d="M74.3443 42.8595L77.7384 42.594L77.6603 42.315L74.3224 42.78L74.3443 42.8595Z" fill="#FFC727"/>
<path d="M74.4224 43.1385L77.8165 42.8745L77.7384 42.594L74.4005 43.059L74.4224 43.1385Z" fill="#FFC727"/>
<path d="M74.5005 43.419L77.8945 43.1535L77.8164 42.8745L74.4785 43.3395L74.5005 43.419Z" fill="#FFC727"/>
<path d="M74.5786 43.698L77.9702 43.434L77.8946 43.1535L74.5566 43.62L74.5786 43.698Z" fill="#FFC727"/>
<path d="M74.6567 43.9785L78.0483 43.7145L77.9702 43.434L74.6347 43.899L74.6567 43.9785Z" fill="#FFC727"/>
<path d="M74.7347 44.2575L78.1263 43.9935L78.0482 43.7145L74.7128 44.1795L74.7347 44.2575Z" fill="#FFC727"/>
<path d="M74.8128 44.538L78.2044 44.274L78.1263 43.9935L74.7908 44.4585L74.8128 44.538Z" fill="#FFC727"/>
<path d="M74.8909 44.8185L78.2825 44.553L78.2044 44.274L74.869 44.739L74.8909 44.8185Z" fill="#FFC727"/>
<path d="M74.969 45.0975L78.3606 44.8335L78.2825 44.553L74.947 45.018L74.969 45.0975Z" fill="#FFC727"/>
<path d="M75.047 45.378L78.4386 45.1125L78.3606 44.8335L75.0251 45.2985L75.047 45.378Z" fill="#FFC727"/>
<path d="M75.1227 45.657L78.5167 45.393L78.4386 45.1125L75.1031 45.579L75.1227 45.657Z" fill="#FFC727"/>
<path d="M75.2008 45.9375L78.5948 45.6735L78.5168 45.393L75.1813 45.858L75.2008 45.9375Z" fill="#FFC727"/>
<path d="M75.2789 46.2165L78.6729 45.9525L78.5948 45.6735L75.2569 46.1385L75.2789 46.2165Z" fill="#FFC727"/>
<path d="M75.3569 46.497L78.751 46.233L78.6729 45.9525L75.335 46.4175L75.3569 46.497Z" fill="#FFC727"/>
<path d="M75.435 46.7775L78.8291 46.512L78.751 46.233L75.4131 46.698L75.435 46.7775Z" fill="#FFC727"/>
<path d="M75.5131 47.0565L78.9071 46.7925L78.8291 46.512L75.4911 46.977L75.5131 47.0565Z" fill="#FFC727"/>
<path d="M75.5912 47.337L78.9852 47.0715L78.9071 46.7925L75.5692 47.2575L75.5912 47.337Z" fill="#FFC727"/>
<path d="M79.9197 51.93L80.4956 51.87L78.1703 41.973L77.1747 42.078L79.9197 51.93Z" fill="#FFC727"/>
<path d="M83.0495 43.7473L87.41 44.1383L87.7485 42.7119L83.388 42.3209L83.0495 43.7473Z" fill="#455A64"/>
<path d="M82.9307 43.7325L82.7672 44.415L84.1629 45.591L85.4903 45.7095L87.3739 44.829L87.535 44.1465L82.9307 43.7325Z" fill="#FFC727"/>
<path d="M82.9453 52.308L83.5358 52.3605L85.4902 45.7095L84.1629 45.591L82.9453 52.308Z" fill="#FFC727"/>
<path d="M86.1857 47.424C86.1857 47.424 82.3695 48.024 77.0723 47.433C77.0723 47.433 76.677 52.3185 76.9015 52.5945C77.126 52.8705 80.2053 53.6445 81.3277 53.7165C82.4501 53.7885 86.0515 53.148 86.5712 52.731C87.0909 52.314 86.1857 47.424 86.1857 47.424Z" fill="#37474F"/>
<path d="M88.6256 30.1395C88.6256 33.2325 86.2906 41.46 82.4207 42.579C78.9901 43.5705 70.516 39.3945 67.7807 38.379C66.4241 37.878 71.3065 31.35 72.6266 32.004C74.398 32.88 78.9901 35.4345 79.439 35.2545C79.927 35.0565 81.2812 33.0735 84.7119 28.7115C87.9424 24.6 88.6256 28.2 88.6256 30.1395Z" fill="#D3766A"/>
<path d="M50.508 29.1645C50.3993 29.0417 50.2518 28.9334 50.0741 28.8461C49.8965 28.7588 49.6923 28.6941 49.4734 28.656C49.2147 28.6131 48.9483 28.5904 48.6804 28.5885C49.4441 28.503 49.9321 28.107 50.2469 27.7845C50.5617 27.462 50.1688 26.796 50.1688 26.796C50.1688 26.796 51.1448 27.426 50.9765 27.8685C50.8081 28.311 50.0005 28.6425 50.0005 28.6425C50.3666 28.6662 50.7357 28.6196 51.057 28.509C51.4791 28.3305 51.4449 27.7215 51.4449 27.7215C51.4449 27.7215 51.9573 28.9395 50.508 29.1645Z" fill="#263238"/>
<path d="M60.8902 30.15L60.8536 30.1905L59.3896 31.707L59.3432 31.6905L60.6803 30.135L60.5754 30.099L59.1236 31.6155L59.0772 31.599L60.4144 30.045L60.3094 30.009L58.8601 31.524L58.8137 31.509L60.1484 29.9535L60.0459 29.9175L58.5941 31.4325L58.5478 31.4175L59.8824 29.862L59.7775 29.826L58.3404 31.35L58.2916 31.335L59.6311 29.781L59.5238 29.7435L58.072 31.254L58.0256 31.2375L59.3627 29.6835L59.2554 29.646L57.806 31.1625L57.7597 31.146L59.0968 29.592L58.9919 29.556L57.5401 31.071L57.4937 31.0545L58.8308 29.5005L58.7259 29.4645L57.2741 30.9795L57.2277 30.9645L58.56 29.409L58.4551 29.373L57.0057 30.8895L56.9569 30.873L58.294 29.319L58.1891 29.283L56.7397 30.798L56.6909 30.7815L58.0281 29.2275L57.9231 29.1915L56.4713 30.7065L56.425 30.69L57.7645 29.136L57.6572 29.1L56.2078 30.6165L56.1614 30.6L57.4961 29.0445L57.3937 29.0085L55.9492 30.525L55.9028 30.5085L57.2375 28.95L57.1326 28.9155L55.6832 30.4305L55.6369 30.414L56.974 28.86L56.8666 28.824L55.4197 30.339L55.3709 30.324L56.708 28.7685L56.6006 28.7325L55.144 30.2505L55.0976 30.2355L56.4347 28.68L56.3298 28.644L54.878 30.1605L54.8316 30.144L56.1688 28.59L56.0639 28.5525L54.5999 30.069L54.5535 30.0525L55.9101 28.5L55.8052 28.4625L54.3559 29.979L54.3095 29.9625L55.6442 28.4085L55.5392 28.3725L54.0899 29.8875L54.0411 29.8725L55.388 28.3155L55.2831 28.2795L53.8312 29.7945L53.7849 29.7795L55.1244 28.2255L55.0171 28.188L53.558 29.7L53.5116 29.6835L54.8463 28.1295L54.7414 28.092L53.292 29.6085L53.2457 29.592L54.5803 28.05L54.4779 28.014L53.0139 29.529L52.9675 29.5125L54.3046 27.9585L54.1972 27.9225L52.7479 29.4375L52.6991 29.4225L54.0386 27.867L53.9313 27.831L52.4819 29.3475L52.4356 29.331L53.7727 27.7755L53.6678 27.741L52.2282 29.25L52.1818 29.2335L53.5189 27.6795L53.414 27.6435L51.972 29.157L51.9256 29.1405L53.2627 27.5865L53.1578 27.5505L51.7084 29.067L51.6621 29.0505L52.9968 27.495L52.8919 27.459L51.4425 28.9755L51.3937 28.959L52.7308 27.4035L52.6259 27.3675L51.1765 28.884L51.1277 28.8675L52.46 27.3135L52.3526 27.2775L50.9008 28.8L50.8544 28.785L52.1916 27.2295L52.0842 27.1935L50.6349 28.7085L50.5885 28.6935L51.9232 27.138L51.8207 27.102L50.3689 28.617L50.3225 28.602L51.6597 27.048L51.5523 27.0105L50.1029 28.527L50.0566 28.5105L51.3937 26.9565L51.2863 26.919L49.8394 28.4355L49.7906 28.419L51.1277 26.865L51.0228 26.829L49.5588 28.344L49.5124 28.329L50.8496 26.7735L50.7447 26.7375L49.2807 28.2525L49.2343 28.2375L50.5714 26.6835L50.4665 26.646L49.044 28.155L48.9976 28.1385L50.3323 26.5845L50.2274 26.5485L48.778 28.0635L48.7317 28.047L50.0663 26.493L49.9614 26.457L48.5121 27.972L48.4632 27.9555L49.8004 26.4L49.693 26.364L48.2437 27.8805L48.1973 27.864L49.532 26.31L49.4246 26.274L47.9752 27.7905L47.9289 27.774L49.2636 26.2185L49.1611 26.184L47.6971 27.699L47.6507 27.6825L48.9879 26.1285L48.8829 26.0925L47.4189 27.6075L47.3726 27.591L48.7097 26.037L48.6023 26.001L47.1554 27.516L47.1066 27.501L48.4706 25.95L48.3657 25.914L46.9139 27.4305L46.8675 27.414L48.2046 25.8585L48.0997 25.8225L46.6479 27.339L46.6015 27.3225L47.9387 25.7685L47.8337 25.731L46.3844 27.2475L46.338 27.2325L47.6727 25.677L47.5702 25.641L46.116 27.15L46.0696 27.135L47.4043 25.5795L47.2994 25.5435L45.85 27.0585L45.8012 27.0435L47.1408 25.4895L47.0334 25.452L45.5841 26.9685L45.5377 26.952L46.8748 25.398L46.7674 25.3605L45.3181 26.877L45.2717 26.8605L46.604 25.308L46.6406 25.2675C46.7446 25.1524 46.8846 25.051 47.0524 24.9693C47.2203 24.8875 47.4128 24.8269 47.6189 24.7909C47.8249 24.755 48.0405 24.7444 48.2532 24.7597C48.466 24.7751 48.6717 24.8162 48.8585 24.8805L60.268 28.7895C60.6436 28.9194 60.92 29.1356 61.0366 29.3907C61.1533 29.6457 61.1006 29.9188 60.8902 30.15Z" fill="#FFC727"/>
<path d="M73.3757 32.412C73.3757 32.412 70.0988 30.6405 67.8686 29.55C66.6242 28.938 64.3379 28.005 63.0886 27.813C61.2196 27.525 53.109 27.063 52.8821 28.263C52.6747 29.3565 59.7263 29.2155 59.7263 29.2155C59.7263 29.2155 52.5918 28.971 52.7357 30.3135C52.8797 31.656 60.8146 30.8475 60.8146 30.8475C60.8146 30.8475 53.4726 30.6975 53.9826 32.067C54.3632 33.102 61.6173 32.6175 61.6173 32.6175C61.6173 32.6175 55.3051 32.5155 55.6247 33.591C55.9761 34.779 62.7153 34.59 62.7153 34.59C64.2745 37.2405 66.634 38.211 68.6811 38.598C69.1569 38.682 73.3757 32.412 73.3757 32.412Z" fill="#D3766A"/>
<path d="M61.8662 29.19C56.6324 28.764 53.8532 29.5395 53.9337 29.5275C55.8369 29.259 58.8479 29.235 59.6872 29.2365C60.5266 29.238 61.0268 29.2095 61.8662 29.211C61.8881 29.211 61.8857 29.193 61.8662 29.19Z" fill="#263238"/>
<path d="M62.2492 31.062C59.7946 30.762 56.8812 30.912 55.8857 31.062C55.8076 31.074 55.8345 31.0905 55.9174 31.089C56.9862 31.074 61.1854 31.059 62.2614 31.074C62.2663 31.0785 62.2663 31.0635 62.2492 31.062Z" fill="#263238"/>
<path d="M62.7568 32.6595C60.529 32.4915 59.5018 32.5545 57.8304 32.7495C57.7523 32.76 57.7938 32.787 57.8792 32.784C59.514 32.7345 60.8072 32.6895 62.7592 32.694C62.7836 32.7 62.7909 32.661 62.7568 32.6595Z" fill="#263238"/>
<path d="M63.2155 35.343C63.4065 35.5834 63.62 35.8168 63.8548 36.042C64.0835 36.268 64.3328 36.4858 64.6014 36.6945C65.1279 37.1145 65.7434 37.4893 66.4314 37.809C66.6009 37.8896 66.7777 37.9642 66.9609 38.0325L67.2342 38.136C67.3294 38.169 67.427 38.196 67.5221 38.226L67.8076 38.316C67.9077 38.3508 68.0046 38.3888 68.098 38.43C68.281 38.505 68.4591 38.58 68.6372 38.6595C69.3497 38.9685 70.0573 39.282 70.7502 39.6105C70.3745 39.4725 70.0182 39.3285 69.6352 39.1875L68.5323 38.7555L67.9808 38.5395C67.8954 38.5065 67.7881 38.463 67.7173 38.442L67.4172 38.3535C67.3196 38.3235 67.2171 38.295 67.1195 38.2635L66.8365 38.157C66.6451 38.0882 66.4609 38.012 66.285 37.929C65.5798 37.6012 64.9616 37.208 64.4526 36.7635C63.9356 36.3273 63.5193 35.8493 63.2155 35.343Z" fill="#263238"/>
<path d="M79.9905 34.32L88.2474 37.5345C88.2474 37.5345 89.0307 33.228 88.9794 30.111C88.9282 26.994 87.3105 25.272 84.8314 28.107C82.3524 30.942 79.9905 34.32 79.9905 34.32Z" fill="#DBDBDB"/>
<path d="M81.1031 33.45C81.7375 33.639 82.3378 33.873 82.9404 34.0965C83.5431 34.32 84.1214 34.536 84.707 34.758C85.8953 35.208 87.086 35.658 88.2133 36.1635C88.2188 36.1663 88.2225 36.1703 88.2236 36.1747C88.2247 36.179 88.2232 36.1835 88.2193 36.1872C88.2153 36.1909 88.2093 36.1936 88.2024 36.1948C88.1954 36.196 88.188 36.1955 88.1815 36.1935C86.942 35.7975 85.7635 35.34 84.5777 34.8855C83.9921 34.6615 83.4097 34.4355 82.8306 34.2075C82.2377 33.9735 81.6301 33.7455 81.0738 33.4815C81.067 33.4791 81.0621 33.4752 81.06 33.4705C81.0579 33.4659 81.059 33.4609 81.0629 33.4568C81.0667 33.4526 81.0732 33.4495 81.0807 33.4483C81.0883 33.447 81.0963 33.4476 81.1031 33.45Z" fill="#263238"/>
<path d="M88.3914 36.141C88.4427 35.691 88.5061 35.2515 88.5744 34.809C88.7135 33.909 88.7964 33.009 88.9575 32.109C88.9575 32.097 88.9892 32.097 88.9892 32.109C88.9892 32.6475 88.9404 33.1845 88.8843 33.723C88.977 33.477 89.0697 33.231 89.1747 32.988C89.1747 32.973 89.221 32.976 89.2161 32.988C89.1722 33.168 89.1185 33.3465 89.0478 33.5235C88.9892 33.666 88.9258 33.8085 88.8623 33.951C88.8314 34.236 88.8005 34.52 88.7696 34.803C88.7232 35.253 88.6476 35.691 88.5891 36.135C88.5573 36.3765 88.3451 37.3275 88.3085 37.485C88.3085 37.5075 88.2474 37.506 88.2499 37.485C88.2792 37.248 88.3646 36.3675 88.3914 36.141Z" fill="#263238"/>
<path d="M80.8664 27.9225C82.2548 27.87 84.1165 26.0835 84.5094 24.9345C84.5362 24.855 84.0214 24.1725 83.448 23.3265C83.1088 22.812 82.7477 22.233 82.472 21.6915C82.4183 21.5805 81.901 21.8985 81.901 21.8985L80.8445 22.281L77.348 23.55C77.348 23.55 78.4484 24.585 78.9047 25.5315C78.9404 25.6064 78.9641 25.6833 78.9754 25.761C78.9754 25.7715 78.9754 25.785 78.9754 25.8C79.0926 26.2395 79.522 27.972 80.8664 27.9225Z" fill="#D3766A"/>
<path d="M78.9852 25.7565C78.9852 25.767 78.9852 25.7805 78.9852 25.7955C79.1815 25.7763 79.3749 25.7472 79.5635 25.7085C83.2625 24.9585 82.2963 21.9675 82.2963 21.9675L80.8445 22.281L77.348 23.55C77.348 23.55 78.4484 24.585 78.9047 25.5315C78.9432 25.6047 78.9702 25.6801 78.9852 25.7565Z" fill="#263238"/>
<path d="M80.886 17.373C81.5228 17.637 83.3577 17.4135 83.9921 16.788C84.8632 15.9285 83.0161 14.6205 81.3911 15.174C79.766 15.7275 80.3955 17.1705 80.886 17.373Z" fill="#263238"/>
<path d="M83.4602 15.3525C83.8503 15.5828 84.142 15.8688 84.3093 16.185C84.3866 16.3335 84.3878 16.493 84.3127 16.6419C84.2376 16.7908 84.0899 16.9219 83.8896 17.0175C83.6856 17.1199 83.4609 17.2056 83.2211 17.2725C82.9833 17.3442 82.7327 17.3986 82.4744 17.4345C81.9469 17.5124 81.3935 17.4909 80.886 17.373C81.373 17.5542 81.95 17.6213 82.511 17.562C82.7932 17.5349 83.0682 17.4844 83.3284 17.412C83.5922 17.3427 83.8386 17.2508 84.0604 17.139C84.2916 17.0218 84.4613 16.8653 84.5484 16.689C84.6234 16.5103 84.6072 16.3218 84.5021 16.149C84.2958 15.8241 83.9321 15.5461 83.4602 15.3525Z" fill="#263238"/>
<path d="M81.6326 17.9085C82.7282 19.0395 83.0966 22.731 81.9937 23.733C80.398 25.185 77.0844 25.8 74.908 24.525C72.79 23.2875 72.468 18.471 73.749 17.5155C75.64 16.11 80.0124 16.2375 81.6326 17.9085Z" fill="#D3766A"/>
<path d="M76.8917 21.057C76.8917 21.048 76.9259 21.0675 76.9259 21.078C76.9381 21.327 77.0235 21.612 77.3968 21.678C77.409 21.678 77.409 21.693 77.3968 21.6915C76.9454 21.672 76.8405 21.3 76.8917 21.057Z" fill="#263238"/>
<path d="M77.226 20.784C77.8726 20.727 78.0092 21.5265 77.409 21.579C76.8088 21.6315 76.6819 20.8305 77.226 20.784Z" fill="#263238"/>
<path d="M74.5981 21.159C74.5981 21.15 74.5688 21.1725 74.5688 21.183C74.6249 21.429 74.62 21.7185 74.2687 21.8235C74.2687 21.8235 74.2687 21.84 74.2687 21.837C74.7128 21.7695 74.7128 21.387 74.5981 21.159Z" fill="#263238"/>
<path d="M74.193 20.9235C73.5391 20.934 73.6245 21.7365 74.2296 21.726C74.8348 21.7155 74.742 20.913 74.193 20.9235Z" fill="#263238"/>
<path d="M77.6774 20.385C77.4944 20.3685 77.3309 20.3355 77.1528 20.3085C76.9633 20.2963 76.7854 20.2468 76.6453 20.1675C76.6081 20.1378 76.5879 20.1014 76.5879 20.064C76.5879 20.0266 76.6081 19.9902 76.6453 19.9605C76.7356 19.9098 76.8463 19.8748 76.966 19.8592C77.0857 19.8437 77.21 19.8481 77.326 19.872C77.5753 19.8974 77.8004 19.9786 77.958 20.1C77.9914 20.1289 78.0103 20.1631 78.0124 20.1985C78.0145 20.2339 77.9998 20.2689 77.9699 20.2992C77.9401 20.3294 77.8965 20.3537 77.8445 20.369C77.7926 20.3842 77.7344 20.3898 77.6774 20.385Z" fill="#263238"/>
<path d="M73.6221 20.55C73.7978 20.52 73.9539 20.475 74.1247 20.4345C74.3109 20.4086 74.478 20.3459 74.6005 20.256C74.6299 20.223 74.6408 20.1851 74.6315 20.1479C74.6223 20.1108 74.5934 20.0765 74.5493 20.0505C74.4494 20.0072 74.3325 19.981 74.2108 19.9747C74.089 19.9684 73.9666 19.9821 73.8563 20.0145C73.6168 20.0597 73.4133 20.1581 73.2854 20.2905C73.2589 20.3217 73.2478 20.3569 73.2533 20.3919C73.2588 20.4269 73.2807 20.4601 73.3163 20.4876C73.352 20.5151 73.3999 20.5356 73.4542 20.5467C73.5084 20.5578 73.5668 20.5589 73.6221 20.55Z" fill="#263238"/>
<path d="M77.7945 23.229C77.7091 23.2935 77.6262 23.379 77.4798 23.397C77.3302 23.4051 77.1796 23.3933 77.0381 23.3625C77.0352 23.3619 77.0321 23.3618 77.0291 23.3623C77.0261 23.3629 77.0235 23.364 77.0216 23.3654C77.0197 23.3669 77.0187 23.3688 77.0186 23.3707C77.0185 23.3726 77.0193 23.3744 77.0211 23.376C77.0871 23.4209 77.1715 23.454 77.2655 23.472C77.3595 23.4899 77.4596 23.492 77.5554 23.478C77.6356 23.4596 77.7051 23.427 77.7551 23.3842C77.805 23.3415 77.8332 23.2906 77.836 23.238C77.836 23.223 77.8067 23.22 77.7945 23.229Z" fill="#263238"/>
<path d="M77.2455 22.515C77.1598 22.6194 77.0399 22.7118 76.8933 22.7864C76.7468 22.861 76.5768 22.9162 76.3939 22.9485C76.2356 22.978 76.0713 22.9937 75.9059 22.995C75.8743 22.9972 75.8424 22.9972 75.8108 22.995H75.7205C75.6986 22.9934 75.6782 22.9876 75.662 22.9784C75.6458 22.9693 75.6346 22.9572 75.6302 22.944C75.629 22.9355 75.629 22.927 75.6302 22.9185V22.896C75.5887 22.7055 75.5692 22.4145 75.5692 22.4145C75.4618 22.4565 74.9104 22.653 74.9031 22.5525C74.8421 21.723 74.7762 20.799 75.0007 19.965C75.0028 19.9598 75.0077 19.9553 75.0146 19.952C75.0214 19.9487 75.0298 19.947 75.0385 19.947C75.0472 19.947 75.0556 19.9487 75.0624 19.952C75.0693 19.9553 75.0742 19.9598 75.0763 19.965C75.1861 20.7615 75.0763 21.5655 75.1544 22.365C75.3501 22.2929 75.5611 22.2379 75.7815 22.2015C75.8278 22.2015 75.8034 22.767 75.8327 22.851C75.8315 22.854 75.8315 22.857 75.8327 22.86C76.3598 22.8675 76.7355 22.746 77.2064 22.4985C77.2308 22.479 77.265 22.5 77.2455 22.515Z" fill="#263238"/>
<path d="M76.0694 22.8855C76.2618 23.0113 76.5039 23.1043 76.7721 23.1555C76.9202 23.1799 77.077 23.1757 77.2211 23.1435C77.5334 23.07 77.5114 22.8885 77.426 22.737C77.3788 22.6569 77.3165 22.5803 77.2406 22.509C76.9254 22.708 76.5151 22.8399 76.0694 22.8855Z" fill="#263238"/>
<path d="M76.7722 23.1555C76.9203 23.1799 77.077 23.1757 77.2211 23.1435C77.5334 23.07 77.5115 22.8885 77.4261 22.737C77.2566 22.7516 77.0999 22.8008 76.9813 22.8767C76.8628 22.9526 76.7891 23.0508 76.7722 23.1555Z" fill="#FF98B9"/>
<path opacity="0.3" d="M82.6501 21.72C82.5159 21.6315 80.62 20.361 79.888 19.6785C79.4854 19.3035 79.483 17.7285 79.483 17.685C79.5382 17.4127 79.7555 17.1626 80.093 16.983C80.7258 17.206 81.2558 17.5245 81.6326 17.9085C82.3134 18.6105 82.716 20.301 82.6501 21.72Z" fill="#263238"/>
<path d="M81.557 20.973C81.557 20.973 82.4427 19.6455 83.3943 19.815C84.3459 19.9845 83.9726 21.783 83.0625 22.149C82.9504 22.2005 82.8225 22.2375 82.6865 22.2579C82.5506 22.2783 82.4093 22.2815 82.2712 22.2675C82.1331 22.2535 82.0011 22.2225 81.883 22.1764C81.7649 22.1302 81.6631 22.0699 81.5838 21.999L81.557 20.973Z" fill="#D3766A"/>
<path d="M83.2674 20.328C83.282 20.328 83.2894 20.3385 83.2674 20.3445C82.633 20.6145 82.4134 21.063 82.306 21.51C82.4549 21.3225 82.7062 21.1965 83.1064 21.3015C83.1283 21.3015 83.1064 21.327 83.1064 21.327C82.9753 21.3201 82.8439 21.3382 82.7303 21.3791C82.6167 21.4199 82.5264 21.4814 82.472 21.555C82.3823 21.6787 82.3144 21.8079 82.2694 21.9405C82.2499 21.984 82.1304 21.978 82.1377 21.9315C82.1377 21.9315 82.1377 21.924 82.1377 21.921C81.9205 21.3765 82.3329 20.5155 83.2674 20.328Z" fill="#263238"/>
<path d="M80.8128 17.0235C81.5887 17.352 79.4781 18.1395 79.1292 18.2085C78.7803 18.2775 79.1585 17.772 79.1585 17.772C79.1585 17.772 78.1361 18.699 77.3553 18.9285C76.8029 19.0757 76.2169 19.1698 75.618 19.2075L76.594 18.432C76.594 18.432 74.642 19.59 73.3879 19.8C72.6354 19.9247 71.9645 20.1899 71.4676 20.559C71.4676 20.559 70.9357 18.7785 71.5847 18.177C72.0141 17.7874 72.5252 17.4344 73.1048 17.127L71.5091 17.4105C71.5091 17.4105 72.6925 16.764 73.5953 16.569C74.4981 16.374 76.472 16.332 76.472 16.332L75.1544 16.032C75.1544 16.032 76.3012 15.759 77.2235 15.852C78.0484 15.9655 78.8558 16.1226 79.6367 16.3215L78.6607 15.9225C78.6607 15.9225 79.5025 15.8655 79.949 16.1025C80.3955 16.3395 80.8128 17.0235 80.8128 17.0235Z" fill="#263238"/>
<path d="M78.9145 22.65C78.7381 22.5187 78.5198 22.4109 78.273 22.3335C78.0262 22.2561 77.7562 22.2107 77.4797 22.2C76.8613 22.1477 76.2315 22.2088 75.6692 22.3755C74.9372 22.6035 74.8055 22.9335 74.886 23.4975C74.9665 24.0615 75.3496 24.9075 75.701 25.083C76.0523 25.2585 77.409 25.533 78.3264 25.413C79.0585 25.3104 79.7269 25.0802 80.2516 24.75C80.6078 24.4845 79.2805 22.929 78.9145 22.65ZM78.4948 23.6655C78.1874 23.8213 77.8189 23.9247 77.4261 23.9655C76.9112 24.03 76.189 24.0075 75.9938 23.9175C75.7986 23.8275 75.5643 23.304 75.5204 23.0175C75.4765 22.731 75.5448 22.5555 75.9547 22.4385C76.2689 22.3518 76.6162 22.3206 76.9576 22.3485C77.1087 22.3535 77.2567 22.3767 77.3932 22.4168C77.5296 22.457 77.6519 22.5133 77.753 22.5825C77.9555 22.7175 78.6924 23.5215 78.4948 23.661V23.6655Z" fill="#263238"/>
<path d="M78.8803 25.5165L80.6298 27.5055L84.3532 24.573L85.7026 25.335C85.7026 25.335 82.3598 29.814 82.2988 29.6265L80.5688 27.927L78.7827 29.319L78.3655 26.169L78.8803 25.5165Z" fill="#DBDBDB"/>
<path d="M78.4338 27.7695C78.3923 27.2475 78.3264 26.7195 78.3264 26.202C78.3264 26.1825 78.3703 26.172 78.3825 26.193C78.6436 26.6805 78.7827 28.6755 78.8705 29.1495C78.9437 29.0895 80.5346 27.918 80.5566 27.933C80.9104 28.197 82.1792 29.433 82.2646 29.5485C82.7916 28.8375 84.8412 26.2485 85.4951 25.5585C85.4984 25.5541 85.5043 25.5507 85.5116 25.549C85.5189 25.5473 85.5271 25.5475 85.5342 25.5495C85.5413 25.5515 85.5468 25.5551 85.5496 25.5596C85.5523 25.5641 85.552 25.5691 85.5488 25.5735C85.1047 26.3235 82.4037 29.8065 82.3524 29.8005C81.6969 29.2203 81.0909 28.6195 80.5371 28.0005C80.2784 28.2495 78.6949 29.556 78.6753 29.4795C78.5447 28.9126 78.4641 28.3418 78.4338 27.7695Z" fill="#263238"/>
<path d="M73.6661 63.45H33.8501C33.6281 63.3255 33.4232 63.198 33.2304 63.069C31.1027 61.644 30.583 59.994 30.6903 58.569C30.7928 57.3832 31.2701 56.221 32.0958 55.1475H32.3593H32.6619H32.8668H33.1108L46.3844 54.9045H46.5333H46.6333L48.0363 54.879H48.1217L48.6292 54.87L49.2441 54.858H49.532C49.532 54.858 49.5149 55.044 49.5052 55.3185C49.5052 55.4295 49.5052 55.5555 49.5052 55.6905C49.5052 55.8255 49.5052 55.9455 49.5198 56.079C49.5314 56.376 49.582 56.672 49.6711 56.964C49.7022 57.1381 49.8198 57.302 50.0078 57.4335C50.0761 57.468 50.6276 57.5235 51.5206 57.6075L51.8305 57.636L52.1672 57.6675L53.5483 57.7995L53.6996 57.813H53.7508C54.5779 57.894 55.5051 57.99 56.4958 58.1025L56.8471 58.143C57.1741 58.1805 57.5084 58.221 57.8476 58.263L58.0013 58.281C58.5747 58.353 59.1627 58.431 59.7556 58.512C59.9996 58.545 60.2436 58.578 60.4876 58.614C61.2367 58.722 61.9956 58.8405 62.7495 58.968C67.7247 59.8155 72.49 61.098 73.5172 63.036C73.582 63.1718 73.6317 63.3101 73.6661 63.45Z" fill="#37474F"/>
<path d="M38.0982 63.45H37.5053C36.6221 63.1799 35.8214 62.8181 35.1385 62.3805C34.1409 61.7178 33.4457 60.9049 33.123 60.024C33.0889 59.943 33.0596 59.8605 33.0328 59.778L32.9815 59.6115C32.8795 59.2455 32.8191 58.8756 32.801 58.5045C32.7826 58.1669 32.7924 57.829 32.8302 57.492C32.8821 57.0043 32.9758 56.5186 33.1108 56.037L33.1548 55.887C33.1575 55.8832 33.1622 55.8801 33.1683 55.8782C33.1743 55.8763 33.1812 55.8757 33.1878 55.8766C33.1944 55.8775 33.2004 55.8798 33.2046 55.883C33.2088 55.8863 33.211 55.8903 33.2109 55.8945L33.167 56.0445C33.0962 56.2815 33.0303 56.52 32.9937 56.7585C32.8969 57.34 32.8732 57.9252 32.923 58.509C32.9613 58.9305 33.0551 59.3493 33.2036 59.7615C33.2328 59.847 33.267 59.931 33.3036 60.015C33.3402 60.099 33.389 60.201 33.4354 60.2925C34.0026 61.4355 35.2193 62.4151 36.8636 63.0525C37.2604 63.2016 37.6728 63.3344 38.0982 63.45Z" fill="#263238"/>
<path d="M72.8535 63.45H29.0824C28.1064 61.8165 28.082 60.093 28.3772 58.635C28.6228 57.4109 29.1197 56.2108 29.8559 55.0635L32.3447 55.0185H32.6497H32.7521H32.9961L46.4161 54.774H46.5211H46.6626L48.0046 54.7485H48.2071L48.6585 54.7395L49.2734 54.729C49.2734 54.729 49.2587 54.774 49.2295 54.8565C49.1758 55.0155 49.0684 55.3065 48.9098 55.698C48.7951 55.9755 48.6658 56.298 48.4853 56.6505C48.4316 56.7645 48.3755 56.8815 48.3169 57.0015C48.2217 57.186 48.1241 57.3765 48.0168 57.57C47.9533 57.6855 47.8875 57.801 47.8191 57.918C47.724 58.0845 47.6215 58.251 47.5141 58.419L47.4849 58.4685V58.4865L47.9411 58.5405L48.007 58.548L48.5511 58.6155C49.1392 58.689 49.9517 58.7925 50.9326 58.9275L51.2181 58.9665C51.8329 59.052 52.5088 59.148 53.2311 59.2545L54.3095 59.4165L54.617 59.463L55.327 59.574C55.8467 59.655 56.3811 59.742 56.9252 59.832L57.2815 59.8905L57.4132 59.913C58.2477 60.0525 59.109 60.2025 59.9825 60.363C63.4864 60.999 67.2147 61.7895 70.4428 62.7165L70.4941 62.7315C71.3139 62.9535 72.1069 63.1995 72.8535 63.45Z" fill="#37474F"/>
<path d="M50.8959 57.654C50.3323 57.7297 49.7816 57.8382 49.2514 57.978C48.6926 58.1085 48.1436 58.257 47.6068 58.4175C46.5523 58.7398 45.5269 59.0968 44.5349 59.487C44.5031 59.499 44.5349 59.5245 44.5666 59.5155C45.6158 59.1795 46.7016 58.878 47.7874 58.59L49.3563 58.1745C49.8976 58.0474 50.4277 57.9033 50.9447 57.7425C51.0106 57.72 50.974 57.645 50.8959 57.654Z" fill="#263238"/>
<path d="M49.7321 54.7065C49.5101 55.251 49.3149 55.8015 49.0611 56.3415C48.944 56.589 48.8293 56.841 48.678 57.081C48.5487 57.2835 48.3535 57.516 47.9728 57.561C47.5312 57.6135 47.4068 57.3825 47.4434 57.159C47.4824 56.9085 47.5873 56.6595 47.6654 56.409C47.7581 56.1255 47.8509 55.8435 47.9363 55.5585C47.9777 55.4175 48.0216 55.275 48.0607 55.1325C48.0607 55.0965 48.1119 54.825 48.1436 54.747C48.1436 54.747 48.1559 54.7605 48.1681 54.759H48.1851C48.1913 54.7586 48.197 54.7571 48.2018 54.7547C48.2066 54.7523 48.2101 54.7491 48.212 54.7455C48.216 54.738 48.216 54.7298 48.2121 54.7223C48.2082 54.7148 48.2004 54.7082 48.19 54.7035C48.1839 54.7009 48.1767 54.6995 48.1693 54.6995C48.1619 54.6995 48.1546 54.7009 48.1485 54.7035C48.0656 54.732 48.0583 54.8025 48.0314 54.8535C47.9607 54.9915 47.8875 55.1295 47.8216 55.269C47.6996 55.5285 47.5776 55.7895 47.4726 56.052C47.3677 56.3145 47.2604 56.577 47.1554 56.8395C47.0455 57.0319 47.0153 57.2381 47.0676 57.4395C47.1078 57.5359 47.1973 57.6217 47.323 57.6844C47.4487 57.7471 47.6038 57.7832 47.7654 57.7875C47.7508 57.8055 47.7313 57.8235 47.7191 57.8415C47.6801 57.8955 47.6508 57.9525 47.6191 58.0065C47.5873 58.0605 47.5532 58.119 47.5263 58.1775C47.5144 58.205 47.5063 58.2331 47.5019 58.2615C47.5019 58.293 47.5019 58.3245 47.5019 58.356C47.5 58.3664 47.504 58.377 47.5131 58.3859C47.5222 58.3948 47.5359 58.4015 47.5521 58.405C47.5682 58.4085 47.5858 58.4085 47.6019 58.405C47.6181 58.4016 47.6319 58.3949 47.641 58.386C47.6664 58.3596 47.6941 58.3341 47.724 58.3095C47.7501 58.2809 47.7713 58.2508 47.7874 58.2195C47.8167 58.164 47.8411 58.11 47.8655 58.0545C47.8899 57.999 47.9143 57.9435 47.9314 57.888C47.9485 57.8325 47.9314 57.8205 47.9484 57.7875C48.133 57.7767 48.3093 57.7352 48.4584 57.6675C48.7093 57.5364 48.8932 57.3634 48.9879 57.1695C49.1221 56.943 49.2319 56.7075 49.3295 56.475C49.6007 55.9007 49.7901 55.313 49.8956 54.7185C49.8955 54.7061 49.888 54.6941 49.8745 54.6848C49.861 54.6755 49.8425 54.6696 49.8224 54.6681C49.8024 54.6667 49.7821 54.6697 49.7655 54.6768C49.7488 54.6839 49.737 54.6944 49.7321 54.7065Z" fill="#263238"/>
<path d="M38.1811 56.04C38.1006 56.3115 38.0518 56.5845 37.9493 56.853C37.8469 57.1215 37.7346 57.3765 37.5931 57.633C37.4665 57.8811 37.2851 58.1173 37.0539 58.335C36.8107 58.5392 36.5206 58.7206 36.1925 58.8735C35.5663 59.1789 34.8633 59.4196 34.1112 59.586C33.7332 59.6703 33.3469 59.7399 32.9547 59.7945C32.7497 59.823 32.5423 59.8455 32.3349 59.862C32.1663 59.8655 32.0004 59.8895 31.8469 59.9325C31.8323 59.9382 31.8203 59.946 31.8119 59.9554C31.8036 59.9647 31.7992 59.9751 31.7992 59.9858C31.7992 59.9964 31.8036 60.0068 31.8119 60.0161C31.8203 60.0255 31.8323 60.0333 31.8469 60.039C32.1129 60.1185 32.4837 60.075 32.7668 60.057C33.0959 60.0362 33.4221 60.0006 33.7428 59.9505C34.3963 59.8439 35.0222 59.6813 35.6021 59.4675C36.1893 59.2638 36.7151 58.9994 37.1563 58.686C37.5696 58.3568 37.8535 57.9733 37.9859 57.5655C38.1916 57.0688 38.2828 56.5568 38.2568 56.0445C38.2536 56.0402 38.2486 56.0365 38.2423 56.0337C38.2361 56.031 38.2287 56.0293 38.2211 56.0289C38.2134 56.0284 38.2057 56.0292 38.1987 56.0311C38.1917 56.0331 38.1856 56.0362 38.1811 56.04Z" fill="#263238"/>
<path d="M31.742 63.45H31.5419C30.9379 62.5813 30.5607 61.6595 30.4244 60.7185C30.3183 60.0084 30.3012 59.2943 30.3731 58.5825C30.4561 57.6225 30.6513 56.664 30.8319 55.7085C30.8319 55.686 30.8904 55.6935 30.8855 55.7085C30.805 56.124 30.7221 56.541 30.6415 56.958C30.5561 57.4815 30.4903 58.023 30.4634 58.5705C30.3878 60.2475 30.6464 61.974 31.742 63.45Z" fill="#263238"/>
<path d="M72.8096 63.45H72.6022C69.769 62.5885 66.8592 61.8258 63.8865 61.1655C62.5852 60.8745 61.2839 60.605 59.9825 60.357C59.1334 60.195 58.2794 60.0425 57.4205 59.8995L57.2912 59.8785L56.9301 59.8185C56.3884 59.7305 55.8459 59.646 55.3026 59.565L54.6316 59.466L54.3266 59.4225L53.5458 59.316L53.2237 59.274C52.5503 59.1855 51.8744 59.1045 51.1961 59.0265L50.8862 58.992C50.1168 58.907 49.3474 58.825 48.578 58.746L47.58 58.65C47.4482 58.6365 47.4824 58.5 47.6166 58.5L47.9509 58.524H48.0265L48.556 58.563C49.3758 58.6275 50.1932 58.7055 50.996 58.794L51.2668 58.8255C51.9435 58.9005 52.617 58.983 53.2872 59.073L54.2314 59.202L54.5438 59.247C54.9439 59.306 55.3441 59.3665 55.7443 59.4285C56.1737 59.4945 56.6015 59.563 57.0277 59.634L57.2083 59.664L57.3986 59.6955L58.2013 59.832C58.8186 59.94 59.436 60.051 60.0508 60.1695C62.9043 60.7092 65.701 61.3564 68.4249 62.1075C69.1049 62.2955 69.7775 62.491 70.4428 62.694L70.4941 62.709C71.27 62.9535 72.041 63.201 72.8096 63.45Z" fill="#263238"/>
<path d="M53.2945 57.5115C52.6991 57.8445 27.2987 58.749 27.1865 58.6455C27.0742 58.542 32.8766 41.7765 42.0217 39.462C43.471 39.096 47.336 39.222 47.7776 39.5535C51.445 42.3075 53.68 57.3 53.2945 57.5115Z" fill="#EBEBEB"/>
<path d="M45.8574 43.368L47.009 42.0255L48.6243 43.047L48.2925 44.1L46.7504 44.25L45.8574 43.368Z" fill="#263238"/>
<path d="M46.7504 44.25L46.5235 54.9525L49.3563 57.3705L51.4523 54.42L48.2925 44.1L46.7504 44.25Z" fill="#263238"/>
<path d="M27.1865 58.65C27.2987 58.755 52.6991 57.8475 53.2945 57.516C53.6385 57.327 51.8158 44.8095 48.7 40.536C49.1587 41.829 50.02 44.886 48.944 47.322C45.7083 45.0622 43.0985 42.491 41.2189 39.711C32.5374 42.75 27.084 58.557 27.1865 58.65Z" fill="#A6A6A6"/>
<path d="M46.5528 41.8845C45.1302 41.982 43.0148 40.5045 42.2852 39.3825C42.2364 39.3045 42.5682 38.5575 42.9001 37.638C43.0977 37.08 43.2978 36.4545 43.4125 35.877L49.1367 37.2C49.1367 37.2 48.3169 38.3685 48.1266 39.378C48.1145 39.4578 48.1145 39.5382 48.1266 39.618C48.1278 39.6315 48.1278 39.645 48.1266 39.6585C48.1485 40.1175 47.9265 41.79 46.5528 41.8845Z" fill="#F7A9A0"/>
<path d="M43.8004 35.9655C43.8395 36.8145 44.2201 39.339 47.5092 39.633C47.712 39.6508 47.9168 39.6588 48.1217 39.657C48.1204 39.644 48.1204 39.631 48.1217 39.618C48.1071 39.5383 48.1071 39.4577 48.1217 39.378C48.3095 38.3685 49.1318 37.2 49.1318 37.2L43.8004 35.9655Z" fill="#263238"/>
<path d="M41.3799 32.4195C41.0725 33.7605 43.1221 37.35 44.813 38.031C47.2677 39.0165 50.8105 38.79 52.0549 37.044C53.2603 35.3505 50.4543 30.702 48.6097 30.1125C45.8891 29.25 41.8313 30.438 41.3799 32.4195Z" fill="#F7A9A0"/>
<path opacity="0.3" d="M51.889 34.029C52.377 35.2185 52.5283 36.384 52.033 37.0665C50.7739 38.808 47.2262 39.0165 44.7837 38.025C44.2957 37.8225 43.7663 37.3725 43.2783 36.798C42.948 36.1883 42.6863 35.5653 42.495 34.9335C42.4218 34.572 43.5393 34.554 43.5393 34.554C43.6565 34.935 44.3128 35.6835 44.8521 35.913C45.7549 36.2985 47.2555 35.9745 47.7654 35.8365C48.2754 35.6985 49.1806 35.202 50.3225 35.2005C50.8301 35.2005 51.362 35.334 51.7377 35.124C52.1135 34.914 51.9037 34.0845 51.889 34.029Z" fill="#263238"/>
<path d="M48.1363 34.137C48.1363 34.1295 48.1144 34.1565 48.1192 34.1655C48.2778 34.401 48.395 34.6875 48.0924 34.8465C48.0924 34.8465 48.0924 34.863 48.0924 34.86C48.5072 34.7235 48.3486 34.35 48.1363 34.137Z" fill="#263238"/>
<path d="M47.6386 33.969C46.9993 34.083 47.419 34.869 48.0119 34.7565C48.6048 34.644 48.1778 33.873 47.6386 33.969Z" fill="#263238"/>
<path d="M50.2908 33.669C50.2908 33.6585 50.3274 33.669 50.3323 33.684C50.4494 33.9285 50.652 34.1955 51.0497 34.203C51.0619 34.203 51.0668 34.2165 51.0497 34.218C50.6007 34.269 50.3372 33.912 50.2908 33.669Z" fill="#263238"/>
<path d="M50.508 33.345C51.1253 33.1875 51.5938 33.957 51.0229 34.095C50.4519 34.233 49.9883 33.4785 50.508 33.345Z" fill="#263238"/>
<path d="M46.948 33.714C47.0985 33.6497 47.2435 33.5806 47.3823 33.507C47.5458 33.4275 47.6922 33.3735 47.7581 33.2445C47.7712 33.2071 47.7636 33.1681 47.7367 33.1336C47.7098 33.0991 47.6649 33.0711 47.6093 33.054C47.4901 33.0306 47.363 33.0269 47.2408 33.0435C47.1187 33.0601 47.0058 33.0964 46.9139 33.1485C46.7029 33.2367 46.5525 33.3697 46.4917 33.522C46.4812 33.5574 46.4875 33.5939 46.51 33.6271C46.5325 33.6603 46.5701 33.6888 46.6184 33.7091C46.6667 33.7295 46.7235 33.7407 46.7821 33.7416C46.8406 33.7425 46.8982 33.7329 46.948 33.714Z" fill="#263238"/>
<path d="M50.7862 32.85C50.6007 32.868 50.425 32.865 50.2372 32.8725C50.0466 32.8961 49.8487 32.8808 49.6735 32.829C49.623 32.8063 49.5864 32.7739 49.5696 32.7369C49.5528 32.6999 49.5567 32.6605 49.5808 32.625C49.6439 32.5589 49.7347 32.5045 49.8437 32.4673C49.9527 32.4301 50.0759 32.4115 50.2006 32.4135C50.454 32.3926 50.711 32.4312 50.9204 32.5215C50.9668 32.5434 51.0019 32.5732 51.0211 32.6072C51.0404 32.6412 51.0431 32.6779 51.0288 32.7129C51.0146 32.7478 50.984 32.7794 50.9409 32.8037C50.8977 32.8281 50.844 32.8442 50.7862 32.85Z" fill="#263238"/>
<path d="M48.7146 36.36C48.8269 36.411 48.9415 36.486 49.0904 36.4815C49.2434 36.4687 49.39 36.4354 49.5198 36.384C49.5226 36.3832 49.5256 36.3829 49.5286 36.3833C49.5316 36.3836 49.5343 36.3844 49.5365 36.3858C49.5386 36.3871 49.5401 36.3888 49.5406 36.3906C49.5411 36.3924 49.5407 36.3943 49.5393 36.396C49.4915 36.4498 49.4208 36.4946 49.3349 36.5258C49.2491 36.5569 49.1511 36.5732 49.0513 36.573C48.965 36.566 48.884 36.5435 48.8184 36.5082C48.7529 36.473 48.7057 36.4267 48.6829 36.375C48.6683 36.36 48.7 36.3525 48.7146 36.36Z" fill="#263238"/>
<path d="M48.8366 35.565C48.988 35.6401 49.1631 35.6953 49.3507 35.727C49.5383 35.7588 49.7346 35.7664 49.9273 35.7495C50.0953 35.7349 50.2594 35.7067 50.4153 35.6655C50.447 35.658 50.5568 35.625 50.5861 35.6145C50.6057 35.6077 50.6211 35.5971 50.6299 35.5843C50.6387 35.5716 50.6405 35.5574 50.6349 35.544L50.3323 35.0325C50.4592 35.0445 51.1082 35.085 51.0472 34.989C50.5348 34.2015 49.9687 33.324 49.1879 32.6055C49.1824 32.6012 49.1746 32.5982 49.1658 32.597C49.1571 32.5958 49.148 32.5965 49.1399 32.599C49.1319 32.6014 49.1256 32.6055 49.1219 32.6105C49.1182 32.6155 49.1174 32.6212 49.1196 32.6265C49.5613 33.396 50.2225 34.113 50.6861 34.8765C50.4547 34.8594 50.2205 34.8629 49.9907 34.887C49.9687 34.887 50.3884 35.508 50.3884 35.514C49.9004 35.664 49.4685 35.64 48.861 35.5305C48.8244 35.5275 48.8 35.55 48.8366 35.565Z" fill="#263238"/>
<path d="M50.1762 35.5935C50.0794 35.7582 49.9156 35.9048 49.7004 36.0195C49.5805 36.0796 49.4327 36.1148 49.2783 36.12C48.9415 36.132 48.8415 35.9565 48.8195 35.796C48.8101 35.7098 48.8167 35.6233 48.8391 35.538C49.264 35.6431 49.7322 35.6625 50.1762 35.5935Z" fill="#263238"/>
<path d="M49.7004 36.0195C49.5805 36.0796 49.4327 36.1148 49.2782 36.12C48.9415 36.132 48.8415 35.9565 48.8195 35.796C48.9858 35.7666 49.1634 35.7727 49.3233 35.8133C49.4833 35.8539 49.6162 35.9266 49.7004 36.0195Z" fill="#FF9CBD"/>
<path d="M43.0075 35.298C44.0371 35.1285 43.4174 33.576 43.4174 33.576C43.4174 33.576 44.9497 33.201 45.284 31.764C45.284 31.764 47.5898 32.298 49.2417 31.8915C51.8305 31.2555 51.0473 29.1165 49.8956 28.8045C48.2657 28.3635 46.0257 29.5845 46.0257 29.5845C46.0257 29.5845 41.968 29.4 41.3483 31.1475C40.8574 31.2315 40.4366 31.4268 40.1708 31.6941C39.905 31.9613 39.8139 32.2806 39.916 32.5875C40.1819 33.765 42.2389 35.4225 43.0075 35.298Z" fill="#263238"/>
<path d="M43.105 33.807C43.8502 33.6282 44.4783 33.3028 44.8911 32.8815C45.301 32.4315 45.4181 31.821 45.0253 31.359C45.0033 31.3335 45.0717 31.314 45.0912 31.341C45.4621 31.863 45.5938 32.43 45.1815 32.961C44.9964 33.2074 44.7091 33.4196 44.3485 33.5763C43.9879 33.7329 43.5666 33.8285 43.127 33.8535C43.0855 33.855 43.0611 33.8175 43.105 33.807Z" fill="#263238"/>
<path d="M39.5524 31.9215C39.9452 31.443 40.7334 31.278 41.5361 31.1955C41.5825 31.1955 41.5947 31.236 41.5483 31.239C40.7431 31.2825 40.0575 31.704 39.7793 32.151C39.5012 32.598 39.7574 33.066 40.0624 33.474C40.6431 34.263 41.6783 34.8919 42.9684 35.2395C42.9715 35.2412 42.9737 35.2434 42.9746 35.2459C42.9755 35.2484 42.9752 35.2509 42.9735 35.2533C42.9719 35.2556 42.9691 35.2576 42.9656 35.2589C42.962 35.2602 42.9579 35.2607 42.9538 35.2605C42.2289 35.0916 41.5675 34.8337 41.01 34.5026C40.4525 34.1715 40.0105 33.774 39.711 33.3345C39.4255 32.901 39.1913 32.364 39.5524 31.9215Z" fill="#263238"/>
<path d="M45.9452 29.6745C46.1729 29.298 46.6163 28.9854 47.1921 28.7955C47.8969 28.5779 48.7077 28.5282 49.4686 28.656C49.7728 28.7123 50.0474 28.817 50.2647 28.9595C50.4819 29.102 50.634 29.2772 50.7057 29.4675C50.9009 29.9085 50.7057 30.3675 50.4056 30.7755C50.404 30.7771 50.4019 30.7783 50.3993 30.7792C50.3968 30.7801 50.3939 30.7806 50.3909 30.7806C50.388 30.7806 50.3851 30.7801 50.3825 30.7792C50.3799 30.7783 50.3778 30.7771 50.3763 30.7755C50.6322 30.4038 50.6961 29.9927 50.5593 29.598C50.4885 29.4107 50.3334 29.2394 50.1115 29.1039C49.8897 28.9683 49.6102 28.8739 49.3051 28.8315C48.1022 28.668 46.504 28.9185 46.0111 29.6985C46.0059 29.7039 45.9975 29.7078 45.9877 29.7093C45.9778 29.7109 45.9674 29.7099 45.9586 29.7067C45.9499 29.7036 45.9436 29.6984 45.9411 29.6923C45.9386 29.6863 45.9401 29.6799 45.9452 29.6745Z" fill="#263238"/>
<path d="M43.4588 35.277C43.4588 35.277 41.7508 34.227 40.9651 34.629C40.1795 35.031 41.6971 36.6375 42.7951 36.7605C42.9347 36.7822 43.0799 36.7863 43.222 36.7725C43.3642 36.7588 43.5004 36.7275 43.6223 36.6806C43.7443 36.6336 43.8495 36.572 43.9317 36.4993C44.0139 36.4267 44.0713 36.3446 44.1005 36.258L43.4588 35.277Z" fill="#F7A9A0"/>
<path d="M41.419 35.085C41.4044 35.085 41.4044 35.1 41.419 35.103C42.1949 35.2035 42.6976 35.574 43.088 35.973C42.8244 35.832 42.5048 35.7735 42.1925 35.973C42.1754 35.9835 42.1925 36 42.2193 35.9955C42.3392 35.9563 42.476 35.941 42.6107 35.9518C42.7453 35.9625 42.8712 35.9988 42.9708 36.0555C43.1365 36.1507 43.2846 36.2569 43.4125 36.372C43.4588 36.408 43.5686 36.372 43.532 36.33V36.321C43.3759 35.748 42.4267 35.0325 41.419 35.085Z" fill="#263238"/>
<path d="M48.1022 39.4605L46.826 41.6235L42.3608 39.0135L41.1872 39.9135C41.1872 39.9135 45.6451 44.1135 45.6622 43.9215L46.9895 42.051L49.127 43.2885L48.7805 40.0785L48.1022 39.4605Z" fill="#EBEBEB"/>
<path d="M49.1025 41.688C49.0147 41.1585 48.9537 40.6245 48.8268 40.0995C48.8268 40.08 48.7731 40.0725 48.7683 40.0995C48.6243 40.6155 48.9708 42.636 48.9927 43.122C48.9025 43.068 47.0139 42.036 46.9968 42.0525C46.704 42.3525 45.728 43.713 45.6621 43.836C44.957 43.17 42.2608 40.746 41.4361 40.1175C41.4319 40.1133 41.4251 40.1103 41.4173 40.1092C41.4096 40.1081 41.4014 40.1089 41.3946 40.1115C41.3878 40.1141 41.3829 40.1182 41.3811 40.123C41.3793 40.1278 41.3806 40.1328 41.3848 40.137C42.0143 40.845 45.5865 44.109 45.6377 44.0985C46.1559 43.4552 46.6193 42.7959 47.0261 42.123C47.3482 42.3495 49.2611 43.5195 49.2611 43.44C49.2589 42.8547 49.2059 42.2699 49.1025 41.688Z" fill="#263238"/>
<path d="M39.7281 41.64C35.5801 46.5075 30.7928 53.76 33.367 55.3425C35.9412 56.925 43.9932 59.4345 50.203 59.5425C51.4059 59.562 52.887 53.2425 51.6036 53.184C48.2632 53.0385 41.7704 51.3 41.2702 51C41.0262 50.85 43.4906 45.246 43.9859 42.15C44.5813 38.4 42.212 38.7285 39.7281 41.64Z" fill="#F7A9A0"/>
<path d="M47.7606 52.911C47.7606 52.911 48.395 52.9755 51.8354 52.977C54.2144 52.977 60.0069 53.9175 62.4396 57.7455C63.3692 59.2125 62.1029 60.255 60.695 58.8375C59.7019 57.8385 59.1554 57.093 58.682 56.823C58.682 56.823 58.3209 58.6005 56.8349 59.0925C55.5338 59.5213 54.1852 59.8932 52.7992 60.2055C52.6471 60.0613 52.511 59.9109 52.3917 59.7555C51.7778 59.9186 51.1014 59.9717 50.4405 59.9088C49.7796 59.8459 49.161 59.6695 48.656 59.4L47.7606 52.911Z" fill="#F7A9A0"/>
<path d="M54.1046 53.202C55.044 53.706 57.0033 54.7965 58.1037 56.031C59.3237 57.402 61.0732 60.246 59.4165 60.789C58.1965 61.188 57.3791 60.138 57.3791 60.138C57.3791 60.138 57.7011 61.407 56.4763 61.62C55.3587 61.8135 54.8024 60.978 54.8024 60.978C54.8024 60.978 54.7805 61.7685 53.6459 61.827C52.2843 61.899 52.5503 60.231 51.0692 59.5695C50.7349 59.421 54.1046 53.202 54.1046 53.202Z" fill="#F7A9A0"/>
<path d="M55.532 56.5815C56.2859 57.1455 57.4693 58.6965 57.4083 60.111C57.4083 60.1425 57.3669 60.159 57.3571 60.1305C56.9782 58.9082 56.3579 57.7189 55.51 56.589C55.5027 56.5815 55.5222 56.5755 55.532 56.5815Z" fill="#263238"/>
<path d="M53.314 57.3795C53.885 57.9075 54.9903 59.5395 54.8463 60.9705C54.8463 61.0035 54.8024 61.0185 54.7951 60.9885C54.5167 59.7575 54.0125 58.5498 53.292 57.3885C53.2872 57.378 53.3067 57.3735 53.314 57.3795Z" fill="#263238"/>
<path d="M49.3905 52.6755L46.848 59.8635C46.848 59.8635 33.8087 56.85 32.696 54.9135C31.5834 52.977 35.5045 45.825 39.3889 41.6565C43.2734 37.488 44.4666 39.3135 44.1591 42.5325C43.8517 45.7515 41.6289 50.601 41.7045 50.8065C41.7801 51.012 49.3905 52.6755 49.3905 52.6755Z" fill="#A6A6A6"/>
<path d="M47.2067 52.65C46.5845 54.213 46.0648 55.7925 45.5475 57.3705C45.4011 57.8205 45.2669 58.263 45.1107 58.7085C45.1121 58.7108 45.1146 58.7128 45.1179 58.7142C45.1211 58.7156 45.125 58.7163 45.129 58.7163C45.133 58.7163 45.1369 58.7156 45.1402 58.7142C45.1434 58.7128 45.1459 58.7108 45.1473 58.7085C45.4596 57.927 45.8061 57.1515 46.1014 56.367C46.3966 55.5825 46.6674 54.7935 46.9066 54.0015C47.0408 53.5515 47.1798 53.1015 47.2921 52.6515C47.2901 52.6456 47.2848 52.6402 47.2773 52.6363C47.2697 52.6324 47.2602 52.6302 47.2503 52.63C47.2405 52.6299 47.2308 52.6317 47.2229 52.6354C47.215 52.639 47.2092 52.6441 47.2067 52.65Z" fill="#263238"/>
<path d="M43.9029 45.3825C43.7858 45.5825 43.6663 45.7825 43.5443 45.9825C43.4955 46.065 43.4418 46.149 43.3881 46.233C43.4711 45.9645 43.5516 45.6975 43.6321 45.429C43.7297 45.06 43.8346 44.6895 43.9029 44.3175C43.9029 44.3055 43.8737 44.301 43.8688 44.3175C43.5735 44.9475 43.3613 45.5925 43.1368 46.233C42.9123 46.8735 42.7195 47.5335 42.5292 48.183C42.4755 48.363 42.4292 48.5445 42.3853 48.726C42.3317 48.902 42.2951 49.0798 42.2755 49.2585C42.2755 49.2617 42.2775 49.2647 42.2812 49.267C42.2848 49.2692 42.2898 49.2705 42.295 49.2705C42.3001 49.2705 42.3051 49.2692 42.3088 49.267C42.3124 49.2647 42.3145 49.2617 42.3145 49.2585C42.4733 48.9591 42.6021 48.6541 42.7 48.345C42.8196 48.0255 42.9196 47.7045 43.027 47.3835C43.1343 47.0625 43.2246 46.7835 43.3198 46.4835C43.4514 46.3251 43.5647 46.1612 43.6589 45.993C43.7746 45.797 43.8691 45.5966 43.942 45.393C43.9395 45.378 43.92 45.372 43.9029 45.3825Z" fill="#263238"/>
<path d="M75.1325 63.45H28.0405C27.0645 61.6965 26.2276 59.55 26.6424 57.783C27.1304 55.728 29.3947 51.444 32.1275 47.583C34.3015 44.5065 36.7635 41.697 38.8668 40.4925C40.7456 39.411 42.112 38.9295 42.2218 38.8425C42.3316 38.7555 42.5317 38.136 42.5853 38.079C42.5853 38.079 42.6439 38.079 42.7415 38.079C43.0636 38.1135 43.8468 38.229 44.7325 38.3655C46.1258 38.5845 47.7703 38.859 48.2413 38.9655C48.2883 38.9733 48.3329 38.986 48.373 39.003C48.4682 39.0885 48.861 39.9465 48.9123 40.008C48.9635 40.0695 52.8773 49.38 53.0383 49.779C53.1993 50.178 59.8947 51.7425 63.8304 54.702C67.7661 57.6615 73.0731 60.402 73.8076 61.551C74.2077 62.2005 74.7397 62.9325 75.1325 63.45Z" fill="#FFC727"/>
<path opacity="0.1" d="M37.332 41.988C37.0958 42.0415 36.8699 42.111 36.6585 42.195L36.6122 42.2385C36.8855 42.2199 37.1537 42.1796 37.4101 42.1185C37.6888 42.0589 37.9519 41.9745 38.1909 41.868C37.8968 41.883 37.6077 41.9234 37.332 41.988ZM50.508 43.788L50.3835 43.842C50.4318 43.8406 50.4798 43.8376 50.5275 43.833C50.508 43.812 50.508 43.8 50.508 43.782V43.788ZM43.432 46.689C43.1535 46.7507 42.8899 46.8355 42.6487 46.941C42.9447 46.9274 43.2358 46.887 43.5125 46.821C43.7912 46.76 44.0542 46.6746 44.2933 46.5675C43.9988 46.5812 43.7089 46.62 43.432 46.683V46.689ZM39.772 53.16C39.4932 53.2196 39.2301 53.304 38.9912 53.4105C39.5817 53.3769 40.1473 53.248 40.6309 53.037C40.3364 53.0523 40.0471 53.0937 39.772 53.16ZM33.7403 48.6225C33.4621 48.6832 33.1999 48.7686 32.9619 48.876C33.2563 48.8612 33.5456 48.8203 33.8208 48.7545C34.1002 48.6944 34.3634 48.609 34.6016 48.501C34.304 48.5154 34.0114 48.5563 33.733 48.6225H33.7403ZM39.9794 57.312C39.701 57.3724 39.4387 57.4578 39.201 57.5655C39.4955 57.5502 39.7848 57.5088 40.0599 57.4425C40.3397 57.3831 40.6031 57.2976 40.8407 57.189C40.543 57.2039 40.2504 57.2453 39.9721 57.312H39.9794ZM47.9557 60.1065C47.6782 60.1681 47.4162 60.2535 47.1774 60.36C47.4718 60.3447 47.7611 60.3033 48.0363 60.237C48.3156 60.1775 48.5788 60.0925 48.8171 59.985C48.5195 59.9994 48.2268 60.0403 47.9484 60.1065H47.9557ZM47.6532 52.9725C47.3753 53.033 47.1131 53.1179 46.8748 53.2245C47.4651 53.1891 48.0302 53.0599 48.5145 52.8495C48.2168 52.8644 47.9242 52.9058 47.6459 52.9725H47.6532ZM55.3807 56.1465C55.1029 56.2078 54.8408 56.2932 54.6023 56.4C54.8959 56.3845 55.1844 56.3431 55.4587 56.277C55.7391 56.2179 56.0032 56.1329 56.242 56.025C55.9442 56.0386 55.6514 56.0796 55.3733 56.1465H55.3807ZM62.464 53.8065C62.3846 53.8352 62.308 53.8668 62.2346 53.901C62.3488 53.8964 62.4622 53.8864 62.5738 53.871L62.464 53.8065ZM68.1955 59.7C67.9176 59.761 67.6554 59.8464 67.4172 59.9535C67.7116 59.9382 68.0009 59.8968 68.2761 59.8305C68.5559 59.7711 68.8192 59.6856 69.0569 59.577C68.7616 59.5923 68.4715 59.6337 68.1955 59.7ZM32.9961 53.3295C32.8949 53.1587 32.7561 52.9972 32.5837 52.8495C32.6086 53.031 32.676 53.2093 32.7838 53.379C32.8803 53.5508 33.0185 53.7126 33.1937 53.859C33.1705 53.6775 33.1039 53.4991 32.9961 53.3295ZM34.3381 57.8505C34.2387 57.6795 34.1007 57.5179 33.9282 57.3705C33.9536 57.5518 34.0201 57.73 34.1258 57.9C34.2245 58.072 34.3634 58.2342 34.5382 58.3815C34.5133 58.1995 34.4459 58.0207 34.3381 57.8505ZM27.3865 61.41C27.2873 61.2382 27.1484 61.076 26.9742 60.9285C26.9991 61.1105 27.0665 61.2893 27.1743 61.4595C27.271 61.6315 27.41 61.7934 27.5866 61.9395C27.5617 61.758 27.4943 61.5797 27.3865 61.41ZM38.3812 63.0075C38.2823 62.8363 38.1443 62.6747 37.9713 62.5275C37.9945 62.709 38.0611 62.8874 38.1689 63.057C38.2497 63.1965 38.3562 63.3298 38.4861 63.4545H38.5691C38.5342 63.3016 38.4711 63.1516 38.3812 63.0075ZM43.227 50.5935C43.1293 50.4217 42.9903 50.2599 42.8147 50.1135C42.8408 50.2944 42.9081 50.4721 43.0147 50.6415C43.1125 50.8129 43.2507 50.9747 43.4247 51.1215C43.402 50.9404 43.3354 50.7625 43.227 50.5935ZM52.1208 58.0305C52.024 57.8588 51.8858 57.697 51.7109 57.5505C51.7374 57.7312 51.8039 57.9089 51.9085 58.0785C52.0082 58.2497 52.1471 58.4113 52.3209 58.5585C52.2963 58.3775 52.2289 58.1996 52.1208 58.0305ZM55.2147 53.2005C55.1186 53.0283 54.9795 52.8664 54.8024 52.7205C54.829 52.9013 54.8964 53.079 55.0025 53.2485C55.1002 53.4203 55.2392 53.5821 55.4148 53.7285C55.3902 53.5475 55.3228 53.3696 55.2147 53.2005ZM63.1594 56.673C63.0626 56.5013 62.9244 56.3395 62.7495 56.193C62.7759 56.3737 62.8424 56.5514 62.9471 56.721C63.0468 56.8922 63.1856 57.0538 63.3595 57.201C63.3348 57.02 63.2674 56.8421 63.1594 56.673ZM69.4058 62.3895C69.3091 62.217 69.17 62.0546 68.9934 61.908C69.0207 62.0888 69.088 62.2664 69.1935 62.436C69.2922 62.608 69.4311 62.7702 69.6059 62.9175C69.5815 62.7364 69.5141 62.5585 69.4058 62.3895ZM39.6085 44.6895C39.5073 44.5192 39.3685 44.3582 39.1961 44.211C39.2202 44.3919 39.2868 44.5698 39.3938 44.739C39.4926 44.9102 39.6306 45.0718 39.8037 45.219C39.7807 45.0371 39.7149 44.8583 39.6085 44.688V44.6895ZM40.1209 39.9165C40.1038 39.891 40.0892 39.8655 40.0697 39.84L39.8867 39.9345L39.9062 39.966C40.005 40.1372 40.143 40.2988 40.3161 40.446C40.2942 40.264 40.2285 40.0851 40.1209 39.915V39.9165ZM47.5263 41.3175C47.427 41.1462 47.2882 40.9845 47.1139 40.8375C47.1388 41.019 47.2062 41.1973 47.314 41.367C47.4125 41.5384 47.5497 41.7005 47.7215 41.8485C47.6996 41.666 47.6339 41.4866 47.5263 41.316V41.3175ZM45.4133 38.676C45.1458 38.5995 44.8626 38.546 44.5715 38.517C44.7971 38.6348 45.0495 38.7318 45.3205 38.805C45.5866 38.884 45.8703 38.9381 46.1623 38.9655C45.9357 38.8477 45.6836 38.7498 45.4133 38.6745V38.676ZM36.6146 51.06C36.3476 50.9812 36.0631 50.9272 35.7704 50.8995C36.2305 51.1305 36.7789 51.2854 37.3637 51.3495C37.138 51.231 36.8857 51.133 36.6146 51.0585V51.06ZM52.3282 48.1245C52.1834 48.0937 52.0337 48.0721 51.8817 48.06C52.0379 48.1423 52.2091 48.2132 52.3917 48.2715C52.3721 48.222 52.3502 48.1725 52.3282 48.123V48.1245ZM30.0266 55.7535C29.7585 55.6752 29.4733 55.6211 29.1799 55.593C29.6376 55.8264 30.1871 55.9816 30.7733 56.043C30.548 55.9248 30.2966 55.8268 30.0266 55.752V55.7535ZM47.5336 49.5C47.265 49.4224 46.98 49.3684 46.6869 49.3395C46.913 49.457 47.1653 49.554 47.436 49.6275C47.7032 49.7047 47.9865 49.7587 48.2778 49.788C48.0539 49.6703 47.8032 49.5732 47.5336 49.5ZM47.336 56.667C47.0667 56.5905 46.7819 56.5365 46.4893 56.5065C46.7159 56.6239 46.968 56.7214 47.2384 56.796C47.5067 56.8728 47.7907 56.9268 48.0826 56.9565C47.8569 56.8391 47.6056 56.7416 47.336 56.667ZM59.4579 54.8745C59.1903 54.7967 58.906 54.7426 58.6137 54.714C58.8393 54.8318 59.0917 54.9288 59.3627 55.002C59.6296 55.0796 59.913 55.1337 60.2045 55.1625C59.9816 55.0454 59.7327 54.9484 59.4652 54.8745H59.4579ZM63.0959 59.7525C62.8278 59.6758 62.5437 59.6223 62.2517 59.5935C62.4774 59.7113 62.7297 59.8083 63.0008 59.8815C63.2677 59.9591 63.5511 60.0132 63.8426 60.042C63.6195 59.9246 63.3706 59.8272 63.1033 59.7525H63.0959ZM45.4059 43.809C45.1394 43.7312 44.8558 43.6776 44.5641 43.65C44.7905 43.7668 45.0427 43.8633 45.3132 43.9365C45.5796 44.0153 45.8631 44.0699 46.155 44.0985C45.9311 43.9811 45.6814 43.8837 45.4133 43.809H45.4059ZM34.3308 45.4155C34.2045 45.5796 34.1166 45.7538 34.0697 45.933C34.2613 45.7948 34.4191 45.6402 34.5382 45.474C34.6666 45.3105 34.7546 45.136 34.7993 44.9565C34.6088 45.0952 34.4511 45.2497 34.3308 45.4155ZM43.2612 54.933C43.1374 55.0987 43.0496 55.2737 43.0001 55.4535C43.1911 55.3142 43.3496 55.1592 43.471 54.993C43.5959 54.8281 43.6837 54.6535 43.7321 54.474C43.5417 54.613 43.3832 54.7675 43.2612 54.933ZM48.7292 46.533C48.604 46.6973 48.5162 46.8715 48.4681 47.0505C48.6602 46.9122 48.8188 46.7576 48.9391 46.5915C49.0634 46.4271 49.1505 46.253 49.1977 46.074C49.0056 46.212 48.8477 46.3666 48.7292 46.533ZM50.7666 54.879C50.6414 55.0433 50.5536 55.2175 50.5055 55.3965C50.6975 55.2587 50.8561 55.1046 50.9765 54.939C51.1022 54.7742 51.1909 54.5996 51.24 54.42C51.0472 54.5582 50.8878 54.7128 50.7666 54.879ZM58.5283 51.879C58.5252 51.8852 58.5212 51.8913 58.5161 51.897C58.3905 52.0612 58.3026 52.2354 58.255 52.4145C58.4462 52.2794 58.604 52.1278 58.7235 51.9645L58.5283 51.879ZM67.0561 56.943C66.9391 57.1016 66.8571 57.2691 66.8121 57.441C66.9783 57.3231 67.1179 57.1919 67.2269 57.051L67.0561 56.943ZM36.5073 55.4205C36.3838 55.5852 36.2961 55.7592 36.2462 55.938C36.4366 55.7995 36.5951 55.6456 36.7171 55.4805C36.8405 55.3147 36.9283 55.1397 36.9782 54.96C36.7868 55.1002 36.6283 55.2562 36.5073 55.4235V55.4205ZM55.388 59.8935C55.1092 59.9531 54.8461 60.0375 54.6072 60.144C55.1977 60.1104 55.7633 59.9815 56.2469 59.7705C55.9524 59.7858 55.6631 59.8272 55.388 59.8935ZM52.1306 62.007C52.0043 62.1711 51.9164 62.3453 51.8695 62.5245C52.0605 62.3857 52.219 62.2312 52.3404 62.0655C52.4645 61.9005 52.5515 61.7259 52.5991 61.5465C52.4083 61.6853 52.2513 61.8404 52.133 62.007H52.1306ZM58.9431 58.1745C58.8187 58.3389 58.7317 58.513 58.6844 58.692C58.875 58.5533 59.0327 58.3988 59.1529 58.233C59.2774 58.0675 59.3652 57.8924 59.414 57.7125C59.2238 57.8524 59.0661 58.0079 58.9455 58.1745H58.9431ZM73.444 61.158C73.3854 61.221 73.3317 61.2855 73.2829 61.35C73.1573 61.5142 73.0695 61.6884 73.0219 61.8675C73.2124 61.7294 73.3701 61.5753 73.4903 61.41C73.5196 61.368 73.5489 61.326 73.5757 61.284C73.5286 61.244 73.4846 61.202 73.444 61.158ZM38.064 60.3C37.7861 60.3605 37.5239 60.4454 37.2856 60.552C37.5798 60.5365 37.8689 60.4956 38.1445 60.4305C38.4235 60.3698 38.6865 60.2844 38.9253 60.177C38.6301 60.1923 38.34 60.2337 38.064 60.3ZM29.7094 59.211C29.4318 59.2718 29.1697 59.3567 28.9311 59.463C29.5222 59.4279 30.0881 59.2986 30.5732 59.088C30.275 59.1014 29.9816 59.1414 29.7021 59.2065L29.7094 59.211ZM58.804 61.95C58.7073 61.778 58.5682 61.6161 58.3916 61.47C58.4189 61.6508 58.4862 61.8284 58.5917 61.998C58.6904 62.1695 58.8293 62.3312 59.0041 62.478C58.9794 62.297 58.912 62.1191 58.804 61.95ZM46.3722 63C46.2754 62.8283 46.1372 62.6665 45.9623 62.52C45.9887 62.7007 46.0552 62.8784 46.1599 63.048C46.2436 63.1875 46.3508 63.3212 46.4795 63.447H46.5601C46.5203 63.2964 46.4532 63.1489 46.36 63.0075L46.3722 63ZM42.7122 61.3065C42.4433 61.2296 42.1584 61.1761 41.8655 61.1475C42.0916 61.265 42.3438 61.362 42.6146 61.4355C42.8824 61.513 43.1666 61.567 43.4588 61.596C43.2286 61.4806 42.9732 61.3857 42.7 61.314L42.7122 61.3065ZM33.4939 61.4745C33.2263 61.3967 32.942 61.3426 32.6496 61.314C32.8758 61.4318 33.128 61.5292 33.3987 61.6035C33.6661 61.68 33.9494 61.7335 34.2405 61.7625C34.0123 61.6473 33.7584 61.5529 33.4865 61.482L33.4939 61.4745ZM64.1159 62.3745C63.9896 62.5386 63.9017 62.7128 63.8548 62.892C64.0468 62.7537 64.2054 62.5991 64.3257 62.433C64.4501 62.2686 64.5371 62.0945 64.5843 61.9155C64.389 62.0562 64.2286 62.2139 64.1085 62.3835L64.1159 62.3745ZM43.6272 58.7325C43.5012 58.8972 43.4133 59.0719 43.3661 59.2515C43.5566 59.1128 43.7144 58.9583 43.8346 58.7925C43.9602 58.6272 44.0481 58.4521 44.0957 58.272C43.9046 58.411 43.7468 58.566 43.6272 58.7325ZM30.3023 63C30.1939 63.1439 30.112 63.2949 30.0583 63.45H30.1291C30.278 63.3284 30.4048 63.1971 30.5073 63.0585C30.6329 62.8932 30.7208 62.7181 30.7684 62.538C30.5789 62.678 30.422 62.8334 30.3023 63ZM51.484 51.093C51.3563 51.2566 51.2691 51.431 51.2253 51.6105C51.417 51.4718 51.5748 51.3166 51.6938 51.15C51.819 50.9857 51.9069 50.8115 51.9549 50.6325C51.7634 50.7716 51.6048 50.9266 51.484 51.093ZM39.04 48.252C38.9118 48.4168 38.8231 48.5921 38.7765 48.7725C39.1549 48.4907 39.4072 48.1531 39.5085 47.793C39.3181 47.9318 39.1604 48.0863 39.04 48.252ZM42.5414 41.5365C42.4137 41.7001 42.3265 41.8745 42.2827 42.054C42.4738 41.9156 42.6316 41.761 42.7512 41.595C42.8761 41.4301 42.9639 41.2555 43.0123 41.076C42.8182 41.2148 42.6572 41.3698 42.5341 41.5365H42.5414Z" fill="black"/>
<g opacity="0.1">
<path d="M55.7174 50.8245C55.105 51.7245 53.8069 53.577 53.2921 54.0045C52.6064 54.573 51.2352 54.42 50.2055 54.474C49.1758 54.528 45.7427 55.5015 45.3255 55.3965C44.9082 55.2915 50.2958 53.481 51.301 53.0925C52.3063 52.704 53.0554 50.4375 53.0383 49.7925C53.092 49.95 54.1802 50.2875 55.7174 50.8245Z" fill="black"/>
<path d="M48.5951 55.9035C47.153 56.1495 44.6545 57.3435 43.6346 57.4965C42.6146 57.6495 43.5321 57.999 44.879 58.011C46.2258 58.023 47.3946 57.711 47.8655 57.252C48.3364 56.793 49.066 56.5425 49.6345 56.2725C50.203 56.0025 49.1221 55.8135 48.5951 55.9035Z" fill="black"/>
</g>
<path d="M42.6219 38.88C43.1978 38.937 43.7638 39.03 44.3299 39.123C44.896 39.216 45.4328 39.3 45.9842 39.39C47.0969 39.5745 47.3848 39.621 48.473 39.8565C48.4787 39.8579 48.4832 39.8606 48.4858 39.864C48.4884 39.8674 48.4888 39.8713 48.487 39.8749C48.4851 39.8785 48.4812 39.8815 48.4759 39.8834C48.4706 39.8852 48.4644 39.8858 48.4584 39.885C47.6058 39.7865 46.762 39.6608 45.9306 39.5085C45.3791 39.4165 44.8301 39.3225 44.2836 39.2265C43.7248 39.1275 43.1563 39.036 42.6146 38.9085C42.6098 38.9071 42.6058 38.9048 42.6033 38.902C42.6008 38.8991 42.5999 38.8958 42.6008 38.8925C42.6016 38.8893 42.6041 38.8864 42.6079 38.8841C42.6117 38.8818 42.6167 38.8804 42.6219 38.88Z" fill="#263238"/>
<path opacity="0.1" d="M37.2783 44.2005C36.8232 44.6475 36.4454 45.1226 36.151 45.618C35.8399 46.1088 35.572 46.6095 35.3483 47.118C35.236 47.3715 35.1457 47.6295 35.0677 47.886C34.9823 48.14 34.9487 48.3994 34.9676 48.6585C35.0335 49.1775 35.1628 49.7085 35.2775 50.2245C35.5215 51.2745 35.7655 52.314 36.0095 53.358L36.3828 54.9255L36.7391 56.4945C36.5683 55.977 36.417 55.4565 36.2511 54.9375L35.8094 53.376C35.5264 52.335 35.2629 51.291 35.0189 50.244C34.9091 49.719 34.7749 49.194 34.7285 48.6645C34.7118 48.3952 34.7495 48.1256 34.8407 47.862C34.9253 47.601 35.0302 47.3435 35.1555 47.0895C35.3973 46.5793 35.6882 46.0785 36.0266 45.5895C36.357 45.0989 36.7769 44.6329 37.2783 44.2005Z" fill="black"/>
<path d="M33.2572 63.45H26.1641L21.716 43.182C22.2601 42.9435 31.72 42.1815 31.72 42.1815L32.108 47.5815L32.1519 48.1815L32.5301 53.4615L32.6057 54.4965L32.6277 54.8055L32.6423 55.0095V55.137L32.7058 56.037L32.8107 57.483L32.8839 58.491L32.962 59.601L32.9742 59.7735L32.9937 60.024L33.2108 63.0585L33.2572 63.45Z" fill="#DBDBDB"/>
<path d="M60.8487 53.0925L59.6678 55.1145L58.7015 56.769L57.8353 58.2495L57.5864 58.6755L57.2888 59.1855L57.1277 59.463L57.0228 59.6415L56.9203 59.817L56.9179 59.823L55.8638 61.626L54.7951 63.4545H51.7304L52.5332 61.191L52.8894 60.186L53.2115 59.2785L53.2262 59.2395L53.2823 59.0805L53.6629 58.008L53.7239 57.84L53.7386 57.7995L54.534 55.554L53.1871 55.584H53.1847L52.8406 55.593L51.994 55.611L50.5836 55.644L49.654 55.665L49.493 55.668L49.3514 55.671L48.9171 55.6815L48.3242 55.695L48.1461 55.6995L47.8923 55.704L47.619 55.7115L47.4165 55.716L46.3332 55.74L46.0867 55.746L34.648 56.0055L34.2527 56.0145L33.1669 56.0385L33.1108 56.04L32.7253 56.049L32.452 56.055L32.3593 55.149L32.3471 55.0215L32.2958 54.519L32.5423 54.507L32.6155 54.5025L32.7326 54.4965L46.5479 53.8065L46.7699 53.796L46.9724 53.7855L47.8752 53.7405L49.0342 53.682L51.1936 53.5755L51.9964 53.535L52.8626 53.4915H52.865L53.9777 53.436L54.4852 53.4105L55.1635 53.376L60.8487 53.0925Z" fill="#A6A6A6"/>
<path d="M99.796 52.4715C102.748 54.246 103.244 57 102.622 59.4C102.607 59.454 102.468 59.4405 102.468 59.388C102.468 58.8405 102.495 58.2975 102.492 57.7575L102.448 57.684C101.677 57.3405 100.97 56.952 100.53 56.418C100.042 55.818 99.8448 55.1505 99.469 54.5295C99.4324 54.4695 99.5374 54.4875 99.6032 54.5175C101.399 55.3305 101.97 56.2065 102.485 57.3765C102.474 56.7648 102.369 56.1551 102.173 55.5555C101.785 54.444 101.018 53.3445 99.7204 52.521C99.6716 52.488 99.7472 52.44 99.796 52.4715Z" fill="#263238"/>
<path d="M99.2446 52.6785C98.737 52.689 98.4198 53.187 98.0246 53.3325C97.9831 53.3534 97.9349 53.3687 97.8832 53.3774C97.8314 53.386 97.7773 53.3879 97.7243 53.3828C97.6713 53.3777 97.6207 53.3657 97.5757 53.3478C97.5307 53.3298 97.4925 53.3062 97.4634 53.2785C97.0705 52.9425 97.6098 52.5285 98.1148 52.296C97.7537 52.386 97.4536 52.548 97.0632 52.596C97.0134 52.6062 96.9605 52.6096 96.9083 52.606C96.8561 52.6025 96.8057 52.592 96.7607 52.5753C96.7158 52.5586 96.6772 52.5361 96.6477 52.5094C96.6182 52.4827 96.5984 52.4524 96.5898 52.4205C96.4166 51.963 97.3536 51.759 97.9953 51.7485C97.683 51.6165 96.7924 51.255 97.2633 51.0765C97.7342 50.898 98.7883 51.4155 99.1299 51.585C99.6325 51.8355 100.23 52.209 100.252 52.6005C100.284 53.055 99.635 52.773 99.2446 52.6785Z" fill="#FFC727"/>
<path opacity="0.1" d="M99.2446 52.6785C98.737 52.689 98.4198 53.187 98.0246 53.3325C97.9831 53.3534 97.9349 53.3687 97.8832 53.3774C97.8314 53.386 97.7773 53.3879 97.7243 53.3828C97.6713 53.3777 97.6207 53.3657 97.5757 53.3478C97.5307 53.3298 97.4925 53.3062 97.4634 53.2785C97.0705 52.9425 97.6098 52.5285 98.1148 52.296C97.7537 52.386 97.4536 52.548 97.0632 52.596C97.0134 52.6062 96.9605 52.6096 96.9083 52.606C96.8561 52.6025 96.8057 52.592 96.7607 52.5753C96.7158 52.5586 96.6772 52.5361 96.6477 52.5094C96.6182 52.4827 96.5984 52.4524 96.5898 52.4205C96.4166 51.963 97.3536 51.759 97.9953 51.7485C97.683 51.6165 96.7924 51.255 97.2633 51.0765C97.7342 50.898 98.7883 51.4155 99.1299 51.585C99.6325 51.8355 100.23 52.209 100.252 52.6005C100.284 53.055 99.635 52.773 99.2446 52.6785Z" fill="black"/>
<path d="M99.391 52.755C98.7419 52.5735 97.4951 52.8345 97.3902 52.683C97.1755 52.3755 98.171 52.1655 98.7102 52.125C98.2222 52.0425 97.2657 51.9105 97.295 51.6165C97.3292 51.2595 98.759 51.567 99.4691 51.906C100.374 52.332 100.367 52.7445 100.218 52.827C100.013 52.9395 99.4983 52.785 99.391 52.755Z" fill="#FFC727"/>
<path d="M106.518 52.2945C103.456 54 102.795 56.733 103.268 59.1525C103.268 59.2065 103.417 59.1945 103.422 59.1435C103.456 58.596 103.461 58.053 103.498 57.513C103.515 57.489 103.529 57.4665 103.549 57.441C104.339 57.1155 105.069 56.7435 105.542 56.2215C106.069 55.638 106.306 54.9705 106.721 54.3585C106.76 54.3 106.655 54.315 106.587 54.3435C104.742 55.1145 104.117 55.9755 103.529 57.1335C103.574 56.5223 103.713 55.9151 103.944 55.32C104.4 54.219 105.235 53.1375 106.582 52.3455C106.643 52.314 106.569 52.2645 106.518 52.2945Z" fill="#263238"/>
<path d="M107.057 52.515C107.565 52.5375 107.85 53.043 108.238 53.1975C108.278 53.2193 108.325 53.2357 108.376 53.2455C108.427 53.2554 108.481 53.2585 108.534 53.2547C108.587 53.2508 108.638 53.2401 108.684 53.2233C108.729 53.2065 108.769 53.1839 108.8 53.157C109.214 52.83 108.702 52.407 108.212 52.1595C108.565 52.2585 108.856 52.4265 109.244 52.4805C109.293 52.492 109.346 52.4969 109.399 52.4947C109.451 52.4925 109.502 52.4833 109.549 52.4677C109.595 52.4522 109.636 52.4307 109.667 52.4047C109.699 52.3787 109.721 52.3487 109.732 52.317C109.929 51.867 109 51.6375 108.368 51.6135C108.687 51.4875 109.6 51.147 109.139 50.958C108.678 50.769 107.592 51.258 107.24 51.423C106.723 51.6615 106.103 52.023 106.055 52.4115C105.996 52.8675 106.662 52.602 107.057 52.515Z" fill="#FFC727"/>
<path opacity="0.1" d="M107.057 52.515C107.565 52.5375 107.85 53.043 108.238 53.1975C108.278 53.2193 108.325 53.2357 108.376 53.2455C108.427 53.2554 108.481 53.2585 108.534 53.2547C108.587 53.2508 108.638 53.2401 108.684 53.2233C108.729 53.2065 108.769 53.1839 108.8 53.157C109.214 52.83 108.702 52.407 108.212 52.1595C108.565 52.2585 108.856 52.4265 109.244 52.4805C109.293 52.492 109.346 52.4969 109.399 52.4947C109.451 52.4925 109.502 52.4833 109.549 52.4677C109.595 52.4522 109.636 52.4307 109.667 52.4047C109.699 52.3787 109.721 52.3487 109.732 52.317C109.929 51.867 109 51.6375 108.368 51.6135C108.687 51.4875 109.6 51.147 109.139 50.958C108.678 50.769 107.592 51.258 107.24 51.423C106.723 51.6615 106.103 52.023 106.055 52.4115C105.996 52.8675 106.662 52.602 107.057 52.515Z" fill="black"/>
<path d="M106.906 52.5885C107.567 52.422 108.795 52.713 108.912 52.5645C109.144 52.2645 108.163 52.0275 107.628 51.975C108.116 51.903 109.092 51.795 109.073 51.501C109.058 51.141 107.621 51.417 106.877 51.738C105.947 52.143 105.928 52.5555 106.072 52.638C106.274 52.758 106.799 52.6155 106.906 52.5885Z" fill="#FFC727"/>
<path d="M103.39 56.799C103.184 57.7124 102.867 58.6149 102.441 59.499C102.434 59.5156 102.416 59.5298 102.393 59.5388C102.369 59.5478 102.34 59.5509 102.313 59.5475C102.286 59.544 102.261 59.5343 102.245 59.5203C102.229 59.5063 102.222 59.489 102.226 59.472C102.429 58.641 102.795 57.822 102.995 56.9955C103.218 56.1529 103.3 55.2984 103.239 54.4455C103.112 53.046 102.492 51.5565 101.006 50.4615C100.975 50.436 101.043 50.3985 101.077 50.4225C104.051 52.5555 103.578 55.17 103.576 55.404C103.998 54.522 104.432 53.5095 106.016 52.611C106.084 52.572 106.138 52.59 106.125 52.656C105.84 54.294 105.101 55.149 103.556 56.0235C103.512 56.2845 103.456 56.55 103.39 56.799Z" fill="#263238"/>
<path d="M100.97 50.709C100.435 50.559 99.696 50.9805 99.1665 51.009C99.1064 51.018 99.044 51.019 98.9832 51.012C98.9225 51.005 98.8648 50.9902 98.8141 50.9685C98.7633 50.9468 98.7207 50.9188 98.6889 50.8862C98.6571 50.8536 98.6369 50.8172 98.6297 50.7795C98.4979 50.31 99.3959 50.046 100.111 49.962C99.6618 49.944 99.2177 50.019 98.7761 49.9455C98.7163 49.9402 98.659 49.9272 98.6081 49.9073C98.5571 49.8873 98.5137 49.8609 98.4806 49.8298C98.4476 49.7987 98.4258 49.7637 98.4165 49.727C98.4073 49.6903 98.4109 49.6528 98.4272 49.617C98.6248 49.0875 99.7618 49.167 100.435 49.3545C100.221 49.1205 99.5935 48.4695 100.23 48.432C100.867 48.3945 101.536 49.2555 101.75 49.5375C102.065 49.9515 102.38 50.5245 102.085 50.9385C101.748 51.4215 101.297 50.928 100.97 50.709Z" fill="#FFC727"/>
<path opacity="0.1" d="M100.97 50.709C100.435 50.559 99.696 50.9805 99.1665 51.009C99.1064 51.018 99.044 51.019 98.9832 51.012C98.9225 51.005 98.8648 50.9902 98.8141 50.9685C98.7633 50.9468 98.7207 50.9188 98.6889 50.8862C98.6571 50.8536 98.6369 50.8172 98.6297 50.7795C98.4979 50.31 99.3959 50.046 100.111 49.962C99.6618 49.944 99.2177 50.019 98.7761 49.9455C98.7163 49.9402 98.659 49.9272 98.6081 49.9073C98.5571 49.8873 98.5137 49.8609 98.4806 49.8298C98.4476 49.7987 98.4258 49.7637 98.4165 49.727C98.4073 49.6903 98.4109 49.6528 98.4272 49.617C98.6248 49.0875 99.7618 49.167 100.435 49.3545C100.221 49.1205 99.5935 48.4695 100.23 48.432C100.867 48.3945 101.536 49.2555 101.75 49.5375C102.065 49.9515 102.38 50.5245 102.085 50.9385C101.748 51.4215 101.297 50.928 100.97 50.709Z" fill="black"/>
<path d="M101.06 50.8335C100.535 50.445 99.0274 50.3295 99.042 50.1405C99.0689 49.755 100.277 49.8405 100.867 49.968C100.421 49.7295 99.5447 49.3005 99.8155 49.0035C100.145 48.6435 101.365 49.4025 101.833 49.9755C102.424 50.6985 102.077 51.1245 101.858 51.1635C101.553 51.2175 101.145 50.898 101.06 50.8335Z" fill="#FFC727"/>
<path d="M105.347 57.291L106.66 63.45H98.676C98.8395 62.904 100.325 57.279 100.325 57.279L105.347 57.291Z" fill="#FFC727"/>
<path d="M11.5754 63.4545L23.9315 63.417L36.2877 63.405L61 63.3795L85.7123 63.4035L98.0685 63.417L110.425 63.4545L98.0685 63.4905L85.7123 63.504L61 63.5295L36.2877 63.504L23.9315 63.4905L11.5754 63.4545Z" fill="#263238"/>
<path d="M78.8168 66.567H85.9368V59.958H78.8168V66.567Z" fill="#FFC727"/>
<path d="M80.3858 59.3055H84.363V58.053H80.3858V59.3055Z" fill="#A6A6A6"/>
<path d="M83.836 59.3055H80.9153V59.958H83.836V59.3055Z" fill="#FFC727"/>
<path d="M79.5952 66.564C79.4587 66.3526 79.2397 66.165 78.9577 66.0177C78.6756 65.8705 78.339 65.7681 77.9775 65.7195C77.8433 65.6565 77.9238 65.5695 77.8482 65.55C77.5266 65.5092 77.1953 65.5067 76.8722 65.5425C76.777 65.574 76.8209 65.6925 76.7258 65.706C75.4008 65.8965 74.6713 66.4305 74.4492 66.516C74.1784 66.621 72.7266 66.5985 71.7116 66.4875C70.6965 66.3765 69.4912 65.9115 69.1154 65.619C69.1154 65.619 60.6047 65.7135 54.778 66.8355V66.9855L70.2305 66.7125C71.3805 66.9687 72.5966 67.0947 73.8197 67.0845C73.8949 67.0812 73.9702 67.0906 74.0373 67.1118C74.1044 67.1329 74.1608 67.165 74.2004 67.2045C74.3541 67.314 75.0544 68.2635 77.1064 68.223C79.1584 68.1825 80.0734 67.179 79.5952 66.564ZM75.5936 67.5315C74.9812 67.101 75.191 66.5385 76.1084 66.234C77.0259 65.9295 78.0116 65.982 78.5777 66.36C79.3512 66.8745 78.79 67.425 78.1702 67.662C77.487 67.923 76.2085 67.962 75.5936 67.5315Z" fill="#37474F"/>
<path d="M70.2232 66.138L68.4029 66.738L62.9788 66.834L66.224 65.7C67.9686 65.628 69.1179 65.6145 69.1179 65.6145C69.4339 65.8273 69.8079 66.0044 70.2232 66.138Z" fill="#263238"/>
<path d="M55.1122 66.8475C55.6612 66.75 56.22 66.669 56.7812 66.5895C57.3424 66.51 57.906 66.4395 58.4721 66.375C59.6043 66.243 60.7462 66.1335 61.8881 66.045C63.03 65.9565 64.1866 65.895 65.3407 65.8485C65.6286 65.8395 65.9166 65.8245 66.2045 65.8185L67.0707 65.799C67.361 65.7915 67.649 65.799 67.9369 65.7915H68.8031C67.649 65.817 66.4973 65.8425 65.3456 65.8995C64.1939 65.9565 63.0471 66.021 61.9028 66.111C60.7584 66.201 59.6214 66.303 58.4868 66.4245C57.3522 66.546 56.2273 66.681 55.1122 66.8475Z" fill="#455A64"/>
<path d="M71.5066 65.433C72.4509 65.1975 73.8588 64.992 74.1638 65.058C74.4688 65.124 75.8352 65.7825 77.3772 65.508C78.6094 65.295 79.1584 64.7895 79.3292 64.335C79.5 63.8805 79.9002 63.9135 80.3931 63.789C81.0174 63.6194 81.5324 63.3271 81.8571 62.958C82.1304 62.5905 81.5008 62.385 81.1397 62.808C80.7786 63.231 80.315 63.3915 79.583 63.4875C78.851 63.5835 78.0678 62.793 76.0938 63.051C74.1198 63.309 73.7636 64.2855 73.6538 64.4115C73.544 64.5375 73.4757 64.5615 73.3317 64.5765C72.1378 64.721 70.9978 65.0002 69.9694 65.4L54.7975 67.0845L54.8609 67.2345C60.9804 67.593 69.3155 66.609 69.3155 66.609C69.5668 66.2745 70.5623 65.6685 71.5066 65.433ZM74.886 64.581C74.5688 64.068 75.1056 63.567 76.1548 63.4305C77.204 63.294 78.1068 63.5085 78.4069 63.9645C78.8242 64.5855 77.9604 65.0145 77.2333 65.1375C76.433 65.2725 75.2056 65.1 74.886 64.581Z" fill="#455A64"/>
<path d="M67.5318 66.15C67.4512 66.1018 67.346 66.0722 67.234 66.0662C67.1219 66.0601 67.0099 66.0781 66.917 66.117C66.8726 66.1328 66.8347 66.1546 66.8061 66.1807C66.7774 66.2068 66.7587 66.2366 66.7514 66.2677C66.7441 66.2989 66.7485 66.3307 66.764 66.3607C66.7796 66.3907 66.806 66.4182 66.8413 66.441C66.9216 66.4895 67.0267 66.5193 67.1388 66.5256C67.2508 66.5319 67.363 66.5142 67.4562 66.4755C67.5002 66.4593 67.5378 66.4373 67.5662 66.4111C67.5946 66.3849 67.6131 66.355 67.6203 66.3238C67.6276 66.2926 67.6234 66.2608 67.6081 66.2308C67.5928 66.2007 67.5667 66.1731 67.5318 66.15Z" fill="#C7C7C7"/>
<path d="M67.4294 66.1935C67.3729 66.159 67.2986 66.1377 67.2193 66.1334C67.14 66.129 67.0607 66.1418 66.9951 66.1695C66.9642 66.181 66.9379 66.1965 66.918 66.215C66.8981 66.2335 66.8851 66.2545 66.88 66.2764C66.8749 66.2984 66.8777 66.3208 66.8883 66.342C66.8989 66.3632 66.9171 66.3826 66.9414 66.399C66.9981 66.4332 67.0724 66.4543 67.1516 66.4587C67.2308 66.4631 67.31 66.4505 67.3757 66.423C67.4066 66.4115 67.4329 66.396 67.4528 66.3775C67.4727 66.359 67.4857 66.338 67.4908 66.3161C67.496 66.2941 67.4931 66.2717 67.4825 66.2505C67.4719 66.2293 67.4537 66.2099 67.4294 66.1935Z" fill="#EBEBEB"/>
<path d="M55.0098 67.1475C55.5986 67.1555 56.1867 67.1555 56.7739 67.1475C57.3611 67.1395 57.9492 67.1335 58.538 67.1295C59.7141 67.1085 60.8902 67.077 62.0638 67.0245C62.6494 67.0035 63.235 66.9705 63.823 66.942C64.4111 66.9135 64.9942 66.8745 65.5774 66.831L66.4534 66.7695L67.3269 66.696L67.7636 66.6615L68.198 66.6195L69.069 66.5385C67.9174 66.672 66.7559 66.7935 65.5872 66.879L65.1504 66.9135L64.7112 66.9435L63.8328 66.999C63.2448 67.029 62.6592 67.065 62.0711 67.0875C60.895 67.134 59.7165 67.167 58.5404 67.1775C57.3644 67.188 56.1834 67.1865 55.0098 67.1475Z" fill="#37474F"/>
<path d="M79.2024 64.2375C79.1535 64.509 78.9743 64.7654 78.6875 64.974C78.3685 65.1987 77.9522 65.3631 77.4871 65.448C77.0006 65.5391 76.4836 65.5489 75.9889 65.4765C75.5145 65.4063 75.0609 65.2909 74.6445 65.1345C74.5444 65.1 74.4395 65.0565 74.3443 65.0295C74.2364 65.0057 74.1222 64.9945 74.0076 64.9965C73.7615 64.9997 73.5164 65.0173 73.2756 65.049C72.7967 65.1132 72.3249 65.1959 71.8629 65.2965C71.4086 65.3926 70.9771 65.5253 70.5794 65.691C70.1854 65.8425 69.8363 66.0343 69.5473 66.258C69.6751 66.1415 69.825 66.0347 69.9938 65.94C70.5273 65.6398 71.1505 65.406 71.8287 65.2515C72.2923 65.1447 72.7676 65.0585 73.2512 64.9935C73.4983 64.9601 73.7499 64.9411 74.0027 64.9365C74.1347 64.9341 74.2663 64.9468 74.3907 64.974C74.5127 65.0085 74.6005 65.0475 74.7055 65.0835C75.109 65.2375 75.5496 65.3514 76.0109 65.421C76.485 65.4921 76.981 65.4864 77.4505 65.4045C77.9063 65.3264 78.3167 65.1704 78.6339 64.9545C78.9312 64.7539 79.1286 64.5051 79.2024 64.2375Z" fill="#263238"/>
<path d="M49.6613 64.3035H45.5547V67.2615H49.6613V64.3035Z" fill="#263238"/>
<path d="M49.898 65.346H45.3059V65.6415H49.898V65.346Z" fill="#263238"/>
<path d="M49.898 65.7075H45.3059V66.003H49.898V65.7075Z" fill="#263238"/>
<path d="M49.898 66.0675H45.3059V66.363H49.898V66.0675Z" fill="#263238"/>
<path d="M49.471 64.3035H45.7427C45.7427 64.3035 44.4787 62.2635 44.713 62.0775C44.9472 61.8915 46.0599 61.641 47.6068 61.641C49.0537 61.641 50.2713 61.89 50.5055 62.0775C50.7398 62.265 49.471 64.3035 49.471 64.3035Z" fill="#FFC727"/>
<path opacity="0.5" d="M49.471 64.3035H45.7427C45.7427 64.3035 44.4787 62.2635 44.713 62.0775C44.9472 61.8915 46.0599 61.641 47.6068 61.641C49.0537 61.641 50.2713 61.89 50.5055 62.0775C50.7398 62.265 49.471 64.3035 49.471 64.3035Z" fill="white"/>
<path d="M44.8521 62.1195C44.8716 62.154 44.9423 62.1615 44.9936 62.175C45.0478 62.1868 45.1032 62.1963 45.1595 62.2035C45.2742 62.2215 45.3889 62.2335 45.5035 62.2455C45.7345 62.2675 45.9663 62.2855 46.1989 62.2995C46.6633 62.3297 47.1301 62.3442 47.5971 62.343C48.0647 62.345 48.5322 62.332 48.9976 62.304C49.2301 62.2925 49.4614 62.2735 49.6906 62.247C49.9225 62.2316 50.1472 62.1883 50.3518 62.1195C50.159 62.2043 49.9383 62.2622 49.7052 62.289C49.4759 62.3235 49.244 62.349 49.0098 62.37C48.0736 62.453 47.1229 62.453 46.1867 62.37C45.9427 62.349 45.7207 62.3235 45.4913 62.2905C45.3766 62.2725 45.262 62.2545 45.1497 62.2305C45.0936 62.2185 45.0375 62.2065 44.9838 62.1915C44.9301 62.1765 44.8667 62.157 44.8521 62.1195Z" fill="#FFC727"/>
<path d="M45.9891 64.3065C45.8086 64.053 45.6573 63.792 45.5011 63.5325C45.3493 63.2717 45.219 63.0064 45.1107 62.7375L45.5694 63.5175C45.7158 63.78 45.872 64.041 45.9891 64.3065Z" fill="#FFC727"/>
<path d="M45.5547 63.2445C45.667 63.4155 45.7548 63.5925 45.8427 63.768C45.9305 63.9435 46.0086 64.122 46.0647 64.3035C45.9525 64.134 45.8646 63.957 45.7768 63.78C45.6889 63.603 45.6109 63.426 45.5547 63.2445Z" fill="#FFC727"/>
<path d="M48.9439 64.3035C49.0854 64.0035 49.244 63.72 49.3977 63.429L49.6417 62.994C49.7174 62.844 49.7979 62.703 49.8662 62.556C49.7674 62.8567 49.6354 63.1529 49.4709 63.4425C49.3026 63.732 49.1391 64.0215 48.9439 64.3035Z" fill="#FFC727"/>
<path d="M48.229 64.3035C48.3315 63.8535 48.4852 63.414 48.6389 62.973C48.6102 63.1983 48.558 63.4223 48.4828 63.6435C48.4096 63.8655 48.3339 64.086 48.229 64.3035Z" fill="#FFC727"/>
<path d="M46.604 64.3035C46.5015 64.086 46.4258 63.8655 46.36 63.6435C46.2871 63.422 46.235 63.1982 46.2038 62.973C46.36 63.414 46.5112 63.855 46.604 64.3035Z" fill="#FFC727"/>
<path d="M48.068 63.2115C48.0851 63.3945 48.068 63.5775 48.068 63.7605C48.068 63.9435 48.0363 64.125 47.9948 64.3065C47.9777 64.1235 47.9948 63.9405 47.9948 63.759C47.9948 63.5775 48.0289 63.393 48.068 63.2115Z" fill="#FFC727"/>
<path d="M48.739 63.462C48.7028 63.6085 48.6507 63.7533 48.5828 63.8955C48.5204 64.0388 48.4294 64.1769 48.312 64.3065C48.3534 64.2375 48.3827 64.1655 48.4169 64.095L48.5145 63.8835C48.5852 63.75 48.6511 63.6 48.739 63.462Z" fill="#FFC727"/>
<path d="M46.4064 62.6175C46.421 62.7585 46.4478 62.8995 46.4722 63.0405L46.5503 63.462C46.6016 63.7425 46.6625 64.0245 46.7016 64.3065C46.604 64.029 46.5406 63.7485 46.482 63.4665C46.4215 63.1851 46.3962 62.9013 46.4064 62.6175Z" fill="#FFC727"/>
</svg>
