<svg width="132" height="61" viewBox="0 0 132 61" fill="none" xmlns="http://www.w3.org/2000/svg">
<path d="M19.1638 38.7936H12.173V40.1587H19.1638V38.7936Z" fill="#EBEBEB"/>
<path d="M15.2645 40.515H8.27374V41.8802H15.2645V40.515Z" fill="#EBEBEB"/>
<path d="M82.1964 30.0986H75.2057V31.4638H82.1964V30.0986Z" fill="#EBEBEB"/>
<path d="M78.2971 31.82H71.3064V33.1852H78.2971V31.82Z" fill="#EBEBEB"/>
<path d="M123.726 40.515H116.735V41.8802H123.726V40.515Z" fill="#EBEBEB"/>
<path d="M119.827 13.8616H112.836V15.2268H119.827V13.8616Z" fill="#EBEBEB"/>
<path d="M123.726 15.5831H116.735V16.9482H123.726V15.5831Z" fill="#EBEBEB"/>
<path d="M74.3978 30.0986H67.4071V31.4638H74.3978V30.0986Z" fill="#EBEBEB"/>
<path d="M19.1638 13.8616H12.173V15.2268H19.1638V13.8616Z" fill="#EBEBEB"/>
<path d="M112.778 12.7636H78.012V5.65592H112.778V12.7636ZM79.068 12.2756H111.722V6.14392H79.068V12.2756Z" fill="#EBEBEB"/>
<path d="M95.5125 6.08537H94.4565V12.333H95.5125V6.08537Z" fill="#EBEBEB"/>
<path d="M69.234 57.3351C94.7014 57.3351 115.347 56.4158 115.347 55.2819C115.347 54.1479 94.7014 53.2286 69.234 53.2286C43.7665 53.2286 23.1211 54.1479 23.1211 55.2819C23.1211 56.4158 43.7665 57.3351 69.234 57.3351Z" fill="#EBEBEB"/>
<path d="M12.4027 52.4759L25.8033 52.4454L39.2014 52.4356L66 52.4149L92.7986 52.4356L106.197 52.4454L119.595 52.4759L106.197 52.5051L92.7986 52.5161L66 52.5369L39.2014 52.5161L25.8033 52.5051L12.4027 52.4759Z" fill="#263238"/>
<path d="M27.4956 8.6986H19.0845V30.0193H27.4956V8.6986Z" fill="#A6A6A6"/>
<path d="M49.1937 8.6986H27.4982V30.0193H49.1937V8.6986Z" fill="#DBDBDB"/>
<path d="M48.5126 9.04142H28.1793V29.6838H48.5126V9.04142Z" fill="#C7C7C7"/>
<path d="M48.5126 9.04142H42.0446V29.6838H48.5126V9.04142Z" fill="#A6A6A6"/>
<path d="M60.9417 30.6342L49.1937 30.0193V8.6986L60.9417 8.08372V30.6342Z" fill="#C7C7C7"/>
<path d="M42.4565 15.3683H31.5955V21.2658H42.4565V15.3683Z" fill="#DBDBDB"/>
<path d="M32.8363 15.3683H31.5955V21.2658H32.8363V15.3683Z" fill="#A6A6A6"/>
<path d="M34.291 15.86C34.2915 15.8948 34.2696 15.9289 34.2282 15.9579C34.1867 15.987 34.1275 16.0097 34.0581 16.0232C33.9887 16.0367 33.9122 16.0403 33.8383 16.0337C33.7643 16.027 33.6964 16.0104 33.6429 15.9859C33.5895 15.9614 33.553 15.9301 33.5381 15.8959C33.5233 15.8618 33.5306 15.8265 33.5593 15.7943C33.588 15.7621 33.6367 15.7346 33.6993 15.7152C33.7619 15.6959 33.8355 15.6855 33.9108 15.6855C33.9606 15.6854 34.01 15.6898 34.0561 15.6985C34.1022 15.7072 34.1441 15.72 34.1794 15.7362C34.2148 15.7524 34.2428 15.7717 34.262 15.793C34.2811 15.8142 34.291 15.837 34.291 15.86Z" fill="#C7C7C7"/>
<path d="M33.9108 20.9535C34.1208 20.9535 34.291 20.8748 34.291 20.7778C34.291 20.6808 34.1208 20.6021 33.9108 20.6021C33.7008 20.6021 33.5306 20.6808 33.5306 20.7778C33.5306 20.8748 33.7008 20.9535 33.9108 20.9535Z" fill="#C7C7C7"/>
<path d="M41.807 15.86C41.8075 15.8948 41.7857 15.9289 41.7442 15.9579C41.7028 15.987 41.6436 16.0097 41.5742 16.0232C41.5047 16.0367 41.4282 16.0403 41.3543 16.0337C41.2804 16.027 41.2124 16.0104 41.159 15.9859C41.1055 15.9614 41.0691 15.9301 41.0542 15.8959C41.0393 15.8618 41.0467 15.8265 41.0754 15.7943C41.1041 15.7621 41.1528 15.7346 41.2154 15.7152C41.2779 15.6959 41.3515 15.6855 41.4268 15.6855C41.4766 15.6854 41.526 15.6898 41.5721 15.6985C41.6182 15.7072 41.6602 15.72 41.6955 15.7362C41.7308 15.7524 41.7589 15.7717 41.778 15.793C41.7972 15.8142 41.807 15.837 41.807 15.86Z" fill="#C7C7C7"/>
<path d="M41.807 20.7778C41.807 20.8126 41.7847 20.8465 41.7429 20.8754C41.7012 20.9043 41.6418 20.9268 41.5723 20.9401C41.5029 20.9534 41.4264 20.9569 41.3527 20.9501C41.2789 20.9433 41.2112 20.9266 41.158 20.902C41.1049 20.8775 41.0687 20.8462 41.054 20.8121C41.0393 20.778 41.0469 20.7427 41.0756 20.7106C41.1044 20.6785 41.1531 20.6511 41.2156 20.6317C41.2782 20.6124 41.3517 20.6021 41.4269 20.6021C41.4769 20.602 41.5265 20.6064 41.5727 20.6152C41.619 20.624 41.6611 20.6369 41.6964 20.6532C41.7318 20.6696 41.7598 20.689 41.7788 20.7104C41.7978 20.7318 41.8074 20.7547 41.807 20.7778Z" fill="#C7C7C7"/>
<path d="M34.7714 16.8006C34.7714 16.8574 34.735 16.9129 34.6667 16.96C34.5984 17.0072 34.5014 17.0439 34.3878 17.0656C34.2743 17.0873 34.1494 17.0929 34.029 17.0817C33.9086 17.0706 33.7981 17.0431 33.7114 17.0029C33.6248 16.9627 33.5659 16.9115 33.5422 16.8558C33.5186 16.8001 33.5313 16.7424 33.5786 16.6901C33.626 16.6377 33.7059 16.593 33.8083 16.5616C33.9107 16.5303 34.0309 16.5137 34.1537 16.5139C34.3178 16.5142 34.4749 16.5446 34.5907 16.5983C34.7064 16.6521 34.7714 16.7248 34.7714 16.8006Z" fill="#263238"/>
<path d="M34.7714 17.79C34.7714 17.8468 34.735 17.9023 34.6667 17.9495C34.5984 17.9966 34.5014 18.0334 34.3878 18.055C34.2743 18.0767 34.1494 18.0823 34.029 18.0711C33.9086 18.06 33.7981 18.0326 33.7114 17.9923C33.6248 17.9521 33.5659 17.9009 33.5422 17.8452C33.5186 17.7895 33.5313 17.7318 33.5786 17.6795C33.626 17.6271 33.7059 17.5824 33.8083 17.5511C33.9107 17.5197 34.0309 17.5031 34.1537 17.5033C34.235 17.5033 34.3156 17.5108 34.3907 17.5252C34.4658 17.5396 34.534 17.5608 34.5914 17.5874C34.6488 17.614 34.6943 17.6456 34.7252 17.6804C34.7561 17.7152 34.7718 17.7525 34.7714 17.79Z" fill="#263238"/>
<path d="M32.9842 29.1787C32.773 27.378 33.961 23.7363 34.7477 21.3268C35.1067 20.2215 35.3918 19.348 35.4182 19.0332C35.4974 18.1231 34.1326 17.9145 34.0745 17.9059L34.2276 17.6729C34.2461 17.6729 36.0413 17.9377 35.9462 19.043C35.9172 19.3712 35.6321 20.2508 35.2678 21.361C34.4758 23.7619 33.3036 27.3878 33.5122 29.169L32.9842 29.1787Z" fill="#DD6A57"/>
<path d="M34.0269 29.1836C33.7418 27.8319 34.4889 25.6115 35.207 23.4643C35.9779 21.1719 36.7725 18.8014 36.1389 17.8242C35.6109 17.0129 34.1827 16.9251 34.122 16.9214L34.1801 16.6774C34.2566 16.6774 36.0149 16.7811 36.6432 17.7522C37.3111 18.7819 36.5429 21.0731 35.7297 23.4984C35.0143 25.631 34.2751 27.8355 34.5523 29.158L34.0269 29.1836Z" fill="#455A64"/>
<path d="M40.883 21.2658H39.6844V29.6838H40.883V21.2658Z" fill="#FFC100"/>
<path d="M39.5498 9.04142H38.3513V15.3683H39.5498V9.04142Z" fill="white"/>
<path d="M37.2715 29.1726H31.1625V29.6838H37.2715V29.1726Z" fill="#DBDBDB"/>
<path d="M35.5502 0H32.8865V8.6986H35.5502V0Z" fill="#263238"/>
<path d="M38.2008 8.6986H39.0825V0H38.2008V8.6986Z" fill="#263238"/>
<path d="M40.2838 8.6986H41.1655V0H40.2838V8.6986Z" fill="#263238"/>
<path d="M36.7303 39.733C36.7303 39.9343 36.4663 40.099 36.1548 40.099C35.8433 40.099 35.5793 39.9355 35.5793 39.733C35.5793 39.5304 35.8433 39.367 36.1548 39.367C36.4663 39.367 36.7303 39.528 36.7303 39.733Z" fill="#A6A6A6"/>
<path d="M38.2008 38.7179H39.0825V30.0193H38.2008V38.7179Z" fill="#263238"/>
<path d="M38.2034 38.7179H39.0852L36.0518 39.8964V39.5658L38.2034 38.7179Z" fill="#263238"/>
<path d="M34.8823 30.0193H33.5518V39.9489H34.8823V30.0193Z" fill="#C7C7C7"/>
<path d="M31.6721 41.175C31.9899 41.175 32.2476 41.0117 32.2476 40.8102C32.2476 40.6088 31.9899 40.4454 31.6721 40.4454C31.3542 40.4454 31.0966 40.6088 31.0966 40.8102C31.0966 41.0117 31.3542 41.175 31.6721 41.175Z" fill="#A6A6A6"/>
<path d="M33.5517 39.9489H34.8823L31.5665 41.0469V40.5979L33.5517 39.9489Z" fill="#C7C7C7"/>
<path d="M38.7077 39.733C38.7077 39.9343 38.4437 40.099 38.1322 40.099C37.8206 40.099 37.5566 39.9355 37.5566 39.733C37.5566 39.5304 37.8206 39.367 38.1322 39.367C38.4437 39.367 38.7077 39.528 38.7077 39.733Z" fill="#A6A6A6"/>
<path d="M40.2838 38.7179H41.1655V30.0193H40.2838V38.7179Z" fill="#263238"/>
<path d="M40.2837 38.7179H41.1655L38.1321 39.8964V39.5658L40.2837 38.7179Z" fill="#263238"/>
<path d="M74.0335 39.3804C73.1386 38.9741 71.9796 38.4837 70.6015 38.6594C69.3106 38.8241 68.8169 39.4743 68.5872 40.016C68.2889 40.7138 68.0592 41.419 67.819 42.1229C67.5787 42.8269 67.3491 43.5442 67.1273 44.2555C67.0041 44.6573 66.8809 45.0587 66.7577 45.4596L66.5755 46.0623C66.5175 46.26 66.4462 46.4564 66.4224 46.6552C66.4224 46.7187 66.6283 46.7284 66.66 46.6674C66.8263 46.3332 66.895 45.9842 67.0006 45.6439C67.1062 45.3035 67.2144 44.9607 67.3227 44.6178C67.5391 43.9395 67.7591 43.2608 67.9827 42.5817C68.2062 41.9025 68.4341 41.2238 68.6664 40.5455C68.8671 39.9709 68.9595 39.2559 70.063 38.8765C70.3621 38.7816 70.7086 38.7234 71.0699 38.7076C71.4311 38.6918 71.7951 38.7189 72.1275 38.7862C72.8535 38.9143 73.4316 39.1522 74.0019 39.3962C74.0256 39.406 74.052 39.3877 74.0335 39.3804Z" fill="#263238"/>
<path d="M72.8086 38.9656C72.8086 38.9656 70.9606 38.6606 70.0709 39.2791C69.1812 39.8977 70.2478 41.4751 78.5902 42.356C78.3465 41.1505 77.6684 39.9725 76.5838 38.8704C74.7938 37.0673 71.6074 37.7505 72.8086 38.9656Z" fill="#FFC100"/>
<path d="M78.1123 42.0985C77.9856 41.9904 77.8455 41.8857 77.6926 41.785C77.5526 41.6862 77.4127 41.5874 77.2675 41.4885C77.1619 41.4141 77.0511 41.3409 76.9428 41.2677C76.9428 41.2506 76.9428 41.2311 76.9587 41.2128C76.9745 41.1945 76.9771 41.1457 76.985 41.1128C77.0062 41.0408 77.0299 40.9688 77.0537 40.8956C77.0774 40.8224 77.1012 40.7529 77.1302 40.6809C77.1509 40.6038 77.188 40.5277 77.2411 40.454C77.2411 40.443 77.2068 40.4369 77.2042 40.454C77.1861 40.4974 77.1614 40.5402 77.1302 40.5821C77.1091 40.6138 77.0907 40.6467 77.0748 40.6785C77.0326 40.7517 76.9956 40.8261 76.9587 40.8993C76.9217 40.9725 76.8979 41.0359 76.8742 41.1042C76.861 41.1372 76.8504 41.1701 76.8398 41.2031C76.692 41.1042 76.5415 41.0079 76.3831 40.9127C75.9396 40.6431 75.4723 40.3832 74.9866 40.1295C75.0314 39.7244 75.0103 39.323 75.203 38.9241C75.203 38.9131 75.174 38.907 75.1687 38.918C74.9484 39.2936 74.8435 39.6818 74.8572 40.0709L74.3292 39.8037C73.9226 39.602 73.5082 39.4036 73.0858 39.2084C73.0673 39.201 73.0409 39.2084 73.0594 39.2206C73.7616 39.5707 74.4295 39.9343 75.079 40.3051C74.5697 40.3013 74.0603 40.3102 73.553 40.332C72.9881 40.3503 72.4258 40.3844 71.8634 40.4198C71.8397 40.4198 71.8476 40.4393 71.8634 40.4369C72.4228 40.4003 72.9859 40.3771 73.5504 40.3674C74.0942 40.3564 74.6354 40.3674 75.1793 40.3674C75.5313 40.5683 75.8789 40.7716 76.2221 40.9774H75.768C75.504 40.9774 75.2611 40.9871 75.0077 40.9969C74.4901 41.0164 73.9759 41.0518 73.4686 41.103C73.4448 41.103 73.4501 41.1225 73.4686 41.1201C73.9807 41.0945 74.4929 41.0713 75.0103 41.0628C75.2558 41.0628 75.5014 41.0628 75.7469 41.0628H76.1323C76.2026 41.0665 76.2737 41.0632 76.3409 41.053L77.0141 41.458C77.1901 41.5654 77.3661 41.674 77.5421 41.7838C77.7163 41.896 77.8747 42.018 78.0701 42.1229C78.0771 42.1255 78.086 42.1267 78.0949 42.1263C78.1039 42.1258 78.112 42.1237 78.1176 42.1205C78.1232 42.1173 78.1258 42.1131 78.1248 42.109C78.1238 42.1049 78.1193 42.1011 78.1123 42.0985Z" fill="#263238"/>
<path d="M73.6059 39.8415C73.3101 39.8237 73.0117 39.8167 72.7135 39.8208C72.4152 39.8208 72.1169 39.8208 71.8212 39.8306C71.8163 39.8306 71.8116 39.8315 71.8081 39.8331C71.8047 39.8347 71.8027 39.8368 71.8027 39.8391C71.8027 39.8414 71.8047 39.8435 71.8081 39.8451C71.8116 39.8467 71.8163 39.8476 71.8212 39.8476C72.1248 39.8367 72.4258 39.8342 72.7294 39.8367C73.033 39.8391 73.3128 39.8513 73.6059 39.8476C73.6138 39.8476 73.6164 39.8415 73.6059 39.8415Z" fill="#263238"/>
<path d="M76.2247 40.1514C76.2591 40.0209 76.2934 39.8879 76.3541 39.7586C76.3552 39.7573 76.3556 39.7559 76.3553 39.7545C76.355 39.7531 76.3539 39.7518 76.3522 39.7506C76.3506 39.7495 76.3483 39.7485 76.3456 39.7479C76.3429 39.7472 76.34 39.7469 76.3369 39.7469C76.3339 39.7469 76.331 39.7472 76.3283 39.7479C76.3256 39.7485 76.3233 39.7495 76.3216 39.7506C76.32 39.7518 76.3189 39.7531 76.3186 39.7545C76.3183 39.7559 76.3187 39.7573 76.3198 39.7586C76.2749 39.8879 76.2221 40.0172 76.1799 40.1465C76.1587 40.2112 76.1403 40.2759 76.1218 40.3417C76.0972 40.4025 76.0857 40.4642 76.0875 40.526C76.0892 40.5284 76.0926 40.5305 76.0971 40.532C76.1016 40.5335 76.107 40.5344 76.1125 40.5344C76.1181 40.5344 76.1235 40.5335 76.128 40.532C76.1325 40.5305 76.1359 40.5284 76.1376 40.526C76.1637 40.4653 76.1778 40.4036 76.1799 40.3417C76.1931 40.2771 76.2089 40.2149 76.2247 40.1514Z" fill="#263238"/>
<path d="M75.6756 38.6923C75.6017 38.8216 75.5304 38.9509 75.4802 39.0815C75.4538 39.1474 75.4301 39.2145 75.4116 39.2803C75.3861 39.3447 75.3763 39.4102 75.3826 39.4755C75.3826 39.4755 75.401 39.4755 75.4063 39.4755C75.4392 39.4147 75.4613 39.3526 75.4723 39.2901C75.4908 39.2267 75.5119 39.162 75.5357 39.0986C75.5858 38.9644 75.6386 38.8314 75.7099 38.6984C75.7178 38.6874 75.6809 38.6825 75.6756 38.6923Z" fill="#263238"/>
<path d="M64.8093 46.5137C64.7636 46.2697 64.7134 46.0257 64.6589 45.7817C64.548 45.301 64.4221 44.8216 64.2813 44.3433C64.1441 43.8663 64.0173 43.3881 63.8457 42.9123C63.7835 42.6918 63.6765 42.4745 63.5263 42.2632C63.4732 42.1723 63.3752 42.0884 63.2401 42.0179C63.105 41.9474 62.9364 41.8923 62.7475 41.857C61.7654 41.6996 61.1028 42.1705 60.7068 42.5036C60.7068 42.5133 60.7279 42.5207 60.7411 42.5121C60.9787 42.3535 61.6334 41.9119 62.3779 41.9326C62.8795 41.946 63.2808 42.1095 63.521 42.6878C64.1203 44.1262 64.6615 47.0456 64.7222 47.2372C64.7565 47.3384 64.9123 47.3336 64.9123 47.225C64.9149 46.9895 64.8569 46.7504 64.8093 46.5137Z" fill="#263238"/>
<path d="M60.984 42.334C60.984 42.334 61.842 40.9334 59.9465 41.6337C56.7785 42.8 56.6755 45.334 56.6755 45.334C56.6755 45.334 62.2908 43.8273 62.9878 42.8342C64.0147 41.3482 60.984 42.334 60.984 42.334Z" fill="#FFC100"/>
<path d="M62.04 43.0148C61.5991 43.0562 61.1529 43.0831 60.72 43.1136L60.089 43.1538C59.9465 43.1636 59.8039 43.1697 59.6587 43.1782C60.0785 42.9111 60.4982 42.6463 60.8995 42.3743C60.9153 42.3645 60.881 42.3535 60.8625 42.3621C60.5307 42.5208 60.2178 42.6878 59.9253 42.8623C59.8435 42.7537 59.759 42.6451 59.6772 42.5377C59.5795 42.4157 59.4792 42.2876 59.4132 42.1583C59.4143 42.157 59.4147 42.1556 59.4144 42.1542C59.4141 42.1529 59.413 42.1515 59.4113 42.1504C59.4096 42.1492 59.4073 42.1483 59.4047 42.1476C59.402 42.147 59.399 42.1466 59.396 42.1466C59.393 42.1466 59.39 42.147 59.3874 42.1476C59.3847 42.1483 59.3824 42.1492 59.3807 42.1504C59.379 42.1515 59.378 42.1529 59.3776 42.1542C59.3773 42.1556 59.3777 42.157 59.3789 42.1583C59.4554 42.2803 59.5082 42.417 59.5821 42.5463C59.6561 42.6756 59.7379 42.7903 59.8461 42.9123C59.6402 43.0343 59.4422 43.1563 59.2521 43.2905C59.1545 43.1685 59.0357 43.0465 58.9485 42.9123C58.9485 42.9025 58.9063 42.9123 58.9142 42.9123C59.0145 43.055 59.0673 43.2026 59.1624 43.3454C59.033 43.432 58.8984 43.5198 58.7822 43.6077C58.5552 43.7687 58.3413 43.9334 58.1328 44.0957C58.1169 44.0991 58.1036 44.1047 58.0947 44.1116C58.0857 44.1186 58.0815 44.1266 58.0826 44.1347C57.7289 44.4178 57.3909 44.7057 57.0583 44.996C57.0559 44.9981 57.0553 45.0006 57.0568 45.0029C57.0583 45.0052 57.0617 45.0071 57.0662 45.0082C57.0708 45.0094 57.0761 45.0096 57.0811 45.0089C57.086 45.0083 57.0902 45.0067 57.0926 45.0046C57.4253 44.7179 57.7949 44.4385 58.1803 44.164C58.2347 44.1613 58.2896 44.1613 58.344 44.164L58.5393 44.1457C58.6845 44.1311 58.8271 44.1128 58.9723 44.0969C59.2574 44.064 59.5373 44.0335 59.8277 44.0103C59.8514 44.0103 59.8409 43.9908 59.8277 43.9932C59.4871 44.0237 59.1465 44.0408 58.8033 44.0591C58.6423 44.0676 58.4786 44.0774 58.3176 44.0896H58.2938C58.4971 43.9481 58.7004 43.8078 58.9089 43.6687C59.1175 43.5296 59.3208 43.3966 59.532 43.2624C59.7273 43.249 59.9201 43.2258 60.1128 43.2087L60.7649 43.1502C61.2005 43.1099 61.6308 43.066 62.069 43.0282C62.069 43.0306 62.0585 43.0135 62.04 43.0148Z" fill="#263238"/>
<path d="M58.6608 43.1538L58.5842 43.0416C58.5327 42.9647 58.4904 42.8865 58.4575 42.8074C58.4575 42.7964 58.4153 42.8013 58.4206 42.8074C58.4575 42.8867 58.4971 42.9647 58.5367 43.044C58.5722 43.1233 58.6207 43.2012 58.6819 43.2771C58.6847 43.2811 58.6909 43.2845 58.6991 43.2864C58.7072 43.2884 58.7167 43.2887 58.7255 43.2874C58.7342 43.2861 58.7415 43.2833 58.7457 43.2795C58.7499 43.2757 58.7507 43.2713 58.7479 43.2673C58.7242 43.2319 58.6898 43.188 58.6608 43.1538Z" fill="#263238"/>
<path d="M62.6076 42.6915C62.3436 42.7085 62.0954 42.7171 61.8367 42.7281C61.578 42.739 61.3219 42.7549 61.0658 42.772C61.05 42.772 61.05 42.783 61.0658 42.783C61.3298 42.7744 61.5806 42.7659 61.8367 42.75C62.0928 42.7342 62.3647 42.7171 62.6102 42.7085C62.634 42.7073 62.6314 42.689 62.6076 42.6915Z" fill="#263238"/>
<path d="M68.9409 44.7411C68.8406 43.7102 68.7007 42.6805 68.4763 41.6532C68.3654 41.1421 68.2387 40.6309 68.0829 40.1221C67.9441 39.6222 67.7306 39.1274 67.4441 38.6411C67.2503 38.2629 66.8909 37.907 66.3881 37.5955C66.1379 37.4444 65.8087 37.3251 65.4314 37.2489C65.0541 37.1728 64.6411 37.1421 64.2312 37.16C63.2544 37.2161 62.4677 37.5004 61.7892 37.809C61.0262 38.1555 60.3266 38.5337 59.6191 38.907L59.0911 39.1901C59.0753 39.1986 59.0911 39.2108 59.1175 39.2023C59.8092 38.8363 60.5273 38.4788 61.277 38.1384C61.9713 37.8237 62.6868 37.4796 63.653 37.3491C64.0999 37.2834 64.5782 37.2783 65.0311 37.3344C65.3906 37.3874 65.7143 37.4824 65.9709 37.6102C66.4816 37.8845 66.8435 38.2111 67.0269 38.563C67.6262 39.5109 67.8427 40.504 68.0645 41.4824C68.2862 42.4609 68.4446 43.4735 68.5529 44.4727C68.6611 45.4718 68.7456 46.4808 68.9541 47.4812C68.9805 47.6032 69.0149 47.7252 69.0492 47.8472C69.0703 47.9301 69.3501 47.9301 69.3343 47.8472C69.1442 46.8114 69.0413 45.7768 68.9409 44.7411Z" fill="#263238"/>
<path d="M61.6546 37.9213C61.6546 37.9213 62.9297 36.8318 61.4223 36.4817C59.9148 36.1315 54.8803 38.7313 53.4099 42.5316C53.4099 42.5316 61.5463 40.8676 64.3078 39.2096C67.0692 37.5516 63.9382 37.1868 61.6546 37.9213Z" fill="#FFC100"/>
<path d="M62.8505 38.807C61.9371 38.807 61.0236 38.7753 60.1102 38.7777L60.625 38.5056C60.881 38.3852 61.12 38.2572 61.3404 38.1226C61.3536 38.114 61.3246 38.1006 61.3061 38.1079C61.0586 38.2072 60.8274 38.3149 60.6144 38.43C60.3847 38.5422 60.1577 38.6545 59.9307 38.7679C59.5787 38.9436 59.2346 39.1205 58.8984 39.2986C58.8984 39.2816 58.8984 39.2645 58.8984 39.2474C58.8984 39.173 58.8984 39.0998 58.8984 39.0254C58.8984 38.8826 58.8984 38.7387 58.8984 38.5959C58.8984 38.3056 58.8984 38.0128 58.9459 37.7236C58.9459 37.7114 58.9116 37.7126 58.909 37.7236C58.8641 38.0152 58.8007 38.3056 58.7691 38.5971C58.7532 38.7399 58.7453 38.8838 58.7427 39.0278C58.7427 39.101 58.7427 39.1754 58.7427 39.2486C58.7427 39.2889 58.7427 39.3316 58.7427 39.3706L58.5816 39.4524C57.853 39.8379 57.1587 40.2368 56.4696 40.6431C56.4723 40.6203 56.4723 40.5975 56.4696 40.5748C56.4696 40.5308 56.4485 40.4857 56.4379 40.4406C56.4142 40.3442 56.3851 40.2478 56.3561 40.1514C56.3271 40.055 56.2954 39.9696 56.2611 39.8794C56.2267 39.7891 56.1713 39.6756 56.1528 39.5719C56.1528 39.5597 56.1106 39.5622 56.1185 39.5719C56.1565 39.674 56.1811 39.7771 56.1924 39.8806C56.2135 39.9733 56.232 40.0672 56.2505 40.16C56.269 40.2527 56.2848 40.3454 56.3059 40.4393C56.3059 40.4833 56.3244 40.5284 56.335 40.5735C56.335 40.5955 56.335 40.6175 56.3535 40.6406C56.3572 40.6594 56.3708 40.6774 56.3931 40.6931L56.0446 40.9029C55.5826 41.186 55.1311 41.4702 54.6771 41.7569C54.6771 41.7655 54.6903 41.7777 54.7035 41.7691C55.1338 41.5105 55.5747 41.2567 56.0235 41.0054C56.3561 41.0115 56.6993 41.0054 57.0346 40.9981C57.3699 40.9908 57.7395 40.9981 58.0906 40.9981C58.1143 40.9981 58.1117 40.981 58.0906 40.981H57.0346C56.7125 40.981 56.3851 40.9737 56.0631 40.981C56.4564 40.7602 56.8551 40.5406 57.2537 40.321L57.6893 40.077C57.8252 40.0843 57.9626 40.0843 58.0985 40.077H58.579C58.8799 40.077 59.1809 40.077 59.4819 40.077C60.1023 40.077 60.7227 40.0636 61.3457 40.0624C61.3695 40.0624 61.3668 40.0453 61.3457 40.0453C60.7253 40.0453 60.1023 40.0294 59.4819 40.0221C59.1809 40.0221 58.8799 40.0136 58.579 40.0123H58.0985C58.0061 40.0123 57.9111 40.0123 57.8187 40.0123L58.8456 39.4511C58.8537 39.4488 58.8601 39.4454 58.8641 39.4414C59.1967 39.2596 59.5294 39.0754 59.8673 38.8973L60.0072 38.8241C60.955 38.8375 61.9027 38.8082 62.8505 38.8167C62.8769 38.8253 62.8743 38.807 62.8505 38.807Z" fill="#263238"/>
<path d="M62.3832 39.5536H62.1615C62.158 39.5542 62.1551 39.5553 62.153 39.5566C62.1509 39.558 62.1498 39.5595 62.1498 39.5612C62.1498 39.5628 62.1509 39.5644 62.153 39.5657C62.1551 39.5671 62.158 39.5681 62.1615 39.5687H62.3832C62.4096 39.571 62.407 39.5536 62.3832 39.5536Z" fill="#263238"/>
<path d="M61.8922 39.5548C61.5991 39.5548 61.3061 39.5548 61.013 39.5463H60.5722C60.4363 39.5384 60.2988 39.5384 60.163 39.5463C60.163 39.5463 60.163 39.5573 60.163 39.5585C60.2974 39.5715 60.4351 39.5761 60.5722 39.5719H61.0104H61.8895C61.9159 39.5731 61.9159 39.5561 61.8922 39.5548Z" fill="#263238"/>
<path d="M59.334 40.8249C58.7387 40.779 58.1369 40.7537 57.5335 40.7492V40.7553C58.1328 40.7822 58.7294 40.7968 59.3234 40.8407C59.3472 40.8432 59.3578 40.8261 59.334 40.8249Z" fill="#263238"/>
<path d="M56.8868 39.6146C56.8868 39.5902 56.8868 39.5658 56.8683 39.5426C56.8524 39.4877 56.834 39.4341 56.8155 39.3792C56.7812 39.2767 56.7416 39.173 56.6993 39.0705C56.6993 39.0607 56.6597 39.0632 56.6624 39.0705C56.6914 39.1766 56.7152 39.2828 56.7363 39.3901C56.7363 39.4426 56.7548 39.4951 56.7653 39.5475C56.7626 39.598 56.7786 39.6484 56.8128 39.6964C56.8287 39.7122 56.8815 39.7061 56.8894 39.6964C56.9015 39.6694 56.9006 39.6414 56.8868 39.6146Z" fill="#263238"/>
<path d="M68.8618 36.5219C68.5688 36.2718 68.1992 35.94 67.4732 35.9619C66.8712 35.979 66.6019 36.2621 66.4726 36.4963C66.0766 37.2198 66.0502 37.9823 65.971 38.724C65.81 40.2917 65.6621 41.8606 65.641 43.4296C65.641 43.8639 65.641 44.299 65.641 44.735C65.641 45.1778 65.641 45.6243 65.7096 46.0672C65.7128 46.0747 65.7215 46.0815 65.7343 46.0863C65.747 46.0912 65.7631 46.0938 65.7796 46.0938C65.7961 46.0938 65.8121 46.0912 65.8249 46.0863C65.8377 46.0815 65.8464 46.0747 65.8495 46.0672C65.8495 45.689 65.8258 45.3084 65.8232 44.9289C65.8205 44.5495 65.8232 44.1884 65.839 43.8187C65.8654 43.0689 65.9085 42.319 65.9684 41.5691C66.0291 40.8236 66.1004 40.0794 66.1664 39.334C66.1998 38.9615 66.235 38.5894 66.272 38.2177C66.3063 37.8517 66.3406 37.4955 66.4304 37.1368C66.4805 36.9367 66.5439 36.7354 66.6363 36.5378C66.6802 36.3904 66.8098 36.2513 67.0112 36.1352C67.1498 36.0727 67.3319 36.0348 67.5252 36.0283C67.7184 36.0219 67.9104 36.0472 68.0671 36.0998C68.3973 36.2104 68.6572 36.36 68.8195 36.5329C68.8407 36.5414 68.8724 36.5317 68.8618 36.5219Z" fill="#263238"/>
<path d="M68.6638 36.4024C68.6638 36.4024 68.0671 35.4264 69.3871 35.9144C71.5863 36.7269 71.6655 38.4922 71.6655 38.4922C71.6655 38.4922 67.7556 37.443 67.2699 36.7501C66.5465 35.7192 68.6638 36.4024 68.6638 36.4024Z" fill="#FFC100"/>
<path d="M70.8417 37.7688C70.8074 37.7419 70.7678 37.7151 70.7309 37.6882C70.7361 37.6606 70.7361 37.6329 70.7309 37.6053C70.7309 37.5638 70.7309 37.5211 70.7309 37.4833C70.7309 37.4003 70.7309 37.3186 70.7493 37.2393C70.7493 37.237 70.7474 37.2348 70.7439 37.2332C70.7405 37.2316 70.7358 37.2307 70.7309 37.2307C70.726 37.2307 70.7213 37.2316 70.7178 37.2332C70.7143 37.2348 70.7124 37.237 70.7124 37.2393C70.7124 37.3198 70.6965 37.4003 70.6913 37.4833C70.6913 37.5235 70.6913 37.565 70.6913 37.6053C70.6913 37.6211 70.6913 37.6394 70.6913 37.6565C70.5381 37.5467 70.3824 37.4381 70.2187 37.3308C70.1712 37.2991 70.121 37.2698 70.0735 37.2381C70.0493 37.1323 70.0449 37.0258 70.0603 36.9196C70.0603 36.8062 70.0603 36.6939 70.0761 36.5805C70.0761 36.5782 70.0742 36.576 70.0707 36.5744C70.0673 36.5728 70.0626 36.5719 70.0577 36.5719C70.0528 36.5719 70.0481 36.5728 70.0446 36.5744C70.0411 36.576 70.0392 36.5782 70.0392 36.5805C70.0392 36.7025 70.0181 36.8159 70.0049 36.9343C69.9912 37.0183 69.9868 37.1026 69.9917 37.1868C69.6141 36.9489 69.2129 36.7208 68.8063 36.4926C68.7931 36.4853 68.7641 36.4926 68.7773 36.5036C69.0413 36.65 69.2709 36.8013 69.5059 36.9538C69.0465 36.9038 68.5793 36.8757 68.1093 36.844C68.0856 36.844 68.0777 36.8599 68.1093 36.8611C68.603 36.8952 69.0888 36.9526 69.5798 37.0026C69.7673 37.1246 69.9521 37.2466 70.1369 37.3686L70.3586 37.5187H70.3375L70.1844 37.5089L69.8597 37.4955C69.6353 37.4869 69.4082 37.4821 69.1838 37.476C69.1601 37.476 69.1601 37.493 69.1838 37.4943C69.4056 37.4943 69.6273 37.504 69.8491 37.515L70.1976 37.5345L70.3507 37.5431H70.3956L70.7705 37.7993C70.9922 37.9505 71.1902 38.1116 71.4252 38.258C71.4384 38.2665 71.4648 38.258 71.4569 38.2482C71.2719 38.0831 71.0665 37.923 70.8417 37.7688Z" fill="#263238"/>
<path d="M69.8702 36.6671V36.5524C69.8649 36.471 69.872 36.3894 69.8914 36.3084C69.8914 36.3062 69.8894 36.304 69.8859 36.3024C69.8825 36.3008 69.8778 36.2999 69.8729 36.2999C69.868 36.2999 69.8633 36.3008 69.8598 36.3024C69.8563 36.304 69.8544 36.3062 69.8544 36.3084C69.8544 36.3877 69.8359 36.4658 69.828 36.5451C69.828 36.5841 69.828 36.6244 69.828 36.6671V36.722C69.82 36.7405 69.82 36.7596 69.828 36.7781C69.828 36.7801 69.8297 36.7819 69.8326 36.7833C69.8356 36.7847 69.8396 36.7854 69.8438 36.7854C69.848 36.7854 69.8521 36.7847 69.855 36.7833C69.858 36.7819 69.8597 36.7801 69.8597 36.7781C69.865 36.7607 69.865 36.7431 69.8597 36.7257L69.8702 36.6671Z" fill="#263238"/>
<path d="M69.3871 37.0709C69.2402 37.0604 69.0921 37.0535 68.9436 37.0502C68.7826 37.0441 68.6215 37.0368 68.4605 37.027C68.4556 37.027 68.4509 37.0279 68.4474 37.0295C68.444 37.0311 68.442 37.0333 68.442 37.0355C68.442 37.0378 68.444 37.04 68.4474 37.0416C68.4509 37.0432 68.4556 37.0441 68.4605 37.0441C68.7694 37.0538 69.0756 37.0795 69.3845 37.0843C69.4003 37.088 69.403 37.0721 69.3871 37.0709Z" fill="#263238"/>
<path d="M68.9515 41.724C68.1305 41.4385 67.3913 41.0286 66.2851 41.0079C65.3717 40.992 64.7328 41.3092 64.3658 41.663C64.182 41.8508 64.0327 42.0455 63.9197 42.2449C63.7542 42.5125 63.5985 42.7809 63.4524 43.0501C63.1673 43.5796 62.9244 44.1152 62.7211 44.6532C62.6103 44.9533 62.5073 45.2547 62.4255 45.556C62.3192 45.8621 62.2548 46.171 62.2327 46.4808C62.2326 46.4925 62.2418 46.5038 62.2586 46.5126C62.2754 46.5214 62.2986 46.527 62.3237 46.5283C62.3489 46.5297 62.3743 46.5267 62.395 46.52C62.4157 46.5132 62.4303 46.5032 62.436 46.4918C62.5469 46.2392 62.5944 45.9781 62.6763 45.7232C62.7581 45.4682 62.8399 45.2095 62.9403 44.9533C63.1268 44.4426 63.345 43.9334 63.595 43.4259C63.8299 42.9477 64.0622 42.4621 64.387 41.9961C64.6272 41.663 65.01 41.2738 65.7915 41.153C66.9768 40.9713 68.0539 41.4349 68.9225 41.7362C68.9463 41.7447 68.9726 41.7325 68.9515 41.724Z" fill="#263238"/>
<path d="M68.112 41.4532C68.112 41.4532 67.3543 40.4528 68.4499 40.2563C70.092 39.9623 74.3926 42.201 73.5504 45.6243C73.5504 45.6243 70.2293 44.7789 67.7767 43.8273C65.3242 42.8757 64.6932 41.6313 65.7756 41.3116C66.858 40.992 68.112 41.4532 68.112 41.4532Z" fill="#FFC100"/>
<path d="M73.0435 44.896C72.9295 44.7765 72.7963 44.6611 72.6449 44.5507C72.505 44.4287 72.3624 44.3165 72.2146 44.2006C71.9295 43.9749 71.647 43.7492 71.3539 43.5247L71.2087 43.4161C71.2087 43.4027 71.2087 43.3893 71.2272 43.3759L71.2774 43.2771C71.3143 43.2026 71.3407 43.1282 71.3724 43.0526C71.4305 42.9062 71.4859 42.7573 71.5731 42.6134C71.5731 42.6024 71.5387 42.5987 71.5361 42.6134C71.4675 42.761 71.3671 42.905 71.2721 43.0489C71.2272 43.1185 71.1771 43.1892 71.1375 43.2612C71.1375 43.2856 71.1084 43.31 71.0952 43.3344C70.7415 43.0672 70.3824 42.8 69.997 42.5426C70.0218 42.5072 70.0343 42.4701 70.0339 42.4328C70.0339 42.3828 70.0577 42.3328 70.0709 42.2828C70.0999 42.1705 70.129 42.0571 70.1633 41.9448C70.2346 41.724 70.3059 41.5044 70.4273 41.2872C70.4273 41.2763 70.3956 41.2738 70.3903 41.2872C70.2715 41.5032 70.1422 41.7191 70.0551 41.9375C70.0102 42.0449 69.9706 42.1534 69.9389 42.2608C69.9231 42.3157 69.9099 42.3706 69.8993 42.4243C69.8993 42.4401 69.8993 42.4572 69.8861 42.4731C69.7647 42.3962 69.6459 42.3181 69.5218 42.2425C69.1416 42.0119 68.7483 41.7862 68.3523 41.5617C68.3364 41.5532 68.3074 41.5617 68.3206 41.5715C68.9984 41.97 69.6217 42.3876 70.1871 42.822L70.5118 43.066H70.4035C70.2636 43.0575 70.1237 43.0538 69.9838 43.0477C69.7039 43.0355 69.4267 43.0233 69.1469 43.0135C68.5872 42.9928 68.0249 42.9769 67.4652 42.9501C67.4415 42.9501 67.4362 42.966 67.4652 42.9672C68.0302 42.9965 68.5951 43.0379 69.1575 43.0758L69.9891 43.127C70.2001 43.1472 70.4151 43.1574 70.6306 43.1575L71.2906 43.6528C71.2414 43.651 71.1919 43.651 71.1427 43.6528H70.3507C69.9891 43.6528 69.63 43.6528 69.2683 43.6528C69.2446 43.6528 69.2472 43.6699 69.2683 43.6699C69.6353 43.6699 69.9996 43.6809 70.3639 43.6894L70.8919 43.7041L71.1559 43.7126C71.2308 43.7199 71.3081 43.7199 71.383 43.7126L71.9453 44.1335C72.1169 44.2628 72.2911 44.3921 72.4733 44.5202C72.6394 44.6571 72.8274 44.788 73.0356 44.9119C73.0224 44.9119 73.0541 44.9058 73.0435 44.896Z" fill="#263238"/>
<path d="M71.4621 42.1242C71.4287 42.2343 71.3784 42.3431 71.3117 42.4499C71.2509 42.5609 71.1823 42.6707 71.1031 42.7793C71.1021 42.7807 71.1016 42.7821 71.1018 42.7836C71.1019 42.785 71.1027 42.7864 71.1041 42.7877C71.1054 42.789 71.1073 42.7902 71.1096 42.7911C71.112 42.7921 71.1147 42.7929 71.1176 42.7933C71.1206 42.7938 71.1237 42.794 71.1268 42.7939C71.1299 42.7939 71.133 42.7935 71.1358 42.7929C71.1386 42.7923 71.1412 42.7914 71.1432 42.7903C71.1453 42.7892 71.1469 42.788 71.148 42.7866C71.2219 42.678 71.2879 42.5695 71.346 42.4597C71.4041 42.3499 71.441 42.2364 71.4991 42.1266C71.4994 42.1255 71.4993 42.1243 71.4987 42.1232C71.4981 42.1221 71.497 42.1211 71.4956 42.1202C71.4926 42.1184 71.4882 42.1172 71.4833 42.1168C71.4784 42.1165 71.4734 42.1171 71.4694 42.1185C71.4655 42.1199 71.4628 42.1219 71.4621 42.1242Z" fill="#263238"/>
<path d="M69.0202 42.7939C68.9695 42.7737 68.905 42.7625 68.838 42.7622L68.5265 42.7427L67.9404 42.7098C67.5365 42.6878 67.1299 42.6695 66.726 42.6463C66.7023 42.6463 66.697 42.6622 66.726 42.6634C67.1062 42.6841 67.4863 42.711 67.8691 42.7342C68.0539 42.7464 68.2414 42.7586 68.4288 42.7683L68.6928 42.7817C68.798 42.7817 68.9025 42.79 69.0017 42.8061C69.0202 42.811 69.0334 42.8 69.0202 42.7939Z" fill="#263238"/>
<path d="M71.4543 44.3019C71.2642 44.2945 71.0715 44.2909 70.8814 44.2884H70.591H70.4511C70.3905 44.2915 70.3295 44.2915 70.2689 44.2884C70.2425 44.2884 70.2399 44.308 70.2689 44.3055C70.3251 44.3031 70.3817 44.3031 70.4379 44.3055H70.5883L70.8787 44.3128C71.0688 44.3189 71.2615 44.3238 71.4543 44.3238C71.478 44.3202 71.478 44.3031 71.4543 44.3019Z" fill="#263238"/>
<path d="M72.6264 43.92L72.6898 43.7699C72.7294 43.6711 72.769 43.5723 72.8059 43.4735C72.8059 43.4712 72.804 43.469 72.8005 43.4674C72.797 43.4658 72.7923 43.4649 72.7874 43.4649C72.7825 43.4649 72.7778 43.4658 72.7744 43.4674C72.7709 43.469 72.769 43.4712 72.769 43.4735C72.7241 43.5699 72.6765 43.6662 72.629 43.7626C72.6053 43.8102 72.5815 43.859 72.5604 43.9066C72.5604 43.9298 72.5393 43.9517 72.5313 43.9737C72.5161 43.9966 72.5099 44.0205 72.5129 44.0444C72.5129 44.053 72.5419 44.0591 72.5551 44.0444C72.5946 44.0052 72.6187 43.9631 72.6264 43.92Z" fill="#263238"/>
<path d="M72.1855 46.8736L72.0007 48.2913L71.4543 52.4759H60.258L59.7115 48.2913L59.5267 46.8736H72.1855Z" fill="#455A64"/>
<path d="M72.1855 46.8736L72.0007 48.2913H59.7115L59.5267 46.8736H72.1855Z" fill="#263238"/>
<path d="M73.0409 45.8708H58.6687V47.2896H73.0409V45.8708Z" fill="#455A64"/>
<path d="M89.1792 46.9859C89.1792 46.9859 89.1792 52.4466 89.1792 52.4502C89.1792 53.4946 89.1607 54.4108 89.0498 54.8841C89.051 54.8865 89.051 54.889 89.0498 54.8915C89.0496 55.0036 88.9936 55.1142 88.8861 55.2148L88.8729 55.2209C88.2024 55.4331 70.1448 55.7186 69.5085 55.6308C68.8723 55.5429 69.3633 54.6963 70.0365 54.4279C70.7097 54.1595 77.5262 52.6198 77.5262 52.6198L77.6424 47.1603L89.1792 46.9859Z" fill="#EB9481"/>
<path d="M89.1766 51.3291V52.4502C89.1766 53.4946 89.1581 54.4108 89.0472 54.8841C89.0484 54.8865 89.0484 54.889 89.0472 54.8915C89.0209 55.0019 88.966 55.1104 88.8835 55.2148L88.8703 55.2209C88.1998 55.4331 70.1421 55.7186 69.5059 55.6308C68.8697 55.5429 69.3607 54.6963 70.0339 54.4279C70.7071 54.1595 77.5236 52.6198 77.5236 52.6198L77.4919 51.4816L89.1766 51.3291Z" fill="white"/>
<path d="M69.5033 55.632C70.1422 55.7198 88.1971 55.4344 88.8677 55.2221C89.1317 55.1428 89.1898 53.9252 89.1766 52.4515C89.1766 52.4368 89.1766 52.421 89.1766 52.4063L77.5236 52.5283V52.6198C77.5236 52.6198 70.7177 54.1582 70.0339 54.4279C69.3502 54.6975 68.8644 55.5442 69.5033 55.632Z" fill="#FFC100"/>
<path d="M69.696 55.3038C72.7373 55.2221 85.0212 55.0208 88.0414 55.0452C88.0651 55.0452 88.0651 55.0537 88.0414 55.0549C85.0318 55.1672 72.7452 55.3221 69.6987 55.327C69.6221 55.327 69.6194 55.3063 69.696 55.3038Z" fill="#263238"/>
<path d="M76.56 52.6515C77.7507 52.5295 79.2211 52.5918 80.1663 52.9712C80.2032 52.9858 80.1663 53.0102 80.1161 53.0041C78.9559 52.8516 77.7638 52.7567 76.56 52.7211C76.5425 52.7195 76.5267 52.7152 76.5153 52.7089C76.5039 52.7025 76.4976 52.6946 76.4976 52.6863C76.4976 52.6781 76.5039 52.6701 76.5153 52.6637C76.5267 52.6574 76.5425 52.6531 76.56 52.6515Z" fill="#263238"/>
<path d="M75.7073 52.9065C76.8979 52.7845 78.3684 52.8455 79.3135 53.2262C79.3505 53.2408 79.3135 53.264 79.266 53.2591C78.1086 53.1064 76.9191 53.0115 75.7178 52.9761C75.6999 52.9752 75.6832 52.9715 75.6707 52.9655C75.6581 52.9595 75.6506 52.9516 75.6493 52.9433C75.648 52.935 75.6532 52.9268 75.6638 52.92C75.6744 52.9133 75.6898 52.9085 75.7073 52.9065Z" fill="#263238"/>
<path d="M74.8599 53.1603C76.0505 53.0383 77.5236 53.1005 78.4661 53.4799C78.5031 53.4946 78.4661 53.519 78.4186 53.5141C77.2614 53.3608 76.0718 53.2659 74.8704 53.231C74.8531 53.2296 74.8374 53.2255 74.8256 53.2194C74.8139 53.2134 74.8069 53.2057 74.8057 53.1976C74.8045 53.1894 74.8091 53.1814 74.8189 53.1746C74.8288 53.1679 74.8432 53.1628 74.8599 53.1603Z" fill="#263238"/>
<path d="M89.76 43.0599V43.1197L89.4987 52.6808L76.8583 52.5637L79.4535 23.4167H90.1296L89.76 43.0599Z" fill="#455A64"/>
<path d="M77.3863 51.5901C79.361 51.5816 78.7934 51.5718 80.7682 51.5731C81.7318 51.5731 88.0783 51.5853 88.9786 51.6585C88.9826 51.6591 88.9861 51.6604 88.9886 51.662C88.991 51.6637 88.9923 51.6656 88.9923 51.6676C88.9923 51.6696 88.991 51.6715 88.9886 51.6732C88.9861 51.6748 88.9826 51.6761 88.9786 51.6768C88.0757 51.7414 81.7291 51.6768 80.7655 51.6707C78.7908 51.6511 79.3584 51.6463 77.3863 51.6158C77.382 51.6164 77.3774 51.6165 77.3729 51.6162C77.3684 51.6158 77.3641 51.615 77.3605 51.6138C77.3568 51.6125 77.3538 51.6109 77.3518 51.609C77.3497 51.6071 77.3486 51.6051 77.3486 51.6029C77.3486 51.6008 77.3497 51.5988 77.3518 51.5969C77.3538 51.595 77.3568 51.5934 77.3605 51.5921C77.3641 51.5909 77.3684 51.5901 77.3729 51.5897C77.3774 51.5894 77.382 51.5895 77.3863 51.5901Z" fill="#263238"/>
<path d="M87.3523 48.3486C87.3787 47.4751 87.4095 46.6016 87.4447 45.728C87.5151 43.981 87.5855 42.2323 87.6559 40.482C87.7932 37.0059 87.9137 33.5301 88.0176 30.0547C88.0836 28.0942 88.0809 26.1324 88.1892 24.1719H88.2076C88.2763 25.9189 88.2341 27.6672 88.2288 29.4179C88.2235 31.1686 88.205 32.9132 88.168 34.6639C88.0959 38.14 87.978 41.6162 87.8143 45.0924C87.7641 46.0684 87.7113 47.053 87.64 48.0326C87.5688 49.0123 87.5186 49.9944 87.376 50.9728C87.3743 50.9753 87.371 50.9774 87.3665 50.9789C87.362 50.9804 87.3565 50.9812 87.351 50.9812C87.3454 50.9812 87.34 50.9804 87.3355 50.9789C87.331 50.9774 87.3276 50.9753 87.3259 50.9728C87.2836 50.0956 87.3285 49.2209 87.3523 48.3486Z" fill="#263238"/>
<path d="M90.1296 23.4765L89.8498 38.3592L81.2909 23.4179H90.127L90.1296 23.4765Z" fill="#263238"/>
<path d="M109.185 44.2543C109.185 44.2543 115.284 48.8342 115.289 48.8366C116.279 49.776 117.11 50.6068 117.454 51.0558C117.455 51.0582 117.455 51.0607 117.454 51.0631C117.559 51.1638 117.612 51.2745 117.609 51.3864C117.61 51.3892 117.61 51.3921 117.609 51.3949C117.203 51.7207 101.202 55.5966 100.544 55.6454C99.887 55.6942 99.5385 54.8317 99.9002 54.4523C100.262 54.0728 104.953 51.323 104.953 51.323L98.9604 46.726L109.185 44.2543Z" fill="#EB9481"/>
<path d="M117.615 51.3876C117.616 51.3888 117.616 51.39 117.616 51.3913C117.616 51.3925 117.616 51.3938 117.615 51.3949C117.211 51.7207 101.207 55.5966 100.55 55.6454C99.8923 55.6942 99.5439 54.8317 99.9029 54.4523C100.262 54.0728 104.958 51.3217 104.958 51.3217L103.889 50.5007C106.506 49.8565 111.26 48.7256 114.212 48.0241C114.853 48.506 115.291 48.8366 115.291 48.8378C116.284 49.776 117.116 50.6068 117.459 51.0546C117.46 51.0574 117.46 51.0603 117.459 51.0631C117.566 51.164 117.619 51.2753 117.615 51.3876Z" fill="white"/>
<path d="M100.544 55.6454C101.202 55.5966 117.203 51.7207 117.609 51.3949C117.768 51.2729 116.683 50.1615 115.286 48.8329C115.273 48.8188 115.258 48.8049 115.241 48.7915L104.858 51.2315L104.953 51.312C104.953 51.312 100.265 54.0619 99.9002 54.4425C99.5359 54.8231 99.887 55.6942 100.544 55.6454Z" fill="#FFC100"/>
<path d="M100.399 55.3148C103.063 54.6304 113.942 51.9879 116.688 51.4108C116.709 51.4108 116.717 51.4108 116.688 51.4181C114.08 52.1233 103.155 54.7243 100.415 55.3404C100.365 55.3477 100.344 55.3294 100.399 55.3148Z" fill="#263238"/>
<path d="M104.103 51.5474C105.061 51.1985 106.445 50.9594 107.651 51.1131C107.699 51.1192 107.68 51.1497 107.651 51.1521C106.461 51.2456 105.297 51.3977 104.177 51.606C104.161 51.6078 104.144 51.6071 104.129 51.6042C104.114 51.6012 104.101 51.596 104.093 51.5894C104.085 51.5829 104.081 51.5752 104.083 51.5676C104.085 51.5601 104.092 51.553 104.103 51.5474Z" fill="#263238"/>
<path d="M103.578 51.9464C104.536 51.5975 105.919 51.3583 107.126 51.5121C107.173 51.5121 107.155 51.5487 107.126 51.5511C105.94 51.6455 104.78 51.7985 103.665 52.0074C103.647 52.0127 103.626 52.0146 103.605 52.0127C103.585 52.0107 103.567 52.0051 103.555 51.997C103.544 51.9889 103.54 51.979 103.544 51.9695C103.548 51.96 103.56 51.9517 103.578 51.9464Z" fill="#263238"/>
<path d="M103.055 52.3453C104.011 51.9964 105.397 51.7573 106.603 51.911C106.651 51.9171 106.632 51.9476 106.59 51.95C105.404 52.0447 104.244 52.1976 103.129 52.4063C103.112 52.4093 103.093 52.4093 103.076 52.4064C103.059 52.4034 103.044 52.3978 103.036 52.3904C103.027 52.3831 103.024 52.3745 103.027 52.3662C103.031 52.3579 103.041 52.3505 103.055 52.3453Z" fill="#263238"/>
<path d="M81.217 23.413C81.2619 23.5143 82.009 25.121 82.7825 26.4899C83.3448 27.4939 83.9256 28.376 84.2556 28.4675C84.6331 28.57 86.4653 28.9457 87.0804 29.0641C87.0804 29.0641 91.2041 38.5801 93.3795 41.5227C95.3885 44.2445 103.699 51.5182 103.699 51.5182L115.756 48.7036C115.756 48.7036 106.339 41.3214 105.349 39.9965C103.815 37.9432 98.0628 27.9185 98.0628 27.9185C98.0628 27.9185 98.1077 24.7794 95.8215 23.4045L81.217 23.413Z" fill="#455A64"/>
<path d="M103.879 50.4372C105.6 49.9919 105.093 50.109 106.828 49.6723C107.675 49.4588 113.253 48.0594 114.119 47.9252C114.138 47.9252 114.154 47.9362 114.138 47.9411C113.412 48.1985 107.783 49.5527 106.925 49.7577C105.175 50.1786 105.666 50.0493 103.905 50.4604C103.899 50.4612 103.892 50.461 103.886 50.4598C103.88 50.4585 103.875 50.4564 103.872 50.4537C103.869 50.451 103.868 50.4479 103.869 50.4449C103.87 50.4419 103.874 50.4392 103.879 50.4372Z" fill="#263238"/>
<path d="M94.974 27.0486C94.644 27.0096 94.2902 26.9974 93.9523 26.973C93.6883 26.9522 93.4111 26.9303 93.1418 26.9034C92.6251 26.8605 92.1354 26.7651 91.7083 26.6241C91.241 26.4569 91.0061 26.2019 90.779 25.9579C90.6444 25.8128 90.515 25.6676 90.3672 25.5236L90.1613 25.315C90.0631 25.234 89.975 25.1505 89.8973 25.0649C89.8973 25.0515 89.8471 25.0649 89.8577 25.0649C89.9035 25.1239 89.9414 25.1842 89.9712 25.2455C90.0187 25.3162 90.0609 25.3858 90.1085 25.4553C90.1929 25.5773 90.2721 25.7054 90.3725 25.8298C90.5077 26.0583 90.7009 26.2786 90.948 26.4862C91.4443 26.8522 92.334 26.9998 93.2237 27.0511C93.4877 27.0669 93.7358 27.0742 93.9945 27.0816C94.3177 27.095 94.6429 27.095 94.9661 27.0816C94.972 27.0799 94.9771 27.0777 94.9809 27.075C94.9847 27.0723 94.987 27.0692 94.9878 27.066C94.9886 27.0628 94.9877 27.0596 94.9853 27.0566C94.9829 27.0535 94.979 27.0508 94.974 27.0486Z" fill="#263238"/>
<path d="M83.2841 28.2479C84.5919 28.4681 85.8559 28.7404 87.0619 29.0616C87.1095 29.0738 87.0778 29.108 87.0276 29.097C85.7551 28.8445 84.4563 28.6029 83.2155 28.3186C83.1977 28.3137 83.1844 28.306 83.1782 28.2969C83.172 28.2877 83.1732 28.2779 83.1817 28.2691C83.1902 28.2604 83.2053 28.2534 83.2242 28.2495C83.243 28.2456 83.2644 28.245 83.2841 28.2479Z" fill="#263238"/>
<path d="M82.896 24.2182C82.896 24.1987 82.9752 24.1938 82.9752 24.2182C82.9755 24.8746 83.0469 25.5305 83.189 26.1836C83.2471 26.4862 83.7751 28.1613 84.913 28.0393C85.103 28.0185 85.2007 27.9319 85.2297 27.7953C85.2253 27.6218 85.1748 27.4493 85.0793 27.2816C84.9525 26.9303 84.8522 26.5789 84.7862 26.2251C84.6542 25.5657 84.6701 24.9017 84.8337 24.2438C84.8359 24.2402 84.8405 24.237 84.847 24.2348C84.8534 24.2325 84.8613 24.2313 84.8694 24.2313C84.8775 24.2313 84.8854 24.2325 84.8918 24.2348C84.8982 24.237 84.9029 24.2402 84.905 24.2438C84.8723 25.1579 84.9879 26.0718 85.2509 26.9779C85.3934 27.4134 85.8686 28.0759 84.8839 28.1369C83.8992 28.1979 83.2286 27.106 83.1072 26.8058C82.7937 25.9512 82.7227 25.0813 82.896 24.2182Z" fill="#263238"/>
<path d="M84.8865 28.082C84.9915 28.1945 85.0797 28.3103 85.1505 28.4284C85.2241 28.5197 85.2608 28.6165 85.2588 28.7139C85.257 28.7178 85.2529 28.7213 85.2469 28.7241C85.241 28.727 85.2334 28.7289 85.2251 28.7298C85.2168 28.7307 85.2081 28.7305 85.2 28.7292C85.1919 28.7279 85.1849 28.7256 85.1796 28.7225C85.0607 28.6367 84.9716 28.5428 84.9156 28.4443C84.8285 28.3369 84.7361 28.2308 84.6516 28.1222C84.6454 28.1085 84.6501 28.0942 84.6648 28.0819C84.6794 28.0697 84.7032 28.0603 84.7316 28.0554C84.76 28.0505 84.7913 28.0505 84.8197 28.0554C84.8482 28.0603 84.8719 28.0697 84.8865 28.082Z" fill="#263238"/>
<path d="M112.504 47.7837C110.788 46.2905 109.019 44.8106 107.242 43.3332C106.366 42.6012 105.452 41.8838 104.618 41.1457C103.831 40.414 103.192 39.6503 102.709 38.8643C101.653 37.2702 100.648 35.6679 99.6943 34.0575C98.7404 32.4471 97.8489 30.8302 97.02 29.2068C96.8088 28.8018 96.5791 28.3955 96.4101 27.9868C96.2596 27.5729 96.2596 27.1502 96.4101 26.7363C96.539 26.3504 96.5452 25.9579 96.4286 25.5712C96.2959 25.1858 96.0991 24.8056 95.8399 24.4342C95.7079 24.2377 95.5627 24.0425 95.4175 23.8486C95.413 23.8449 95.4059 23.842 95.3974 23.8405C95.3889 23.8389 95.3795 23.8388 95.3708 23.8401C95.3621 23.8414 95.3546 23.844 95.3497 23.8475C95.3447 23.8511 95.3425 23.8553 95.3436 23.8595C95.8716 24.6452 96.3996 25.4394 96.2834 26.2727C96.228 26.6729 95.9983 27.0657 96.0194 27.4683C96.0757 27.8679 96.2226 28.2638 96.4577 28.6493C97.2761 30.2832 98.1561 31.9099 99.0977 33.5293C100.039 35.1486 101.035 36.7606 102.083 38.3653C102.596 39.1449 103.073 39.9379 103.799 40.6833C104.525 41.4288 105.447 42.1339 106.315 42.8464C108.105 44.3189 109.911 45.7878 111.759 47.2457C111.991 47.4299 112.229 47.6117 112.464 47.7984C112.48 47.8069 112.517 47.7959 112.504 47.7837Z" fill="#263238"/>
<path d="M86.5577 15.9003C84.8628 16.6652 76.4438 19.886 71.6047 19.764C67.0745 19.642 62.0189 15.1475 60.625 14.285C60.0125 13.9056 66.858 11.6473 67.6843 11.978C68.5106 12.3086 72.1301 15.9161 72.9089 16.0308C73.6877 16.1455 80.0369 15.4598 83.8834 15.0158C87.3629 14.6095 88.8888 14.8462 86.5577 15.9003Z" fill="#EB9481"/>
<path d="M76.164 15.7697L78.9624 18.7197C78.9624 18.7197 84.4087 17.2447 86.4626 16.1979C88.5166 15.1512 88.3793 14.6119 84.2002 14.8803C81.4693 15.0653 78.7799 15.363 76.164 15.7697Z" fill="#FFC100"/>
<path d="M75.3007 15.8014L76.8583 15.5379L79.7122 18.6514L78.247 19.0003L75.3007 15.8014Z" fill="#FFC100"/>
<path opacity="0.1" d="M75.3007 15.8014L76.8583 15.5379L79.7122 18.6514L78.247 19.0003L75.3007 15.8014Z" fill="black"/>
<path d="M69.366 13.664C68.4631 11.6022 65.1658 9.8332 64.4715 9.59164C63.8801 9.38546 63.5712 9.28176 63.5712 9.28176C62.5152 8.90112 61.747 8.96578 61.747 8.96578C61.747 8.96578 60.8203 8.36188 59.9359 8.56074C58.9433 8.78156 60.4428 9.58676 60.6804 10.2687C61.2269 11.8169 61.0659 14.0873 61.1266 14.5387L69.366 13.664Z" fill="#EB9481"/>
<path d="M63.719 11.6986C63.5718 11.2449 63.3566 10.7965 63.0749 10.3566C62.7032 9.88355 62.2558 9.42397 61.7364 8.98164C61.7329 8.97872 61.732 8.97529 61.734 8.97208C61.736 8.96888 61.7406 8.96617 61.747 8.96456C61.7533 8.96294 61.7607 8.96254 61.7676 8.96346C61.7745 8.96437 61.7804 8.96652 61.7839 8.96943C62.9839 9.7751 63.6832 10.7173 63.8062 11.6937C63.8052 11.6984 63.8008 11.7029 63.7937 11.7063C63.7865 11.7097 63.777 11.7118 63.7669 11.7124C63.7567 11.713 63.7464 11.7119 63.7377 11.7094C63.729 11.7069 63.7224 11.7031 63.719 11.6986Z" fill="#263238"/>
<path d="M65.7888 11.6827C65.5618 11.2447 65.1499 10.4774 63.5422 9.28907C63.5422 9.28907 63.5422 9.28053 63.558 9.28907C64.7965 9.96965 65.6017 10.7958 65.8839 11.6754C65.8918 11.6986 65.8047 11.712 65.7888 11.6827Z" fill="#263238"/>
<path d="M61.0817 12.1463C60.9814 12.361 60.7358 12.3379 60.3689 11.9865C60.0019 11.6351 59.1888 10.0992 58.0536 10.2785C56.9184 10.4578 58.1302 12.6136 58.8456 13.1772C59.561 13.7409 61.1318 14.5375 61.1318 14.5375C61.0738 14.0922 61.1635 13.015 61.0817 12.1463Z" fill="#EB9481"/>
<path d="M79.464 24.716C79.7623 24.8526 96.6715 24.4427 96.7613 24.389C96.9989 24.2402 91.5922 16.0491 87.318 14.629C86.3993 14.324 83.7144 14.6071 83.094 14.9011C82.6954 15.0853 81.8875 16.2602 81.3226 17.2191C80.1794 19.154 79.2132 24.5964 79.464 24.716Z" fill="#FFC100"/>
<path d="M79.398 24.7831C79.398 24.7831 79.3003 20.7815 80.9028 17.6168C82.0538 15.3476 82.632 14.9901 82.632 14.9901L83.0861 14.9023L82.2598 16.7665L85.6918 16.6908C85.6918 16.6908 87.149 14.6986 87.3734 14.6498C87.516 14.6193 88.0942 14.8852 88.0942 14.8852C88.0942 14.8852 86.7742 16.9983 86.9537 17.8608C87.1332 18.7233 88.4453 20.0714 89.5435 20.4777C90.6418 20.884 94.3879 20.5167 94.475 20.5265C94.5622 20.5363 97.115 24.5842 97.1573 24.6391C97.1995 24.694 79.398 24.7831 79.398 24.7831Z" fill="#455A64"/>
<path d="M81.6526 18.7465C82.2761 18.9429 82.9764 19.0814 83.7144 19.154C84.121 19.1674 86.0059 18.8722 86.2831 18.7941C86.4231 18.7551 86.225 17.435 86.159 17.3533C86.0931 17.2715 81.8321 17.2935 81.7159 17.3533C81.4572 17.5119 81.5179 18.6928 81.6526 18.7465ZM81.8163 17.4387C81.9535 17.3813 85.7393 17.3228 86.0403 17.4216C86.0825 17.6949 86.1775 18.7075 86.1168 18.7416C86.0561 18.7758 84.0919 19.0954 83.7408 19.0747C83.2128 19.0454 82.0011 18.7734 81.7951 18.7087C81.6473 18.6526 81.7212 17.4789 81.8163 17.4387Z" fill="#263238"/>
<path d="M97.02 24.6586C97.1203 24.7038 97.7645 27.4854 97.3817 27.5964C96.9989 27.7074 91.8218 28.0844 91.447 27.9917C91.0721 27.899 90.6708 25.1186 90.7051 25.082C90.7394 25.0454 96.8352 24.5732 97.02 24.6586Z" fill="#FFC100"/>
<path opacity="0.1" d="M90.8847 26.3215C91.0299 27.0913 91.2411 27.9429 91.447 27.9929C91.8245 28.0844 96.991 27.7074 97.3817 27.5964C97.5929 27.5354 97.4926 26.6802 97.3447 25.9079C97.2835 25.4892 97.1751 25.0722 97.02 24.6586C96.8352 24.572 90.7395 25.0466 90.7051 25.082C90.6893 25.0991 90.7659 25.681 90.8847 26.3215Z" fill="black"/>
<path d="M97.6589 24.5732C97.746 24.5366 97.1758 23.4984 96.8352 23.2373C96.8352 23.2373 91.2754 23.6875 86.5392 23.8473C82.9963 23.9693 78.9571 23.8803 78.936 23.9266C78.9149 23.973 78.7539 25.0856 78.8357 25.1771C78.9175 25.2686 84.282 25.2991 87.3339 25.2247C90.3857 25.1503 97.3685 24.6977 97.6589 24.5732Z" fill="#FFC100"/>
<path d="M81.576 25.304C81.6869 25.3418 85.536 25.365 85.6125 25.326C85.6891 25.2869 85.7181 23.912 85.4172 23.8315C85.2377 23.7839 81.84 23.7961 81.6235 23.8412C81.407 23.8864 81.4704 25.265 81.576 25.304ZM81.9905 24.0059C82.1673 23.9706 84.9235 23.9632 85.0687 23.9998C85.3116 24.0621 85.2878 25.1247 85.2297 25.154C85.1717 25.1832 82.0459 25.1649 81.9561 25.1344C81.8664 25.1039 81.8241 24.0413 81.9984 24.0059H81.9905Z" fill="#DBDBDB"/>
<path d="M81.7113 24.6668L82.7911 24.6688L82.7927 24.4784L81.7129 24.4765L81.7113 24.6668Z" fill="#DBDBDB"/>
<path d="M86.6184 24.5562C86.6234 24.5738 86.642 24.59 86.6709 24.6017C86.6999 24.6135 86.737 24.6199 86.7755 24.6199C86.814 24.6199 86.8511 24.6135 86.88 24.6017C86.9089 24.59 86.9276 24.5738 86.9326 24.5562C86.9276 24.5385 86.9089 24.5223 86.88 24.5106C86.8511 24.4989 86.814 24.4924 86.7755 24.4924C86.737 24.4924 86.6999 24.4989 86.6709 24.5106C86.642 24.5223 86.6234 24.5385 86.6184 24.5562Z" fill="#263238"/>
<path d="M88.2578 24.5061C88.2568 24.5157 88.2598 24.5252 88.2669 24.5342C88.2739 24.5432 88.2847 24.5515 88.2987 24.5586C88.3127 24.5656 88.3296 24.5713 88.3485 24.5753C88.3673 24.5792 88.3876 24.5815 88.4083 24.5818C88.4291 24.5821 88.4499 24.5805 88.4693 24.5771C88.4888 24.5738 88.5067 24.5686 88.5219 24.5621C88.5371 24.5555 88.5493 24.5476 88.5579 24.5388C88.5665 24.5301 88.5713 24.5206 88.572 24.511C88.5727 24.5015 88.5693 24.4919 88.5619 24.483C88.5546 24.4741 88.5435 24.4659 88.5292 24.459C88.515 24.452 88.4979 24.4465 88.4789 24.4427C88.46 24.4388 88.4396 24.4368 88.4189 24.4366C88.3984 24.4363 88.378 24.4378 88.3589 24.4411C88.3397 24.4444 88.3221 24.4495 88.3072 24.4559C88.2922 24.4624 88.2802 24.4702 88.2717 24.4788C88.2632 24.4874 88.2585 24.4967 88.2578 24.5061Z" fill="#263238"/>
<path d="M96.6604 24.1752L94.748 24.2751L94.1973 22.0239C94.1776 21.9436 94.2279 21.8629 94.337 21.7996C94.446 21.7363 94.605 21.6957 94.779 21.6866L95.3718 21.6556C95.5458 21.6465 95.7204 21.6698 95.8573 21.7202C95.9942 21.7706 96.0821 21.8441 96.1018 21.9244L96.6525 24.1756L96.6604 24.1752Z" fill="#37474F"/>
<path d="M95.1207 24.4951L96.4061 24.428L96.3485 24.1928L95.0631 24.2599L95.1207 24.4951Z" fill="#37474F"/>
<path d="M96.1812 27.0067L96.5878 26.9855L95.968 24.4518L95.5614 24.4731L96.1812 27.0067Z" fill="#EBEBEB"/>
<path d="M96.0273 27.2377C96.0273 27.2377 96.3732 27.6147 96.3996 27.6135L96.5342 27.6062L96.6689 27.5988C96.6979 27.5988 96.851 27.195 96.851 27.195L96.587 26.984L96.1831 27.0047L96.0273 27.2377Z" fill="#EBEBEB"/>
<path d="M96.0833 23.9541L96.4165 23.9366L95.9337 21.9631L95.6005 21.9805L96.0833 23.9541Z" fill="#263238"/>
<path d="M95.4669 23.9856L95.8 23.9682L95.3172 21.9946L94.9841 22.012L95.4669 23.9856Z" fill="#263238"/>
<path d="M94.8518 24.014L95.185 23.9967L94.7029 22.023L94.3698 22.0404L94.8518 24.014Z" fill="#263238"/>
<path d="M94.1961 23.4026L95.2938 23.336L95.069 22.5449L93.9713 22.6115L94.1961 23.4026Z" fill="#EBEBEB"/>
<path d="M93.9339 22.7652L93.192 22.814C93.0785 22.8201 92.5743 22.6103 92.2258 22.631L91.843 22.6542C91.513 22.6737 90.1613 22.914 90.2748 23.313L90.3408 23.5497C90.3408 23.5497 90.4728 23.3288 90.7764 23.2703C90.9191 23.2432 91.079 23.243 91.222 23.2697C91.3651 23.2964 91.4799 23.3478 91.542 23.413C91.6385 23.5271 91.7179 23.6441 91.7796 23.7632L93.1419 23.6802C93.1669 23.5373 93.219 23.3956 93.2976 23.2569C93.3927 23.1495 94.0368 23.1349 94.0368 23.1349L93.9339 22.7652Z" fill="#EBEBEB"/>
<path d="M92.4471 25.154L93.2927 25.1031L92.895 23.6901L92.0495 23.7409L92.4471 25.154Z" fill="#EBEBEB"/>
<path d="M92.9363 27.6522L94.1982 27.5764L93.3133 24.4321L92.0514 24.5079L92.9363 27.6522Z" fill="#263238"/>
<path d="M90.8846 26.3215C91.0298 27.0913 91.241 27.9429 91.447 27.9929C91.8245 28.0844 96.991 27.7074 97.3817 27.5964C97.5929 27.5354 97.4926 26.6802 97.3447 25.9079L90.8846 26.3215Z" fill="#FFC100"/>
<path d="M84.1764 15.9905C85.2007 16.0515 86.7583 15.2585 87.3075 14.6571C87.3444 14.6144 87.12 14.2069 86.8983 13.7067C86.7663 13.4017 86.6343 13.0613 86.563 12.7466L82.4023 13.4334C82.7354 13.8146 82.9659 14.2133 83.0887 14.6205C83.0993 14.6639 83.0993 14.7076 83.0887 14.751C83.0874 14.7583 83.0874 14.7657 83.0887 14.773C83.0571 15.0231 83.1838 15.932 84.1764 15.9905Z" fill="#EB9481"/>
<path d="M86.3649 12.7795C86.328 13.176 85.9953 14.6168 83.5296 14.762C83.3833 14.7702 83.236 14.7739 83.0887 14.773C83.0858 14.7653 83.0858 14.7575 83.0887 14.7498C83.0966 14.7068 83.0966 14.6635 83.0887 14.6205C82.9644 14.2129 82.7331 13.8139 82.3997 13.4322L86.3649 12.7795Z" fill="#263238"/>
<path d="M86.291 10.4847C86.9458 11.1545 86.7082 13.2175 85.763 13.7299C84.3876 14.4741 81.8585 14.6876 80.4197 13.8934C79.0258 13.1248 79.4376 10.4383 80.5253 9.96008C82.1198 9.2537 85.3248 9.49404 86.291 10.4847Z" fill="#EB9481"/>
<path d="M82.566 11.9645C82.566 11.9645 82.5871 11.9719 82.5871 11.9767C82.5634 12.1158 82.5871 12.2769 82.8511 12.3293C82.8511 12.3293 82.8511 12.3379 82.8511 12.3366C82.5211 12.3074 82.4947 12.0939 82.566 11.9645Z" fill="#263238"/>
<path d="M82.8485 11.8255C83.3342 11.8194 83.3263 12.2683 82.8749 12.2744C82.4234 12.2805 82.4419 11.834 82.8485 11.8255Z" fill="#263238"/>
<path d="M80.8342 11.956C80.8342 11.956 80.8104 11.9633 80.8104 11.9682C80.8104 12.1073 80.7734 12.2671 80.5015 12.3122V12.3208C80.8342 12.3049 80.887 12.0926 80.8342 11.956Z" fill="#263238"/>
<path d="M80.5675 11.8145C80.0844 11.7962 80.0395 12.2439 80.4857 12.2622C80.9319 12.2805 80.9741 11.834 80.5675 11.8145Z" fill="#263238"/>
<path d="M83.2365 11.6217C83.1092 11.6037 82.9841 11.5825 82.8617 11.5583C82.7228 11.5448 82.5974 11.5105 82.5053 11.4607C82.4824 11.4425 82.4734 11.4214 82.4796 11.4006C82.4859 11.3798 82.507 11.3606 82.5396 11.346C82.6149 11.3204 82.7039 11.3049 82.7969 11.301C82.89 11.2971 82.9836 11.3051 83.0676 11.324C83.2462 11.3478 83.3989 11.4018 83.4953 11.4753C83.5172 11.4931 83.527 11.5135 83.5233 11.5339C83.5197 11.5543 83.5027 11.5737 83.4747 11.5896C83.4467 11.6054 83.4089 11.617 83.3664 11.6227C83.3239 11.6285 83.2786 11.6281 83.2365 11.6217Z" fill="#263238"/>
<path d="M80.1953 11.59C80.3262 11.578 80.4557 11.5629 80.5834 11.5449C80.7242 11.5381 80.8562 11.5097 80.9582 11.4643C80.9892 11.4472 81.0061 11.4256 81.0061 11.4033C81.0061 11.381 80.9892 11.3595 80.9582 11.3423C80.8904 11.3144 80.8076 11.2954 80.7185 11.2873C80.6293 11.2791 80.5371 11.2821 80.4514 11.296C80.2672 11.3125 80.1032 11.3604 79.992 11.4302C79.9671 11.4461 79.9528 11.4651 79.9508 11.4847C79.9488 11.5043 79.9592 11.5238 79.9808 11.5407C80.0023 11.5577 80.0341 11.5714 80.0722 11.5801C80.1103 11.5889 80.153 11.5923 80.1953 11.59Z" fill="#263238"/>
<path d="M82.8405 13.259C82.7693 13.2919 82.6953 13.3358 82.5765 13.3395C82.4639 13.3381 82.3532 13.3256 82.2518 13.3029C82.2518 13.3029 82.2333 13.3029 82.2386 13.3102C82.2816 13.3377 82.3399 13.3594 82.4072 13.3729C82.4746 13.3864 82.5486 13.3913 82.6214 13.3871C82.6827 13.3799 82.738 13.3644 82.7803 13.3427C82.8226 13.321 82.85 13.294 82.859 13.2651C82.8749 13.2577 82.8511 13.2541 82.8405 13.259Z" fill="#263238"/>
<path d="M82.5343 12.8417C82.4569 12.8975 82.3552 12.9452 82.2356 12.9817C82.1161 13.0183 81.9813 13.0429 81.84 13.054C81.7181 13.0646 81.5935 13.0666 81.4704 13.0601C81.4476 13.0614 81.4245 13.0614 81.4017 13.0601H81.3357C81.3194 13.0587 81.3045 13.0549 81.2934 13.0491C81.2824 13.0434 81.2759 13.036 81.275 13.0284C81.2738 13.0235 81.2738 13.0186 81.275 13.0137V13.0015C81.275 12.8942 81.2988 12.7307 81.2988 12.7307C81.2117 12.7502 80.7708 12.8381 80.7866 12.7819C80.8226 12.2994 80.9659 11.8199 81.2143 11.3509C81.2143 11.3476 81.2171 11.3445 81.222 11.3422C81.227 11.34 81.2337 11.3387 81.2407 11.3387C81.2477 11.3387 81.2544 11.34 81.2594 11.3422C81.2643 11.3445 81.2671 11.3476 81.2671 11.3509C81.2407 11.7974 81.0427 12.2378 81.0031 12.6856C81.1577 12.6534 81.3212 12.6312 81.4889 12.6197C81.5205 12.6197 81.4255 12.9344 81.436 12.9857C81.6245 12.9949 81.815 12.9865 81.9963 12.9612C82.1777 12.9358 82.3462 12.894 82.492 12.8381C82.529 12.821 82.5528 12.8307 82.5343 12.8417Z" fill="#263238"/>
<path d="M81.6473 13.0259C81.7867 13.0952 81.9621 13.1469 82.1568 13.176C82.2641 13.1918 82.3795 13.1918 82.4868 13.176C82.7191 13.1382 82.7086 13.0381 82.6505 12.9527C82.6175 12.9099 82.5741 12.869 82.5211 12.8307C82.2825 12.9373 81.9762 13.0057 81.6473 13.0259Z" fill="#263238"/>
<path d="M82.1568 13.176C82.2641 13.1918 82.3795 13.1918 82.4868 13.176C82.7191 13.1382 82.7086 13.0381 82.6505 12.9527C82.5262 12.9593 82.4101 12.9848 82.3207 13.0252C82.2313 13.0656 82.1736 13.1187 82.1568 13.176Z" fill="#F291B8"/>
<path d="M86.2198 12.0438C85.3433 12.1658 84.4536 10.4176 84.4536 10.4176C84.0073 10.5964 83.5043 10.7425 82.962 10.8507C82.399 10.9427 81.8154 11.0053 81.2222 11.0373C81.0902 11.0373 82.4419 10.5615 82.4419 10.5615C82.4419 10.5615 80.9899 11.0044 79.7359 10.9275C79.3478 10.9019 79.9762 9.40132 82.7112 9.28054C84.5592 9.19758 85.6152 9.87956 85.6152 9.87956C85.6152 9.87956 86.8718 10.2724 87.0038 10.5615C87.1728 10.9434 87.1464 11.9218 86.2198 12.0438Z" fill="#263238"/>
<path d="M85.5175 12.1317C85.5175 12.1317 86.3518 11.429 87.0329 11.5607C87.714 11.6925 87.1887 12.6758 86.4653 12.8417C86.3766 12.8652 86.2787 12.8802 86.1773 12.886C86.0759 12.8918 85.973 12.8881 85.8746 12.8753C85.7763 12.8625 85.6845 12.8407 85.6046 12.8112C85.5247 12.7818 85.4583 12.7453 85.4093 12.7039L85.5175 12.1317Z" fill="#EB9481"/>
<path d="M86.856 11.8401V11.8499C86.3517 11.9719 86.1273 12.2159 85.9874 12.4599C86.0123 12.4338 86.0491 12.4106 86.0953 12.3918C86.1414 12.373 86.1959 12.359 86.2549 12.3509C86.3139 12.3428 86.376 12.3407 86.437 12.3448C86.4979 12.3488 86.5562 12.359 86.6078 12.3745C86.621 12.3745 86.6078 12.3891 86.6078 12.3879C86.5115 12.3789 86.4116 12.3839 86.3218 12.4023C86.232 12.4207 86.1567 12.4514 86.1062 12.4904C86.0221 12.5554 85.9539 12.6245 85.9029 12.6965C85.8845 12.7197 85.7947 12.7124 85.8079 12.6856C85.7287 12.3696 86.1511 11.9084 86.856 11.8401Z" fill="#263238"/>
<path d="M79.3716 10.6823C79.3716 10.6823 80.1398 8.59124 84.1817 8.8938C88.2235 9.19636 87.5239 11.2923 87.5239 11.2923L79.3716 10.6823Z" fill="#FFC100"/>
<path d="M87.8791 11.1642L79.1202 10.5087L79.0164 10.8049L87.7753 11.4605L87.8791 11.1642Z" fill="#FFC100"/>
<path d="M83.4346 10.8336L81.6104 10.697L82.7588 8.67664L84.583 8.81328L83.4346 10.8336Z" fill="#FFC100"/>
<path opacity="0.1" d="M83.4346 10.8336L81.6104 10.697L82.7588 8.67664L84.583 8.81328L83.4346 10.8336Z" fill="black"/>
<path d="M83.0861 14.6864L84.1209 15.838L87.1965 14.357L88.0915 14.8218C88.0915 14.8218 85.1057 17.1654 85.0845 17.0605L84.0285 16.0686L82.5554 16.7701L82.632 15.0267L83.0861 14.6864Z" fill="#FFC100"/>
<path d="M82.4868 15.9076C82.5185 15.6197 82.537 15.3305 82.5977 15.0438C82.5977 15.0328 82.6346 15.028 82.6399 15.0438C82.7719 15.3208 82.6399 16.4212 82.6399 16.6847C82.7006 16.6542 84.0048 16.0662 84.018 16.0747C84.245 16.2321 85.0212 16.9543 85.074 17.0202C85.5439 16.6481 87.3576 15.2939 87.9173 14.9462C87.9201 14.944 87.9247 14.9423 87.9302 14.9416C87.9356 14.9409 87.9414 14.9413 87.9463 14.9426C87.9512 14.9439 87.9548 14.946 87.9563 14.9485C87.9578 14.951 87.957 14.9537 87.9542 14.956C87.5398 15.3488 85.1426 17.1715 85.1057 17.1666C84.6971 16.8262 84.3278 16.4759 83.9995 16.1174C83.7804 16.2394 82.4657 16.908 82.4578 16.8653C82.431 16.546 82.4407 16.2264 82.4868 15.9076Z" fill="#263238"/>
<path d="M65.4879 24.2097C65.3633 24.4876 65.0735 24.744 64.651 24.9501C64.2285 25.1561 63.69 25.3036 63.096 25.376L63.6451 24.156L62.304 23.779L60.757 23.8778L60.2079 25.0978C59.7451 24.9297 59.3878 24.7076 59.173 24.4543C58.9582 24.201 58.8937 23.9258 58.9861 23.6572C59.0785 23.3885 59.3245 23.1361 59.6987 22.9261C60.0728 22.7161 60.5616 22.5561 61.1144 22.4626C61.6672 22.3691 62.264 22.3455 62.8431 22.3943C63.4222 22.4431 63.9626 22.5624 64.4085 22.74C64.8544 22.9177 65.1895 23.1471 65.3793 23.4046C65.569 23.6621 65.6065 23.9383 65.4879 24.2048V24.2097Z" fill="#37474F"/>
<path d="M62.7819 15.533C62.9072 15.255 63.1976 14.9987 63.6205 14.7927C64.0435 14.5867 64.5822 14.4392 65.1764 14.3667L64.6272 15.5867L65.9631 15.9613L67.5101 15.8624L68.0592 14.6424C68.522 14.8106 68.8792 15.0328 69.0939 15.2862C69.3086 15.5395 69.373 15.8147 69.2803 16.0834C69.1877 16.3521 68.9415 16.6045 68.5671 16.8144C68.1928 17.0244 67.7038 17.1844 67.1509 17.2778C66.5979 17.3712 66.001 17.3946 65.4219 17.3457C64.8428 17.2968 64.3024 17.1773 63.8567 16.9995C63.411 16.8217 63.0761 16.5922 62.8867 16.3346C62.6973 16.077 62.6602 15.8007 62.7792 15.5343L62.7819 15.533Z" fill="#37474F"/>
<path d="M66.8361 16.5246L63.9373 16.2881L61.3547 23.0498L64.2535 23.2862L66.8361 16.5246Z" fill="#37474F"/>
<path d="M89.4142 17.3643C88.6723 18.4037 86.167 22.287 81.774 23.2337C77.6609 24.1194 70.2583 23.0177 67.9774 22.7652C66.9821 22.6542 68.178 19.5578 69.139 19.3187C70.0999 19.0796 77.9011 20.0958 78.7037 20.0251C79.5063 19.9543 83.4161 18.095 86.0614 16.7311C88.5588 15.4464 90.7975 15.4208 89.4142 17.3643Z" fill="#EB9481"/>
<path d="M80.8447 23.3947C80.7312 22.4382 80.3352 21.5184 79.6673 20.8327C79.449 20.5988 79.163 20.3796 78.8172 20.1812C78.7234 20.1262 78.6211 20.0744 78.511 20.0263C78.474 20.0104 78.4344 19.9934 78.3948 19.9787C78.3425 19.9562 78.287 19.9354 78.2285 19.9165C77.935 19.8099 77.5913 19.7368 77.2253 19.703C77.1738 19.6981 77.1218 19.6944 77.0695 19.692H76.9402H76.7659C76.7387 19.6908 76.7113 19.6908 76.6841 19.692C76.6605 19.6902 76.6364 19.6902 76.6128 19.692C76.302 19.6997 75.996 19.731 75.7073 19.7847L76.1561 19.8299H76.1798H76.201H76.2326C76.3578 19.8172 76.4849 19.8091 76.6128 19.8055H76.8293H76.9718C77.3342 19.8262 77.6783 19.8905 77.9698 19.9921C79.2739 20.4216 80.3801 21.5781 80.5649 23.4203C80.5834 23.596 80.5913 23.779 80.5913 23.9681C80.5913 24.999 80.2666 25.9494 79.6805 26.6436C79.2396 27.1621 78.445 27.7782 77.1197 27.816H76.9006H76.8372H76.7158C76.7061 27.8167 76.6963 27.8167 76.6867 27.816C74.7173 27.6672 72.7769 26.0616 72.7769 23.4618C72.7769 23.413 72.7769 23.363 72.7769 23.3154L72.5129 23.2898C72.5129 23.3471 72.5129 23.4045 72.5129 23.4618C72.5129 24.755 73.0884 26.0738 74.1286 26.9449C74.3222 27.1095 74.5494 27.2651 74.807 27.4097C74.8975 27.4596 74.9936 27.5072 75.0948 27.5525C75.1397 27.5732 75.1872 27.594 75.2321 27.6123C75.6279 27.7854 76.1275 27.8994 76.6656 27.9392H76.7263H76.8082H77.117C77.566 27.9266 77.9976 27.8546 78.3605 27.7318C78.4106 27.716 78.4582 27.6989 78.5083 27.6806C78.6156 27.6389 78.7178 27.5945 78.8146 27.5476C79.2028 27.3495 79.5176 27.1232 79.7465 26.8778C79.8072 26.8168 79.8653 26.7558 79.9207 26.6887C80.52 25.9799 80.85 25.0137 80.85 23.9681C80.879 23.7802 80.8685 23.5863 80.8447 23.3947Z" fill="#263238"/>
<path d="M81.2513 23.3325C81.1087 22.3565 80.6388 21.4208 79.8547 20.7412C79.594 20.5088 79.2594 20.2958 78.8621 20.1093C78.8013 20.0812 78.7406 20.0544 78.6773 20.03C78.6139 20.0056 78.5875 19.9958 78.5453 19.9799C78.164 19.8374 77.7091 19.7433 77.2253 19.7067C77.1738 19.7017 77.1218 19.6981 77.0695 19.6957H76.9401H76.7659C76.7387 19.6944 76.7113 19.6944 76.6841 19.6957C76.6605 19.6939 76.6364 19.6939 76.6128 19.6957C76.5794 19.6945 76.5459 19.6945 76.5125 19.6957H76.4808C76.189 19.7057 75.9014 19.7336 75.6254 19.7786L75.7073 19.786L76.1561 19.8311H76.1798H76.201C76.3005 19.8224 76.4009 19.8163 76.5019 19.8128H76.5336C76.5599 19.8116 76.5865 19.8116 76.6128 19.8128H76.8293H76.9718C77.3919 19.8312 77.7951 19.8983 78.144 20.008C78.789 20.2205 79.3105 20.5034 79.662 20.8315C80.3563 21.4256 80.8579 22.276 80.982 23.3715C81.0057 23.5643 81.019 23.7644 81.019 23.973C81.019 25.0027 80.6599 25.9518 80.0052 26.646C79.9339 26.7241 79.8521 26.8034 79.7597 26.8827C79.2501 27.3256 78.4397 27.766 77.2464 27.8172H77.1276H76.9085H76.8451H76.824H76.7712H76.7527C76.6244 27.812 76.4972 27.8018 76.3726 27.7867C76.3657 27.7877 76.3583 27.7877 76.3514 27.7867C76.2775 27.777 76.2062 27.7672 76.135 27.755C76.0637 27.7428 76.0373 27.7391 75.9871 27.7294C75.2232 27.5568 74.588 27.2828 74.1629 26.9425C73.9481 26.7862 73.7575 26.6232 73.5926 26.4545C72.8006 25.6407 72.3307 24.5501 72.3307 23.4606C72.3307 23.3959 72.3307 23.3313 72.3307 23.2678L72.0667 23.2422C72.0667 23.3142 72.0667 23.3874 72.0667 23.4606C72.0667 24.6464 72.5947 25.8542 73.5821 26.718C73.8154 26.9275 74.0959 27.125 74.419 27.3073C74.5249 27.3673 74.6386 27.4244 74.7595 27.4781C75.2427 27.7132 75.8734 27.8724 76.5626 27.9331H76.5837H76.6181H76.6761H76.7369H76.8372H77.1461C77.7114 27.9213 78.2556 27.8302 78.7063 27.672C78.8069 27.6382 78.9022 27.6011 78.9914 27.561C79.357 27.4022 79.6662 27.2178 79.9075 27.0145C80.0394 26.9074 80.1584 26.797 80.2639 26.6838C80.9318 25.975 81.2988 25.0076 81.2988 23.962C81.312 23.7595 81.2829 23.546 81.2513 23.3325Z" fill="#263238"/>
<path d="M81.6869 23.252C81.5126 22.2955 80.9952 21.3854 80.1451 20.7229C79.8659 20.5007 79.5182 20.2985 79.1129 20.1227C79.0186 20.0817 78.9199 20.0431 78.8172 20.0068C78.3142 19.8248 77.7063 19.7153 77.0695 19.692H76.9718H76.7659C76.7387 19.6908 76.7113 19.6908 76.6841 19.692C76.6605 19.6902 76.6364 19.6902 76.6128 19.692C76.5794 19.6908 76.5459 19.6908 76.5125 19.692H76.4808L76.2458 19.7018H76.2089C75.9904 19.7145 75.7749 19.7361 75.5647 19.7664L75.6254 19.7725L75.7073 19.7799L76.1561 19.825H76.1798L76.3145 19.8152H76.4491H76.5336C76.5599 19.814 76.5865 19.814 76.6128 19.8152H76.8293C76.8767 19.8134 76.9244 19.8134 76.9718 19.8152C77.4499 19.8331 77.9112 19.9047 78.3156 20.0239C78.4829 20.0717 78.6417 20.1256 78.7908 20.1849C79.1941 20.3453 79.543 20.5329 79.8257 20.7412C80.6388 21.3256 81.2381 22.182 81.4097 23.3032C81.444 23.5179 81.4625 23.7436 81.4625 23.9779C81.4625 25.0063 81.0665 25.9555 80.3484 26.6497C80.2127 26.7816 80.0565 26.9088 79.8811 27.0303C79.5995 27.2335 79.2419 27.412 78.8251 27.5574C78.3653 27.716 77.8141 27.8081 77.2411 27.8221H77.1223H76.9032H76.8398H76.721H76.6788H76.6313H76.5653C76.5416 27.8238 76.5176 27.8238 76.494 27.8221C76.3611 27.8118 76.2304 27.7963 76.1033 27.7757C76.0531 27.7684 76.0056 27.7599 75.9554 27.7501C75.5385 27.6745 75.1528 27.5664 74.8149 27.4305C74.3188 27.2325 73.8937 26.9995 73.5557 26.74C72.5419 25.9884 71.8529 24.8795 71.8529 23.4826C71.8529 23.4012 71.8529 23.3199 71.8529 23.2386L71.5889 23.2105C71.5889 23.2983 71.5889 23.3874 71.5889 23.4765C71.5889 24.5952 72.1169 25.7335 73.0752 26.5838C73.3298 26.8147 73.6388 27.032 73.9965 27.2316C74.5973 27.5919 75.4535 27.8429 76.4148 27.9404H76.4649H76.5362H76.5679H76.6022H76.6603H76.721H76.7395H76.8213H77.1751C77.953 27.9253 78.6948 27.7846 79.2713 27.5427C79.6552 27.3815 79.9852 27.1948 80.2507 26.9888C80.3669 26.8986 80.4804 26.8034 80.586 26.7009C81.3199 25.9909 81.7265 25.0234 81.7265 23.9767C81.7529 23.7327 81.7317 23.4911 81.6869 23.252Z" fill="#263238"/>
<path d="M82.104 23.1532C81.9034 22.2577 81.3701 21.4098 80.52 20.7766L80.5068 20.7681C80.1067 20.4561 79.5666 20.1873 78.9228 19.9799C78.3482 19.8021 77.6787 19.7008 76.9877 19.6871H76.758C76.7308 19.6859 76.7034 19.6859 76.6762 19.6871C76.6526 19.6853 76.6285 19.6853 76.6049 19.6871C76.5715 19.6859 76.538 19.6859 76.5046 19.6871H76.4861H76.4122L76.2379 19.6957H76.201C75.9674 19.7074 75.7362 19.7273 75.5093 19.7555H75.5568L75.6175 19.7616L75.6994 19.7689L76.1482 19.814L76.2854 19.8055H76.2987H76.4333H76.5178C76.5441 19.8043 76.5706 19.8043 76.597 19.8055H76.9507C77.4408 19.8142 77.921 19.872 78.3578 19.9751C78.4275 19.99 78.4953 20.0067 78.5611 20.0251C78.6522 20.0483 78.7404 20.074 78.8251 20.1019C79.3323 20.2693 79.7682 20.4786 80.1108 20.7193C81.0507 21.3549 81.6262 22.2577 81.8268 23.2105C81.8796 23.4618 81.906 23.7152 81.906 23.9706C81.906 24.999 81.4757 25.947 80.6942 26.6399C80.5617 26.759 80.4108 26.8736 80.2428 26.9827C79.9039 27.2141 79.4687 27.4119 78.9624 27.5647C78.8175 27.6077 78.6657 27.6457 78.5083 27.6781C78.1635 27.7487 77.7961 27.7927 77.4207 27.8087C77.3626 27.8105 77.3044 27.8105 77.2464 27.8087C77.2051 27.8099 77.1636 27.8099 77.1223 27.8087H77.0273C76.9639 27.8087 76.9032 27.8087 76.8398 27.8087H76.6709H76.6234H76.5574C76.5338 27.8104 76.5097 27.8104 76.4861 27.8087H76.4307L76.333 27.8001C76.3261 27.8012 76.3187 27.8012 76.3118 27.8001C75.8813 27.7532 75.4702 27.6741 75.0948 27.5659C74.8408 27.4948 74.6013 27.4131 74.3794 27.3219C73.8592 27.1085 73.4139 26.8591 73.0594 26.5826C72.0641 25.8372 71.4067 24.7819 71.4067 23.4752C71.4067 23.3801 71.4067 23.2861 71.4067 23.1922L71.1427 23.1641C71.1322 23.2666 71.1269 23.3703 71.1269 23.4752C71.1269 24.5354 71.639 25.6127 72.5842 26.4472C73.4395 27.2084 74.6618 27.7648 76.1772 27.9221C76.2312 27.9283 76.2858 27.9332 76.3409 27.9368H76.3752H76.4254H76.4967H76.5283H76.5627H76.6207H76.6392H76.6999H76.8715H77.1936C78.5558 27.9136 79.7148 27.5708 80.5807 26.951C80.6943 26.8693 80.8025 26.7839 80.9054 26.6924C81.6974 25.9811 82.1489 25.0137 82.1489 23.9657C82.1638 23.6947 82.1488 23.4235 82.104 23.1532Z" fill="#263238"/>
<path d="M82.5211 23.0397C82.1489 21.6977 80.9688 20.4777 79.0258 19.9543C78.4089 19.7873 77.7104 19.6954 76.9956 19.6871H76.7659C76.7387 19.6859 76.7113 19.6859 76.6841 19.6871C76.6605 19.6853 76.6364 19.6853 76.6128 19.6871C76.5794 19.6859 76.5459 19.6859 76.5125 19.6871H76.4201L76.2459 19.6957H76.2089C75.9638 19.7069 75.7204 19.7253 75.4803 19.7506H75.5172H75.5648L75.6255 19.7567L75.7073 19.764L76.1561 19.8091L76.3013 19.8018H76.3145H76.4491H76.5336C76.56 19.8006 76.5865 19.8006 76.6128 19.8018H76.6947H76.9771C77.4006 19.8063 77.8197 19.8425 78.2179 19.9092C78.3251 19.9263 78.43 19.9462 78.5321 19.969C78.599 19.982 78.665 19.9966 78.7301 20.0129C78.8572 20.044 78.9806 20.0782 79.0997 20.1154C79.6508 20.2882 80.1271 20.5071 80.5042 20.7607L80.5174 20.7693C81.4467 21.3793 82.0328 22.2138 82.2624 23.1019C82.3366 23.389 82.3736 23.6778 82.3733 23.9669C82.3733 24.9941 81.9087 25.9421 81.0665 26.635C80.9341 26.7452 80.7859 26.8512 80.623 26.9522C80.2623 27.1862 79.8057 27.3851 79.2792 27.5378C79.0948 27.5913 78.9005 27.637 78.6984 27.6745C78.5954 27.6954 78.4896 27.7134 78.3816 27.7282C78.0771 27.7733 77.7612 27.7999 77.4418 27.8075C77.3838 27.8093 77.3256 27.8093 77.2675 27.8075C77.2262 27.8087 77.1848 27.8087 77.1435 27.8075H77.0484C76.9851 27.8075 76.9244 27.8075 76.861 27.8075H76.7818H76.758H76.7026H76.6445H76.5785C76.5548 27.8086 76.5309 27.8086 76.5072 27.8075H76.4518L76.3541 27.7989C76.3472 27.7999 76.3399 27.7999 76.333 27.7989C75.958 27.763 75.595 27.7043 75.2532 27.6245C75.0767 27.5842 74.9056 27.539 74.7411 27.489C74.4796 27.4116 74.2332 27.3238 74.0045 27.2267C73.4628 26.9987 72.9975 26.7348 72.6238 26.4435C71.6575 25.7115 71.0266 24.7001 71.0266 23.4716C71.0266 23.3618 71.0266 23.252 71.0451 23.1446L70.7811 23.1153C70.7811 23.2373 70.7599 23.352 70.7599 23.4716C70.7599 25.5017 72.7795 27.5952 76.2142 27.9185C76.2682 27.9246 76.3228 27.9295 76.3779 27.9331H76.4122H76.4624H76.5336H76.5548H76.5891H76.6656L76.9296 27.9417H77.2121C78.8991 27.927 80.3009 27.4964 81.2724 26.6985C82.1384 25.9872 82.6135 25.0185 82.6135 23.9706C82.6262 23.6597 82.5953 23.3487 82.5211 23.0397Z" fill="#263238"/>
<path d="M79.464 19.1369C78.125 19.1504 76.8083 19.2977 75.6043 19.5688H75.5832C75.3966 19.6127 75.2145 19.6603 75.0367 19.7115H74.976L74.6909 19.6823C76.1104 19.2609 77.7559 19.0306 79.4429 19.0174L79.464 19.1369Z" fill="#263238"/>
<path d="M78.4344 19.387C77.3771 19.4166 76.3424 19.5409 75.3878 19.753L75.0394 19.7176H74.9786C75.1714 19.6688 75.3746 19.6237 75.5858 19.581H75.607C76.496 19.4043 77.4427 19.2975 78.408 19.265L78.4344 19.387Z" fill="#263238"/>
<path d="M78.2734 19.0003C76.9651 19.0931 75.7205 19.3235 74.6355 19.6737L74.2896 19.642C75.4501 19.2445 76.8032 18.984 78.2311 18.8832L78.2734 19.0003Z" fill="#263238"/>
<path d="M61.3035 17.4936C61.1323 17.5812 61.0232 17.6909 60.9906 17.808C60.9581 17.9251 61.0037 18.0439 61.1213 18.1487C60.6979 18.1956 60.3239 18.3101 60.0653 18.472C59.6403 18.766 60.4507 19.204 60.4507 19.204C60.0365 19.2962 59.6916 19.4436 59.4607 19.6274C59.1149 19.9275 59.796 20.4216 59.796 20.4216C59.5163 20.6033 59.387 20.8254 59.4317 21.0474C59.6033 21.6379 61.3985 22.0125 62.5311 22.2565C63.6636 22.5005 67.3807 22.7005 68.0751 22.7725L71.544 19.4175C71.544 19.4175 67.1299 17.6558 65.707 17.4558C64.4979 17.2886 61.9872 17.1703 61.3035 17.4936Z" fill="#EB9481"/>
<path d="M61.2269 18.106C62.5944 18.1426 63.8669 18.3647 65.1552 18.5525C65.1612 18.5535 65.1661 18.5555 65.1688 18.5582C65.1715 18.5608 65.1719 18.5638 65.1698 18.5666C65.1676 18.5693 65.1633 18.5716 65.1576 18.5728C65.1519 18.5741 65.1453 18.5742 65.1394 18.5733C63.859 18.3793 62.4994 18.3049 61.2164 18.1353C61.208 18.1346 61.2004 18.1325 61.1955 18.1293C61.1905 18.1261 61.1886 18.1221 61.19 18.1182C61.1914 18.1143 61.196 18.1109 61.203 18.1086C61.2099 18.1063 61.2185 18.1054 61.2269 18.106Z" fill="#263238"/>
<path d="M60.5247 19.1638C60.8336 19.1855 61.1346 19.2266 61.4196 19.2858C61.7311 19.3382 62.0374 19.3943 62.3436 19.4517C62.9561 19.5676 63.5633 19.6896 64.1626 19.8177C64.189 19.8177 64.1784 19.8433 64.1626 19.8384C63.5501 19.7237 62.935 19.6127 62.3146 19.5102C62.0031 19.459 61.6915 19.4078 61.38 19.359C61.0779 19.321 60.7858 19.2678 60.5088 19.2004C60.5029 19.1978 60.4985 19.1946 60.496 19.191C60.4936 19.1875 60.4931 19.1837 60.4947 19.18C60.4963 19.1764 60.4999 19.1729 60.5051 19.1701C60.5104 19.1672 60.5171 19.1651 60.5247 19.1638Z" fill="#263238"/>
<path d="M59.8277 20.424C60.1055 20.4462 60.3733 20.49 60.6197 20.5533C60.8969 20.6095 61.1741 20.6631 61.4513 20.718C62.0083 20.8254 62.5654 20.934 63.1277 21.0328C63.1567 21.0328 63.1435 21.0584 63.1277 21.0535C62.5522 20.9535 61.9766 20.8583 61.4038 20.7571L60.5616 20.6046C60.2961 20.5695 60.0466 20.5124 59.825 20.4362C59.825 20.4362 59.8145 20.424 59.8277 20.424Z" fill="#263238"/>
<path d="M73.986 19.5969C73.1234 19.485 72.2471 19.397 71.3619 19.3333C70.6095 18.9779 69.7954 18.6514 68.9278 18.3573C68.0759 18.0636 67.1775 17.7997 66.2403 17.568C66.2165 17.568 66.198 17.5778 66.2191 17.5851C67.1088 17.8547 67.9747 18.1487 68.8195 18.4501C69.6643 18.7514 70.4379 19.0735 71.2325 19.3943C71.2642 19.4053 73.3815 19.5505 73.9728 19.6176C73.9966 19.6213 74.0098 19.6005 73.986 19.5969Z" fill="#263238"/>
<path d="M81.6235 18.5916L87.4315 20.3667C87.4315 20.3667 89.2215 18.4647 89.7151 17.0727C90.2088 15.6807 89.4696 15.2646 86.2673 16.5347C83.065 17.8047 81.6235 18.5916 81.6235 18.5916Z" fill="#FFC100"/>
<path d="M80.9556 18.8319L81.9773 18.2292L87.9569 20.1776L87.1095 20.8315L80.9556 18.8319Z" fill="#FFC100"/>
<path opacity="0.1" d="M80.9556 18.8319L81.9773 18.2292L87.9569 20.1776L87.1095 20.8315L80.9556 18.8319Z" fill="black"/>
<path d="M89.599 18.156C89.6002 18.1539 89.5998 18.1516 89.5978 18.1495C89.5958 18.1475 89.5923 18.1458 89.588 18.1448C89.5836 18.1438 89.5787 18.1436 89.574 18.144C89.5692 18.1445 89.565 18.1457 89.562 18.1475C89.1797 18.4593 88.8368 18.7811 88.535 19.1113C88.3872 19.2736 88.2446 19.437 88.1074 19.5993C87.9701 19.7616 87.8566 19.9348 87.7219 20.1007C87.7219 20.1093 87.7457 20.1154 87.7536 20.1007C87.8988 19.9385 88.0678 19.7823 88.2209 19.6225C88.3397 19.5005 88.4585 19.3724 88.5799 19.2467C88.8556 19.0962 89.08 18.9271 89.2452 18.7453C89.2452 18.7453 89.2452 18.7368 89.2267 18.7453C89.1079 18.8307 88.9997 18.9222 88.8809 19.0088C88.8096 19.0601 88.741 19.1101 88.667 19.1601L88.6908 19.1345C89.0076 18.8124 89.3103 18.4862 89.599 18.156Z" fill="#263238"/>
<path d="M54.0593 50.0883H25.9935V55.349H54.0593V50.0883Z" fill="#FFC100"/>
<path d="M55.3001 48.6621H24.7579V50.0883H55.3001V48.6621Z" fill="#FFC100"/>
<path opacity="0.1" d="M54.0619 50.0883H25.9935V51.0924H54.0619V50.0883Z" fill="black"/>
<path d="M43.2908 49.5454H37.1554V50.6337H43.2908V49.5454Z" fill="#263238"/>
<path d="M45.4978 48.6621H44.0431V47.8106H36.0123V48.6621H34.5576V47.1384H45.4978V48.6621Z" fill="#263238"/>
</svg>
