<svg width="150" height="80" viewBox="0 0 150 80" fill="none" xmlns="http://www.w3.org/2000/svg">
<path d="M150 61.184H0V61.224H150V61.184Z" fill="#EBEBEB"/>
<path d="M134.97 63.7584H125.034V63.7984H134.97V63.7584Z" fill="#EBEBEB"/>
<path d="M99.366 64.1936H96.759V64.2336H99.366V64.1936Z" fill="#EBEBEB"/>
<path d="M124.734 62.2736H118.977V62.3136H124.734V62.2736Z" fill="#EBEBEB"/>
<path d="M28.695 62.5424H15.738V62.5824H28.695V62.5424Z" fill="#EBEBEB"/>
<path d="M33.267 62.5424H31.368V62.5824H33.267V62.5424Z" fill="#EBEBEB"/>
<path d="M67.545 63.2176H39.441V63.2576H67.545V63.2176Z" fill="#EBEBEB"/>
<path d="M71.1 54.048H13.173C12.7192 54.0476 12.2843 53.9511 11.9637 53.7798C11.6431 53.6085 11.463 53.3764 11.463 53.1344V9.70559C11.467 9.46495 11.6488 9.23486 11.9689 9.0653C12.2891 8.89574 12.7218 8.8004 13.173 8.79999H71.1C71.5543 8.79999 71.99 8.89624 72.3113 9.06758C72.6325 9.23891 72.813 9.47129 72.813 9.71359V53.1344C72.813 53.3767 72.6325 53.6091 72.3113 53.7804C71.99 53.9517 71.5543 54.048 71.1 54.048ZM13.173 8.83199C12.7391 8.83241 12.3232 8.92464 12.0167 9.08842C11.7102 9.25221 11.538 9.47417 11.538 9.70559V53.1344C11.538 53.3658 11.7102 53.5878 12.0167 53.7515C12.3232 53.9153 12.7391 54.0076 13.173 54.008H71.1C71.5342 54.0076 71.9504 53.9154 72.2574 53.7516C72.5644 53.5879 72.7372 53.3659 72.738 53.1344V9.70559C72.7372 9.47402 72.5644 9.25207 72.2574 9.08833C71.9504 8.92459 71.5342 8.83241 71.1 8.83199H13.173Z" fill="#EBEBEB"/>
<path d="M135.993 54.048H78.063C77.6089 54.0476 77.1737 53.9512 76.8526 53.7799C76.5315 53.6087 76.3508 53.3766 76.35 53.1344V9.70559C76.3547 9.46481 76.5372 9.23472 76.8578 9.0652C77.1785 8.89569 77.6115 8.8004 78.063 8.79999H135.993C136.444 8.80082 136.876 8.89635 137.195 9.06586C137.515 9.23538 137.696 9.46523 137.7 9.70559V53.1344C137.7 53.3761 137.52 53.608 137.2 53.7793C136.88 53.9505 136.446 54.0471 135.993 54.048ZM78.063 8.83199C77.6288 8.83241 77.2126 8.92459 76.9056 9.08833C76.5986 9.25207 76.4258 9.47402 76.425 9.70559V53.1344C76.4258 53.3659 76.5986 53.5879 76.9056 53.7516C77.2126 53.9154 77.6288 54.0076 78.063 54.008H135.993C136.427 54.0076 136.843 53.9154 137.15 53.7516C137.457 53.5879 137.63 53.3659 137.631 53.1344V9.70559C137.63 9.47402 137.457 9.25207 137.15 9.08833C136.843 8.92459 136.427 8.83241 135.993 8.83199H78.063Z" fill="#EBEBEB"/>
<path d="M130.791 61.184H140.301V52.2048H130.791V61.184Z" fill="#F0F0F0"/>
<path d="M122.463 61.184H131.973V54.1744H122.463V61.184Z" fill="#F0F0F0"/>
<path d="M116.382 61.184H125.892V48.3984H116.382V61.184Z" fill="#F0F0F0"/>
<path d="M110.064 61.184H119.574V38.032H110.064V61.184Z" fill="#F0F0F0"/>
<path d="M86.544 61.184H112.062V39.8336H86.544V61.184Z" fill="#F0F0F0"/>
<path d="M21.735 53.1488H8.271V61.184H21.735V53.1488Z" fill="#F5F5F5"/>
<path d="M33.525 54.9104H20.061V61.1824H33.525V54.9104Z" fill="#F5F5F5"/>
<path d="M42.135 49.7424H28.671V61.184H42.135V49.7424Z" fill="#F5F5F5"/>
<path d="M51.084 40.4656H37.62V61.184H51.084V40.4656Z" fill="#F5F5F5"/>
<path d="M48.366 61.184H70.398V35.8736H48.366L48.366 61.184Z" fill="#F0F0F0"/>
<path d="M50.46 40.016H51.51V36.936H50.46V40.016Z" fill="#F5F5F5"/>
<path d="M50.46 44.8304H51.51V41.7504H50.46V44.8304Z" fill="#F5F5F5"/>
<path d="M50.46 49.648H51.51V46.568H50.46V49.648Z" fill="#F5F5F5"/>
<path d="M50.46 54.464H51.51V51.384H50.46V54.464Z" fill="#F5F5F5"/>
<path d="M50.46 59.28H51.51V56.2H50.46V59.28Z" fill="#F5F5F5"/>
<path d="M54.18 40.016H55.23V36.936H54.18V40.016Z" fill="#F5F5F5"/>
<path d="M54.18 44.8304H55.23V41.7504H54.18V44.8304Z" fill="#F5F5F5"/>
<path d="M54.18 49.648H55.23V46.568H54.18V49.648Z" fill="#F5F5F5"/>
<path d="M54.18 54.464H55.23V51.384H54.18V54.464Z" fill="#F5F5F5"/>
<path d="M54.18 59.28H55.23V56.2H54.18V59.28Z" fill="#F5F5F5"/>
<path d="M57.897 40.016H58.947V36.936H57.897V40.016Z" fill="#F5F5F5"/>
<path d="M57.897 44.8304H58.947V41.7504H57.897V44.8304Z" fill="#F5F5F5"/>
<path d="M57.897 49.648H58.947V46.568H57.897V49.648Z" fill="#F5F5F5"/>
<path d="M57.897 54.464H58.947V51.384H57.897V54.464Z" fill="#F5F5F5"/>
<path d="M57.897 59.28H58.947V56.2H57.897V59.28Z" fill="#F5F5F5"/>
<path d="M61.617 40.016H62.667V36.936H61.617V40.016Z" fill="#F5F5F5"/>
<path d="M61.617 44.8304H62.667V41.7504H61.617V44.8304Z" fill="#F5F5F5"/>
<path d="M61.617 49.648H62.667V46.568H61.617V49.648Z" fill="#F5F5F5"/>
<path d="M61.617 54.464H62.667V51.384H61.617V54.464Z" fill="#F5F5F5"/>
<path d="M61.617 59.28H62.667V56.2H61.617V59.28Z" fill="#F5F5F5"/>
<path d="M65.331 40.016H66.381V36.936H65.331V40.016Z" fill="#F5F5F5"/>
<path d="M65.331 44.8304H66.381V41.7504H65.331V44.8304Z" fill="#F5F5F5"/>
<path d="M65.331 49.648H66.381V46.568H65.331V49.648Z" fill="#F5F5F5"/>
<path d="M65.331 54.464H66.381V51.384H65.331V54.464Z" fill="#F5F5F5"/>
<path d="M65.331 59.28H66.381V56.2H65.331V59.28Z" fill="#F5F5F5"/>
<path opacity="0.5" d="M70.398 35.8736H65.856L63.882 61.184H70.398V35.8736Z" fill="#E0E0E0"/>
<path d="M106.758 18.4272L80.031 20.0528V61.184H106.758V18.4272Z" fill="#F0F0F0"/>
<path d="M128.142 18.4272H106.758V61.184H128.142V18.4272Z" fill="#E6E6E6"/>
<path d="M128.142 21.9696H80.031V22.1888H128.142V21.9696Z" fill="#E0E0E0"/>
<path d="M128.142 24.2976H80.031V24.5168H128.142V24.2976Z" fill="#E0E0E0"/>
<path d="M128.142 26.6256H80.031V26.8448H128.142V26.6256Z" fill="#E0E0E0"/>
<path d="M128.142 28.9536H80.031V29.1728H128.142V28.9536Z" fill="#E0E0E0"/>
<path d="M128.142 31.2816H80.031V31.5008H128.142V31.2816Z" fill="#E0E0E0"/>
<path d="M128.142 33.6096H80.031V33.8288H128.142V33.6096Z" fill="#E0E0E0"/>
<path d="M128.142 35.9376H80.031V36.1568H128.142V35.9376Z" fill="#E0E0E0"/>
<path d="M128.142 38.2656H80.031V38.4848H128.142V38.2656Z" fill="#E0E0E0"/>
<path d="M128.142 40.5936H80.031V40.8128H128.142V40.5936Z" fill="#E0E0E0"/>
<path d="M128.142 42.9216H80.031V43.1408H128.142V42.9216Z" fill="#E0E0E0"/>
<path d="M128.142 45.2496H80.031V45.4688H128.142V45.2496Z" fill="#E0E0E0"/>
<path d="M128.142 47.5792H80.031V47.7984H128.142V47.5792Z" fill="#E0E0E0"/>
<path d="M128.142 49.9072H80.031V50.1264H128.142V49.9072Z" fill="#E0E0E0"/>
<path d="M128.142 52.2352H80.031V52.4544H128.142V52.2352Z" fill="#E0E0E0"/>
<path d="M128.142 54.5632H80.031V54.7824H128.142V54.5632Z" fill="#E0E0E0"/>
<path d="M128.142 56.8912H80.031V57.1104H128.142V56.8912Z" fill="#E0E0E0"/>
<path d="M128.142 59.2192H80.031V59.4384H128.142V59.2192Z" fill="#E0E0E0"/>
<path d="M32.406 61.184H45.084L45.084 25.8896H32.406L32.406 61.184Z" fill="#F0F0F0"/>
<path d="M32.406 25.8896H45.084L40.419 22.7728H22.263L32.406 25.8896Z" fill="#FAFAFA"/>
<path d="M32.406 25.8896L22.263 22.7728V61.184H32.406V25.8896Z" fill="#EBEBEB"/>
<path d="M22.266 27.7216H45.084V27.5344H22.266V27.7216Z" fill="#E0E0E0"/>
<path d="M22.266 29.72H45.084V29.5328H22.266V29.72Z" fill="#E0E0E0"/>
<path d="M22.266 31.7184H45.084V31.5312H22.266V31.7184Z" fill="#E0E0E0"/>
<path d="M22.266 33.7152H45.084V33.528H22.266V33.7152Z" fill="#E0E0E0"/>
<path d="M22.266 35.7136H45.084V35.5264H22.266V35.7136Z" fill="#E0E0E0"/>
<path d="M22.266 37.7104H45.084V37.5232H22.266V37.7104Z" fill="#E0E0E0"/>
<path d="M22.266 39.7088H45.084V39.5216H22.266V39.7088Z" fill="#E0E0E0"/>
<path d="M22.266 41.7072H45.084V41.52H22.266V41.7072Z" fill="#E0E0E0"/>
<path d="M22.266 43.704H45.084V43.5168H22.266V43.704Z" fill="#E0E0E0"/>
<path d="M22.266 45.7024H45.084V45.5152H22.266V45.7024Z" fill="#E0E0E0"/>
<path d="M22.266 47.6992H45.084V47.512H22.266V47.6992Z" fill="#E0E0E0"/>
<path d="M22.266 49.6976H45.084V49.5104H22.266V49.6976Z" fill="#E0E0E0"/>
<path d="M22.266 51.6944H45.084V51.5072H22.266V51.6944Z" fill="#E0E0E0"/>
<path d="M22.266 53.6928H45.084V53.5056H22.266V53.6928Z" fill="#E0E0E0"/>
<path d="M22.266 55.6912H45.084V55.504H22.266V55.6912Z" fill="#E0E0E0"/>
<path d="M22.266 57.688H45.084V57.5008H22.266V57.688Z" fill="#E0E0E0"/>
<path d="M22.266 59.6864H45.084V59.4992H22.266V59.6864Z" fill="#E0E0E0"/>
<path d="M77.208 61.1824H94.305L94.305 29.7136H77.208V61.1824Z" fill="#F0F0F0"/>
<path d="M88.191 36.392H90.936V31.3408H88.191V36.392Z" fill="#E6E6E6"/>
<path d="M81.462 36.392H84.207V31.3408H81.462V36.392Z" fill="#E6E6E6"/>
<path d="M88.191 42.9328H90.936V37.8816H88.191V42.9328Z" fill="#E6E6E6"/>
<path d="M81.462 42.9328H84.207V37.8816H81.462V42.9328Z" fill="#E6E6E6"/>
<path d="M88.191 49.4736H90.936V44.4224H88.191V49.4736Z" fill="#E6E6E6"/>
<path d="M81.462 49.4736H84.207V44.4224H81.462V49.4736Z" fill="#E6E6E6"/>
<path d="M88.191 56.0144H90.936V50.9632H88.191V56.0144Z" fill="#E6E6E6"/>
<path d="M81.462 56.0144H84.207V50.9632H81.462V56.0144Z" fill="#E6E6E6"/>
<path d="M77.205 29.7152H94.302L90.294 27.5344H73.197L77.205 29.7152Z" fill="white"/>
<path d="M77.205 29.7152L73.197 27.5344L69.186 29.7152V61.184H77.205V29.7152Z" fill="#E6E6E6"/>
<path d="M57.078 23.9872C61.6277 23.9872 65.316 22.0201 65.316 19.5936C65.316 17.1671 61.6277 15.2 57.078 15.2C52.5283 15.2 48.84 17.1671 48.84 19.5936C48.84 22.0201 52.5283 23.9872 57.078 23.9872Z" fill="#FAFAFA"/>
<path d="M117.852 12.9088C115.803 12.8032 113.922 12.0304 111.252 11.8176C109.923 11.712 109.152 11.9776 108.366 12.2272C107.382 12.5472 106.179 12.7072 104.67 12.688C102.685 12.6598 100.721 12.4677 98.847 12.1184C97.155 11.8112 95.388 11.4432 94.047 11.576C91.56 11.8192 91.488 12.696 89.43 12.8208C87.372 12.9456 86.997 13.5376 88.704 13.5376H119.97C121.464 13.5376 119.904 13.0128 117.852 12.9088Z" fill="#F5F5F5"/>
<path d="M29.667 12.7264C28.803 12.9968 27.096 12.8336 24.294 12.6C22.65 12.464 21.834 12.744 20.694 12.9952C20.238 13.0976 18.234 13.448 20.85 13.448H35.4C39.432 13.448 35.682 13.064 35.037 12.9152H35.004C33.075 12.4576 30.528 12.4576 29.667 12.7264Z" fill="#F5F5F5"/>
<path d="M39 18.8544H54.9C56.292 18.8544 54.84 18.3648 52.929 18.2672C51.018 18.1696 49.266 17.4496 46.767 17.2512C44.268 17.0528 44.202 18.1312 40.92 18.12C38.268 18.1136 36.3 18.8544 39 18.8544Z" fill="#F5F5F5"/>
<path d="M75 68.4096C107.125 68.4096 133.167 67.5987 133.167 66.5984C133.167 65.5981 107.125 64.7872 75 64.7872C42.8753 64.7872 16.833 65.5981 16.833 66.5984C16.833 67.5987 42.8753 68.4096 75 68.4096Z" fill="#F5F5F5"/>
<path d="M41.136 29.1856C41.0453 29.1856 40.9583 29.1664 40.8942 29.1322C40.83 29.098 40.794 29.0516 40.794 29.0032V14.3536C40.794 14.3052 40.83 14.2588 40.8942 14.2246C40.9583 14.1904 41.0453 14.1712 41.136 14.1712C41.2267 14.1712 41.3137 14.1904 41.3778 14.2246C41.442 14.2588 41.478 14.3052 41.478 14.3536V29.0032C41.478 29.0516 41.442 29.098 41.3778 29.1322C41.3137 29.1664 41.2267 29.1856 41.136 29.1856Z" fill="#407BFF"/>
<path d="M50.292 29.1856C50.2013 29.1856 50.1143 29.1664 50.0502 29.1322C49.986 29.098 49.95 29.0516 49.95 29.0032V14.3536C49.9455 14.3281 49.9511 14.3024 49.9663 14.2781C49.9815 14.2538 50.0061 14.2315 50.0384 14.2126C50.0708 14.1936 50.1101 14.1785 50.1541 14.1682C50.198 14.1578 50.2455 14.1525 50.2935 14.1525C50.3415 14.1525 50.389 14.1578 50.4329 14.1682C50.4768 14.1785 50.5162 14.1936 50.5485 14.2126C50.5809 14.2315 50.6054 14.2538 50.6207 14.2781C50.6359 14.3024 50.6415 14.3281 50.637 14.3536V29.0032C50.6362 29.0517 50.5995 29.0981 50.5349 29.1323C50.4703 29.1664 50.383 29.1856 50.292 29.1856Z" fill="#407BFF"/>
<path d="M50.292 19.4192C50.2011 19.4194 50.1138 19.4004 50.049 19.3664L45.714 17.0544L41.379 19.36C41.3129 19.3895 41.2285 19.4048 41.1423 19.4027C41.0562 19.4007 40.9746 19.3816 40.9136 19.349C40.8526 19.3165 40.8167 19.273 40.8129 19.2271C40.8091 19.1811 40.8377 19.1361 40.893 19.1008L45.228 16.8L40.893 14.4832C40.8408 14.4579 40.8045 14.4246 40.7888 14.388C40.7732 14.3513 40.779 14.3129 40.8054 14.278C40.8319 14.2432 40.8778 14.2135 40.9369 14.1929C40.996 14.1724 41.0655 14.162 41.136 14.1632H50.292C50.3601 14.1633 50.4267 14.1741 50.4833 14.1943C50.5399 14.2145 50.584 14.2432 50.61 14.2768C50.6363 14.3103 50.6432 14.3473 50.6298 14.3829C50.6165 14.4186 50.5835 14.4512 50.535 14.4768L46.2 16.8L50.535 19.112C50.589 19.1369 50.627 19.1702 50.6436 19.2072C50.6603 19.2442 50.6549 19.2831 50.6281 19.3184C50.6013 19.3536 50.5545 19.3836 50.4943 19.4039C50.434 19.4243 50.3633 19.4341 50.292 19.432V19.4192ZM41.964 14.536L45.714 16.536L49.464 14.536H41.964Z" fill="#407BFF"/>
<path d="M41.136 14.536C41.068 14.5363 41.0014 14.5257 40.9447 14.5057C40.8881 14.4857 40.8439 14.4571 40.8178 14.4236C40.7917 14.3901 40.7849 14.3532 40.7983 14.3177C40.8117 14.2821 40.8447 14.2495 40.893 14.224L45.471 11.7824C45.5028 11.7653 45.5406 11.7517 45.5823 11.7424C45.624 11.7331 45.6688 11.7284 45.714 11.7284C45.7592 11.7284 45.8039 11.7331 45.8456 11.7424C45.8873 11.7517 45.9252 11.7653 45.957 11.7824L50.535 14.224C50.5671 14.241 50.5926 14.2612 50.61 14.2834C50.6274 14.3056 50.6363 14.3295 50.6363 14.3536C50.6363 14.3777 50.6274 14.4016 50.61 14.4238C50.5926 14.4461 50.5671 14.4663 50.535 14.4832C50.47 14.517 50.3828 14.536 50.292 14.536C50.2012 14.536 50.114 14.517 50.049 14.4832L45.714 12.1712L41.379 14.4832C41.3142 14.5172 41.2269 14.5362 41.136 14.536Z" fill="#407BFF"/>
<path d="M59.448 14.536C59.3572 14.5358 59.2701 14.5169 59.205 14.4832L54.87 12.1712L50.535 14.4832C50.47 14.517 50.3828 14.536 50.292 14.536C50.2012 14.536 50.114 14.517 50.049 14.4832C50.0169 14.4663 49.9914 14.4461 49.974 14.4238C49.9566 14.4016 49.9476 14.3777 49.9476 14.3536C49.9476 14.3295 49.9566 14.3056 49.974 14.2834C49.9914 14.2612 50.0169 14.241 50.049 14.224L54.627 11.7824C54.6588 11.7653 54.6966 11.7517 54.7383 11.7424C54.78 11.7331 54.8248 11.7284 54.87 11.7284C54.9152 11.7284 54.9599 11.7331 55.0016 11.7424C55.0433 11.7517 55.0812 11.7653 55.113 11.7824L59.7 14.224C59.7483 14.2495 59.7812 14.2821 59.7946 14.3177C59.808 14.3532 59.8012 14.3901 59.7752 14.4236C59.7491 14.4571 59.7049 14.4857 59.6482 14.5057C59.5915 14.5257 59.525 14.5363 59.457 14.536H59.448Z" fill="#407BFF"/>
<path d="M59.448 14.536C59.3572 14.5358 59.2701 14.5169 59.205 14.4832C59.1729 14.4663 59.1474 14.4461 59.13 14.4238C59.1126 14.4016 59.1036 14.3777 59.1036 14.3536C59.1036 14.3295 59.1126 14.3056 59.13 14.2834C59.1474 14.2612 59.1729 14.241 59.205 14.224L63.783 11.7824C63.8148 11.7653 63.8526 11.7517 63.8943 11.7424C63.936 11.7331 63.9808 11.7284 64.026 11.7284C64.0712 11.7284 64.1159 11.7331 64.1576 11.7424C64.1993 11.7517 64.2372 11.7653 64.269 11.7824L68.847 14.224C68.8791 14.241 68.9046 14.2612 68.922 14.2834C68.9394 14.3056 68.9483 14.3295 68.9483 14.3536C68.9483 14.3777 68.9394 14.4016 68.922 14.4238C68.9046 14.4461 68.8791 14.4663 68.847 14.4832C68.782 14.517 68.6948 14.536 68.604 14.536C68.5132 14.536 68.426 14.517 68.361 14.4832L64.026 12.1712L59.7 14.4832C59.6668 14.5006 59.6274 14.5143 59.5841 14.5233C59.5408 14.5324 59.4945 14.5367 59.448 14.536Z" fill="#407BFF"/>
<path d="M41.136 24.3024C41.068 24.3026 41.0014 24.2921 40.9447 24.2721C40.8881 24.252 40.8439 24.2234 40.8178 24.19C40.7917 24.1565 40.7849 24.1196 40.7983 24.0841C40.8117 24.0485 40.8447 24.0159 40.893 23.9904L50.049 19.1072C50.1151 19.0777 50.1995 19.0624 50.2857 19.0644C50.3718 19.0665 50.4534 19.0856 50.5144 19.1182C50.5754 19.1507 50.6113 19.1942 50.6151 19.2401C50.6189 19.2861 50.5903 19.3311 50.535 19.3664L41.379 24.2496C41.3142 24.2836 41.2269 24.3025 41.136 24.3024Z" fill="#407BFF"/>
<path d="M50.292 24.3024C50.2012 24.3026 50.1138 24.2836 50.049 24.2496L40.893 19.36C40.8377 19.3247 40.8091 19.2797 40.8129 19.2338C40.8167 19.1878 40.8526 19.1443 40.9136 19.1118C40.9746 19.0793 41.0562 19.0601 41.1423 19.0581C41.2285 19.056 41.3129 19.0713 41.379 19.1008L50.535 23.984C50.5833 24.0095 50.6163 24.0421 50.6297 24.0777C50.6431 24.1132 50.6363 24.1501 50.6102 24.1836C50.5841 24.2171 50.5399 24.2456 50.4833 24.2657C50.4266 24.2857 50.36 24.2963 50.292 24.296V24.3024Z" fill="#407BFF"/>
<path d="M50.292 29.1856H41.136C41.0681 29.1859 41.0017 29.1754 40.945 29.1554C40.8884 29.1355 40.8442 29.107 40.818 29.0736C40.7925 29.04 40.786 29.0032 40.7994 28.9676C40.8127 28.9321 40.8452 28.8994 40.893 28.8736L45.228 26.56L40.893 24.248C40.8376 24.2127 40.809 24.1677 40.8129 24.1218C40.8167 24.0758 40.8526 24.0323 40.9136 23.9998C40.9745 23.9673 41.0561 23.9481 41.1423 23.9461C41.2284 23.944 41.3129 23.9593 41.379 23.9888L45.714 26.3008L50.049 23.9888C50.1151 23.9593 50.1996 23.944 50.2857 23.9461C50.3718 23.9481 50.4534 23.9673 50.5144 23.9998C50.5754 24.0323 50.6113 24.0758 50.6151 24.1218C50.6189 24.1677 50.5903 24.2127 50.535 24.248L46.2 26.56L50.535 28.872C50.5833 28.8975 50.6162 28.9301 50.6296 28.9657C50.643 29.0012 50.6363 29.0381 50.6102 29.0716C50.5841 29.1051 50.5399 29.1336 50.4832 29.1537C50.4265 29.1737 50.36 29.1843 50.292 29.184V29.1856ZM41.964 28.8208H49.464L45.714 26.8208L41.964 28.8208Z" fill="#263238"/>
<path d="M37.932 16.9904H33.042L33.657 14.3536H37.314L37.932 16.9904Z" fill="#407BFF"/>
<path d="M37.932 17.1728H33.042C32.9934 17.1727 32.9454 17.1673 32.901 17.1568C32.8566 17.1464 32.8168 17.1311 32.784 17.112C32.7523 17.0923 32.7286 17.0694 32.7141 17.0446C32.6997 17.0199 32.6949 16.9938 32.7 16.968L33.318 14.3312C33.3282 14.2871 33.3683 14.2465 33.4307 14.217C33.4932 14.1875 33.5736 14.1713 33.657 14.1712H37.314C37.3977 14.1712 37.4785 14.1874 37.5414 14.2169C37.6044 14.2463 37.6451 14.2869 37.656 14.3312L38.256 16.968C38.2619 16.9936 38.2576 17.0196 38.2433 17.0443C38.229 17.069 38.205 17.0918 38.173 17.1111C38.1409 17.1305 38.1015 17.146 38.0574 17.1566C38.0133 17.1673 37.9654 17.1728 37.917 17.1728H37.932ZM33.432 16.8064H37.542L37.011 14.536H33.963L33.432 16.8064Z" fill="#407BFF"/>
<path d="M68.604 14.536H32.268C32.2202 14.5384 32.172 14.5354 32.1264 14.5273C32.0809 14.5192 32.0391 14.5061 32.0036 14.4888C31.9681 14.4716 31.9397 14.4506 31.9203 14.4272C31.9009 14.4037 31.8909 14.3784 31.8909 14.3528C31.8909 14.3272 31.9009 14.3019 31.9203 14.2784C31.9397 14.255 31.9681 14.234 32.0036 14.2168C32.0391 14.1995 32.0809 14.1864 32.1264 14.1783C32.172 14.1702 32.2202 14.1672 32.268 14.1696H68.604C68.6518 14.1672 68.7 14.1702 68.7456 14.1783C68.7911 14.1864 68.833 14.1995 68.8685 14.2168C68.9039 14.234 68.9323 14.255 68.9517 14.2784C68.9711 14.3019 68.9811 14.3272 68.9811 14.3528C68.9811 14.3784 68.9711 14.4037 68.9517 14.4272C68.9323 14.4506 68.9039 14.4716 68.8685 14.4888C68.833 14.5061 68.7911 14.5192 68.7456 14.5273C68.7 14.5354 68.6518 14.5384 68.604 14.536Z" fill="#263238"/>
<path d="M64.026 12.0944H45.726C45.6404 12.0901 45.561 12.069 45.5031 12.0351C45.4452 12.0012 45.4131 11.957 45.4131 11.9112C45.4131 11.8654 45.4452 11.8212 45.5031 11.7873C45.561 11.7534 45.6404 11.7323 45.726 11.728H64.026C64.0738 11.7256 64.122 11.7286 64.1676 11.7367C64.2131 11.7448 64.255 11.7579 64.2905 11.7752C64.326 11.7924 64.3543 11.8134 64.3737 11.8368C64.3931 11.8603 64.4031 11.8856 64.4031 11.9112C64.4031 11.9368 64.3931 11.9621 64.3737 11.9856C64.3543 12.009 64.326 12.03 64.2905 12.0472C64.255 12.0645 64.2131 12.0776 64.1676 12.0857C64.122 12.0938 64.0738 12.0968 64.026 12.0944Z" fill="#407BFF"/>
<path d="M73.413 22.552H38.112C36.2447 22.552 34.731 23.3593 34.731 24.3552V64.0528C34.731 65.0487 36.2447 65.856 38.112 65.856H73.413C75.2803 65.856 76.794 65.0487 76.794 64.0528V24.3552C76.794 23.3593 75.2803 22.552 73.413 22.552Z" fill="#407BFF"/>
<path opacity="0.2" d="M73.413 22.552H38.112C36.2447 22.552 34.731 23.3593 34.731 24.3552V64.0528C34.731 65.0487 36.2447 65.856 38.112 65.856H73.413C75.2803 65.856 76.794 65.0487 76.794 64.0528V24.3552C76.794 23.3593 75.2803 22.552 73.413 22.552Z" fill="black"/>
<path d="M77.733 22.552H42.432C40.5648 22.552 39.051 23.3593 39.051 24.3552V64.0528C39.051 65.0487 40.5648 65.856 42.432 65.856H77.733C79.6003 65.856 81.114 65.0487 81.114 64.0528V24.3552C81.114 23.3593 79.6003 22.552 77.733 22.552Z" fill="#407BFF"/>
<path d="M79.704 64.0528V24.3536C79.704 23.773 78.8215 23.3024 77.733 23.3024H42.429C41.3404 23.3024 40.458 23.773 40.458 24.3536L40.458 64.0528C40.458 64.6334 41.3404 65.104 42.429 65.104H77.733C78.8215 65.104 79.704 64.6334 79.704 64.0528Z" fill="white"/>
<path opacity="0.1" d="M79.1416 47.4009L77.5248 29.6426C77.4594 28.9241 76.3143 28.37 74.9672 28.4049L46.1472 29.1512C44.8001 29.1861 43.7611 29.7968 43.8265 30.5153L45.4434 48.2736C45.5088 48.992 46.6538 49.5461 48.0009 49.5113L76.821 48.7649C78.1681 48.73 79.2071 48.1193 79.1416 47.4009Z" fill="black"/>
<path d="M78.579 25.3568V24.6048C78.579 24.2177 77.9907 23.904 77.265 23.904H42.9C42.1743 23.904 41.586 24.2177 41.586 24.6048V25.3568C41.586 25.7438 42.1743 26.0576 42.9 26.0576H77.265C77.9907 26.0576 78.579 25.7438 78.579 25.3568Z" fill="#407BFF"/>
<path d="M45.498 25.4848C45.2471 25.4848 45.0064 25.4317 44.8287 25.3373C44.651 25.2428 44.5508 25.1146 44.55 24.9808C44.5508 24.8468 44.6509 24.7185 44.8285 24.6237C45.0061 24.529 45.2468 24.4756 45.498 24.4752C45.7492 24.4756 45.9898 24.529 46.1674 24.6237C46.3451 24.7185 46.4452 24.8468 46.446 24.9808C46.4452 25.1146 46.345 25.2428 46.1673 25.3373C45.9896 25.4317 45.7489 25.4848 45.498 25.4848Z" fill="white"/>
<path d="M48.315 25.4848C48.0641 25.4848 47.8234 25.4317 47.6457 25.3373C47.468 25.2428 47.3678 25.1146 47.367 24.9808C47.3678 24.8468 47.4679 24.7185 47.6455 24.6237C47.8232 24.529 48.0638 24.4756 48.315 24.4752C48.5659 24.4756 48.8063 24.5291 48.9834 24.6238C49.1605 24.7186 49.26 24.847 49.26 24.9808C49.2592 25.1143 49.1594 25.2423 48.9823 25.3367C48.8053 25.4311 48.5654 25.4844 48.315 25.4848Z" fill="white"/>
<path d="M51.132 25.4848C50.8811 25.4848 50.6404 25.4317 50.4627 25.3373C50.285 25.2428 50.1848 25.1146 50.184 24.9808C50.1848 24.8468 50.2849 24.7185 50.4626 24.6237C50.6402 24.529 50.8808 24.4756 51.132 24.4752C51.3829 24.4756 51.6233 24.5291 51.8004 24.6238C51.9776 24.7186 52.077 24.847 52.077 24.9808C52.0762 25.1143 51.9764 25.2423 51.7994 25.3367C51.6223 25.4311 51.3824 25.4844 51.132 25.4848Z" fill="white"/>
<path d="M75.942 24.3536H74.628C74.343 24.3536 74.112 24.4768 74.112 24.6288V25.3296C74.112 25.4816 74.343 25.6048 74.628 25.6048H75.942C76.227 25.6048 76.458 25.4816 76.458 25.3296V24.6288C76.458 24.4768 76.227 24.3536 75.942 24.3536Z" fill="white"/>
<path d="M53.3357 56.5909C56.6895 55.85 58.2821 53.7994 56.8929 52.0106C55.5037 50.2219 51.6587 49.3725 48.3049 50.1134C44.9511 50.8543 43.3584 52.905 44.7476 54.6937C46.1368 56.4824 49.9818 57.3318 53.3357 56.5909Z" fill="#407BFF"/>
<path d="M74.283 51.7584H61.467C61.2493 51.758 61.0406 51.7116 60.8867 51.6295C60.7327 51.5474 60.6458 51.4361 60.645 51.32C60.6458 51.2038 60.7327 51.0926 60.8867 51.0105C61.0406 50.9283 61.2493 50.882 61.467 50.8816H74.283C74.501 50.8816 74.7101 50.9278 74.8643 51.01C75.0184 51.0922 75.105 51.2037 75.105 51.32C75.105 51.4363 75.0184 51.5478 74.8643 51.63C74.7101 51.7122 74.501 51.7584 74.283 51.7584Z" fill="#407BFF"/>
<path d="M74.283 53.7904H61.467C61.2493 53.79 61.0406 53.7437 60.8867 53.6615C60.7327 53.5794 60.6458 53.4681 60.645 53.352C60.6458 53.2359 60.7327 53.1246 60.8867 53.0425C61.0406 52.9604 61.2493 52.914 61.467 52.9136H74.283C74.501 52.9136 74.7101 52.9598 74.8643 53.042C75.0184 53.1242 75.105 53.2357 75.105 53.352C75.105 53.4683 75.0184 53.5798 74.8643 53.662C74.7101 53.7442 74.501 53.7904 74.283 53.7904Z" fill="#407BFF"/>
<path d="M74.283 54.9456H61.467C61.013 54.9456 60.645 55.1419 60.645 55.384C60.645 55.6261 61.013 55.8224 61.467 55.8224H74.283C74.737 55.8224 75.105 55.6261 75.105 55.384C75.105 55.1419 74.737 54.9456 74.283 54.9456Z" fill="#407BFF"/>
<path d="M72.975 58.8256H47.193C45.566 58.8256 44.247 59.529 44.247 60.3968V62.3504C44.247 63.2181 45.566 63.9216 47.193 63.9216H72.975C74.602 63.9216 75.921 63.2181 75.921 62.3504V60.3968C75.921 59.529 74.602 58.8256 72.975 58.8256Z" fill="#E0E0E0"/>
<path d="M82.6911 46.1156L80.0988 28.3903C79.994 27.6732 78.8189 27.1372 77.4743 27.1931L48.7077 28.3898C47.3631 28.4457 46.3581 29.0724 46.463 29.7895L49.0553 47.5149C49.1602 48.232 50.3352 48.768 51.6798 48.7121L80.4464 47.5154C81.791 47.4594 82.796 46.8328 82.6911 46.1156Z" fill="white"/>
<path d="M51.483 48.8C50.8296 48.7994 50.2008 48.6671 49.7224 48.4298C49.244 48.1924 48.9514 47.8675 48.903 47.52L46.311 29.7936C46.2588 29.4284 46.4802 29.067 46.9267 28.7887C47.3732 28.5104 48.0083 28.3378 48.693 28.3088L77.463 27.112C78.1478 27.0842 78.8253 27.2023 79.3472 27.4404C79.869 27.6785 80.1926 28.0173 80.247 28.3824L82.839 46.1088C82.892 46.4743 82.6709 46.8361 82.2244 47.1147C81.7778 47.3934 81.1422 47.5662 80.457 47.5952L51.687 48.7904C51.618 48.8 51.552 48.8 51.483 48.8ZM49.203 47.52C49.252 47.8422 49.5383 48.141 49.9994 48.3509C50.4604 48.5608 51.0586 48.6648 51.663 48.64L80.433 47.4432C81.0374 47.4167 81.5976 47.2636 81.9911 47.0175C82.3846 46.7713 82.5794 46.4521 82.533 46.1296L79.941 28.4032C79.892 28.0807 79.6052 27.7817 79.1435 27.5717C78.6818 27.3618 78.0829 27.258 77.478 27.2832L48.711 28.48C48.1065 28.5065 47.5463 28.6596 47.1528 28.9057C46.7593 29.1519 46.5645 29.4711 46.611 29.7936L49.203 47.52Z" fill="#407BFF"/>
<path d="M81.4403 45.8016L80.8657 41.8728C80.7829 41.3063 79.8547 40.8829 78.7925 40.9271L51.3958 42.0668C50.3336 42.111 49.5398 42.606 49.6226 43.1725L50.1972 47.1013C50.28 47.6678 51.2082 48.0912 52.2704 48.047L79.6671 46.9073C80.7293 46.8631 81.5231 46.3681 81.4403 45.8016Z" fill="#407BFF"/>
<path opacity="0.2" d="M65.1888 39.8446L63.6691 29.4538C63.5853 28.8803 62.6455 28.4516 61.5702 28.4963L49.5108 28.998C48.4355 29.0427 47.6317 29.5439 47.7156 30.1175L49.2352 40.5083C49.3191 41.0818 50.2589 41.5105 51.3342 41.4657L63.3936 40.9641C64.4689 40.9193 65.2727 40.4181 65.1888 39.8446Z" fill="#407BFF"/>
<path opacity="0.2" d="M79.0849 30.3805L78.8271 28.6178C78.7597 28.1571 78.0047 27.8127 77.1408 27.8486L66.8072 28.2785C65.9433 28.3144 65.2976 28.7171 65.365 29.1778L65.6228 30.9405C65.6901 31.4012 66.4451 31.7456 67.309 31.7097L77.6426 31.2798C78.5065 31.2439 79.1523 30.8412 79.0849 30.3805Z" fill="#407BFF"/>
<path opacity="0.4" d="M79.7438 34.8988L79.486 33.1361C79.4186 32.6754 78.6637 32.331 77.7998 32.3669L67.4662 32.7968C66.6022 32.8327 65.9565 33.2354 66.0239 33.6961L66.2817 35.4588C66.3491 35.9195 67.104 36.2639 67.968 36.228L78.3016 35.7981C79.1655 35.7622 79.8112 35.3595 79.7438 34.8988Z" fill="#407BFF"/>
<path opacity="0.6" d="M80.4058 39.4171L80.148 37.6544C80.0806 37.1937 79.3257 36.8493 78.4618 36.8852L68.1281 37.3151C67.2642 37.351 66.6185 37.7537 66.6859 38.2144L66.9437 39.9771C67.0111 40.4378 67.766 40.7822 68.6299 40.7463L78.9636 40.3164C79.8275 40.2805 80.4732 39.8778 80.4058 39.4171Z" fill="#407BFF"/>
<path d="M67.875 25.0624C67.8344 25.0624 67.7955 25.0538 67.7668 25.0385C67.7381 25.0232 67.722 25.0024 67.722 24.9808V14.3536C67.7175 14.3418 67.7181 14.3295 67.7235 14.3178C67.729 14.3061 67.7393 14.2952 67.7536 14.2858C67.768 14.2765 67.786 14.2689 67.8065 14.2638C67.827 14.2586 67.8493 14.2559 67.872 14.2559C67.8946 14.2559 67.917 14.2586 67.9375 14.2638C67.9579 14.2689 67.976 14.2765 67.9904 14.2858C68.0047 14.2952 68.015 14.3061 68.0205 14.3178C68.0259 14.3295 68.0265 14.3418 68.022 14.3536V24.9808C68.022 25.0019 68.0067 25.0222 67.9793 25.0374C67.9519 25.0526 67.9145 25.0616 67.875 25.0624Z" fill="#263238"/>
<path d="M69.78 26.72H65.97C65.8182 26.7199 65.6706 26.6937 65.5489 26.6453C65.4273 26.5968 65.3383 26.5288 65.295 26.4512L64.476 24.9664C64.4458 24.9105 64.4404 24.8517 64.4601 24.7945C64.4798 24.7373 64.5241 24.6833 64.5895 24.6368C64.6549 24.5903 64.7397 24.5525 64.8371 24.5264C64.9345 24.5003 65.042 24.4866 65.151 24.4864H70.599C70.708 24.4866 70.8155 24.5003 70.9129 24.5264C71.0103 24.5525 71.0951 24.5903 71.1605 24.6368C71.2259 24.6833 71.2702 24.7373 71.2899 24.7945C71.3096 24.8517 71.3041 24.9105 71.274 24.9664L70.455 26.4512C70.4122 26.5289 70.3232 26.5971 70.2015 26.6456C70.0798 26.6941 69.9319 26.7202 69.78 26.72Z" fill="#263238"/>
<path d="M67.875 29.0208C67.7843 29.0208 67.6973 29.0016 67.6332 28.9674C67.5691 28.9332 67.533 28.8868 67.533 28.8384C67.533 28.79 67.5691 28.7436 67.6332 28.7094C67.6973 28.6752 67.7843 28.656 67.875 28.656C68.1933 28.656 68.4985 28.5886 68.7235 28.4685C68.9486 28.3485 69.075 28.1857 69.075 28.016C69.075 27.8463 68.9486 27.6835 68.7235 27.5634C68.4985 27.4434 68.1933 27.376 67.875 27.376C67.7843 27.376 67.6973 27.3568 67.6332 27.3226C67.5691 27.2884 67.533 27.242 67.533 27.1936V26.72C67.541 26.6744 67.5807 26.632 67.6442 26.6011C67.7077 26.5702 67.7906 26.5531 67.8765 26.5531C67.9625 26.5531 68.0453 26.5702 68.1088 26.6011C68.1724 26.632 68.212 26.6744 68.22 26.72V27.0256C68.6804 27.0722 69.0918 27.2086 69.3738 27.4082C69.6558 27.6078 69.7881 27.8563 69.745 28.1052C69.7019 28.3541 69.4864 28.5855 69.1407 28.7542C68.7949 28.9229 68.3436 29.0168 67.875 29.0176V29.0208Z" fill="#263238"/>
<path d="M120.816 31.4512C121.197 31.92 121.509 32.3648 121.815 32.832C122.121 33.2992 122.4 33.76 122.637 34.24C122.896 34.73 123.105 35.2273 123.261 35.7296C123.349 35.9981 123.412 36.2689 123.447 36.5408C123.493 36.8608 123.478 37.1825 123.402 37.5008L123.384 37.5664C123.376 37.5979 123.363 37.6289 123.345 37.6592C123.075 38.0968 122.751 38.5244 122.376 38.9392C122.025 39.3408 121.626 39.72 121.23 40.096C120.834 40.472 120.402 40.832 119.955 41.1888C119.508 41.5456 119.055 41.8912 118.545 42.2352C118.375 42.3486 118.135 42.4265 117.868 42.4555C117.602 42.4845 117.324 42.4626 117.084 42.3937C116.845 42.3248 116.658 42.2133 116.556 42.0785C116.455 41.9437 116.445 41.7942 116.529 41.656V41.6416C116.769 41.256 117.036 40.8624 117.291 40.4752C117.546 40.088 117.81 39.704 118.053 39.32C118.296 38.936 118.539 38.5536 118.755 38.1808C118.971 37.808 119.16 37.4336 119.292 37.0928L119.235 37.2528C119.229 37.0988 119.2 36.9452 119.148 36.7936C119.088 36.6096 119.013 36.408 118.917 36.2048C118.821 36.0016 118.716 35.7936 118.599 35.584C118.482 35.3744 118.362 35.1632 118.23 34.944C117.966 34.52 117.693 34.0912 117.402 33.664L116.523 32.3952L116.508 32.3728C116.279 32.0688 116.286 31.7287 116.528 31.4275C116.769 31.1262 117.225 30.8884 117.795 30.7664C118.365 30.6444 119.003 30.6482 119.568 30.7769C120.132 30.9057 120.578 31.1488 120.807 31.4528L120.816 31.4512Z" fill="#407BFF"/>
<path opacity="0.7" d="M120.816 31.4512C121.197 31.92 121.509 32.3648 121.815 32.832C122.121 33.2992 122.4 33.76 122.637 34.24C122.896 34.73 123.105 35.2273 123.261 35.7296C123.349 35.9981 123.412 36.2689 123.447 36.5408C123.493 36.8608 123.478 37.1825 123.402 37.5008L123.384 37.5664C123.376 37.5979 123.363 37.6289 123.345 37.6592C123.075 38.0968 122.751 38.5244 122.376 38.9392C122.025 39.3408 121.626 39.72 121.23 40.096C120.834 40.472 120.402 40.832 119.955 41.1888C119.508 41.5456 119.055 41.8912 118.545 42.2352C118.375 42.3486 118.135 42.4265 117.868 42.4555C117.602 42.4845 117.324 42.4626 117.084 42.3937C116.845 42.3248 116.658 42.2133 116.556 42.0785C116.455 41.9437 116.445 41.7942 116.529 41.656V41.6416C116.769 41.256 117.036 40.8624 117.291 40.4752C117.546 40.088 117.81 39.704 118.053 39.32C118.296 38.936 118.539 38.5536 118.755 38.1808C118.971 37.808 119.16 37.4336 119.292 37.0928L119.235 37.2528C119.229 37.0988 119.2 36.9452 119.148 36.7936C119.088 36.6096 119.013 36.408 118.917 36.2048C118.821 36.0016 118.716 35.7936 118.599 35.584C118.482 35.3744 118.362 35.1632 118.23 34.944C117.966 34.52 117.693 34.0912 117.402 33.664L116.523 32.3952L116.508 32.3728C116.279 32.0688 116.286 31.7287 116.528 31.4275C116.769 31.1262 117.225 30.8884 117.795 30.7664C118.365 30.6444 119.003 30.6482 119.568 30.7769C120.132 30.9057 120.578 31.1488 120.807 31.4528L120.816 31.4512Z" fill="white"/>
<path d="M116.667 41.44L115.134 41.8688L117.279 43.0576C117.69 42.9012 118.057 42.7143 118.368 42.5024C118.579 42.3506 118.669 42.1606 118.618 41.9736C118.567 41.7867 118.381 41.6179 118.098 41.504C117.895 41.4223 117.653 41.3729 117.4 41.3615C117.147 41.3502 116.892 41.3774 116.667 41.44Z" fill="#7F3E3B"/>
<path d="M114.3 43.2304L115.185 43.5792C115.356 43.6461 115.565 43.6787 115.776 43.6714C115.987 43.6641 116.187 43.6173 116.34 43.5392L117.267 43.0592L115.122 41.8704L114.138 42.56C113.994 42.6606 113.93 42.7874 113.96 42.913C113.991 43.0386 114.113 43.1527 114.3 43.2304Z" fill="#7F3E3B"/>
<path d="M92.2319 33.8608L90.6509 32.7728L88.8359 34.1088C88.8359 34.1088 90.4919 35 91.5209 34.608L92.2319 33.8608Z" fill="#7F3E3B"/>
<path d="M87.996 32.5824L87.507 33.1072C87.4135 33.2087 87.3902 33.3246 87.4413 33.4343C87.4923 33.5441 87.6144 33.6408 87.786 33.7072L88.836 34.1088L90.651 32.7728L89.211 32.3712C89.1053 32.3423 88.9899 32.3248 88.8715 32.3197C88.7531 32.3147 88.6339 32.3222 88.521 32.3418C88.408 32.3615 88.3035 32.3928 88.2134 32.4341C88.1233 32.4754 88.0494 32.5258 87.996 32.5824Z" fill="#7F3E3B"/>
<path d="M118.458 66.7424H116.556L116.322 66.6256L115.971 66.7424C114.81 66.7424 113.244 66.72 112.497 66.5824C112.475 66.5359 112.478 66.4871 112.505 66.4414C112.532 66.3956 112.582 66.3547 112.65 66.3232C112.65 66.3232 115.725 65.816 116.001 65.4752H118.332" fill="#263238"/>
<path d="M116.1 52.3984C115.719 47.1536 116.34 43.008 115.407 40.9968L106.707 40.2464C106.707 40.2464 108.309 49.1312 110.235 52.8064C112.161 56.4816 115.635 65.5584 115.635 65.5584H118.596C118.596 65.5584 118.668 56.7024 116.1 52.3984Z" fill="#407BFF"/>
<path opacity="0.2" d="M109.8 44.64L108.183 46.88C108.699 48.84 109.317 50.8448 109.983 52.2848C110.7 49.6704 110.181 45.3824 109.8 44.64Z" fill="black"/>
<path d="M93.816 65.2384C93.816 65.2384 98.193 65.416 98.673 65.1344L100.968 65.5104L100.326 66.7424L98.91 66.512L98.751 66.3632L98.337 66.4176C97.191 66.2304 94.161 65.7104 93.507 65.4576C93.5162 65.4095 93.5499 65.3637 93.6043 65.3251C93.6588 65.2865 93.7319 65.2565 93.816 65.2384Z" fill="#263238"/>
<path d="M106.899 52.7168C109.825 48.8892 111.763 44.8674 112.659 40.7616L103.161 39.9328C103.161 39.9328 101.751 49.096 101.136 52.8624C100.5 56.7776 98.0309 65.12 98.0309 65.12L101.1 65.616C101.1 65.616 106.581 57.5872 106.899 52.7168Z" fill="#407BFF"/>
<path d="M116.205 26.568C115.647 27.528 115.305 28.9184 115.845 29.704C114.795 30.0912 113.145 30.5424 111.144 30.3712C109.143 30.2 109.713 29.5072 110.349 29.1776C111.888 28.904 112.05 28.5184 111.795 28.1488L116.205 26.568Z" fill="#7F3E3B"/>
<path d="M117.645 30.088C117.178 29.7887 116.668 29.5089 116.121 29.2512C115.653 29.0784 111.768 28.8208 110.841 28.8384C109.914 28.856 108.627 29.488 108.627 29.488L117.645 30.088Z" fill="#407BFF"/>
<path opacity="0.7" d="M117.645 30.088C117.178 29.7887 116.668 29.5089 116.121 29.2512C115.653 29.0784 111.768 28.8208 110.841 28.8384C109.914 28.856 108.627 29.488 108.627 29.488L117.645 30.088Z" fill="white"/>
<path d="M111 25.4208C110.94 25.5152 110.799 25.5808 110.685 25.5552C110.571 25.5296 110.52 25.44 110.58 25.344C110.64 25.248 110.781 25.184 110.895 25.2112C111.009 25.2384 111.06 25.3264 111 25.4208Z" fill="#263238"/>
<path d="M110.931 25.5552C110.541 25.8064 110.087 26.0276 109.584 26.2128C109.676 26.2809 109.795 26.3375 109.932 26.3787C110.07 26.4198 110.222 26.4446 110.379 26.4512L110.931 25.5552Z" fill="#630F0F"/>
<path d="M111 24.7664C111.007 24.7754 111.019 24.7831 111.034 24.7887C111.048 24.7944 111.066 24.7977 111.084 24.7984C111.221 24.8058 111.353 24.8304 111.468 24.8702C111.584 24.91 111.681 24.9638 111.75 25.0272C111.756 25.0342 111.764 25.0405 111.775 25.0457C111.785 25.0508 111.798 25.0548 111.811 25.0574C111.824 25.0599 111.839 25.061 111.853 25.0605C111.867 25.06 111.881 25.0579 111.894 25.0544C111.92 25.0475 111.94 25.0354 111.95 25.0208C111.959 25.0061 111.957 24.99 111.945 24.976C111.861 24.8948 111.741 24.8256 111.596 24.7744C111.45 24.7231 111.284 24.6913 111.111 24.6816C111.092 24.681 111.072 24.6831 111.055 24.6876C111.037 24.6922 111.022 24.699 111.011 24.7075C111 24.716 110.993 24.7259 110.991 24.7362C110.989 24.7465 110.992 24.7569 111 24.7664Z" fill="#263238"/>
<path d="M117.159 26.2288C116.304 27.368 115.914 28.0592 114.459 28.4576C112.248 29.0576 109.887 28.0368 110.085 26.7808C110.262 25.6512 111.627 23.9776 114.045 23.9008C114.579 23.8847 115.113 23.9411 115.595 24.0646C116.078 24.1881 116.494 24.3748 116.805 24.6071C117.116 24.8395 117.311 25.1101 117.373 25.3937C117.435 25.6772 117.361 25.9645 117.159 26.2288Z" fill="#7F3E3B"/>
<path d="M112.356 26.2656C112.298 26.5237 112.341 26.7854 112.485 27.0339C112.628 27.2824 112.867 27.5121 113.187 27.7082C113.507 27.9042 113.901 28.0623 114.343 28.1721C114.785 28.2819 115.265 28.341 115.752 28.3456C117.9 28.3456 117.933 26.7136 117.552 26.3376C118.692 26.232 119.352 25.3968 118.656 24.8688C119.703 24.4304 117.282 23.7648 114.336 23.6784C111.087 23.5824 111.681 24.6032 112.764 24.912C111.723 25.0768 111.615 26.0656 112.356 26.2656Z" fill="#263238"/>
<path d="M111.732 24.1152C111.732 24.1152 111.939 25.4576 114.054 26.2656C116.169 27.0736 118.05 27.1488 118.05 27.1488L118.572 26.2656C118.572 26.2656 113.796 24.7312 112.182 23.8736C112.023 23.9493 111.873 24.03 111.732 24.1152Z" fill="#407BFF"/>
<path opacity="0.6" d="M111.732 24.1152C111.732 24.1152 111.939 25.4576 114.054 26.2656C116.169 27.0736 118.05 27.1488 118.05 27.1488L118.572 26.2656C118.572 26.2656 113.796 24.7312 112.182 23.8736C112.023 23.9493 111.873 24.03 111.732 24.1152Z" fill="white"/>
<path d="M113.478 26.2816C113.202 26.4983 112.781 26.6505 112.302 26.7072C111.702 26.7696 111.51 26.4432 111.777 26.128C112.017 25.8448 112.623 25.4704 113.184 25.5504C113.745 25.6304 113.838 26.0064 113.478 26.2816Z" fill="#7F3E3B"/>
<path d="M117.552 29.944C114.51 29.4976 110.109 29.1744 107.115 29.2176C106.374 29.2298 105.662 29.3728 105.091 29.6242C104.519 29.8755 104.12 30.221 103.956 30.6064C102.942 32.952 102.786 37.1792 102.492 41.424C109.02 43.184 116.331 42.4864 116.331 42.4864C116.718 41.656 116.631 38.8288 116.496 37.312C117.306 35.8208 118.773 34.1552 119.886 32.1776C120.013 31.9492 120.053 31.7097 120.004 31.4729C119.954 31.2362 119.817 31.0071 119.6 30.799C119.382 30.591 119.089 30.4082 118.738 30.2614C118.386 30.1145 117.983 30.0067 117.552 29.944Z" fill="#407BFF"/>
<path opacity="0.7" d="M117.552 29.944C114.51 29.4976 110.109 29.1744 107.115 29.2176C106.374 29.2298 105.662 29.3728 105.091 29.6242C104.519 29.8755 104.12 30.221 103.956 30.6064C102.942 32.952 102.786 37.1792 102.492 41.424C109.02 43.184 116.331 42.4864 116.331 42.4864C116.718 41.656 116.631 38.8288 116.496 37.312C117.306 35.8208 118.773 34.1552 119.886 32.1776C120.013 31.9492 120.053 31.7097 120.004 31.4729C119.954 31.2362 119.817 31.0071 119.6 30.799C119.382 30.591 119.089 30.4082 118.738 30.2614C118.386 30.1145 117.983 30.0067 117.552 29.944Z" fill="white"/>
<path d="M107.958 28.9824C105.45 28.9056 103.89 29.5664 103.251 31.5856C102.612 33.6048 101.922 38.1824 102.189 39.8336C110.61 41.7232 115.833 40.9536 116.958 40.5136C117.399 40.1536 117.237 39.0352 117.015 38.5936C117.579 37.8006 117.86 36.9585 117.846 36.1104C119.094 35.4704 119.646 34.2432 119.688 33.7664C120.786 32.9856 120.933 31.2176 120.324 30.7136C119.715 30.2096 117.945 29.28 107.958 28.9824Z" fill="#263238"/>
<path opacity="0.2" d="M103.398 40.1712C103.358 40.1712 103.32 40.1628 103.292 40.1478C103.264 40.1328 103.248 40.1124 103.248 40.0912C103.248 36.8464 104.061 32.0608 105.204 30.3824C105.218 30.3625 105.245 30.3462 105.281 30.3372C105.317 30.3282 105.359 30.3272 105.396 30.3344C105.415 30.3378 105.432 30.3432 105.447 30.3502C105.462 30.3573 105.473 30.3658 105.482 30.3754C105.49 30.3849 105.495 30.3953 105.496 30.4059C105.496 30.4164 105.493 30.427 105.486 30.4368C104.463 31.9392 103.554 36.4512 103.548 40.0912C103.548 40.1017 103.544 40.1121 103.537 40.1218C103.529 40.1315 103.518 40.1404 103.504 40.1478C103.49 40.1552 103.474 40.1611 103.455 40.1651C103.437 40.1691 103.418 40.1712 103.398 40.1712Z" fill="white"/>
<path d="M107.916 31.2C107.46 31.6432 106.998 32.0384 106.5 32.4464C106.002 32.8544 105.48 33.2464 104.91 33.6336C104.337 34.0344 103.719 34.417 103.062 34.7792C102.709 34.9758 102.334 35.1612 101.94 35.3344C101.48 35.5421 100.977 35.7209 100.44 35.8672L100.332 35.896C100.278 35.9101 100.222 35.9218 100.164 35.9312C99.2634 36.0725 98.3207 36.1213 97.386 36.0752C96.9682 36.058 96.5533 36.0254 96.144 35.9776C95.7521 35.9349 95.3646 35.8815 94.983 35.8176C94.2513 35.6923 93.5391 35.5366 92.853 35.352C92.514 35.2608 92.187 35.1632 91.863 35.0608C91.539 34.9584 91.239 34.8528 90.9 34.7216C90.6825 34.6381 90.5261 34.517 90.4573 34.3789C90.3885 34.2408 90.4116 34.0943 90.5227 33.9642C90.6338 33.8342 90.826 33.7288 91.0666 33.6658C91.3071 33.6029 91.5812 33.5864 91.842 33.6192L91.944 33.632L92.883 33.7488C93.201 33.7888 93.522 33.824 93.84 33.856C94.4589 33.9211 95.0837 33.9692 95.712 34C96.2858 34.0279 96.8631 34.0279 97.437 34C97.8948 33.9817 98.3433 33.9216 98.763 33.8224L98.487 33.888C98.7015 33.8039 98.9022 33.7103 99.087 33.608C99.318 33.4816 99.567 33.3376 99.807 33.184C100.047 33.0304 100.287 32.864 100.521 32.696C100.755 32.528 100.998 32.3536 101.229 32.1744C101.688 31.8192 102.147 31.4528 102.594 31.08C103.041 30.7072 103.494 30.3216 103.908 29.96L103.929 29.9408C104.084 29.8012 104.289 29.6792 104.532 29.5819C104.776 29.4845 105.053 29.4137 105.348 29.3734C105.642 29.3332 105.949 29.3242 106.25 29.3472C106.551 29.3702 106.841 29.4245 107.103 29.5072C107.365 29.5899 107.593 29.6993 107.776 29.8291C107.959 29.9589 108.091 30.1066 108.167 30.2638C108.242 30.421 108.259 30.5846 108.216 30.7452C108.173 30.9058 108.071 31.0604 107.916 31.2Z" fill="#407BFF"/>
<path opacity="0.7" d="M107.916 31.2C107.46 31.6432 106.998 32.0384 106.5 32.4464C106.002 32.8544 105.48 33.2464 104.91 33.6336C104.337 34.0344 103.719 34.417 103.062 34.7792C102.709 34.9758 102.334 35.1612 101.94 35.3344C101.48 35.5421 100.977 35.7209 100.44 35.8672L100.332 35.896C100.278 35.9101 100.222 35.9218 100.164 35.9312C99.2634 36.0725 98.3207 36.1213 97.386 36.0752C96.9682 36.058 96.5533 36.0254 96.144 35.9776C95.7521 35.9349 95.3646 35.8815 94.983 35.8176C94.2513 35.6923 93.5391 35.5366 92.853 35.352C92.514 35.2608 92.187 35.1632 91.863 35.0608C91.539 34.9584 91.239 34.8528 90.9 34.7216C90.6825 34.6381 90.5261 34.517 90.4573 34.3789C90.3885 34.2408 90.4116 34.0943 90.5227 33.9642C90.6338 33.8342 90.826 33.7288 91.0666 33.6658C91.3071 33.6029 91.5812 33.5864 91.842 33.6192L91.944 33.632L92.883 33.7488C93.201 33.7888 93.522 33.824 93.84 33.856C94.4589 33.9211 95.0837 33.9692 95.712 34C96.2858 34.0279 96.8631 34.0279 97.437 34C97.8948 33.9817 98.3433 33.9216 98.763 33.8224L98.487 33.888C98.7015 33.8039 98.9022 33.7103 99.087 33.608C99.318 33.4816 99.567 33.3376 99.807 33.184C100.047 33.0304 100.287 32.864 100.521 32.696C100.755 32.528 100.998 32.3536 101.229 32.1744C101.688 31.8192 102.147 31.4528 102.594 31.08C103.041 30.7072 103.494 30.3216 103.908 29.96L103.929 29.9408C104.084 29.8012 104.289 29.6792 104.532 29.5819C104.776 29.4845 105.053 29.4137 105.348 29.3734C105.642 29.3332 105.949 29.3242 106.25 29.3472C106.551 29.3702 106.841 29.4245 107.103 29.5072C107.365 29.5899 107.593 29.6993 107.776 29.8291C107.959 29.9589 108.091 30.1066 108.167 30.2638C108.242 30.421 108.259 30.5846 108.216 30.7452C108.173 30.9058 108.071 31.0604 107.916 31.2Z" fill="white"/>
<path d="M118.614 26.8272C118.575 26.8475 118.527 26.8618 118.474 26.8686C118.421 26.8753 118.366 26.8743 118.314 26.8656C116.627 26.5218 115.075 26.014 113.736 25.368C111.465 24.2576 111.27 22.9856 112.278 23.5936C112.836 23.2736 115.206 22.8832 117.402 23.3904C119.724 23.9296 120.843 25.6 118.614 26.8272Z" fill="#407BFF"/>
<path d="M116.673 23.256C117.244 23.5451 117.653 23.9133 117.855 24.3193C118.056 24.7254 118.042 25.1533 117.813 25.5552C118.301 25.4987 118.771 25.4026 119.205 25.2704C119.205 25.2704 119.556 24.3728 118.905 23.7952C118.254 23.2176 116.814 23.072 116.673 23.256Z" fill="#407BFF"/>
<path opacity="0.2" d="M117.813 25.5552C118.042 25.1533 118.056 24.7254 117.855 24.3193C117.653 23.9133 117.244 23.5451 116.673 23.256C116.692 23.238 116.719 23.2227 116.751 23.2113C116.784 23.1999 116.82 23.1927 116.859 23.1904C117.315 23.3472 118.572 24.2992 117.813 25.5552Z" fill="black"/>
</svg>
