<svg width="159" height="107" viewBox="0 0 159 107" fill="none" xmlns="http://www.w3.org/2000/svg">
<path d="M131.302 39.6093C131.302 39.6093 123.565 29.8273 106.498 28.3785C89.4311 26.9298 77.4839 33.9939 64.9133 37.6169C58.3275 39.513 50.81 38.7768 43.8204 39.6949C21.4554 42.6309 13.038 61.0285 22.3458 71.491C30.404 80.5475 44.5868 85.2576 66.1853 86.3447C87.7839 87.4318 102.937 88.6987 122.277 79.822C141.618 70.9453 140.33 52.4707 131.302 39.6093Z" fill="#FFC100"/>
<path opacity="0.8" d="M131.302 39.6093C131.302 39.6093 123.565 29.8273 106.498 28.3785C89.4311 26.9298 77.4839 33.9939 64.9133 37.6169C58.3275 39.513 50.81 38.7768 43.8204 39.6949C21.4554 42.6309 13.038 61.0285 22.3458 71.491C30.404 80.5475 44.5868 85.2576 66.1853 86.3447C87.7839 87.4318 102.937 88.6987 122.277 79.822C141.618 70.9453 140.33 52.4707 131.302 39.6093Z" fill="white"/>
<path d="M60.8557 30.3152C60.0225 30.0092 59.6473 30.2639 59.3452 30.0092C59.0431 29.7546 60.1752 29.0954 57.911 28.4342C57.911 28.4342 57.7584 27.0111 54.6642 26.9619C51.5701 26.9126 52.4001 28.3828 51.5701 28.7402C50.7401 29.0976 50.5111 28.5262 49.6812 28.8921C48.8512 29.2581 49.2296 29.9621 48.5491 30.0606C47.8686 30.159 46.9591 29.6026 46.1323 29.9579C45.3055 30.3131 45.3023 30.6191 44.9239 30.6191C44.5455 30.6191 43.7918 30.4051 43.3339 30.6191C42.876 30.8331 42.3513 31.0771 42.3513 31.0771H61.4535C61.4535 31.0771 61.692 30.6191 60.8557 30.3152Z" fill="#FFC100"/>
<path opacity="0.5" d="M60.8557 30.3152C60.0225 30.0092 59.6473 30.2639 59.3452 30.0092C59.0431 29.7546 60.1752 29.0954 57.911 28.4342C57.911 28.4342 57.7584 27.0111 54.6642 26.9619C51.5701 26.9126 52.4001 28.3828 51.5701 28.7402C50.7401 29.0976 50.5111 28.5262 49.6812 28.8921C48.8512 29.2581 49.2296 29.9621 48.5491 30.0606C47.8686 30.159 46.9591 29.6026 46.1323 29.9579C45.3055 30.3131 45.3023 30.6191 44.9239 30.6191C44.5455 30.6191 43.7918 30.4051 43.3339 30.6191C42.876 30.8331 42.3513 31.0771 42.3513 31.0771H61.4535C61.4535 31.0771 61.692 30.6191 60.8557 30.3152Z" fill="#FFC100"/>
<g opacity="0.8">
<path d="M60.8557 30.3152C60.0225 30.0092 59.6473 30.2639 59.3452 30.0092C59.0431 29.7546 60.1752 29.0954 57.911 28.4342C57.911 28.4342 57.7584 27.0111 54.6642 26.9619C51.5701 26.9126 52.4001 28.3828 51.5701 28.7402C50.7401 29.0976 50.5111 28.5262 49.6812 28.8921C48.8512 29.2581 49.2296 29.9621 48.5491 30.0606C47.8686 30.159 46.9591 29.6026 46.1323 29.9579C45.3055 30.3131 45.3023 30.6191 44.9239 30.6191C44.5455 30.6191 43.7918 30.4051 43.3339 30.6191C42.876 30.8331 42.3513 31.0771 42.3513 31.0771H61.4535C61.4535 31.0771 61.692 30.6191 60.8557 30.3152Z" fill="white"/>
<path opacity="0.5" d="M60.8557 30.3152C60.0225 30.0092 59.6473 30.2639 59.3452 30.0092C59.0431 29.7546 60.1752 29.0954 57.911 28.4342C57.911 28.4342 57.7584 27.0111 54.6642 26.9619C51.5701 26.9126 52.4001 28.3828 51.5701 28.7402C50.7401 29.0976 50.5111 28.5262 49.6812 28.8921C48.8512 29.2581 49.2296 29.9621 48.5491 30.0606C47.8686 30.159 46.9591 29.6026 46.1323 29.9579C45.3055 30.3131 45.3023 30.6191 44.9239 30.6191C44.5455 30.6191 43.7918 30.4051 43.3339 30.6191C42.876 30.8331 42.3513 31.0771 42.3513 31.0771H61.4535C61.4535 31.0771 61.692 30.6191 60.8557 30.3152Z" fill="white"/>
</g>
<path d="M122.249 25.374C120.697 24.8047 119.994 25.2798 119.431 24.8047C118.868 24.3297 120.98 23.0927 116.754 21.8665C116.754 21.8665 116.471 19.2108 110.693 19.1166C104.915 19.0225 106.466 21.7702 104.918 22.4336C103.369 23.097 102.943 22.0548 101.394 22.7182C99.8457 23.3816 100.548 24.7106 99.2796 24.8989C98.0108 25.0872 96.3222 24.0429 94.7704 24.7106C93.2185 25.3783 93.2217 25.9432 92.5189 25.9432C91.8162 25.9432 90.4042 25.5644 89.5584 25.9432C88.7125 26.322 87.7267 26.7992 87.7267 26.7992H123.384C123.384 26.7992 123.797 25.9432 122.249 25.374Z" fill="#FFC100"/>
<path opacity="0.5" d="M122.249 25.374C120.697 24.8047 119.994 25.2798 119.431 24.8047C118.868 24.3297 120.98 23.0927 116.754 21.8665C116.754 21.8665 116.471 19.2108 110.693 19.1166C104.915 19.0225 106.466 21.7702 104.918 22.4336C103.369 23.097 102.943 22.0548 101.394 22.7182C99.8457 23.3816 100.548 24.7106 99.2796 24.8989C98.0108 25.0872 96.3222 24.0429 94.7704 24.7106C93.2185 25.3783 93.2217 25.9432 92.5189 25.9432C91.8162 25.9432 90.4042 25.5644 89.5584 25.9432C88.7125 26.322 87.7267 26.7992 87.7267 26.7992H123.384C123.384 26.7992 123.797 25.9432 122.249 25.374Z" fill="#FFC100"/>
<g opacity="0.8">
<path d="M122.249 25.374C120.697 24.8047 119.994 25.2798 119.431 24.8047C118.868 24.3297 120.98 23.0927 116.754 21.8665C116.754 21.8665 116.471 19.2108 110.693 19.1166C104.915 19.0225 106.466 21.7702 104.918 22.4336C103.369 23.097 102.943 22.0548 101.394 22.7182C99.8457 23.3816 100.548 24.7106 99.2796 24.8989C98.0108 25.0872 96.3222 24.0429 94.7704 24.7106C93.2185 25.3783 93.2217 25.9432 92.5189 25.9432C91.8162 25.9432 90.4042 25.5644 89.5584 25.9432C88.7125 26.322 87.7267 26.7992 87.7267 26.7992H123.384C123.384 26.7992 123.797 25.9432 122.249 25.374Z" fill="white"/>
<path opacity="0.5" d="M122.249 25.374C120.697 24.8047 119.994 25.2798 119.431 24.8047C118.868 24.3297 120.98 23.0927 116.754 21.8665C116.754 21.8665 116.471 19.2108 110.693 19.1166C104.915 19.0225 106.466 21.7702 104.918 22.4336C103.369 23.097 102.943 22.0548 101.394 22.7182C99.8457 23.3816 100.548 24.7106 99.2796 24.8989C98.0108 25.0872 96.3222 24.0429 94.7704 24.7106C93.2185 25.3783 93.2217 25.9432 92.5189 25.9432C91.8162 25.9432 90.4042 25.5644 89.5584 25.9432C88.7125 26.322 87.7267 26.7992 87.7267 26.7992H123.384C123.384 26.7992 123.797 25.9432 122.249 25.374Z" fill="white"/>
</g>
<path d="M118.779 47.2683C118.652 47.5872 119.05 48.0259 118.865 48.3255C118.681 48.6251 117.937 48.7535 117.692 49.0338C117.447 49.3142 117.663 49.8085 117.374 50.0696C117.084 50.3307 116.315 50.3157 115.968 50.5489C115.622 50.7822 115.65 51.2937 115.256 51.4927C114.862 51.6917 114.14 51.5483 113.717 51.7067C113.294 51.865 113.119 52.3679 112.667 52.4942C112.216 52.6205 111.57 52.353 111.096 52.4386C110.623 52.5242 110.263 52.9714 109.774 53.0164C109.284 53.0613 108.772 52.6868 108.279 52.6868C107.786 52.6868 107.258 53.057 106.781 53.0164C106.304 52.9757 105.929 52.522 105.462 52.4386C104.994 52.3551 104.339 52.6205 103.891 52.4942C103.442 52.3679 103.255 51.8693 102.841 51.7067C102.428 51.544 101.687 51.6874 101.302 51.4927C100.917 51.2979 100.933 50.7801 100.59 50.5489C100.246 50.3178 99.4831 50.3349 99.1842 50.0696C98.8853 49.8042 99.1015 49.3184 98.8662 49.0338C98.6309 48.7492 97.8836 48.6315 97.696 48.3255C97.5084 48.0195 97.9059 47.5872 97.7787 47.2683C97.6515 46.9495 96.9868 46.7098 96.9232 46.3802C96.8596 46.0507 97.4129 45.7061 97.4129 45.3723C97.4129 45.0384 96.8596 44.6875 96.9232 44.3665C96.9868 44.0455 97.6546 43.793 97.7787 43.4784C97.9027 43.1638 97.5084 42.7208 97.696 42.4212C97.8836 42.1216 98.6245 41.9932 98.8662 41.7129C99.1079 41.4325 98.898 40.9361 99.1842 40.6771C99.4704 40.4182 100.243 40.431 100.587 40.1978C100.93 39.9645 100.905 39.453 101.299 39.254C101.693 39.055 102.415 39.1984 102.838 39.04C103.261 38.8817 103.436 38.3788 103.891 38.2525C104.345 38.1262 104.988 38.3937 105.462 38.3081C105.935 38.2225 106.295 37.7731 106.781 37.7303C107.268 37.6875 107.783 38.0599 108.279 38.0599C108.775 38.0599 109.297 37.6897 109.774 37.7303C110.251 37.771 110.629 38.2247 111.093 38.3081C111.558 38.3916 112.219 38.1262 112.664 38.2504C113.109 38.3745 113.3 38.8752 113.717 39.04C114.133 39.2048 114.871 39.0593 115.256 39.254C115.641 39.4488 115.625 39.9666 115.968 40.1978C116.312 40.4289 117.075 40.4118 117.371 40.6771C117.666 40.9425 117.453 41.4283 117.689 41.7129C117.924 41.9975 118.674 42.1152 118.862 42.4191C119.05 42.723 118.649 43.1595 118.776 43.4784C118.903 43.7972 119.571 44.0369 119.635 44.3665C119.698 44.696 119.145 45.0406 119.145 45.3723C119.145 45.704 119.695 46.0592 119.635 46.3802C119.574 46.7012 118.903 46.9537 118.779 47.2683ZM55.7518 43.8443C55.6468 43.5854 55.9712 43.2301 55.8185 42.9883C55.6659 42.7465 55.0649 42.6416 54.8645 42.4127C54.6642 42.1837 54.8391 41.7814 54.6006 41.5716C54.3621 41.3619 53.7388 41.3705 53.459 41.1822C53.1791 40.9938 53.195 40.5765 52.8802 40.4139C52.5654 40.2513 51.9739 40.3711 51.6305 40.2363C51.287 40.1015 51.1439 39.6991 50.7751 39.5943C50.4062 39.4894 49.8847 39.7098 49.5031 39.6392C49.1215 39.5686 48.8289 39.2112 48.4314 39.1706C48.0339 39.1299 47.6173 39.4381 47.2166 39.4381C46.816 39.4381 46.3867 39.1363 45.9987 39.1706C45.6107 39.2048 45.3086 39.5729 44.927 39.6392C44.5454 39.7056 44.0144 39.4916 43.655 39.5943C43.2957 39.697 43.1431 40.1015 42.7996 40.2363C42.4562 40.3711 41.8647 40.2534 41.5499 40.416C41.2351 40.5787 41.251 40.9938 40.9711 41.1822C40.6913 41.3705 40.0744 41.3598 39.8327 41.5716C39.591 41.7835 39.7659 42.1815 39.5656 42.4127C39.3652 42.6438 38.7674 42.7401 38.6116 42.9883C38.4557 43.2366 38.7833 43.5875 38.6815 43.8443C38.5798 44.1011 38.0455 44.298 37.9851 44.5655C37.9247 44.833 38.3826 45.1133 38.3826 45.383C38.3826 45.6526 37.9342 45.9415 37.9851 46.2026C38.036 46.4637 38.5798 46.6691 38.6815 46.9238C38.7833 47.1784 38.4621 47.538 38.6116 47.7798C38.761 48.0216 39.3652 48.1265 39.5656 48.3554C39.7659 48.5844 39.5878 48.9974 39.8295 49.1965C40.0712 49.3955 40.6913 49.3976 40.9711 49.5859C41.251 49.7743 41.2351 50.1916 41.5467 50.3521C41.8583 50.5126 42.4562 50.397 42.7996 50.5318C43.1431 50.6666 43.2862 51.069 43.6519 51.1738C44.0176 51.2787 44.5423 51.0583 44.9239 51.1289C45.3055 51.1995 45.6012 51.5569 45.9987 51.5975C46.3962 51.6382 46.8128 51.33 47.2135 51.33C47.6142 51.33 48.0403 51.6296 48.4282 51.5975C48.8162 51.5654 49.1215 51.1952 49.4999 51.1267C49.8783 51.0583 50.4125 51.2744 50.7719 51.1738C51.1312 51.0732 51.2839 50.6666 51.6241 50.5318C51.9644 50.397 52.5622 50.5147 52.8739 50.3521C53.1855 50.1894 53.1728 49.7743 53.4526 49.5859C53.7325 49.3976 54.3526 49.4083 54.5942 49.1965C54.8359 48.9846 54.661 48.5866 54.8582 48.3554C55.0553 48.1243 55.6595 48.028 55.8122 47.7798C55.9648 47.5315 55.6405 47.1806 55.7454 46.9238C55.8503 46.667 56.3814 46.468 56.4418 46.2026C56.5023 45.9372 56.0443 45.6548 56.0443 45.383C56.0443 45.1112 56.4927 44.8266 56.4418 44.5655C56.391 44.3044 55.8535 44.084 55.7518 43.8336V43.8443ZM96.5194 39.8596C96.6434 39.5472 97.3144 39.3011 97.378 38.9715C97.4416 38.642 96.8882 38.2974 96.8882 37.9657C96.8882 37.634 97.4384 37.2788 97.378 36.9578C97.3176 36.6368 96.6434 36.3843 96.5194 36.0697C96.3953 35.7551 96.7897 35.3121 96.6052 35.0125C96.4208 34.7129 95.6767 34.5845 95.4318 34.3042C95.187 34.0239 95.4032 33.5274 95.1138 33.2684C94.8244 33.0095 94.0549 33.0223 93.7114 32.7891C93.368 32.5558 93.3934 32.0444 92.9991 31.8453C92.6048 31.6463 91.8829 31.7897 91.46 31.6313C91.037 31.473 90.8621 30.9701 90.4074 30.8438C89.9527 30.7176 89.3103 30.9851 88.8365 30.8995C88.3627 30.8139 88.0065 30.3666 87.5168 30.3238C87.0271 30.281 86.5151 30.6534 86.0222 30.6534C85.5293 30.6534 85.0014 30.281 84.5244 30.3238C84.0474 30.3666 83.6722 30.816 83.2047 30.8995C82.7372 30.9829 82.079 30.7197 81.6338 30.8438C81.1886 30.9679 80.9978 31.4687 80.5812 31.6313C80.1646 31.794 79.4269 31.6527 79.0421 31.8453C78.6573 32.0379 78.6764 32.558 78.3298 32.7912C77.9832 33.0245 77.2231 33.0052 76.9274 33.2706C76.6317 33.5359 76.8447 34.0217 76.6094 34.3063C76.3741 34.591 75.6268 34.7087 75.4391 35.0125C75.2515 35.3164 75.649 35.7508 75.5218 36.0697C75.3946 36.3886 74.73 36.6304 74.6664 36.9578C74.6028 37.2852 75.1561 37.6319 75.1561 37.9657C75.1561 38.2996 74.6028 38.6505 74.6664 38.9715C74.73 39.2925 75.3978 39.5472 75.5218 39.8596C75.561 39.9802 75.561 40.105 75.5218 40.2256C75.1402 40.1828 74.6728 40.2256 74.3675 40.1036C73.9477 39.941 73.7696 39.4423 73.3149 39.3161C72.8602 39.1898 72.2178 39.4595 71.744 39.3739C71.2702 39.2883 70.914 38.8389 70.4243 38.7961C69.9346 38.7533 69.4226 39.1256 68.9297 39.1256C68.4368 39.1256 67.9089 38.7533 67.4319 38.7961C66.9549 38.8389 66.5797 39.2883 66.1122 39.3739C65.6447 39.4595 64.9865 39.192 64.5413 39.3161C64.0961 39.4402 63.9053 39.941 63.4887 40.1057C63.0721 40.2705 62.3344 40.125 61.9496 40.3197C61.5648 40.5145 61.5807 41.0345 61.2373 41.2656C60.8938 41.4967 60.1306 41.4796 59.8349 41.745C59.5392 42.0103 59.7522 42.4961 59.5169 42.7807C59.2816 43.0654 58.5343 43.1831 58.3466 43.4869C58.159 43.7908 58.5565 44.2252 58.4293 44.5462C58.3021 44.8672 57.6375 45.1048 57.5739 45.4343C57.5103 45.7639 58.0636 46.1084 58.0636 46.4401C58.0636 46.7718 57.5103 47.1271 57.5739 47.4481C57.6375 47.7691 58.3053 48.0216 58.4293 48.3362C58.5534 48.6508 58.159 49.0916 58.3466 49.3933C58.5343 49.6951 59.2752 49.8213 59.5169 50.1017C59.7586 50.382 59.5487 50.8764 59.8349 51.1374C60.1211 51.3985 60.8938 51.3835 61.2373 51.6168C61.5807 51.8501 61.5553 52.3615 61.9496 52.5605C62.3439 52.7596 63.069 52.6162 63.4919 52.7745C63.9148 52.9329 64.0897 53.4358 64.5413 53.5621C64.9929 53.6883 65.6384 53.4208 66.1122 53.5043C66.586 53.5877 66.9454 54.0393 67.4319 54.0821C67.9185 54.1249 68.4336 53.7525 68.9297 53.7525C69.4258 53.7525 69.9473 54.1249 70.4243 54.0821C70.9013 54.0393 71.2797 53.5899 71.744 53.5043C72.2083 53.4187 72.8697 53.6862 73.3181 53.5621C73.7665 53.4379 73.9541 52.9372 74.3675 52.7724C74.7809 52.6076 75.5218 52.7531 75.9066 52.5584C76.2914 52.3637 76.2755 51.8458 76.6189 51.6125C76.9624 51.3793 77.7256 51.3985 78.0245 51.1332C78.3234 50.8678 78.104 50.382 78.3425 50.0974C78.581 49.8128 79.3283 49.6951 79.5159 49.3912C79.7035 49.0873 79.3028 48.6529 79.43 48.334C79.5573 48.0152 80.225 47.7734 80.2887 47.4459C80.3522 47.1185 79.7989 46.7697 79.7989 46.438C79.7989 46.1063 80.3491 45.7532 80.2887 45.4301C80.2282 45.1069 79.5541 44.8565 79.43 44.542C79.3906 44.4221 79.3906 44.298 79.43 44.1782C79.8116 44.221 80.2759 44.1782 80.5844 44.298C81.0042 44.4628 81.1822 44.9614 81.6338 45.0877C82.0853 45.2139 82.7309 44.9443 83.2047 45.0299C83.6785 45.1155 84.0379 45.5649 84.5244 45.6077C85.0109 45.6505 85.5261 45.2781 86.0222 45.2781C86.5183 45.2781 87.0398 45.6483 87.5168 45.6077C87.9938 45.567 88.3722 45.1133 88.8397 45.0299C89.3071 44.9464 89.9622 45.2118 90.4106 45.0877C90.859 44.9635 91.0466 44.4628 91.46 44.298C91.8734 44.1332 92.6143 44.2787 92.9991 44.084C93.3839 43.8893 93.368 43.3714 93.7114 43.1403C94.0549 42.9091 94.8181 42.9263 95.117 42.6609C95.4159 42.3955 95.1965 41.9098 95.435 41.6251C95.6735 41.3405 96.4208 41.2228 96.6084 40.9168C96.796 40.6108 96.3922 40.1678 96.5194 39.8489V39.8596Z" fill="#FFC100"/>
<path opacity="0.5" d="M118.779 47.2683C118.652 47.5872 119.05 48.0259 118.865 48.3255C118.681 48.6251 117.937 48.7535 117.692 49.0338C117.447 49.3142 117.663 49.8085 117.374 50.0696C117.084 50.3307 116.315 50.3157 115.968 50.5489C115.622 50.7822 115.65 51.2937 115.256 51.4927C114.862 51.6917 114.14 51.5483 113.717 51.7067C113.294 51.865 113.119 52.3679 112.667 52.4942C112.216 52.6205 111.57 52.353 111.096 52.4386C110.623 52.5242 110.263 52.9714 109.774 53.0164C109.284 53.0613 108.772 52.6868 108.279 52.6868C107.786 52.6868 107.258 53.057 106.781 53.0164C106.304 52.9757 105.929 52.522 105.462 52.4386C104.994 52.3551 104.339 52.6205 103.891 52.4942C103.442 52.3679 103.255 51.8693 102.841 51.7067C102.428 51.544 101.687 51.6874 101.302 51.4927C100.917 51.2979 100.933 50.7801 100.59 50.5489C100.246 50.3178 99.4831 50.3349 99.1842 50.0696C98.8853 49.8042 99.1015 49.3184 98.8662 49.0338C98.6309 48.7492 97.8836 48.6315 97.696 48.3255C97.5084 48.0195 97.9059 47.5872 97.7787 47.2683C97.6515 46.9495 96.9868 46.7098 96.9232 46.3802C96.8596 46.0507 97.4129 45.7061 97.4129 45.3723C97.4129 45.0384 96.8596 44.6875 96.9232 44.3665C96.9868 44.0455 97.6546 43.793 97.7787 43.4784C97.9027 43.1638 97.5084 42.7208 97.696 42.4212C97.8836 42.1216 98.6245 41.9932 98.8662 41.7129C99.1079 41.4325 98.898 40.9361 99.1842 40.6771C99.4704 40.4182 100.243 40.431 100.587 40.1978C100.93 39.9645 100.905 39.453 101.299 39.254C101.693 39.055 102.415 39.1984 102.838 39.04C103.261 38.8817 103.436 38.3788 103.891 38.2525C104.345 38.1262 104.988 38.3937 105.462 38.3081C105.935 38.2225 106.295 37.7731 106.781 37.7303C107.268 37.6875 107.783 38.0599 108.279 38.0599C108.775 38.0599 109.297 37.6897 109.774 37.7303C110.251 37.771 110.629 38.2247 111.093 38.3081C111.558 38.3916 112.219 38.1262 112.664 38.2504C113.109 38.3745 113.3 38.8752 113.717 39.04C114.133 39.2048 114.871 39.0593 115.256 39.254C115.641 39.4488 115.625 39.9666 115.968 40.1978C116.312 40.4289 117.075 40.4118 117.371 40.6771C117.666 40.9425 117.453 41.4283 117.689 41.7129C117.924 41.9975 118.674 42.1152 118.862 42.4191C119.05 42.723 118.649 43.1595 118.776 43.4784C118.903 43.7972 119.571 44.0369 119.635 44.3665C119.698 44.696 119.145 45.0406 119.145 45.3723C119.145 45.704 119.695 46.0592 119.635 46.3802C119.574 46.7012 118.903 46.9537 118.779 47.2683ZM55.7518 43.8443C55.6468 43.5854 55.9712 43.2301 55.8185 42.9883C55.6659 42.7465 55.0649 42.6416 54.8645 42.4127C54.6642 42.1837 54.8391 41.7814 54.6006 41.5716C54.3621 41.3619 53.7388 41.3705 53.459 41.1822C53.1791 40.9938 53.195 40.5765 52.8802 40.4139C52.5654 40.2513 51.9739 40.3711 51.6305 40.2363C51.287 40.1015 51.1439 39.6991 50.7751 39.5943C50.4062 39.4894 49.8847 39.7098 49.5031 39.6392C49.1215 39.5686 48.8289 39.2112 48.4314 39.1706C48.0339 39.1299 47.6173 39.4381 47.2166 39.4381C46.816 39.4381 46.3867 39.1363 45.9987 39.1706C45.6107 39.2048 45.3086 39.5729 44.927 39.6392C44.5454 39.7056 44.0144 39.4916 43.655 39.5943C43.2957 39.697 43.1431 40.1015 42.7996 40.2363C42.4562 40.3711 41.8647 40.2534 41.5499 40.416C41.2351 40.5787 41.251 40.9938 40.9711 41.1822C40.6913 41.3705 40.0744 41.3598 39.8327 41.5716C39.591 41.7835 39.7659 42.1815 39.5656 42.4127C39.3652 42.6438 38.7674 42.7401 38.6116 42.9883C38.4557 43.2366 38.7833 43.5875 38.6815 43.8443C38.5798 44.1011 38.0455 44.298 37.9851 44.5655C37.9247 44.833 38.3826 45.1133 38.3826 45.383C38.3826 45.6526 37.9342 45.9415 37.9851 46.2026C38.036 46.4637 38.5798 46.6691 38.6815 46.9238C38.7833 47.1784 38.4621 47.538 38.6116 47.7798C38.761 48.0216 39.3652 48.1265 39.5656 48.3554C39.7659 48.5844 39.5878 48.9974 39.8295 49.1965C40.0712 49.3955 40.6913 49.3976 40.9711 49.5859C41.251 49.7743 41.2351 50.1916 41.5467 50.3521C41.8583 50.5126 42.4562 50.397 42.7996 50.5318C43.1431 50.6666 43.2862 51.069 43.6519 51.1738C44.0176 51.2787 44.5423 51.0583 44.9239 51.1289C45.3055 51.1995 45.6012 51.5569 45.9987 51.5975C46.3962 51.6382 46.8128 51.33 47.2135 51.33C47.6142 51.33 48.0403 51.6296 48.4282 51.5975C48.8162 51.5654 49.1215 51.1952 49.4999 51.1267C49.8783 51.0583 50.4125 51.2744 50.7719 51.1738C51.1312 51.0732 51.2839 50.6666 51.6241 50.5318C51.9644 50.397 52.5622 50.5147 52.8739 50.3521C53.1855 50.1894 53.1728 49.7743 53.4526 49.5859C53.7325 49.3976 54.3526 49.4083 54.5942 49.1965C54.8359 48.9846 54.661 48.5866 54.8582 48.3554C55.0553 48.1243 55.6595 48.028 55.8122 47.7798C55.9648 47.5315 55.6405 47.1806 55.7454 46.9238C55.8503 46.667 56.3814 46.468 56.4418 46.2026C56.5023 45.9372 56.0443 45.6548 56.0443 45.383C56.0443 45.1112 56.4927 44.8266 56.4418 44.5655C56.391 44.3044 55.8535 44.084 55.7518 43.8336V43.8443ZM96.5194 39.8596C96.6434 39.5472 97.3144 39.3011 97.378 38.9715C97.4416 38.642 96.8882 38.2974 96.8882 37.9657C96.8882 37.634 97.4384 37.2788 97.378 36.9578C97.3176 36.6368 96.6434 36.3843 96.5194 36.0697C96.3953 35.7551 96.7897 35.3121 96.6052 35.0125C96.4208 34.7129 95.6767 34.5845 95.4318 34.3042C95.187 34.0239 95.4032 33.5274 95.1138 33.2684C94.8244 33.0095 94.0549 33.0223 93.7114 32.7891C93.368 32.5558 93.3934 32.0444 92.9991 31.8453C92.6048 31.6463 91.8829 31.7897 91.46 31.6313C91.037 31.473 90.8621 30.9701 90.4074 30.8438C89.9527 30.7176 89.3103 30.9851 88.8365 30.8995C88.3627 30.8139 88.0065 30.3666 87.5168 30.3238C87.0271 30.281 86.5151 30.6534 86.0222 30.6534C85.5293 30.6534 85.0014 30.281 84.5244 30.3238C84.0474 30.3666 83.6722 30.816 83.2047 30.8995C82.7372 30.9829 82.079 30.7197 81.6338 30.8438C81.1886 30.9679 80.9978 31.4687 80.5812 31.6313C80.1646 31.794 79.4269 31.6527 79.0421 31.8453C78.6573 32.0379 78.6764 32.558 78.3298 32.7912C77.9832 33.0245 77.2231 33.0052 76.9274 33.2706C76.6317 33.5359 76.8447 34.0217 76.6094 34.3063C76.3741 34.591 75.6268 34.7087 75.4391 35.0125C75.2515 35.3164 75.649 35.7508 75.5218 36.0697C75.3946 36.3886 74.73 36.6304 74.6664 36.9578C74.6028 37.2852 75.1561 37.6319 75.1561 37.9657C75.1561 38.2996 74.6028 38.6505 74.6664 38.9715C74.73 39.2925 75.3978 39.5472 75.5218 39.8596C75.561 39.9802 75.561 40.105 75.5218 40.2256C75.1402 40.1828 74.6728 40.2256 74.3675 40.1036C73.9477 39.941 73.7696 39.4423 73.3149 39.3161C72.8602 39.1898 72.2178 39.4595 71.744 39.3739C71.2702 39.2883 70.914 38.8389 70.4243 38.7961C69.9346 38.7533 69.4226 39.1256 68.9297 39.1256C68.4368 39.1256 67.9089 38.7533 67.4319 38.7961C66.9549 38.8389 66.5797 39.2883 66.1122 39.3739C65.6447 39.4595 64.9865 39.192 64.5413 39.3161C64.0961 39.4402 63.9053 39.941 63.4887 40.1057C63.0721 40.2705 62.3344 40.125 61.9496 40.3197C61.5648 40.5145 61.5807 41.0345 61.2373 41.2656C60.8938 41.4967 60.1306 41.4796 59.8349 41.745C59.5392 42.0103 59.7522 42.4961 59.5169 42.7807C59.2816 43.0654 58.5343 43.1831 58.3466 43.4869C58.159 43.7908 58.5565 44.2252 58.4293 44.5462C58.3021 44.8672 57.6375 45.1048 57.5739 45.4343C57.5103 45.7639 58.0636 46.1084 58.0636 46.4401C58.0636 46.7718 57.5103 47.1271 57.5739 47.4481C57.6375 47.7691 58.3053 48.0216 58.4293 48.3362C58.5534 48.6508 58.159 49.0916 58.3466 49.3933C58.5343 49.6951 59.2752 49.8213 59.5169 50.1017C59.7586 50.382 59.5487 50.8764 59.8349 51.1374C60.1211 51.3985 60.8938 51.3835 61.2373 51.6168C61.5807 51.8501 61.5553 52.3615 61.9496 52.5605C62.3439 52.7596 63.069 52.6162 63.4919 52.7745C63.9148 52.9329 64.0897 53.4358 64.5413 53.5621C64.9929 53.6883 65.6384 53.4208 66.1122 53.5043C66.586 53.5877 66.9454 54.0393 67.4319 54.0821C67.9185 54.1249 68.4336 53.7525 68.9297 53.7525C69.4258 53.7525 69.9473 54.1249 70.4243 54.0821C70.9013 54.0393 71.2797 53.5899 71.744 53.5043C72.2083 53.4187 72.8697 53.6862 73.3181 53.5621C73.7665 53.4379 73.9541 52.9372 74.3675 52.7724C74.7809 52.6076 75.5218 52.7531 75.9066 52.5584C76.2914 52.3637 76.2755 51.8458 76.6189 51.6125C76.9624 51.3793 77.7256 51.3985 78.0245 51.1332C78.3234 50.8678 78.104 50.382 78.3425 50.0974C78.581 49.8128 79.3283 49.6951 79.5159 49.3912C79.7035 49.0873 79.3028 48.6529 79.43 48.334C79.5573 48.0152 80.225 47.7734 80.2887 47.4459C80.3522 47.1185 79.7989 46.7697 79.7989 46.438C79.7989 46.1063 80.3491 45.7532 80.2887 45.4301C80.2282 45.1069 79.5541 44.8565 79.43 44.542C79.3906 44.4221 79.3906 44.298 79.43 44.1782C79.8116 44.221 80.2759 44.1782 80.5844 44.298C81.0042 44.4628 81.1822 44.9614 81.6338 45.0877C82.0853 45.2139 82.7309 44.9443 83.2047 45.0299C83.6785 45.1155 84.0379 45.5649 84.5244 45.6077C85.0109 45.6505 85.5261 45.2781 86.0222 45.2781C86.5183 45.2781 87.0398 45.6483 87.5168 45.6077C87.9938 45.567 88.3722 45.1133 88.8397 45.0299C89.3071 44.9464 89.9622 45.2118 90.4106 45.0877C90.859 44.9635 91.0466 44.4628 91.46 44.298C91.8734 44.1332 92.6143 44.2787 92.9991 44.084C93.3839 43.8893 93.368 43.3714 93.7114 43.1403C94.0549 42.9091 94.8181 42.9263 95.117 42.6609C95.4159 42.3955 95.1965 41.9098 95.435 41.6251C95.6735 41.3405 96.4208 41.2228 96.6084 40.9168C96.796 40.6108 96.3922 40.1678 96.5194 39.8489V39.8596Z" fill="white"/>
<path d="M50.2662 44.4606L47.6491 42.3206C47.5916 42.2728 47.5189 42.2342 47.4363 42.2078C47.3538 42.1813 47.2635 42.1675 47.1721 42.1675C47.0807 42.1675 46.9904 42.1813 46.9078 42.2078C46.8253 42.2342 46.7526 42.2728 46.6951 42.3206L44.2274 44.4435V77.3225H50.2694L50.2662 44.4606Z" fill="white"/>
<path d="M44.202 44.4606L41.5849 42.3206C41.527 42.2731 41.4542 42.2349 41.3717 42.2086C41.2893 42.1824 41.1991 42.1687 41.1079 42.1687C41.0166 42.1687 40.9265 42.1824 40.844 42.2086C40.7616 42.2349 40.6888 42.2731 40.6309 42.3206L38.16 44.4606V77.3225H44.202V44.4606Z" fill="white"/>
<path d="M38.1409 44.4606L35.5238 42.3206C35.4663 42.2728 35.3936 42.2342 35.311 42.2078C35.2285 42.1813 35.1382 42.1675 35.0468 42.1675C34.9554 42.1675 34.8651 42.1813 34.7825 42.2078C34.7 42.2342 34.6273 42.2728 34.5698 42.3206L32.1021 44.4435V77.3225H38.1441L38.1409 44.4606Z" fill="white"/>
<path d="M32.0798 44.4606L29.4627 42.3206C29.4048 42.2731 29.332 42.2349 29.2495 42.2086C29.1671 42.1824 29.0769 42.1687 28.9857 42.1687C28.8944 42.1687 28.8043 42.1824 28.7218 42.2086C28.6394 42.2349 28.5666 42.2731 28.5087 42.3206L26.041 44.4435V77.3225H32.083L32.0798 44.4606Z" fill="white"/>
<path d="M56.3083 44.4606L53.6943 42.3206C53.6365 42.2731 53.5637 42.2349 53.4812 42.2086C53.3987 42.1824 53.3086 42.1687 53.2173 42.1687C53.1261 42.1687 53.036 42.1824 52.9535 42.2086C52.871 42.2349 52.7982 42.2731 52.7403 42.3206L50.2726 44.4435V77.3225H56.3146L56.3083 44.4606Z" fill="white"/>
<path d="M62.3535 44.4606L59.7363 42.3206C59.6785 42.2731 59.6057 42.2349 59.5232 42.2086C59.4407 42.1824 59.3506 42.1687 59.2593 42.1687C59.1681 42.1687 59.078 42.1824 58.9955 42.2086C58.913 42.2349 58.8402 42.2731 58.7823 42.3206L56.3146 44.4435V77.3225H62.3566L62.3535 44.4606Z" fill="white"/>
<path d="M68.3955 44.4606L65.7783 42.3206C65.7208 42.2728 65.6481 42.2342 65.5656 42.2078C65.483 42.1813 65.3927 42.1675 65.3013 42.1675C65.2099 42.1675 65.1196 42.1813 65.0371 42.2078C64.9545 42.2342 64.8818 42.2728 64.8243 42.3206L62.3566 44.4435V77.3225H68.3986L68.3955 44.4606Z" fill="white"/>
<path d="M74.4374 44.4606L71.8235 42.3206C71.7656 42.2731 71.6928 42.2349 71.6103 42.2086C71.5278 42.1824 71.4377 42.1687 71.3465 42.1687C71.2552 42.1687 71.1651 42.1824 71.0826 42.2086C71.0001 42.2349 70.9273 42.2731 70.8695 42.3206L68.4018 44.4435V77.3225H74.4438L74.4374 44.4606Z" fill="white"/>
<path d="M80.4794 44.4606L77.8655 42.3206C77.8076 42.2731 77.7348 42.2349 77.6523 42.2086C77.5698 42.1824 77.4797 42.1687 77.3885 42.1687C77.2972 42.1687 77.2071 42.1824 77.1246 42.2086C77.0421 42.2349 76.9693 42.2731 76.9115 42.3206L74.4438 44.4435V77.3225H80.4858L80.4794 44.4606Z" fill="white"/>
<path d="M86.5247 44.4606L83.9075 42.3206C83.8496 42.2731 83.7769 42.2349 83.6944 42.2086C83.6119 42.1824 83.5218 42.1687 83.4305 42.1687C83.3393 42.1687 83.2491 42.1824 83.1667 42.2086C83.0842 42.2349 83.0114 42.2731 82.9535 42.3206L80.4858 44.4435V77.3225H86.5278L86.5247 44.4606Z" fill="white"/>
<path d="M92.5666 44.4606L89.9495 42.3206C89.892 42.2728 89.8193 42.2342 89.7368 42.2078C89.6542 42.1813 89.5639 42.1675 89.4725 42.1675C89.3811 42.1675 89.2908 42.1813 89.2083 42.2078C89.1257 42.2342 89.053 42.2728 88.9955 42.3206L86.5278 44.4435V77.3225H92.5698L92.5666 44.4606Z" fill="white"/>
<path d="M98.6086 44.4606L95.9947 42.3206C95.9368 42.2731 95.864 42.2349 95.7815 42.2086C95.699 42.1824 95.6089 42.1687 95.5177 42.1687C95.4264 42.1687 95.3363 42.1824 95.2538 42.2086C95.1713 42.2349 95.0985 42.2731 95.0407 42.3206L92.573 44.4435V77.3225H98.615L98.6086 44.4606Z" fill="white"/>
<path d="M104.651 44.4606L102.037 42.3206C101.979 42.2731 101.906 42.2349 101.824 42.2086C101.741 42.1824 101.651 42.1687 101.56 42.1687C101.468 42.1687 101.378 42.1824 101.296 42.2086C101.213 42.2349 101.141 42.2731 101.083 42.3206L98.615 44.4435V77.3225H104.657L104.651 44.4606Z" fill="white"/>
<path d="M110.696 44.4606L108.079 42.3206C108.021 42.2728 107.948 42.2342 107.866 42.2078C107.783 42.1813 107.693 42.1675 107.602 42.1675C107.51 42.1675 107.42 42.1813 107.337 42.2078C107.255 42.2342 107.182 42.2728 107.125 42.3206L104.654 44.4435V77.3225H110.696V44.4606Z" fill="white"/>
<path d="M116.738 44.4606L114.121 42.3206C114.063 42.2728 113.99 42.2342 113.908 42.2078C113.825 42.1813 113.735 42.1675 113.644 42.1675C113.552 42.1675 113.462 42.1813 113.379 42.2078C113.297 42.2342 113.224 42.2728 113.167 42.3206L110.699 44.4435V77.3225H116.741L116.738 44.4606Z" fill="white"/>
<path d="M122.78 44.4606L120.166 42.3206C120.108 42.2731 120.035 42.2349 119.953 42.2086C119.87 42.1824 119.78 42.1687 119.689 42.1687C119.598 42.1687 119.507 42.1824 119.425 42.2086C119.342 42.2349 119.27 42.2731 119.212 42.3206L116.744 44.4435V77.3225H122.786L122.78 44.4606Z" fill="white"/>
<path d="M128.822 44.4606L126.208 42.3206C126.15 42.2731 126.077 42.2349 125.995 42.2086C125.912 42.1824 125.822 42.1687 125.731 42.1687C125.64 42.1687 125.55 42.1824 125.467 42.2086C125.385 42.2349 125.312 42.2731 125.254 42.3206L122.786 44.4435V77.3225H128.828L128.822 44.4606Z" fill="white"/>
<path d="M134.867 44.4606L132.25 42.3206C132.192 42.2728 132.12 42.2342 132.037 42.2078C131.955 42.1813 131.864 42.1675 131.773 42.1675C131.681 42.1675 131.591 42.1813 131.509 42.2078C131.426 42.2342 131.353 42.2728 131.296 42.3206L128.825 44.4435V77.3225H134.867V44.4606Z" fill="white"/>
<g opacity="0.3">
<path d="M50.2662 44.4606L47.6491 42.3206C47.5916 42.2728 47.5189 42.2342 47.4363 42.2078C47.3538 42.1813 47.2635 42.1675 47.1721 42.1675C47.0807 42.1675 46.9904 42.1813 46.9078 42.2078C46.8253 42.2342 46.7526 42.2728 46.6951 42.3206L44.2274 44.4435V77.3225H50.2694L50.2662 44.4606Z" stroke="black" stroke-miterlimit="10"/>
<path d="M44.202 44.4606L41.5848 42.3206C41.527 42.2731 41.4542 42.2349 41.3717 42.2086C41.2892 42.1824 41.1991 42.1687 41.1078 42.1687C41.0166 42.1687 40.9265 42.1824 40.844 42.2086C40.7615 42.2349 40.6887 42.2731 40.6308 42.3206L38.16 44.4606V77.3225H44.202V44.4606Z" stroke="black" stroke-miterlimit="10"/>
<path d="M38.1409 44.4606L35.5238 42.3206C35.4663 42.2728 35.3936 42.2342 35.311 42.2078C35.2285 42.1813 35.1382 42.1675 35.0468 42.1675C34.9554 42.1675 34.8651 42.1813 34.7825 42.2078C34.7 42.2342 34.6273 42.2728 34.5698 42.3206L32.1021 44.4435V77.3225H38.1441L38.1409 44.4606Z" stroke="black" stroke-miterlimit="10"/>
<path d="M32.0798 44.4606L29.4627 42.3206C29.4048 42.2731 29.332 42.2348 29.2495 42.2086C29.1671 42.1823 29.0769 42.1687 28.9857 42.1687C28.8944 42.1687 28.8043 42.1823 28.7218 42.2086C28.6394 42.2348 28.5666 42.2731 28.5087 42.3206L26.041 44.4434V77.3224H32.083L32.0798 44.4606Z" stroke="black" stroke-miterlimit="10"/>
<path d="M56.3082 44.4606L53.6943 42.3206C53.6364 42.2731 53.5636 42.2349 53.4811 42.2086C53.3986 42.1824 53.3085 42.1687 53.2173 42.1687C53.126 42.1687 53.0359 42.1824 52.9534 42.2086C52.8709 42.2349 52.7981 42.2731 52.7403 42.3206L50.2726 44.4435V77.3225H56.3146L56.3082 44.4606Z" stroke="black" stroke-miterlimit="10"/>
<path d="M62.3535 44.4606L59.7363 42.3206C59.6785 42.2731 59.6057 42.2349 59.5232 42.2086C59.4407 42.1824 59.3506 42.1687 59.2593 42.1687C59.1681 42.1687 59.078 42.1824 58.9955 42.2086C58.913 42.2349 58.8402 42.2731 58.7823 42.3206L56.3146 44.4435V77.3225H62.3566L62.3535 44.4606Z" stroke="black" stroke-miterlimit="10"/>
<path d="M68.3954 44.4606L65.7783 42.3206C65.7208 42.2728 65.6481 42.2342 65.5656 42.2078C65.483 42.1813 65.3927 42.1675 65.3013 42.1675C65.2099 42.1675 65.1196 42.1813 65.0371 42.2078C64.9545 42.2342 64.8818 42.2728 64.8243 42.3206L62.3566 44.4435V77.3225H68.3986L68.3954 44.4606Z" stroke="black" stroke-miterlimit="10"/>
<path d="M74.4374 44.4606L71.8235 42.3206C71.7656 42.2731 71.6928 42.2349 71.6103 42.2086C71.5278 42.1824 71.4377 42.1687 71.3465 42.1687C71.2552 42.1687 71.1651 42.1824 71.0826 42.2086C71.0001 42.2349 70.9273 42.2731 70.8695 42.3206L68.4018 44.4435V77.3225H74.4438L74.4374 44.4606Z" stroke="black" stroke-miterlimit="10"/>
<path d="M80.4794 44.4606L77.8655 42.3206C77.8076 42.2731 77.7348 42.2349 77.6523 42.2086C77.5698 42.1824 77.4797 42.1687 77.3885 42.1687C77.2972 42.1687 77.2071 42.1824 77.1246 42.2086C77.0421 42.2349 76.9693 42.2731 76.9115 42.3206L74.4438 44.4435V77.3225H80.4858L80.4794 44.4606Z" stroke="black" stroke-miterlimit="10"/>
<path d="M86.5246 44.4606L83.9075 42.3206C83.8496 42.2731 83.7768 42.2349 83.6943 42.2086C83.6118 42.1824 83.5217 42.1687 83.4305 42.1687C83.3392 42.1687 83.2491 42.1824 83.1666 42.2086C83.0841 42.2349 83.0113 42.2731 82.9535 42.3206L80.4858 44.4435V77.3225H86.5278L86.5246 44.4606Z" stroke="black" stroke-miterlimit="10"/>
<path d="M92.5666 44.4606L89.9495 42.3206C89.892 42.2728 89.8193 42.2342 89.7368 42.2078C89.6542 42.1813 89.5639 42.1675 89.4725 42.1675C89.3811 42.1675 89.2908 42.1813 89.2083 42.2078C89.1257 42.2342 89.053 42.2728 88.9955 42.3206L86.5278 44.4435V77.3225H92.5698L92.5666 44.4606Z" stroke="black" stroke-miterlimit="10"/>
<path d="M98.6086 44.4606L95.9947 42.3206C95.9368 42.2731 95.864 42.2349 95.7815 42.2086C95.699 42.1824 95.6089 42.1687 95.5177 42.1687C95.4264 42.1687 95.3363 42.1824 95.2538 42.2086C95.1713 42.2349 95.0985 42.2731 95.0407 42.3206L92.573 44.4435V77.3225H98.615L98.6086 44.4606Z" stroke="black" stroke-miterlimit="10"/>
<path d="M104.651 44.4606L102.037 42.3206C101.979 42.2731 101.906 42.2349 101.824 42.2086C101.741 42.1824 101.651 42.1687 101.56 42.1687C101.468 42.1687 101.378 42.1824 101.296 42.2086C101.213 42.2349 101.141 42.2731 101.083 42.3206L98.615 44.4435V77.3225H104.657L104.651 44.4606Z" stroke="black" stroke-miterlimit="10"/>
<path d="M110.696 44.4606L108.079 42.3206C108.021 42.2728 107.948 42.2342 107.866 42.2078C107.783 42.1813 107.693 42.1675 107.602 42.1675C107.51 42.1675 107.42 42.1813 107.337 42.2078C107.255 42.2342 107.182 42.2728 107.125 42.3206L104.654 44.4435V77.3225H110.696V44.4606Z" stroke="black" stroke-miterlimit="10"/>
<path d="M116.738 44.4606L114.121 42.3206C114.063 42.2728 113.99 42.2342 113.908 42.2078C113.825 42.1813 113.735 42.1675 113.644 42.1675C113.552 42.1675 113.462 42.1813 113.379 42.2078C113.297 42.2342 113.224 42.2728 113.167 42.3206L110.699 44.4435V77.3225H116.741L116.738 44.4606Z" stroke="black" stroke-miterlimit="10"/>
<path d="M122.78 44.4606L120.166 42.3206C120.108 42.2731 120.035 42.2349 119.953 42.2086C119.87 42.1824 119.78 42.1687 119.689 42.1687C119.598 42.1687 119.507 42.1824 119.425 42.2086C119.342 42.2349 119.27 42.2731 119.212 42.3206L116.744 44.4435V77.3225H122.786L122.78 44.4606Z" stroke="black" stroke-miterlimit="10"/>
<path d="M128.822 44.4606L126.208 42.3206C126.15 42.2731 126.077 42.2349 125.995 42.2086C125.912 42.1824 125.822 42.1687 125.731 42.1687C125.64 42.1687 125.549 42.1824 125.467 42.2086C125.384 42.2349 125.312 42.2731 125.254 42.3206L122.786 44.4435V77.3225H128.828L128.822 44.4606Z" stroke="black" stroke-miterlimit="10"/>
<path d="M134.867 44.4606L132.25 42.3206C132.192 42.2728 132.12 42.2342 132.037 42.2078C131.955 42.1813 131.864 42.1675 131.773 42.1675C131.681 42.1675 131.591 42.1813 131.509 42.2078C131.426 42.2342 131.353 42.2728 131.296 42.3206L128.825 44.4435V77.3225H134.867V44.4606Z" stroke="black" stroke-miterlimit="10"/>
</g>
<path d="M134.422 78.1999L141.615 78.3005L139.109 77.7976L138.613 77.7205L137.802 77.5964L138.346 76.2889L137.475 76.8923V75.786L136.164 76.184L135.185 74.977L134.749 75.7817L133.986 74.1724L133.56 75.786L132.361 74.8807V76.49L130.723 75.6854L130.615 76.49L129.525 75.0819L129.207 76.3894L128.227 75.4842L128.335 76.5906L127.788 76.3531L128.084 75.8865L127.372 76.184L126.682 75.8865L126.977 76.3531L126.43 76.5906L126.539 75.4842L125.556 76.398L125.238 75.0905L124.15 76.4986L124.039 75.6939L122.405 76.4986V74.8893L121.206 75.7945L120.77 74.1852L120.007 75.7945L119.568 74.9813L118.579 76.184L117.272 75.7817V76.8881L116.388 76.2889L116.932 77.5964L116.118 77.7205L115.625 77.7976L115.122 77.8981H114.067L114.722 76.9929L113.303 77.0935L114.067 75.8865L112.432 76.5906L112.54 75.4842L111.561 76.398L111.243 75.0905L110.152 76.4986L110.044 75.6939L108.409 76.4986V74.8893L107.211 75.7945L106.772 74.1852L106.008 75.7945L105.576 74.9813L104.584 76.184L103.274 75.7817V76.8881L102.396 76.2889L102.943 77.5964L102.129 77.7205L101.633 77.7976H101.595L102.301 76.9865L100.599 77.0871L101.515 75.8801L99.5499 76.5842L99.6803 75.4778L98.5037 76.383L98.1094 75.0755L96.7992 76.4836L96.6688 75.679L94.7036 76.4836V74.8743L93.263 75.7795L92.7383 74.1703L91.8225 75.7795L91.2978 74.9749L90.1244 76.184L89.5075 76.0256L89.5615 75.4799L89.0877 75.9079L88.5535 75.771V76.261L88.2545 75.0669L87.1638 76.475L87.0557 75.6704L85.418 76.475V74.8658L84.2191 75.771L83.7835 74.1617L83.0203 75.771L82.5846 74.9663L81.6052 76.184L80.295 75.7817V76.8881L79.4237 76.2846L79.7417 77.025L78.8449 77.0892L79.6081 75.8823L77.9736 76.5863L78.0817 75.4799L77.0896 76.398L76.7716 75.0905L75.684 76.49L75.5759 75.6854L73.9382 76.49V74.8807L72.7393 75.786L72.3037 74.1767L71.5405 75.786L71.1048 74.9813L70.1158 76.184L68.8057 75.7817V76.8881L67.9343 76.2846L68.2523 77.025L67.3556 77.0892L68.1188 75.8823L66.462 76.5906L66.5701 75.4842L65.6002 76.398L65.2822 75.0905L64.1947 76.4986L64.0834 75.6939L62.4488 76.4986V74.8893L61.25 75.7945L60.8143 74.1852L60.0511 75.7945L59.6155 74.9899L58.6233 76.184L57.3163 75.7817V76.8881L56.445 76.2846L56.763 77.025L55.8662 77.0892L56.6294 75.8823L54.9917 76.5863L55.103 75.4799L54.1109 76.398L53.7929 75.0905L52.7053 76.4986L52.594 75.6939L50.9595 76.4986V74.8893L49.7606 75.7945L49.325 74.1852L48.5618 75.7945L48.1261 74.9899L47.134 76.184L45.827 75.7817V76.8881L44.9557 76.2846L45.2737 77.025L44.3769 77.0892L45.1401 75.8823L43.5024 76.5863L43.6137 75.4799L42.612 76.398L42.294 75.0905L41.2033 76.4986L41.0951 75.6939L39.4606 76.4986V74.8893L38.2618 75.7945L37.842 74.1767L37.0788 75.786L36.6431 74.9813L35.6446 76.184L34.732 75.9015V75.8823L34.697 75.8951L34.3249 75.7817V76.0577L33.584 76.3745L33.4536 76.2846L33.5045 76.4108L33.0974 76.5863L33.2056 75.4799L32.2357 76.398L31.9177 75.0905L30.8269 76.4986L30.7156 75.6939L29.0811 76.4986V74.8893L27.8822 75.7945L27.4466 74.1852L26.6834 75.7945L26.2477 74.9899L25.2619 76.184L23.9518 75.7817V76.8881L23.0804 76.2846L23.6242 77.5921L22.8133 77.7162L22.3172 77.7933L19.8114 78.2962L27.0046 78.1956L24.9344 79.1008L35.8163 78.8868L35.3171 79.1008L47.3597 78.859L46.8064 79.1008L58.8491 78.859L58.2989 79.1008L70.3384 78.859L69.7883 79.1008L81.8309 78.859L81.2776 79.1008L90.2262 78.9211L89.7301 79.1008L104.832 78.8483L104.256 79.1008L118.932 78.8098L118.261 79.1051L127.378 78.9211L136.498 79.1051L134.422 78.1999ZM34.344 76.5307V76.8923L34.185 76.7811L34.344 76.5307ZM35.9753 78.2191L37.3968 78.1999L37.0057 78.3689L35.9753 78.2191ZM45.5153 77.5964L45.3436 77.6221L45.4613 77.4616L45.5153 77.5964ZM57.0047 77.5964L56.833 77.6221L56.922 77.468L57.0047 77.5964ZM57.9587 78.2384L60.385 78.2042L59.7204 78.4952L57.9587 78.2384ZM68.494 77.5964L68.3223 77.6221L68.44 77.4616L68.494 77.5964ZM69.448 78.2384L71.8744 78.2042L71.2097 78.4952L69.448 78.2384ZM79.9834 77.5964L79.8116 77.6221L79.9293 77.4616L79.9834 77.5964ZM80.9374 78.2384L83.3637 78.2042L82.68 78.4909L80.9374 78.2384ZM103.21 78.247L106.342 78.2042L105.576 78.538L103.21 78.247ZM119.05 78.7691L115.625 78.2705L120.341 78.2042L119.05 78.7691ZM127.454 77.0871H127.388H127.324L127.388 76.9844L127.454 77.0871Z" fill="#263238"/>
<path opacity="0.7" d="M134.422 78.1999L141.615 78.3005L139.109 77.7976L138.613 77.7205L137.802 77.5964L138.346 76.2889L137.475 76.8923V75.786L136.164 76.184L135.185 74.977L134.749 75.7817L133.986 74.1724L133.56 75.786L132.361 74.8807V76.49L130.723 75.6854L130.615 76.49L129.525 75.0819L129.207 76.3894L128.227 75.4842L128.335 76.5906L127.788 76.3531L128.084 75.8865L127.372 76.184L126.682 75.8865L126.977 76.3531L126.43 76.5906L126.539 75.4842L125.556 76.398L125.238 75.0905L124.15 76.4986L124.039 75.6939L122.405 76.4986V74.8893L121.206 75.7945L120.77 74.1852L120.007 75.7945L119.568 74.9813L118.579 76.184L117.272 75.7817V76.8881L116.388 76.2889L116.932 77.5964L116.118 77.7205L115.625 77.7976L115.122 77.8981H114.067L114.722 76.9929L113.303 77.0935L114.067 75.8865L112.432 76.5906L112.54 75.4842L111.561 76.398L111.243 75.0905L110.152 76.4986L110.044 75.6939L108.409 76.4986V74.8893L107.211 75.7945L106.772 74.1852L106.008 75.7945L105.576 74.9813L104.584 76.184L103.274 75.7817V76.8881L102.396 76.2889L102.943 77.5964L102.129 77.7205L101.633 77.7976H101.595L102.301 76.9865L100.599 77.0871L101.515 75.8801L99.5499 76.5842L99.6803 75.4778L98.5037 76.383L98.1094 75.0755L96.7992 76.4836L96.6688 75.679L94.7036 76.4836V74.8743L93.263 75.7795L92.7383 74.1703L91.8225 75.7795L91.2978 74.9749L90.1244 76.184L89.5075 76.0256L89.5615 75.4799L89.0877 75.9079L88.5535 75.771V76.261L88.2545 75.0669L87.1638 76.475L87.0557 75.6704L85.418 76.475V74.8658L84.2191 75.771L83.7835 74.1617L83.0203 75.771L82.5846 74.9663L81.6052 76.184L80.295 75.7817V76.8881L79.4237 76.2846L79.7417 77.025L78.8449 77.0892L79.6081 75.8823L77.9736 76.5863L78.0817 75.4799L77.0896 76.398L76.7716 75.0905L75.684 76.49L75.5759 75.6854L73.9382 76.49V74.8807L72.7393 75.786L72.3037 74.1767L71.5405 75.786L71.1048 74.9813L70.1158 76.184L68.8057 75.7817V76.8881L67.9343 76.2846L68.2523 77.025L67.3556 77.0892L68.1188 75.8823L66.462 76.5906L66.5701 75.4842L65.6002 76.398L65.2822 75.0905L64.1947 76.4986L64.0834 75.6939L62.4488 76.4986V74.8893L61.25 75.7945L60.8143 74.1852L60.0511 75.7945L59.6155 74.9899L58.6233 76.184L57.3163 75.7817V76.8881L56.445 76.2846L56.763 77.025L55.8662 77.0892L56.6294 75.8823L54.9917 76.5863L55.103 75.4799L54.1109 76.398L53.7929 75.0905L52.7053 76.4986L52.594 75.6939L50.9595 76.4986V74.8893L49.7606 75.7945L49.325 74.1852L48.5618 75.7945L48.1261 74.9899L47.134 76.184L45.827 75.7817V76.8881L44.9557 76.2846L45.2737 77.025L44.3769 77.0892L45.1401 75.8823L43.5024 76.5863L43.6137 75.4799L42.612 76.398L42.294 75.0905L41.2033 76.4986L41.0951 75.6939L39.4606 76.4986V74.8893L38.2618 75.7945L37.842 74.1767L37.0788 75.786L36.6431 74.9813L35.6446 76.184L34.732 75.9015V75.8823L34.697 75.8951L34.3249 75.7817V76.0577L33.584 76.3745L33.4536 76.2846L33.5045 76.4108L33.0974 76.5863L33.2056 75.4799L32.2357 76.398L31.9177 75.0905L30.8269 76.4986L30.7156 75.6939L29.0811 76.4986V74.8893L27.8822 75.7945L27.4466 74.1852L26.6834 75.7945L26.2477 74.9899L25.2619 76.184L23.9518 75.7817V76.8881L23.0804 76.2846L23.6242 77.5921L22.8133 77.7162L22.3172 77.7933L19.8114 78.2962L27.0046 78.1956L24.9344 79.1008L35.8163 78.8868L35.3171 79.1008L47.3597 78.859L46.8064 79.1008L58.8491 78.859L58.2989 79.1008L70.3384 78.859L69.7883 79.1008L81.8309 78.859L81.2776 79.1008L90.2262 78.9211L89.7301 79.1008L104.832 78.8483L104.256 79.1008L118.932 78.8098L118.261 79.1051L127.378 78.9211L136.498 79.1051L134.422 78.1999ZM34.344 76.5307V76.8923L34.185 76.7811L34.344 76.5307ZM35.9753 78.2191L37.3968 78.1999L37.0057 78.3689L35.9753 78.2191ZM45.5153 77.5964L45.3436 77.6221L45.4613 77.4616L45.5153 77.5964ZM57.0047 77.5964L56.833 77.6221L56.922 77.468L57.0047 77.5964ZM57.9587 78.2384L60.385 78.2042L59.7204 78.4952L57.9587 78.2384ZM68.494 77.5964L68.3223 77.6221L68.44 77.4616L68.494 77.5964ZM69.448 78.2384L71.8744 78.2042L71.2097 78.4952L69.448 78.2384ZM79.9834 77.5964L79.8116 77.6221L79.9293 77.4616L79.9834 77.5964ZM80.9374 78.2384L83.3637 78.2042L82.68 78.4909L80.9374 78.2384ZM103.21 78.247L106.342 78.2042L105.576 78.538L103.21 78.247ZM119.05 78.7691L115.625 78.2705L120.341 78.2042L119.05 78.7691ZM127.454 77.0871H127.388H127.324L127.388 76.9844L127.454 77.0871Z" fill="#88FF78"/>
<path d="M64.1024 52.1176C64.1024 52.1176 66.9231 52.843 68.37 54.5957C69.8169 56.3483 72.2464 63.5837 72.2464 63.5837C72.2464 63.5837 76.6412 63.8169 77.5666 63.8169C78.4919 63.8169 84.2764 63.5045 84.2764 63.5045L84.5657 64.7115C84.5657 64.7115 80.7497 65.8029 77.2772 66.0747C73.8046 66.3464 69.8137 66.2309 69.1777 65.9591C68.5417 65.6873 65.3045 60.1575 65.3045 60.1575C65.3045 60.1575 64.6081 57.7051 64.0325 55.991C63.4569 54.2768 62.9036 52.7168 64.1024 52.1176Z" fill="white" stroke="#263238" stroke-linecap="round" stroke-linejoin="round"/>
<path d="M67.7054 55.5801L66.1313 57.7714L67.6004 56.924" stroke="#263238" stroke-linecap="round" stroke-linejoin="round"/>
<path d="M84.27 63.5088C84.27 63.5088 78.4856 63.8212 77.5602 63.8212C76.6349 63.8212 72.2401 63.588 72.2401 63.588C72.2401 63.588 71.6995 61.9808 70.9681 60.0976C69.3053 60.5113 67.6934 61.0121 66.1472 61.5956C67.1553 63.2541 68.7389 65.7772 69.1619 65.9591C69.7979 66.2309 73.7919 66.3464 77.2613 66.0747C80.7307 65.8029 84.5499 64.7115 84.5499 64.7115L84.27 63.5088Z" fill="white" stroke="#263238" stroke-linecap="round" stroke-linejoin="round"/>
<path d="M86.8808 64.9105L85.3766 64.872L81.09 65.8072L80.5112 63.3162L83.8089 63.4318C84.5382 63.1554 85.2911 62.9082 86.0635 62.6913C86.5278 62.6143 88.5535 62.732 88.5535 62.732C88.5535 62.732 88.6679 62.8861 88.3786 63.0038L88.086 63.13C88.086 63.13 89.8223 63.5174 90.1117 63.6736C90.401 63.8298 89.994 64.1808 89.994 64.1808C89.9488 64.2759 89.8738 64.3633 89.7739 64.4372C89.674 64.511 89.5517 64.5696 89.4152 64.6088C89.0158 64.7378 88.5848 64.8169 88.1432 64.842C88.1432 64.842 87.2846 64.9105 86.8808 64.9105Z" fill="#263238" stroke="#263238" stroke-linecap="round" stroke-linejoin="round"/>
<path d="M59.7014 79.1308C59.7014 79.1308 61.1069 79.0345 61.7334 78.6108C62.3598 78.187 61.0083 77.5044 60.2833 77.8939C59.5583 78.2833 59.3643 78.2855 59.7014 79.1308Z" fill="white" stroke="#263238" stroke-linecap="round" stroke-linejoin="round"/>
<path d="M58.6869 51.6296C56.6707 52.2054 54.8457 53.0465 53.3191 54.1035C50.6097 55.9268 50.4571 58.4327 49.8847 60.776C49.3123 63.1193 49.7893 68.2938 49.9324 69.978C50.0755 71.6622 52.2538 73.7209 56.2701 76.3573C60.2864 78.9938 68.8375 82.9635 71.6422 82.9635C74.447 82.9635 75.7349 80.8599 75.366 79.0238C74.4661 74.5576 65.2155 68.3495 64.6844 67.6026C64.1533 66.8557 64.4427 65.713 64.4904 65.5182C64.5381 65.3235 66.2808 59.8558 66.7164 58.3257C67.1521 56.7956 65.8451 52.7938 64.7321 52.2716C63.6191 51.7495 61.3963 51.2402 58.6869 51.6296Z" fill="#FFC100" stroke="#263238" stroke-linecap="round" stroke-linejoin="round"/>
<path d="M61.056 68.8802C61.056 68.8802 62.5093 67.8701 63.67 67.7738" stroke="#263238" stroke-linecap="round" stroke-linejoin="round"/>
<path d="M49.8846 65.8842C49.8846 65.8842 53.8501 67.6433 62.9926 66.34" stroke="#263238" stroke-linecap="round" stroke-linejoin="round"/>
<path d="M50.562 66.768C50.562 66.768 56.8489 68.2981 62.6047 66.9306" stroke="#263238" stroke-linecap="round" stroke-linejoin="round"/>
<path d="M58.83 59.2459C61.2093 59.2092 63.5497 58.8321 65.6956 58.1395L65.5525 58.6595" stroke="#263238" stroke-linecap="round" stroke-linejoin="round"/>
<path d="M62.2421 76.276C62.2421 76.276 67.54 79.7321 68.847 80.1024" stroke="#263238" stroke-linecap="round" stroke-linejoin="round"/>
<path d="M58.83 74.0034C58.83 74.0034 59.307 71.8634 62.487 69.8304" stroke="#263238" stroke-linecap="round" stroke-linejoin="round"/>
<path d="M62.2422 76.276C62.2422 76.276 59.9939 77.774 59.6982 79.1308L55.3002 76.0406C55.0154 75.9048 54.7054 75.7948 54.378 75.7132C54.184 75.7132 53.3604 76.9501 52.8771 77.4402C52.3937 77.9302 51.8626 77.4723 51.9231 76.6591C51.9835 75.8459 53.4463 74.3564 53.688 73.6395C53.9296 72.9226 54.7501 72.4026 55.4751 72.5332C56.2002 72.6637 62.2422 76.276 62.2422 76.276Z" fill="#263238" stroke="#263238" stroke-linecap="round" stroke-linejoin="round"/>
<path d="M50.756 63.6072C52.063 63.5751 55.0586 63.053 56.3655 61.6812C57.6725 60.3095 57.6725 56.9946 56.7535 55.2355C56.073 53.9366 54.9727 53.5235 54.4448 53.4016C54.0728 53.6156 53.6975 53.8424 53.3191 54.0971C50.6097 55.9203 50.4571 58.4263 49.8847 60.7696C49.6914 61.7162 49.6 62.671 49.6112 63.6265L50.756 63.6072Z" fill="white" stroke="#263238" stroke-linecap="round" stroke-linejoin="round"/>
<path d="M58.6869 51.6296C57.5269 51.9518 56.4335 52.3733 55.4338 52.8837C56.1525 53.1787 56.7546 53.5861 57.1891 54.0714C58.0096 55.0472 58.6392 57.8784 58.6392 57.8784C58.6392 57.8784 58.9763 57.8784 61.2977 57.6516C62.8206 57.4872 64.313 57.2138 65.7497 56.8363C65.6511 56.0894 64.589 52.6055 64.1025 52.1283C64.0501 52.0773 63.9916 52.0294 63.9276 51.9849C62.2841 51.4873 60.4448 51.3626 58.6869 51.6296Z" fill="white" stroke="#263238" stroke-linecap="round" stroke-linejoin="round"/>
<path d="M57.5198 53.9558C57.5198 53.9558 59.6186 56.2884 61.4058 56.0744C63.193 55.8604 63.1898 54.3795 63.1898 54.3795" stroke="#263238" stroke-linecap="round" stroke-linejoin="round"/>
<path d="M57.8156 49.22C57.8156 49.22 57.6725 51.758 57.8156 52.6033C57.9587 53.4486 59.7999 55.2719 61.2977 55.1435C62.7955 55.0151 62.751 52.3765 62.751 52.3765C62.751 52.3765 60.1879 49.8385 59.4597 49.3805C58.7315 48.9225 58.0573 48.929 57.8156 49.22Z" fill="white" stroke="#263238" stroke-linecap="round" stroke-linejoin="round"/>
<path d="M57.7202 48.792C57.7202 48.792 56.7662 48.2698 56.2701 48.7257C55.774 49.1815 56.6072 50.32 57.3322 50.4826C58.0573 50.6452 58.2862 50.5489 58.2862 50.5489C58.6233 51.1967 59.0614 51.8187 59.5932 52.4043C60.2705 53.0463 62.398 54.2597 63.848 53.9023C65.2981 53.5449 65.9786 51.3343 66.2203 50.4205C66.3379 50.045 66.4186 49.6647 66.462 49.2821C65.2562 49.0846 64.0254 48.9643 62.7859 48.9225C60.7666 48.8562 57.7202 48.792 57.7202 48.792Z" fill="white" stroke="#263238" stroke-linecap="round" stroke-linejoin="round"/>
<path d="M58.7855 49.0509C58.7855 49.0509 59.0749 50.061 58.6392 50.1209C58.2036 50.1809 57.7202 48.7877 57.7202 48.7877L58.7855 49.0509Z" fill="#263238" stroke="#263238" stroke-linecap="round" stroke-linejoin="round"/>
<path d="M64.6367 50.0268C64.6367 50.0268 64.8784 51.5248 64.4904 51.6553C64.1024 51.7859 63.4283 51.5248 63.4283 51.5248" stroke="#263238" stroke-linecap="round" stroke-linejoin="round"/>
<path d="M57.0556 48.364C57.0556 48.364 59.4915 50.0396 61.7175 50.183C63.9435 50.3264 69.3495 49.3634 69.6675 48.9718C69.9855 48.5801 66.8595 47.615 66.8595 47.615C66.8595 47.615 66.4875 45.047 66.0105 44.405C65.5335 43.763 62.6747 43.1938 60.2865 43.6924C57.8983 44.191 56.3115 44.726 56.3655 45.6184C56.4196 46.5108 57.0556 48.364 57.0556 48.364Z" fill="#263238" stroke="#263238" stroke-linecap="round" stroke-linejoin="round"/>
<path d="M58.7219 48.4967C60.9479 48.6187 64.8815 48.6572 66.8563 47.6214" stroke="white" stroke-linecap="round" stroke-linejoin="round"/>
<path d="M50.8037 58.3664C50.8037 58.3664 51.6273 61.1334 52.2061 62.6314C52.7849 64.1294 52.8834 64.7136 53.3668 64.8441C53.8502 64.9747 69.4735 63.314 69.4735 63.314V62.1756L57.6725 61.3945C57.6725 61.3945 56.5913 56.1857 56.0825 55.5351C55.9373 55.3382 55.709 55.1745 55.4262 55.0645C55.1433 54.9544 54.8186 54.903 54.4925 54.9167" fill="white"/>
<path d="M50.8037 58.3664C50.8037 58.3664 51.6273 61.1334 52.2061 62.6314C52.7849 64.1294 52.8834 64.7136 53.3668 64.8441C53.8502 64.9747 69.4735 63.314 69.4735 63.314V62.1756L57.6725 61.3945C57.6725 61.3945 56.5913 56.1857 56.0825 55.5351C55.9373 55.3382 55.709 55.1745 55.4262 55.0645C55.1433 54.9544 54.8186 54.903 54.4925 54.9167" stroke="#263238" stroke-linecap="round" stroke-linejoin="round"/>
<path d="M57.2973 59.2138C56.2312 59.1912 55.1698 59.3184 54.181 59.5874C53.1921 59.8564 52.2975 60.2612 51.5542 60.776C51.7704 61.4373 52.0026 62.1178 52.1902 62.6421C52.7721 64.1401 52.8675 64.7243 53.3509 64.8548C53.8343 64.9854 69.4576 63.3247 69.4576 63.3247V62.1863L57.6566 61.4052C57.6566 61.4052 57.5262 60.3908 57.2973 59.2138Z" fill="white" stroke="#263238" stroke-linecap="round" stroke-linejoin="round"/>
<path d="M57.6725 61.3945C57.6725 61.3945 55.3988 61.2639 54.2381 61.9787" stroke="#263238" stroke-linecap="round" stroke-linejoin="round"/>
<path d="M76.549 61.4009C76.549 61.4009 78.228 60.7225 79.5732 60.5256L76.8002 61.8824L77.22 62.2505L80.4986 61.2896C80.4986 61.2896 79.1948 62.1948 78.4824 62.3917C78.0578 62.5104 77.6493 62.6536 77.2613 62.8197L75.9893 61.5464L76.549 61.4009Z" fill="white" stroke="#263238" stroke-linecap="round" stroke-linejoin="round"/>
<path d="M75.6617 63.13C75.6617 63.13 75.5663 63.4874 74.7427 63.9432C73.9191 64.399 72.9047 64.3327 73.6806 64.4953C74.4565 64.658 75.4201 64.4311 76.3868 63.3247C77.3535 62.2184 75.6617 63.13 75.6617 63.13Z" fill="white" stroke="#263238" stroke-linecap="round" stroke-linejoin="round"/>
<path d="M68.2619 61.816L68.4559 63.7699L71.2129 63.3419C71.6204 63.4694 72.0468 63.5677 72.4849 63.635C73.4291 63.6651 74.3746 63.5995 75.2897 63.4403C75.5528 63.3713 75.829 63.3274 76.1101 63.3098C76.1101 63.3098 75.7731 63.7378 76.1578 63.7378C76.5426 63.7378 77.3694 63.5751 77.6111 63.3461C77.8528 63.1172 77.8051 62.6314 77.8051 62.6314C77.8051 62.6314 77.9005 62.1413 77.6111 61.8824C77.3217 61.6234 76.3391 61.0264 75.8685 61.0692C75.3978 61.112 71.1303 61.7839 70.7805 61.8503C70.4307 61.9166 68.2619 61.816 68.2619 61.816Z" fill="#263238" stroke="#263238" stroke-linecap="round" stroke-linejoin="round"/>
<path d="M52.5463 66.4063C52.5463 66.4063 50.1263 68.5463 49.7416 70.7356C49.3568 72.9248 50.4666 75.6576 50.8514 76.2033C51.2362 76.749 51.1439 77.2433 52.1584 77.3417C53.1728 77.4402 58.2004 77.4723 58.4452 76.8859C58.6901 76.2996 58.8809 68.587 58.6869 67.4464C58.4929 66.3058 56.1238 65.7558 55.1094 65.7558C54.1654 65.7537 53.2532 65.9852 52.5463 66.4063Z" fill="#FFC100" stroke="#263238" stroke-linecap="round" stroke-linejoin="round"/>
<path d="M50.6097 76.4301C53.3278 76.6438 56.081 76.5227 58.7346 76.0727C58.7346 76.0727 58.5247 84.5086 58.671 84.7033C58.8173 84.8981 61.2341 86.9503 62.1054 87.4704C62.9767 87.9904 63.1198 88.1552 62.5887 88.5404C62.0577 88.9256 61.2341 89.3857 58.671 88.6709C56.1079 87.9561 55.3352 86.6208 54.6069 85.9702C53.8787 85.3197 54.0282 85.1549 54.0282 84.179C54.0282 83.2032 50.6097 76.4301 50.6097 76.4301Z" fill="#263238" stroke="#263238" stroke-linecap="round" stroke-linejoin="round"/>
<path d="M52.947 76.4643C52.2746 75.6636 51.7918 74.7972 51.516 73.8963" stroke="#263238" stroke-linecap="round" stroke-linejoin="round"/>
<path d="M55.65 76.4644C55.65 76.4644 56.763 75.2874 56.445 74.4314" stroke="#263238" stroke-linecap="round" stroke-linejoin="round"/>
<path d="M36.252 76.9715L36.5891 81.1873C36.6043 81.3848 36.7047 81.575 36.8781 81.7347C37.0515 81.8943 37.2904 82.0165 37.5654 82.0861C39.6865 82.641 42.0396 82.641 44.1607 82.0861C44.434 82.0173 44.6717 81.8965 44.845 81.7385C45.0183 81.5804 45.1197 81.392 45.1369 81.1959L45.5313 76.9737L36.252 76.9715Z" fill="white" stroke="#263238" stroke-linecap="round" stroke-linejoin="round"/>
<path d="M35.7941 75.5292V77.0272C35.7941 77.2925 38.0614 77.5087 40.8566 77.5087C43.6518 77.5087 45.9192 77.2947 45.9192 77.0272V75.5292H35.7941Z" fill="white" stroke="#263238" stroke-linecap="round" stroke-linejoin="round"/>
<path d="M40.8566 76.0107C43.6526 76.0107 45.9192 75.7951 45.9192 75.5292C45.9192 75.2632 43.6526 75.0477 40.8566 75.0477C38.0607 75.0477 35.7941 75.2632 35.7941 75.5292C35.7941 75.7951 38.0607 76.0107 40.8566 76.0107Z" fill="white" stroke="#263238" stroke-linecap="round" stroke-linejoin="round"/>
<path d="M36.3506 75.756C37.1901 75.9122 38.8946 76.0192 40.8566 76.0192C42.8187 76.0192 44.5232 75.9122 45.3627 75.756C44.5232 75.6019 42.8187 75.4949 40.8566 75.4949C38.8946 75.4949 37.206 75.5934 36.3506 75.756Z" fill="#263238" stroke="#263238" stroke-linecap="round" stroke-linejoin="round"/>
<path d="M39.8835 72.4711C39.8835 72.4711 39.4924 74.3971 39.7531 75.6597H42.542C43.0717 74.7051 43.5062 73.7278 43.8426 72.7343L41.7661 73.0831L39.8835 72.4711Z" fill="white" stroke="#263238" stroke-linecap="round" stroke-linejoin="round"/>
<path d="M41.9983 72.24H41.9347C41.8517 72.2326 41.7718 72.2143 41.6994 72.1861C41.627 72.1579 41.5636 72.1203 41.5127 72.0756C41.4619 72.0309 41.4247 71.9798 41.4033 71.9254C41.3818 71.871 41.3765 71.8143 41.3877 71.7585L42.1 68.236C42.1111 68.1798 42.1385 68.1256 42.1807 68.0766C42.2229 68.0275 42.279 67.9845 42.3459 67.95C42.4128 67.9155 42.4891 67.8903 42.5705 67.8756C42.6519 67.861 42.7368 67.8573 42.8203 67.8647C42.9038 67.8722 42.9844 67.8906 43.0573 67.919C43.1302 67.9474 43.1941 67.9852 43.2453 68.0302C43.2966 68.0752 43.3341 68.1266 43.3559 68.1814C43.3776 68.2361 43.3831 68.2933 43.372 68.3495L42.6629 71.874C42.6401 71.9799 42.5592 72.0762 42.4362 72.1439C42.3132 72.2116 42.157 72.2459 41.9983 72.24Z" fill="#263238" stroke="#263238" stroke-linecap="round" stroke-linejoin="round"/>
<path d="M41.5594 74.243H41.5276C41.4448 74.2351 41.3699 74.2054 41.3193 74.1606C41.2687 74.1157 41.2465 74.0592 41.2573 74.0034L41.7057 71.7842C41.7171 71.7274 41.7615 71.676 41.8292 71.6413C41.8969 71.6066 41.9823 71.5914 42.0667 71.5991C42.151 71.6067 42.2273 71.6366 42.2789 71.6822C42.3305 71.7277 42.3531 71.7852 42.3417 71.842L41.8933 74.0611C41.8816 74.1141 41.8407 74.1621 41.7789 74.1958C41.7171 74.2294 41.6388 74.2463 41.5594 74.243Z" fill="white" stroke="#263238" stroke-linecap="round" stroke-linejoin="round"/>
<path d="M96.5002 77.239L96.8405 81.4548C96.8549 81.6524 96.955 81.8429 97.1285 82.0026C97.302 82.1624 97.5413 82.2844 97.8168 82.3536C99.9379 82.9085 102.291 82.9085 104.412 82.3536C104.685 82.2847 104.922 82.1638 105.095 82.0058C105.268 81.8477 105.369 81.6593 105.385 81.4634L105.783 77.2412L96.5002 77.239Z" fill="white" stroke="#263238" stroke-linecap="round" stroke-linejoin="round"/>
<path d="M96.036 75.7967V77.2947C96.036 77.56 98.3034 77.7762 101.099 77.7762C103.894 77.7762 106.161 77.5622 106.161 77.2947V75.7967H96.036Z" fill="white" stroke="#263238" stroke-linecap="round" stroke-linejoin="round"/>
<path d="M101.108 76.2782C103.904 76.2782 106.171 76.0626 106.171 75.7967C106.171 75.5307 103.904 75.3152 101.108 75.3152C98.3121 75.3152 96.0455 75.5307 96.0455 75.7967C96.0455 76.0626 98.3121 76.2782 101.108 76.2782Z" fill="white" stroke="#263238" stroke-linecap="round" stroke-linejoin="round"/>
<path d="M96.6021 76.0149C97.4416 76.1712 99.1461 76.2782 101.108 76.2782C103.07 76.2782 104.775 76.1712 105.614 76.0149C104.775 75.8609 103.07 75.7539 101.108 75.7539C99.1461 75.7539 97.4416 75.8609 96.6021 76.0149Z" fill="#263238" stroke="#263238" stroke-linecap="round" stroke-linejoin="round"/>
<path d="M101.356 76.0363C101.356 76.0363 101.118 68.4393 100.641 67.5298C100.164 66.6203 97.3017 65.5503 97.3017 66.1388C97.3266 66.5179 97.5522 66.8784 97.9377 67.1553C97.9377 67.1553 93.3267 66.7273 94.2012 67.4763C95.0757 68.2253 97.0632 67.9043 97.0632 67.9043C97.0632 67.9043 92.5317 68.8138 94.8372 69.0278C96.1014 69.1521 97.3758 69.2236 98.6532 69.2418C98.6532 69.2418 97.2222 70.0978 98.4147 70.0978C99.0651 70.1093 99.7128 70.0366 100.323 69.8838L100.879 76.0363H101.356Z" fill="#FFC100"/>
<path d="M101.576 76.0363L100.641 67.5298C100.641 67.5298 103.821 65.2293 104.059 65.8178C104.298 66.4063 102.787 67.0483 103.423 67.0483C104.059 67.0483 107.637 65.7108 108.114 66.6738C108.591 67.6368 103.105 67.9043 103.98 68.2253C104.854 68.5463 107.16 68.4928 105.411 68.8673C103.662 69.2418 100.959 69.5628 101.833 69.8303C102.708 70.0978 102.31 70.2583 101.992 70.5258L101.833 76.0363H101.576Z" fill="#FFC100"/>
<path d="M100.084 76.0898C100.084 76.0898 99.1301 74.9663 99.1301 74.4313C99.1301 73.8963 99.3686 73.1473 98.8916 72.3983C98.4146 71.6493 97.0631 72.4518 96.7451 72.6123C96.4271 72.7728 95.4731 71.5423 94.7576 71.8098C94.0421 72.0773 95.3141 72.5588 95.0756 72.7728C94.8371 72.9868 91.1801 72.2913 91.1801 73.0403C91.1801 73.7893 94.7576 73.1473 95.0756 73.4148C95.3936 73.6823 92.9291 74.0568 94.2011 74.3243C95.4731 74.5918 96.2681 73.7358 96.3476 74.0568C96.4271 74.3778 94.4396 74.7523 95.9501 75.0198C97.4606 75.2873 98.0171 74.9663 98.4941 75.1268C98.9711 75.2873 99.6866 76.0898 99.6866 76.0898H100.084Z" fill="#FFC100"/>
<path d="M102.151 76.0898C102.151 76.0898 103.105 74.9663 103.105 74.4313C103.105 73.8963 102.867 73.1473 103.344 72.3983C103.821 71.6493 105.172 72.4518 105.49 72.6123C105.808 72.7728 106.762 71.5423 107.478 71.8098C108.193 72.0773 106.921 72.5588 107.16 72.7728C107.398 72.9868 111.055 72.2913 111.055 73.0403C111.055 73.7893 107.478 73.1473 107.16 73.4148C106.842 73.6823 109.306 74.0568 108.034 74.3243C106.762 74.5918 105.967 73.7358 105.888 74.0568C105.808 74.3778 107.796 74.7523 106.285 75.0198C104.775 75.2873 104.218 74.9663 103.741 75.1268C103.264 75.2873 102.549 76.0898 102.549 76.0898H102.151Z" fill="#FFC100"/>
<path d="M100.879 76.0363C100.879 76.0363 100.402 71.2213 100.243 71.0073C100.084 70.7933 99.0506 71.0608 97.7786 71.4353C96.5066 71.8098 96.9836 71.6493 96.2681 71.4888C95.5526 71.3283 94.5986 71.5423 93.3266 71.7028C92.0546 71.8633 92.3726 70.7933 93.7241 70.4723C94.5163 70.2809 95.3475 70.1727 96.1886 70.1513C96.1886 70.1513 94.5986 69.6698 96.0296 69.5093C97.4606 69.3488 99.1301 70.0978 99.9251 70.4188C100.143 70.4937 100.334 70.5994 100.485 70.7287C100.636 70.858 100.743 71.0078 100.8 71.1678L101.356 76.0363H100.879Z" fill="#FFC100"/>
<path d="M101.576 76.0363C101.576 76.0363 102.053 71.2213 102.212 71.0073C102.371 70.7933 103.404 71.0608 104.676 71.4353C105.948 71.8098 105.471 71.6493 106.187 71.4888C106.902 71.3283 107.856 71.5423 109.128 71.7028C110.4 71.8633 110.082 70.7933 108.731 70.4723C107.938 70.2809 107.107 70.1727 106.266 70.1513C106.266 70.1513 107.856 69.6698 106.425 69.5093C104.994 69.3488 103.325 70.0978 102.53 70.4188C102.312 70.4937 102.121 70.5994 101.97 70.7287C101.819 70.858 101.712 71.0078 101.655 71.1678L101.099 76.0363H101.576Z" fill="#FFC100"/>
<path d="M109.58 77.239L109.92 81.4548C109.935 81.6523 110.035 81.8425 110.209 82.0022C110.382 82.1618 110.621 82.2839 110.896 82.3536C113.017 82.9085 115.37 82.9085 117.491 82.3536C117.765 82.2848 118.003 82.164 118.176 82.006C118.349 81.8479 118.451 81.6594 118.468 81.4634L118.862 77.2412L109.58 77.239Z" fill="white" stroke="#263238" stroke-linecap="round" stroke-linejoin="round"/>
<path d="M109.125 75.7967V77.2947C109.125 77.56 111.392 77.7762 114.187 77.7762C116.983 77.7762 119.25 77.5622 119.25 77.2947V75.7967H109.125Z" fill="white" stroke="#263238" stroke-linecap="round" stroke-linejoin="round"/>
<path d="M114.187 76.2782C116.983 76.2782 119.25 76.0626 119.25 75.7967C119.25 75.5307 116.983 75.3152 114.187 75.3152C111.391 75.3152 109.125 75.5307 109.125 75.7967C109.125 76.0626 111.391 76.2782 114.187 76.2782Z" fill="white" stroke="#263238" stroke-linecap="round" stroke-linejoin="round"/>
<path d="M109.685 76.0149C110.521 76.1712 112.229 76.2782 114.187 76.2782C116.146 76.2782 117.857 76.1712 118.694 76.0149C117.857 75.8609 116.15 75.7539 114.187 75.7539C112.225 75.7539 110.521 75.8609 109.685 76.0149Z" fill="#263238" stroke="#263238" stroke-linecap="round" stroke-linejoin="round"/>
<path d="M111.653 72.4497C112.471 73.612 113.137 74.82 113.644 76.0599C113.644 76.0599 113.453 71.7521 112.992 70.1535" stroke="#263238" stroke-width="0.5" stroke-linecap="round" stroke-linejoin="round"/>
<path d="M116.095 71.262C116.095 71.262 114.41 73.7123 114.105 76.0342" stroke="#263238" stroke-width="0.5" stroke-linecap="round" stroke-linejoin="round"/>
<path d="M116.518 73.2993C116.518 73.2993 114.833 75.0798 114.639 76.0599" stroke="#263238" stroke-width="0.5" stroke-linecap="round" stroke-linejoin="round"/>
<path d="M113.338 74.228C113.606 74.7882 113.773 75.3681 113.834 75.955" stroke="#263238" stroke-width="0.5" stroke-linecap="round" stroke-linejoin="round"/>
<path d="M113.106 69.7426C113.106 69.7426 112.407 69.2097 111.888 69.3831C111.37 69.5564 111.284 69.8475 112.06 69.963C112.836 70.0786 111.077 70.0122 111.424 70.5922C111.771 71.1721 112.613 70.1642 112.957 70.5151C113.3 70.8661 113.275 71.1764 113.761 71.0309C114.642 70.7719 113.618 70.3611 113.876 70.1278C114.133 69.8945 114.652 70.0807 114.652 69.7319C114.652 69.3831 113.971 69.1027 113.106 69.7426Z" fill="#FFC100"/>
<path d="M116.366 70.9282C116.366 70.9282 115.663 70.3953 115.145 70.5686C114.626 70.742 114.54 71.033 115.316 71.1507C116.092 71.2684 114.334 71.1978 114.68 71.7777C115.027 72.3577 115.87 71.3497 116.213 71.7007C116.557 72.0517 116.531 72.3641 117.018 72.2164C117.902 71.9596 116.875 71.5466 117.135 71.3155C117.396 71.0844 117.908 71.2663 117.908 70.9175C117.908 70.5686 117.228 70.2883 116.366 70.9282Z" fill="#FFC100"/>
<path d="M113.453 73.9456C113.453 73.9456 112.75 73.4127 112.232 73.586C111.713 73.7594 111.631 74.0504 112.407 74.166C113.183 74.2815 111.421 74.2152 111.771 74.7951C112.12 75.3751 112.957 74.3671 113.303 74.7181C113.65 75.0691 113.605 75.3794 114.108 75.2338C114.989 74.9749 113.962 74.564 114.222 74.3308C114.483 74.0975 114.995 74.2837 114.995 73.9349C114.995 73.586 114.315 73.3057 113.453 73.9456Z" fill="#FFC100"/>
<path d="M111.767 72.088C111.767 72.088 111.065 71.5552 110.546 71.7307C110.028 71.9061 109.942 72.195 110.718 72.3106C111.494 72.4262 109.735 72.3577 110.082 72.9398C110.429 73.5218 111.268 72.5118 111.615 72.8606C111.961 73.2094 111.917 73.524 112.419 73.3763C113.3 73.1195 112.273 72.7065 112.534 72.4754C112.795 72.2443 113.307 72.4262 113.307 72.0773C113.307 71.7285 112.629 71.4503 111.767 72.088Z" fill="#FFC100"/>
<path d="M116.747 73.0425C116.747 73.0425 116.045 72.5096 115.529 72.683C115.014 72.8563 114.925 73.1473 115.701 73.265C116.477 73.3827 114.715 73.3121 115.065 73.8921C115.415 74.472 116.251 73.4641 116.598 73.815C116.944 74.166 116.916 74.4784 117.402 74.3308C118.283 74.074 117.259 73.6609 117.517 73.4298C117.774 73.1987 118.29 73.3806 118.29 73.0318C118.29 72.683 117.609 72.4026 116.747 73.0425Z" fill="#FFC100"/>
<path d="M81.3094 83.6312C81.3094 83.6312 79.5572 79.9718 84.9346 72.9141C90.312 65.8564 85.2049 54.4587 85.2049 54.4587" stroke="#FFC100" stroke-width="3" stroke-linecap="round" stroke-linejoin="round"/>
<path d="M77.945 83.4108C77.945 83.4108 76.0624 80.6973 78.2121 76.7147C80.3618 72.7322 79.8021 70.4745 79.8021 70.4745" stroke="#FFC100" stroke-width="3" stroke-linecap="round" stroke-linejoin="round"/>
<path d="M86.1271 71.1101C86.1271 71.1101 90.312 67.6668 91.9275 63.5045C92.2995 62.5436 92.5857 61.6983 92.8083 60.9643" stroke="#FFC100" stroke-width="3" stroke-linecap="round" stroke-linejoin="round"/>
<path d="M82.9725 83.6975C82.9725 83.6975 85.472 80.3335 86.0126 75.4478C86.3242 72.4624 85.8692 69.4632 84.6675 66.5818" stroke="#FFC100" stroke-width="3" stroke-linecap="round" stroke-linejoin="round"/>
<path d="M83.281 72.9012C83.2587 73.0082 83.0393 73.0874 82.998 73.1901C82.9566 73.2929 83.087 73.4384 83.0266 73.5368C82.9662 73.6353 82.7245 73.6759 82.645 73.7679C82.5655 73.86 82.645 74.0226 82.5369 74.1082C82.4287 74.1938 82.1902 74.1895 82.0758 74.2644C81.9613 74.3393 81.9708 74.5084 81.8436 74.5747C81.7164 74.6411 81.4779 74.5918 81.3412 74.6453C81.2044 74.6988 81.144 74.8593 80.9946 74.9043C80.8451 74.9492 80.6352 74.8572 80.4826 74.885C80.3299 74.9128 80.2091 75.0605 80.0501 75.0755C79.8911 75.0905 79.7321 74.9663 79.5604 74.9663C79.3887 74.9663 79.2265 75.0883 79.0675 75.0755C78.9085 75.0626 78.7908 74.9128 78.6382 74.885C78.4855 74.8572 78.2693 74.9449 78.123 74.9043C77.9767 74.8636 77.9163 74.701 77.7796 74.6475C77.6428 74.594 77.4012 74.6475 77.274 74.5747C77.1468 74.502 77.1531 74.3415 77.0418 74.2644C76.9305 74.1874 76.6793 74.1938 76.5807 74.1082C76.4821 74.0226 76.5553 73.8621 76.4758 73.7701C76.3963 73.6781 76.1578 73.6374 76.091 73.5368C76.0242 73.4362 76.161 73.295 76.1196 73.1923C76.0783 73.0896 75.8589 73.0082 75.8366 72.9012C75.8143 72.7942 75.9988 72.6872 75.9988 72.5717C75.9988 72.4561 75.8175 72.347 75.8366 72.2421C75.8557 72.1373 76.0783 72.0538 76.1196 71.9511C76.161 71.8484 76.0306 71.7028 76.091 71.6044C76.1514 71.506 76.409 71.4653 76.4758 71.3733C76.5426 71.2813 76.4758 71.1186 76.5807 71.033C76.6857 70.9474 76.9273 70.9517 77.0418 70.8768C77.1563 70.8019 77.1468 70.6328 77.274 70.5665C77.4012 70.5002 77.6397 70.5494 77.7796 70.4959C77.9195 70.4424 77.9736 70.2819 78.123 70.2369C78.2725 70.192 78.4824 70.284 78.6382 70.2562C78.794 70.2284 78.9085 70.0807 79.0675 70.0657C79.2265 70.0508 79.3855 70.1749 79.5604 70.1749C79.7353 70.1749 79.8784 70.0529 80.0501 70.0657C80.2218 70.0786 80.3268 70.2284 80.4794 70.2562C80.632 70.284 80.8483 70.1963 80.9946 70.2369C81.1408 70.2776 81.2013 70.451 81.338 70.4959C81.4747 70.5408 81.7164 70.4959 81.8436 70.5665C81.9708 70.6371 81.9645 70.7998 82.0758 70.8768C82.1871 70.9538 82.4383 70.9474 82.5369 71.033C82.6354 71.1186 82.5623 71.2791 82.6418 71.3733C82.7213 71.4674 82.9598 71.5038 83.0266 71.6044C83.0934 71.705 82.9566 71.8462 82.998 71.9511C83.0393 72.0559 83.2587 72.133 83.281 72.24C83.3032 72.347 83.1188 72.454 83.1188 72.5717C83.1188 72.6894 83.316 72.7942 83.281 72.9012ZM88.369 65.7643C88.369 65.6274 88.5948 65.4819 88.5693 65.3492C88.5439 65.2165 88.2513 65.1116 88.2163 64.9832C88.1814 64.8548 88.3276 64.6708 88.2513 64.5552C88.175 64.4397 87.8665 64.3798 87.768 64.2621C87.6694 64.1444 87.768 63.9432 87.6312 63.8341C87.4945 63.7249 87.1956 63.7313 87.0525 63.635C86.9094 63.5387 86.9189 63.329 86.7599 63.2456C86.6009 63.1621 86.2988 63.2242 86.1239 63.1557C85.949 63.0872 85.8759 62.8818 85.6914 62.8304C85.507 62.779 85.2367 62.8882 85.0554 62.8539C84.8742 62.8197 84.712 62.6399 84.5085 62.6143C84.3049 62.5886 84.0951 62.7512 83.8915 62.7512C83.688 62.7512 83.4718 62.5971 83.2746 62.6143C83.0775 62.6314 82.9216 62.8283 82.7308 62.8539C82.54 62.8796 82.2666 62.779 82.0948 62.8304C81.9231 62.8818 81.8341 63.0872 81.6592 63.1557C81.4843 63.2242 81.1854 63.1557 81.0232 63.2456C80.861 63.3354 80.8737 63.5409 80.7306 63.635C80.5875 63.7292 80.2759 63.7271 80.1519 63.8341C80.0278 63.9411 80.1169 64.1444 80.0183 64.2621C79.9197 64.3798 79.6113 64.4268 79.5349 64.5531C79.4586 64.6794 79.6208 64.857 79.5667 64.9811C79.5127 65.1052 79.2487 65.2122 79.2138 65.347C79.1788 65.4819 79.4173 65.6252 79.4173 65.7622C79.4173 65.8992 79.1883 66.0468 79.2138 66.1795C79.2392 66.3122 79.5318 66.4149 79.5699 66.5454C79.6081 66.676 79.4554 66.8579 79.5349 66.9734C79.6144 67.089 79.9165 67.1489 80.0183 67.2645C80.1201 67.38 80.0183 67.5855 80.1519 67.6925C80.2854 67.7995 80.5907 67.7952 80.7306 67.8894C80.8705 67.9835 80.8642 68.1975 81.0264 68.281C81.1885 68.3644 81.4875 68.3024 81.6624 68.3709C81.8373 68.4393 81.9104 68.6448 82.098 68.6961C82.2856 68.7475 82.5496 68.6384 82.734 68.6726C82.9185 68.7068 83.0775 68.8866 83.2778 68.9102C83.4781 68.9337 83.6912 68.7753 83.8947 68.7753C84.0982 68.7753 84.3145 68.9273 84.5116 68.9102C84.7088 68.893 84.8646 68.7068 85.0586 68.6726C85.2526 68.6384 85.5229 68.7475 85.6946 68.6961C85.8663 68.6448 85.9554 68.4372 86.1271 68.3709C86.2988 68.3045 86.6041 68.3709 86.7631 68.2788C86.9221 68.1868 86.9157 67.9857 87.0556 67.8894C87.1956 67.7931 87.5136 67.7995 87.6344 67.6925C87.7552 67.5855 87.6694 67.3822 87.7711 67.2645C87.8729 67.1468 88.1782 67.0976 88.2545 66.9734C88.3308 66.8493 88.1655 66.6674 88.2195 66.5454C88.2736 66.4235 88.5375 66.3143 88.5725 66.1795C88.6075 66.0447 88.3563 65.912 88.3563 65.7643H88.369ZM88.9 77.896C88.9 77.759 89.1258 77.6135 89.1004 77.4808C89.0749 77.3482 88.7983 77.2433 88.7474 77.1128C88.6965 76.9822 88.8587 76.8025 88.7824 76.6848C88.7061 76.5671 88.3976 76.5114 88.299 76.3937C88.2004 76.276 88.299 76.0727 88.1623 75.9657C88.0255 75.8587 87.7266 75.8651 87.5835 75.7688C87.4404 75.6725 87.45 75.4607 87.291 75.3794C87.132 75.298 86.8299 75.3558 86.655 75.2873C86.4801 75.2189 86.4069 75.0156 86.2225 74.9621C86.038 74.9086 85.7677 75.022 85.5865 74.9856C85.4052 74.9492 85.243 74.7716 85.0395 74.7481C84.836 74.7245 84.6261 74.885 84.4226 74.885C84.2191 74.885 84.0028 74.7309 83.8057 74.7481C83.6085 74.7652 83.4527 74.9514 83.2619 74.9856C83.0711 75.0198 82.7976 74.9107 82.6259 74.9621C82.4542 75.0134 82.3651 75.221 82.1902 75.2873C82.0153 75.3537 81.7164 75.2873 81.5542 75.3794C81.3921 75.4714 81.4016 75.6725 81.2585 75.7688C81.1154 75.8651 80.8038 75.8587 80.6797 75.9657C80.5557 76.0727 80.6448 76.276 80.5462 76.3937C80.4476 76.5114 80.1391 76.5606 80.0628 76.6869C79.9865 76.8132 80.1487 76.9908 80.0978 77.1149C80.0469 77.239 79.7798 77.3439 79.7416 77.4808C79.7035 77.6178 79.9452 77.759 79.9452 77.896C79.9452 78.033 79.7162 78.1785 79.7416 78.3112C79.7671 78.4438 80.0437 78.5487 80.0978 78.6792C80.1519 78.8098 79.9865 78.9895 80.0628 79.1072C80.1391 79.2249 80.4444 79.2806 80.5462 79.3983C80.6479 79.516 80.5462 79.7193 80.6797 79.8263C80.8133 79.9333 81.1186 79.9269 81.2585 80.0232C81.3984 80.1195 81.3952 80.3313 81.5542 80.4126C81.7132 80.494 82.0153 80.4362 82.1902 80.5047C82.3651 80.5731 82.4351 80.7764 82.6227 80.8299C82.8103 80.8834 83.0743 80.77 83.2587 80.8064C83.4432 80.8428 83.6022 81.0204 83.8025 81.0439C84.0028 81.0675 84.2159 80.907 84.4194 80.907C84.6229 80.907 84.8424 81.0611 85.0395 81.0439C85.2367 81.0268 85.3893 80.8299 85.5833 80.8064C85.7773 80.7829 86.0476 80.8813 86.2193 80.8299C86.391 80.7786 86.4801 80.571 86.6518 80.5047C86.8235 80.4383 87.1288 80.5047 87.2878 80.4126C87.4468 80.3206 87.4404 80.1195 87.5803 80.0232C87.7203 79.9269 88.0383 79.9333 88.1623 79.8263C88.2863 79.7193 88.1941 79.516 88.2958 79.3983C88.3976 79.2806 88.7029 79.2314 88.7792 79.1051C88.8555 78.9788 88.6933 78.8012 88.7442 78.6771C88.7951 78.553 89.0622 78.4481 89.0972 78.3112C89.1322 78.1742 88.9 78.0415 88.9 77.896ZM79.624 79.6208C79.624 79.5288 79.8561 79.4304 79.837 79.3426C79.818 79.2549 79.5572 79.1971 79.519 79.1115C79.4809 79.0259 79.6717 78.8868 79.6208 78.8034C79.5699 78.7199 79.3028 78.7135 79.2297 78.6364C79.1565 78.5594 79.2869 78.3925 79.2074 78.3219C79.1279 78.2512 78.8576 78.2919 78.7622 78.2277C78.6668 78.1635 78.7272 77.9837 78.6223 77.9302C78.5173 77.8767 78.2725 77.9602 78.158 77.9153C78.0435 77.8703 78.0308 77.6863 77.9068 77.652C77.7828 77.6178 77.5888 77.7419 77.452 77.7184C77.3153 77.6949 77.2422 77.5194 77.1086 77.5044C76.975 77.4894 76.8288 77.6499 76.6952 77.6499C76.5616 77.6499 76.4122 77.4937 76.2818 77.5044C76.1514 77.5151 76.0656 77.6949 75.9384 77.7184C75.8112 77.7419 75.6045 77.6178 75.4836 77.652C75.3628 77.6863 75.3469 77.866 75.2324 77.9153C75.1179 77.9645 74.8731 77.8767 74.7681 77.9302C74.6632 77.9837 74.7204 78.1656 74.6282 78.2298C74.536 78.294 74.2625 78.2534 74.183 78.324C74.1035 78.3946 74.2275 78.5594 74.1607 78.6364C74.094 78.7135 73.8205 78.722 73.7696 78.8055C73.7187 78.889 73.9032 79.0195 73.8714 79.1115C73.8396 79.2035 73.5724 79.2528 73.5534 79.3426C73.5343 79.4325 73.7664 79.5288 73.7664 79.6208C73.7664 79.7129 73.5343 79.8113 73.5534 79.899C73.5724 79.9868 73.8332 80.0446 73.8714 80.1302C73.9095 80.2158 73.7187 80.3442 73.7696 80.4362C73.8205 80.5282 74.0876 80.5282 74.1639 80.6052C74.2402 80.6823 74.1035 80.8471 74.183 80.9177C74.2625 80.9883 74.5328 80.9498 74.6282 81.0118C74.7236 81.0739 74.6632 81.2558 74.7681 81.3114C74.8731 81.3671 75.1179 81.2793 75.2324 81.3243C75.3469 81.3692 75.3596 81.5554 75.4836 81.5896C75.6076 81.6239 75.8016 81.4976 75.9384 81.5212C76.0751 81.5447 76.1482 81.7223 76.2818 81.7352C76.4154 81.748 76.5616 81.5896 76.6952 81.5896C76.8288 81.5896 76.9782 81.7459 77.1086 81.7352C77.239 81.7245 77.3248 81.5468 77.452 81.5212C77.5792 81.4955 77.7859 81.6239 77.9068 81.5896C78.0276 81.5554 78.0435 81.3756 78.158 81.3243C78.2725 81.2729 78.5173 81.3649 78.6223 81.3114C78.7272 81.2579 78.67 81.0739 78.7622 81.0118C78.8544 80.9498 79.1279 80.9883 79.2074 80.9177C79.2869 80.8471 79.1629 80.6823 79.2297 80.6052C79.2964 80.5282 79.5699 80.5196 79.6208 80.4362C79.6717 80.3527 79.4872 80.2222 79.5222 80.1302C79.5572 80.0381 79.818 79.9889 79.8402 79.899C79.8625 79.8092 79.624 79.7193 79.624 79.6294V79.6208ZM89.4311 54.7968C89.4311 54.6599 89.6601 54.5144 89.6346 54.3817C89.6092 54.249 89.3325 54.1441 89.2816 54.0136C89.2308 53.8831 89.3929 53.7033 89.3166 53.5856C89.2403 53.4679 88.9318 53.4101 88.8333 53.2924C88.7347 53.1747 88.8333 52.9714 88.6965 52.8644C88.5598 52.7574 88.2609 52.7638 88.1178 52.6675C87.9747 52.5712 87.9842 52.3594 87.8252 52.2781C87.6662 52.1967 87.3641 52.2545 87.1892 52.186C87.0143 52.1176 86.9412 51.9143 86.7535 51.8608C86.5659 51.8073 86.302 51.9207 86.1175 51.8843C85.9331 51.8479 85.7773 51.6703 85.5738 51.6468C85.3702 51.6232 85.1604 51.7837 84.9568 51.7837C84.7533 51.7837 84.5371 51.6296 84.3399 51.6468C84.1428 51.6639 83.9869 51.8608 83.793 51.8843C83.599 51.9078 83.3319 51.8094 83.157 51.8608C82.9821 51.9121 82.8994 52.1197 82.7245 52.186C82.5496 52.2524 82.2475 52.186 82.0885 52.2781C81.9295 52.3701 81.939 52.5712 81.7959 52.6675C81.6528 52.7638 81.338 52.7574 81.2172 52.8644C81.0963 52.9714 81.1822 53.1747 81.0804 53.2924C80.9787 53.4101 80.6766 53.4593 80.5971 53.5856C80.5176 53.7119 80.6861 53.8895 80.632 54.0136C80.578 54.1377 80.314 54.2426 80.2791 54.3795C80.2441 54.5165 80.4826 54.6577 80.4826 54.7947C80.4826 54.9317 80.2536 55.0772 80.2791 55.2099C80.3045 55.3425 80.5812 55.4474 80.632 55.5779C80.6829 55.7085 80.5207 55.8882 80.5971 56.0059C80.6734 56.1236 80.9818 56.1793 81.0804 56.297C81.179 56.4147 81.0804 56.618 81.2172 56.725C81.3539 56.832 81.6528 56.8256 81.7959 56.9219C81.939 57.0182 81.9295 57.23 82.0885 57.3113C82.2475 57.3927 82.5496 57.3349 82.7245 57.4034C82.8994 57.4718 82.9725 57.6751 83.1601 57.7286C83.3478 57.7821 83.6117 57.6687 83.7961 57.7051C83.9806 57.7415 84.1364 57.9191 84.3399 57.9426C84.5434 57.9662 84.7533 57.8057 84.9568 57.8057C85.1604 57.8057 85.3766 57.9598 85.5738 57.9426C85.7709 57.9255 85.9267 57.7393 86.1207 57.7051C86.3147 57.6709 86.5818 57.78 86.7567 57.7286C86.9316 57.6773 87.0143 57.4697 87.1892 57.4034C87.3641 57.337 87.6662 57.4034 87.8252 57.3113C87.9842 57.2193 87.9747 57.0182 88.1178 56.9219C88.2609 56.8256 88.5757 56.832 88.6965 56.725C88.8174 56.618 88.7315 56.4147 88.8333 56.297C88.935 56.1793 89.2371 56.1301 89.3166 56.0038C89.3961 55.8776 89.2276 55.6999 89.2816 55.5758C89.3357 55.4517 89.5996 55.3468 89.6346 55.2099C89.6696 55.0729 89.4311 54.9359 89.4311 54.799V54.7968ZM97.6482 60.3245C97.6482 60.1875 97.874 60.042 97.8486 59.9093C97.8231 59.7766 97.5465 59.6718 97.4956 59.5434C97.4447 59.415 97.6069 59.2309 97.5306 59.1154C97.4542 58.9998 97.1458 58.9399 97.0472 58.8222C96.9486 58.7045 97.0472 58.5033 96.9105 58.3942C96.7737 58.285 96.4748 58.2915 96.3317 58.1952C96.1886 58.0989 96.1981 57.8891 96.0391 57.8057C95.8801 57.7222 95.578 57.7843 95.4031 57.7158C95.2282 57.6473 95.1551 57.4419 94.9707 57.3905C94.7862 57.3392 94.5159 57.4483 94.3347 57.4141C94.1534 57.3798 93.9912 57.2001 93.7909 57.1744C93.5905 57.1487 93.3743 57.3113 93.1708 57.3113C92.9673 57.3113 92.751 57.1573 92.5539 57.1744C92.3567 57.1915 92.2009 57.3884 92.0101 57.4141C91.8193 57.4397 91.5458 57.3392 91.3741 57.3905C91.2024 57.4419 91.1133 57.6473 90.9384 57.7158C90.7635 57.7843 90.4646 57.7158 90.3024 57.8057C90.1402 57.8956 90.1498 58.101 90.0067 58.1952C89.8636 58.2893 89.5519 58.2872 89.4279 58.3942C89.3039 58.5012 89.3929 58.7045 89.2944 58.8222C89.1958 58.9399 88.8873 58.987 88.811 59.1132C88.7347 59.2395 88.8969 59.4171 88.846 59.5412C88.7951 59.6653 88.528 59.7723 88.4898 59.9072C88.4517 60.042 88.6933 60.1854 88.6933 60.3223C88.6933 60.4593 88.4644 60.6069 88.4898 60.7503C88.5153 60.8937 88.7919 60.9857 88.846 61.1163C88.9 61.2468 88.7347 61.4287 88.811 61.5443C88.8873 61.6598 89.1926 61.7198 89.2944 61.8353C89.3961 61.9509 89.2944 62.1563 89.4279 62.2633C89.5615 62.3703 89.8668 62.366 90.0067 62.4602C90.1466 62.5543 90.1434 62.7684 90.3024 62.8518C90.4614 62.9353 90.7635 62.8732 90.9384 62.9417C91.1133 63.0102 91.1833 63.2156 91.3709 63.267C91.5585 63.3183 91.8225 63.2092 92.0069 63.2434C92.1913 63.2777 92.3503 63.4574 92.5507 63.481C92.751 63.5045 92.9641 63.3461 93.1676 63.3461C93.3711 63.3461 93.5905 63.4981 93.7877 63.481C93.9849 63.4639 94.1375 63.2777 94.3315 63.2434C94.5255 63.2092 94.7958 63.3183 94.9675 63.267C95.1392 63.2156 95.2282 63.008 95.4 62.9417C95.5717 62.8753 95.877 62.9417 96.036 62.8497C96.195 62.7576 96.1886 62.5565 96.3285 62.4602C96.4684 62.3639 96.7864 62.3703 96.9105 62.2633C97.0345 62.1563 96.9423 61.953 97.044 61.8353C97.1458 61.7176 97.4511 61.6684 97.5274 61.5443C97.6037 61.4201 97.4415 61.2382 97.4924 61.1163C97.5433 60.9943 97.8104 60.8851 97.8454 60.7503C97.8804 60.6155 97.6482 60.4657 97.6482 60.3266V60.3245Z" fill="#FFC100"/>
<path opacity="0.53" d="M83.281 72.9012C83.2587 73.0082 83.0393 73.0874 82.998 73.1901C82.9566 73.2929 83.087 73.4384 83.0266 73.5368C82.9662 73.6353 82.7245 73.6759 82.645 73.7679C82.5655 73.86 82.645 74.0226 82.5369 74.1082C82.4287 74.1938 82.1902 74.1895 82.0758 74.2644C81.9613 74.3393 81.9708 74.5084 81.8436 74.5747C81.7164 74.6411 81.4779 74.5918 81.3412 74.6453C81.2044 74.6988 81.144 74.8593 80.9946 74.9043C80.8451 74.9492 80.6352 74.8572 80.4826 74.885C80.3299 74.9128 80.2091 75.0605 80.0501 75.0755C79.8911 75.0905 79.7321 74.9663 79.5604 74.9663C79.3887 74.9663 79.2265 75.0883 79.0675 75.0755C78.9085 75.0626 78.7908 74.9128 78.6382 74.885C78.4855 74.8572 78.2693 74.9449 78.123 74.9043C77.9767 74.8636 77.9163 74.701 77.7796 74.6475C77.6428 74.594 77.4012 74.6475 77.274 74.5747C77.1468 74.502 77.1531 74.3415 77.0418 74.2644C76.9305 74.1874 76.6793 74.1938 76.5807 74.1082C76.4821 74.0226 76.5553 73.8621 76.4758 73.7701C76.3963 73.6781 76.1578 73.6374 76.091 73.5368C76.0242 73.4362 76.161 73.295 76.1196 73.1923C76.0783 73.0896 75.8589 73.0082 75.8366 72.9012C75.8143 72.7942 75.9988 72.6872 75.9988 72.5717C75.9988 72.4561 75.8175 72.347 75.8366 72.2421C75.8557 72.1373 76.0783 72.0538 76.1196 71.9511C76.161 71.8484 76.0306 71.7028 76.091 71.6044C76.1514 71.506 76.409 71.4653 76.4758 71.3733C76.5426 71.2813 76.4758 71.1186 76.5807 71.033C76.6857 70.9474 76.9273 70.9517 77.0418 70.8768C77.1563 70.8019 77.1468 70.6328 77.274 70.5665C77.4012 70.5002 77.6397 70.5494 77.7796 70.4959C77.9195 70.4424 77.9736 70.2819 78.123 70.2369C78.2725 70.192 78.4824 70.284 78.6382 70.2562C78.794 70.2284 78.9085 70.0807 79.0675 70.0657C79.2265 70.0508 79.3855 70.1749 79.5604 70.1749C79.7353 70.1749 79.8784 70.0529 80.0501 70.0657C80.2218 70.0786 80.3268 70.2284 80.4794 70.2562C80.632 70.284 80.8483 70.1963 80.9946 70.2369C81.1408 70.2776 81.2013 70.451 81.338 70.4959C81.4747 70.5408 81.7164 70.4959 81.8436 70.5665C81.9708 70.6371 81.9645 70.7998 82.0758 70.8768C82.1871 70.9538 82.4383 70.9474 82.5369 71.033C82.6354 71.1186 82.5623 71.2791 82.6418 71.3733C82.7213 71.4674 82.9598 71.5038 83.0266 71.6044C83.0934 71.705 82.9566 71.8462 82.998 71.9511C83.0393 72.0559 83.2587 72.133 83.281 72.24C83.3032 72.347 83.1188 72.454 83.1188 72.5717C83.1188 72.6894 83.316 72.7942 83.281 72.9012ZM88.369 65.7643C88.369 65.6274 88.5948 65.4819 88.5693 65.3492C88.5439 65.2165 88.2513 65.1116 88.2163 64.9832C88.1814 64.8548 88.3276 64.6708 88.2513 64.5552C88.175 64.4397 87.8665 64.3798 87.768 64.2621C87.6694 64.1444 87.768 63.9432 87.6312 63.8341C87.4945 63.7249 87.1956 63.7313 87.0525 63.635C86.9094 63.5387 86.9189 63.329 86.7599 63.2456C86.6009 63.1621 86.2988 63.2242 86.1239 63.1557C85.949 63.0872 85.8759 62.8818 85.6914 62.8304C85.507 62.779 85.2367 62.8882 85.0554 62.8539C84.8742 62.8197 84.712 62.6399 84.5085 62.6143C84.3049 62.5886 84.0951 62.7512 83.8915 62.7512C83.688 62.7512 83.4718 62.5971 83.2746 62.6143C83.0775 62.6314 82.9216 62.8283 82.7308 62.8539C82.54 62.8796 82.2666 62.779 82.0948 62.8304C81.9231 62.8818 81.8341 63.0872 81.6592 63.1557C81.4843 63.2242 81.1854 63.1557 81.0232 63.2456C80.861 63.3354 80.8737 63.5409 80.7306 63.635C80.5875 63.7292 80.2759 63.7271 80.1519 63.8341C80.0278 63.9411 80.1169 64.1444 80.0183 64.2621C79.9197 64.3798 79.6113 64.4268 79.5349 64.5531C79.4586 64.6794 79.6208 64.857 79.5667 64.9811C79.5127 65.1052 79.2487 65.2122 79.2138 65.347C79.1788 65.4819 79.4173 65.6252 79.4173 65.7622C79.4173 65.8992 79.1883 66.0468 79.2138 66.1795C79.2392 66.3122 79.5318 66.4149 79.5699 66.5454C79.6081 66.676 79.4554 66.8579 79.5349 66.9734C79.6144 67.089 79.9165 67.1489 80.0183 67.2645C80.1201 67.38 80.0183 67.5855 80.1519 67.6925C80.2854 67.7995 80.5907 67.7952 80.7306 67.8894C80.8705 67.9835 80.8642 68.1975 81.0264 68.281C81.1885 68.3644 81.4875 68.3024 81.6624 68.3709C81.8373 68.4393 81.9104 68.6448 82.098 68.6961C82.2856 68.7475 82.5496 68.6384 82.734 68.6726C82.9185 68.7068 83.0775 68.8866 83.2778 68.9102C83.4781 68.9337 83.6912 68.7753 83.8947 68.7753C84.0982 68.7753 84.3145 68.9273 84.5116 68.9102C84.7088 68.893 84.8646 68.7068 85.0586 68.6726C85.2526 68.6384 85.5229 68.7475 85.6946 68.6961C85.8663 68.6448 85.9554 68.4372 86.1271 68.3709C86.2988 68.3045 86.6041 68.3709 86.7631 68.2788C86.9221 68.1868 86.9157 67.9857 87.0556 67.8894C87.1956 67.7931 87.5136 67.7995 87.6344 67.6925C87.7552 67.5855 87.6694 67.3822 87.7711 67.2645C87.8729 67.1468 88.1782 67.0976 88.2545 66.9734C88.3308 66.8493 88.1655 66.6674 88.2195 66.5454C88.2736 66.4235 88.5375 66.3143 88.5725 66.1795C88.6075 66.0447 88.3563 65.912 88.3563 65.7643H88.369ZM88.9 77.896C88.9 77.759 89.1258 77.6135 89.1004 77.4808C89.0749 77.3482 88.7983 77.2433 88.7474 77.1128C88.6965 76.9822 88.8587 76.8025 88.7824 76.6848C88.7061 76.5671 88.3976 76.5114 88.299 76.3937C88.2004 76.276 88.299 76.0727 88.1623 75.9657C88.0255 75.8587 87.7266 75.8651 87.5835 75.7688C87.4404 75.6725 87.45 75.4607 87.291 75.3794C87.132 75.298 86.8299 75.3558 86.655 75.2873C86.4801 75.2189 86.4069 75.0156 86.2225 74.9621C86.038 74.9086 85.7677 75.022 85.5865 74.9856C85.4052 74.9492 85.243 74.7716 85.0395 74.7481C84.836 74.7245 84.6261 74.885 84.4226 74.885C84.2191 74.885 84.0028 74.7309 83.8057 74.7481C83.6085 74.7652 83.4527 74.9514 83.2619 74.9856C83.0711 75.0198 82.7976 74.9107 82.6259 74.9621C82.4542 75.0134 82.3651 75.221 82.1902 75.2873C82.0153 75.3537 81.7164 75.2873 81.5542 75.3794C81.3921 75.4714 81.4016 75.6725 81.2585 75.7688C81.1154 75.8651 80.8038 75.8587 80.6797 75.9657C80.5557 76.0727 80.6448 76.276 80.5462 76.3937C80.4476 76.5114 80.1391 76.5606 80.0628 76.6869C79.9865 76.8132 80.1487 76.9908 80.0978 77.1149C80.0469 77.239 79.7798 77.3439 79.7416 77.4808C79.7035 77.6178 79.9452 77.759 79.9452 77.896C79.9452 78.033 79.7162 78.1785 79.7416 78.3112C79.7671 78.4438 80.0437 78.5487 80.0978 78.6792C80.1519 78.8098 79.9865 78.9895 80.0628 79.1072C80.1391 79.2249 80.4444 79.2806 80.5462 79.3983C80.6479 79.516 80.5462 79.7193 80.6797 79.8263C80.8133 79.9333 81.1186 79.9269 81.2585 80.0232C81.3984 80.1195 81.3952 80.3313 81.5542 80.4126C81.7132 80.494 82.0153 80.4362 82.1902 80.5047C82.3651 80.5731 82.4351 80.7764 82.6227 80.8299C82.8103 80.8834 83.0743 80.77 83.2587 80.8064C83.4432 80.8428 83.6022 81.0204 83.8025 81.0439C84.0028 81.0675 84.2159 80.907 84.4194 80.907C84.6229 80.907 84.8424 81.0611 85.0395 81.0439C85.2367 81.0268 85.3893 80.8299 85.5833 80.8064C85.7773 80.7829 86.0476 80.8813 86.2193 80.8299C86.391 80.7786 86.4801 80.571 86.6518 80.5047C86.8235 80.4383 87.1288 80.5047 87.2878 80.4126C87.4468 80.3206 87.4404 80.1195 87.5803 80.0232C87.7203 79.9269 88.0383 79.9333 88.1623 79.8263C88.2863 79.7193 88.1941 79.516 88.2958 79.3983C88.3976 79.2806 88.7029 79.2314 88.7792 79.1051C88.8555 78.9788 88.6933 78.8012 88.7442 78.6771C88.7951 78.553 89.0622 78.4481 89.0972 78.3112C89.1322 78.1742 88.9 78.0415 88.9 77.896ZM79.624 79.6208C79.624 79.5288 79.8561 79.4304 79.837 79.3426C79.818 79.2549 79.5572 79.1971 79.519 79.1115C79.4809 79.0259 79.6717 78.8868 79.6208 78.8034C79.5699 78.7199 79.3028 78.7135 79.2297 78.6364C79.1565 78.5594 79.2869 78.3925 79.2074 78.3219C79.1279 78.2512 78.8576 78.2919 78.7622 78.2277C78.6668 78.1635 78.7272 77.9837 78.6223 77.9302C78.5173 77.8767 78.2725 77.9602 78.158 77.9153C78.0435 77.8703 78.0308 77.6863 77.9068 77.652C77.7828 77.6178 77.5888 77.7419 77.452 77.7184C77.3153 77.6949 77.2422 77.5194 77.1086 77.5044C76.975 77.4894 76.8288 77.6499 76.6952 77.6499C76.5616 77.6499 76.4122 77.4937 76.2818 77.5044C76.1514 77.5151 76.0656 77.6949 75.9384 77.7184C75.8112 77.7419 75.6045 77.6178 75.4836 77.652C75.3628 77.6863 75.3469 77.866 75.2324 77.9153C75.1179 77.9645 74.8731 77.8767 74.7681 77.9302C74.6632 77.9837 74.7204 78.1656 74.6282 78.2298C74.536 78.294 74.2625 78.2534 74.183 78.324C74.1035 78.3946 74.2275 78.5594 74.1607 78.6364C74.094 78.7135 73.8205 78.722 73.7696 78.8055C73.7187 78.889 73.9032 79.0195 73.8714 79.1115C73.8396 79.2035 73.5724 79.2528 73.5534 79.3426C73.5343 79.4325 73.7664 79.5288 73.7664 79.6208C73.7664 79.7129 73.5343 79.8113 73.5534 79.899C73.5724 79.9868 73.8332 80.0446 73.8714 80.1302C73.9095 80.2158 73.7187 80.3442 73.7696 80.4362C73.8205 80.5282 74.0876 80.5282 74.1639 80.6052C74.2402 80.6823 74.1035 80.8471 74.183 80.9177C74.2625 80.9883 74.5328 80.9498 74.6282 81.0118C74.7236 81.0739 74.6632 81.2558 74.7681 81.3114C74.8731 81.3671 75.1179 81.2793 75.2324 81.3243C75.3469 81.3692 75.3596 81.5554 75.4836 81.5896C75.6076 81.6239 75.8016 81.4976 75.9384 81.5212C76.0751 81.5447 76.1482 81.7223 76.2818 81.7352C76.4154 81.748 76.5616 81.5896 76.6952 81.5896C76.8288 81.5896 76.9782 81.7459 77.1086 81.7352C77.239 81.7245 77.3248 81.5468 77.452 81.5212C77.5792 81.4955 77.7859 81.6239 77.9068 81.5896C78.0276 81.5554 78.0435 81.3756 78.158 81.3243C78.2725 81.2729 78.5173 81.3649 78.6223 81.3114C78.7272 81.2579 78.67 81.0739 78.7622 81.0118C78.8544 80.9498 79.1279 80.9883 79.2074 80.9177C79.2869 80.8471 79.1629 80.6823 79.2297 80.6052C79.2964 80.5282 79.5699 80.5196 79.6208 80.4362C79.6717 80.3527 79.4872 80.2222 79.5222 80.1302C79.5572 80.0381 79.818 79.9889 79.8402 79.899C79.8625 79.8092 79.624 79.7193 79.624 79.6294V79.6208ZM89.4311 54.7968C89.4311 54.6599 89.6601 54.5144 89.6346 54.3817C89.6092 54.249 89.3325 54.1441 89.2816 54.0136C89.2308 53.8831 89.3929 53.7033 89.3166 53.5856C89.2403 53.4679 88.9318 53.4101 88.8333 53.2924C88.7347 53.1747 88.8333 52.9714 88.6965 52.8644C88.5598 52.7574 88.2609 52.7638 88.1178 52.6675C87.9747 52.5712 87.9842 52.3594 87.8252 52.2781C87.6662 52.1967 87.3641 52.2545 87.1892 52.186C87.0143 52.1176 86.9412 51.9143 86.7535 51.8608C86.5659 51.8073 86.302 51.9207 86.1175 51.8843C85.9331 51.8479 85.7773 51.6703 85.5738 51.6468C85.3702 51.6232 85.1604 51.7837 84.9568 51.7837C84.7533 51.7837 84.5371 51.6296 84.3399 51.6468C84.1428 51.6639 83.9869 51.8608 83.793 51.8843C83.599 51.9078 83.3319 51.8094 83.157 51.8608C82.9821 51.9121 82.8994 52.1197 82.7245 52.186C82.5496 52.2524 82.2475 52.186 82.0885 52.2781C81.9295 52.3701 81.939 52.5712 81.7959 52.6675C81.6528 52.7638 81.338 52.7574 81.2172 52.8644C81.0963 52.9714 81.1822 53.1747 81.0804 53.2924C80.9787 53.4101 80.6766 53.4593 80.5971 53.5856C80.5176 53.7119 80.6861 53.8895 80.632 54.0136C80.578 54.1377 80.314 54.2426 80.2791 54.3795C80.2441 54.5165 80.4826 54.6577 80.4826 54.7947C80.4826 54.9317 80.2536 55.0772 80.2791 55.2099C80.3045 55.3425 80.5812 55.4474 80.632 55.5779C80.6829 55.7085 80.5207 55.8882 80.5971 56.0059C80.6734 56.1236 80.9818 56.1793 81.0804 56.297C81.179 56.4147 81.0804 56.618 81.2172 56.725C81.3539 56.832 81.6528 56.8256 81.7959 56.9219C81.939 57.0182 81.9295 57.23 82.0885 57.3113C82.2475 57.3927 82.5496 57.3349 82.7245 57.4034C82.8994 57.4718 82.9725 57.6751 83.1601 57.7286C83.3478 57.7821 83.6117 57.6687 83.7961 57.7051C83.9806 57.7415 84.1364 57.9191 84.3399 57.9426C84.5434 57.9662 84.7533 57.8057 84.9568 57.8057C85.1604 57.8057 85.3766 57.9598 85.5738 57.9426C85.7709 57.9255 85.9267 57.7393 86.1207 57.7051C86.3147 57.6709 86.5818 57.78 86.7567 57.7286C86.9316 57.6773 87.0143 57.4697 87.1892 57.4034C87.3641 57.337 87.6662 57.4034 87.8252 57.3113C87.9842 57.2193 87.9747 57.0182 88.1178 56.9219C88.2609 56.8256 88.5757 56.832 88.6965 56.725C88.8174 56.618 88.7315 56.4147 88.8333 56.297C88.935 56.1793 89.2371 56.1301 89.3166 56.0038C89.3961 55.8776 89.2276 55.6999 89.2816 55.5758C89.3357 55.4517 89.5996 55.3468 89.6346 55.2099C89.6696 55.0729 89.4311 54.9359 89.4311 54.799V54.7968ZM97.6482 60.3245C97.6482 60.1875 97.874 60.042 97.8486 59.9093C97.8231 59.7766 97.5465 59.6718 97.4956 59.5434C97.4447 59.415 97.6069 59.2309 97.5306 59.1154C97.4542 58.9998 97.1458 58.9399 97.0472 58.8222C96.9486 58.7045 97.0472 58.5033 96.9105 58.3942C96.7737 58.285 96.4748 58.2915 96.3317 58.1952C96.1886 58.0989 96.1981 57.8891 96.0391 57.8057C95.8801 57.7222 95.578 57.7843 95.4031 57.7158C95.2282 57.6473 95.1551 57.4419 94.9707 57.3905C94.7862 57.3392 94.5159 57.4483 94.3347 57.4141C94.1534 57.3798 93.9912 57.2001 93.7909 57.1744C93.5905 57.1487 93.3743 57.3113 93.1708 57.3113C92.9673 57.3113 92.751 57.1573 92.5539 57.1744C92.3567 57.1915 92.2009 57.3884 92.0101 57.4141C91.8193 57.4397 91.5458 57.3392 91.3741 57.3905C91.2024 57.4419 91.1133 57.6473 90.9384 57.7158C90.7635 57.7843 90.4646 57.7158 90.3024 57.8057C90.1402 57.8956 90.1498 58.101 90.0067 58.1952C89.8636 58.2893 89.5519 58.2872 89.4279 58.3942C89.3039 58.5012 89.3929 58.7045 89.2944 58.8222C89.1958 58.9399 88.8873 58.987 88.811 59.1132C88.7347 59.2395 88.8969 59.4171 88.846 59.5412C88.7951 59.6653 88.528 59.7723 88.4898 59.9072C88.4517 60.042 88.6933 60.1854 88.6933 60.3223C88.6933 60.4593 88.4644 60.6069 88.4898 60.7503C88.5153 60.8937 88.7919 60.9857 88.846 61.1163C88.9 61.2468 88.7347 61.4287 88.811 61.5443C88.8873 61.6598 89.1926 61.7198 89.2944 61.8353C89.3961 61.9509 89.2944 62.1563 89.4279 62.2633C89.5615 62.3703 89.8668 62.366 90.0067 62.4602C90.1466 62.5543 90.1434 62.7684 90.3024 62.8518C90.4614 62.9353 90.7635 62.8732 90.9384 62.9417C91.1133 63.0102 91.1833 63.2156 91.3709 63.267C91.5585 63.3183 91.8225 63.2092 92.0069 63.2434C92.1913 63.2777 92.3503 63.4574 92.5507 63.481C92.751 63.5045 92.9641 63.3461 93.1676 63.3461C93.3711 63.3461 93.5905 63.4981 93.7877 63.481C93.9849 63.4639 94.1375 63.2777 94.3315 63.2434C94.5255 63.2092 94.7958 63.3183 94.9675 63.267C95.1392 63.2156 95.2282 63.008 95.4 62.9417C95.5717 62.8753 95.877 62.9417 96.036 62.8497C96.195 62.7576 96.1886 62.5565 96.3285 62.4602C96.4684 62.3639 96.7864 62.3703 96.9105 62.2633C97.0345 62.1563 96.9423 61.953 97.044 61.8353C97.1458 61.7176 97.4511 61.6684 97.5274 61.5443C97.6037 61.4201 97.4415 61.2382 97.4924 61.1163C97.5433 60.9943 97.8104 60.8851 97.8454 60.7503C97.8804 60.6155 97.6482 60.4657 97.6482 60.3266V60.3245Z" fill="white"/>
<path d="M75.1402 84.1577L75.5854 84.1084L76.3168 84.0271L75.8271 83.1711L76.6094 83.5649V82.8415L77.7828 83.1048L78.6669 82.313L79.058 82.8415L79.7417 81.7865L80.1328 82.8415L81.2109 82.2488V83.3017L82.68 82.7752L82.7754 83.3017L83.7549 82.3793L84.0506 83.2353L84.9314 82.6425L84.8329 83.368L86.302 82.9079L85.6152 83.6975L86.8872 83.6312L86.302 84.224H89.3358L87.2783 84.423L90.9989 84.8168L77.4902 85.0137L79.3506 84.423L72.8888 84.4872L75.1402 84.1577Z" fill="#263238"/>
<path opacity="0.7" d="M75.1402 84.1577L75.5854 84.1084L76.3168 84.0271L75.8271 83.1711L76.6094 83.5649V82.8415L77.7828 83.1048L78.6669 82.313L79.058 82.8415L79.7417 81.7865L80.1328 82.8415L81.2109 82.2488V83.3017L82.68 82.7752L82.7754 83.3017L83.7549 82.3793L84.0506 83.2353L84.9314 82.6425L84.8329 83.368L86.302 82.9079L85.6152 83.6975L86.8872 83.6312L86.302 84.224H89.3358L87.2783 84.423L90.9989 84.8168L77.4902 85.0137L79.3506 84.423L72.8888 84.4872L75.1402 84.1577Z" fill="white"/>
</svg>
