<svg width="150" height="80" viewBox="0 0 150 80" fill="none" xmlns="http://www.w3.org/2000/svg">
<g clip-path="url(#clip0_411_1140)">
<path d="M15.402 22.8496H25.744V32.896H28.404V27.208H41.554V36.2144H43.294V15.08H54.722V20.8816H60.58V28.0976H62.354V23.56H72.742V37.1056H75.782V26.0928H85.284V17.7296H91.744V12.9648H99.218V34.0928H101.73V25.2768H114.04V37.896H115.744V27.5952H128.228V18.3152H134.598V53.9664H15.402V22.8496Z" fill="#EBEBEB"/>
<path d="M18.42 24.1136H16.67V26.0336H18.42V24.1136Z" fill="white"/>
<path d="M21.454 24.1136H19.704V26.0336H21.454V24.1136Z" fill="white"/>
<path d="M24.486 24.1136H22.736V26.0336H24.486V24.1136Z" fill="white"/>
<path d="M18.42 27.0032H16.67V28.9232H18.42V27.0032Z" fill="white"/>
<path d="M21.454 27.0032H19.704V28.9232H21.454V27.0032Z" fill="white"/>
<path d="M24.486 27.0032H22.736V28.9232H24.486V27.0032Z" fill="white"/>
<path d="M18.42 29.8928H16.67V31.8128H18.42V29.8928Z" fill="white"/>
<path d="M21.454 29.8928H19.704V31.8128H21.454V29.8928Z" fill="white"/>
<path d="M24.486 29.8928H22.736V31.8128H24.486V29.8928Z" fill="white"/>
<path d="M18.42 32.7824H16.67V34.7024H18.42V32.7824Z" fill="white"/>
<path d="M21.454 32.7824H19.704V34.7024H21.454V32.7824Z" fill="white"/>
<path d="M24.486 32.7824H22.736V34.7024H24.486V32.7824Z" fill="white"/>
<path d="M78.9919 27.4656H77.2419V29.0672H78.9919V27.4656Z" fill="white"/>
<path d="M82.024 27.4656H80.274V29.0672H82.024V27.4656Z" fill="white"/>
<path d="M85.056 27.4656H83.306V29.0672H85.056V27.4656Z" fill="white"/>
<path d="M78.9919 29.8768H77.2419V31.4784H78.9919V29.8768Z" fill="white"/>
<path d="M82.024 29.8768H80.274V31.4784H82.024V29.8768Z" fill="white"/>
<path d="M85.056 29.8768H83.306V31.4784H85.056V29.8768Z" fill="white"/>
<path d="M78.9919 32.288H77.2419V33.8896H78.9919V32.288Z" fill="white"/>
<path d="M82.024 32.288H80.274V33.8896H82.024V32.288Z" fill="white"/>
<path d="M85.056 32.288H83.306V33.8896H85.056V32.288Z" fill="white"/>
<path d="M78.9919 34.6976H77.2419V36.2992H78.9919V34.6976Z" fill="white"/>
<path d="M82.024 34.6976H80.274V36.2992H82.024V34.6976Z" fill="white"/>
<path d="M85.056 34.6976H83.306V36.2992H85.056V34.6976Z" fill="white"/>
<path d="M78.9919 37.1696H77.2419V38.7712H78.9919V37.1696Z" fill="white"/>
<path d="M82.024 37.1696H80.274V38.7712H82.024V37.1696Z" fill="white"/>
<path d="M85.056 37.1696H83.306V38.7712H85.056V37.1696Z" fill="white"/>
<path d="M78.9919 39.64H77.2419V41.2416H78.9919V39.64Z" fill="white"/>
<path d="M82.024 39.64H80.274V41.2416H82.024V39.64Z" fill="white"/>
<path d="M85.056 39.64H83.306V41.2416H85.056V39.64Z" fill="white"/>
<path d="M78.9919 42.1104H77.2419V43.712H78.9919V42.1104Z" fill="white"/>
<path d="M82.024 42.1104H80.274V43.712H82.024V42.1104Z" fill="white"/>
<path d="M85.056 42.1104H83.306V43.712H85.056V42.1104Z" fill="white"/>
<path d="M78.9919 44.5808H77.2419V46.1824H78.9919V44.5808Z" fill="white"/>
<path d="M82.024 44.5808H80.274V46.1824H82.024V44.5808Z" fill="white"/>
<path d="M85.056 44.5808H83.306V46.1824H85.056V44.5808Z" fill="white"/>
<path d="M39.9699 28.44H29.8979V29.6416H39.9699V28.44Z" fill="white"/>
<path d="M39.9699 30.7712H29.8979V31.9728H39.9699V30.7712Z" fill="white"/>
<path d="M39.9699 33.1024H29.8979V34.304H39.9699V33.1024Z" fill="white"/>
<path d="M39.9699 35.432H29.8979V36.6336H39.9699V35.432Z" fill="white"/>
<path d="M39.9699 37.7632H29.8979V38.9648H39.9699V37.7632Z" fill="white"/>
<path d="M39.9699 40.0944H29.8979V41.296H39.9699V40.0944Z" fill="white"/>
<path d="M39.9699 42.4256H29.8979V43.6272H39.9699V42.4256Z" fill="white"/>
<path d="M39.9699 44.7552H29.8979V45.9568H39.9699V44.7552Z" fill="white"/>
<path d="M112.478 26.3968H103.218V27.5984H112.478V26.3968Z" fill="white"/>
<path d="M112.478 28.728H103.218V29.9296H112.478V28.728Z" fill="white"/>
<path d="M112.478 31.0576H103.218V32.2592H112.478V31.0576Z" fill="white"/>
<path d="M112.478 33.3888H103.218V34.5904H112.478V33.3888Z" fill="white"/>
<path d="M112.478 35.72H103.218V36.9216H112.478V35.72Z" fill="white"/>
<path d="M112.478 38.0496H103.218V39.2512H112.478V38.0496Z" fill="white"/>
<path d="M112.478 40.3808H103.218V41.5824H112.478V40.3808Z" fill="white"/>
<path d="M112.478 42.712H103.218V43.9136H112.478V42.712Z" fill="white"/>
<path d="M112.478 44.9264H103.218V46.128H112.478V44.9264Z" fill="white"/>
<path d="M112.478 47.1408H103.218V48.3424H112.478V47.1408Z" fill="white"/>
<path d="M112.478 49.3552H103.218V50.5568H112.478V49.3552Z" fill="white"/>
<path d="M112.478 51.5712H103.218V52.7728H112.478V51.5712Z" fill="white"/>
<path d="M127.452 29.2112H117.67V30.4128H127.452V29.2112Z" fill="white"/>
<path d="M127.452 31.5424H117.67V32.744H127.452V31.5424Z" fill="white"/>
<path d="M127.452 33.8736H117.67V35.0752H127.452V33.8736Z" fill="white"/>
<path d="M127.452 36.2048H117.67V37.4064H127.452V36.2048Z" fill="white"/>
<path d="M127.452 38.5344H117.67V39.736H127.452V38.5344Z" fill="white"/>
<path d="M127.452 40.8656H117.67V42.0672H127.452V40.8656Z" fill="white"/>
<path d="M127.452 43.1968H117.67V44.3984H127.452V43.1968Z" fill="white"/>
<path d="M127.452 45.5264H117.67V46.728H127.452V45.5264Z" fill="white"/>
<path d="M127.452 47.6128H117.67V48.8144H127.452V47.6128Z" fill="white"/>
<path d="M127.452 49.6992H117.67V50.9008H127.452V49.6992Z" fill="white"/>
<path d="M127.452 51.7856H117.67V52.9872H127.452V51.7856Z" fill="white"/>
<path d="M68.504 24.6464H65.394V25.8064H68.504V24.6464Z" fill="white"/>
<path d="M68.504 26.8976H65.394V28.0576H68.504V26.8976Z" fill="white"/>
<path d="M68.504 29.1488H65.394V30.3088H68.504V29.1488Z" fill="white"/>
<path d="M68.504 31.4H65.394V32.56H68.504V31.4Z" fill="white"/>
<path d="M68.504 33.6496H65.394V34.8096H68.504V33.6496Z" fill="white"/>
<path d="M68.504 35.9008H65.394V37.0608H68.504V35.9008Z" fill="white"/>
<path d="M68.504 38.152H65.394V39.312H68.504V38.152Z" fill="white"/>
<path d="M68.504 40.4032H65.394V41.5632H68.504V40.4032Z" fill="white"/>
<path d="M72.736 24.6464H69.626V25.8064H72.736V24.6464Z" fill="white"/>
<path d="M72.736 26.8976H69.626V28.0576H72.736V26.8976Z" fill="white"/>
<path d="M72.736 29.1488H69.626V30.3088H72.736V29.1488Z" fill="white"/>
<path d="M72.736 31.4H69.626V32.56H72.736V31.4Z" fill="white"/>
<path d="M72.736 33.6496H69.626V34.8096H72.736V33.6496Z" fill="white"/>
<path d="M72.736 35.9008H69.626V37.0608H72.736V35.9008Z" fill="white"/>
<path d="M72.736 38.152H69.626V39.312H72.736V38.152Z" fill="white"/>
<path d="M72.736 40.4032H69.626V41.5632H72.736V40.4032Z" fill="white"/>
<path d="M48.268 16.296H45.028V18.1248H48.268V16.296Z" fill="white"/>
<path d="M53.098 16.296H49.858V18.1248H53.098V16.296Z" fill="white"/>
<path d="M48.268 18.984H45.028V20.8128H48.268V18.984Z" fill="white"/>
<path d="M53.098 18.984H49.858V20.8128H53.098V18.984Z" fill="white"/>
<path d="M48.268 21.6704H45.028V23.4992H48.268V21.6704Z" fill="white"/>
<path d="M53.098 21.6704H49.858V23.4992H53.098V21.6704Z" fill="white"/>
<path d="M48.268 24.3584H45.028V26.1872H48.268V24.3584Z" fill="white"/>
<path d="M53.098 24.3584H49.858V26.1872H53.098V24.3584Z" fill="white"/>
<path d="M48.268 27.0464H45.028V28.8752H48.268V27.0464Z" fill="white"/>
<path d="M53.098 27.0464H49.858V28.8752H53.098V27.0464Z" fill="white"/>
<path d="M48.268 29.7328H45.028V31.5616H48.268V29.7328Z" fill="white"/>
<path d="M53.098 29.7328H49.858V31.5616H53.098V29.7328Z" fill="white"/>
<path d="M48.268 32.4208H45.028V34.2496H48.268V32.4208Z" fill="white"/>
<path d="M53.098 32.4208H49.858V34.2496H53.098V32.4208Z" fill="white"/>
<path d="M48.268 35.1072H45.028V36.936H48.268V35.1072Z" fill="white"/>
<path d="M53.098 35.1072H49.858V36.936H53.098V35.1072Z" fill="white"/>
<path d="M59.0859 21.6704H55.8459V23.4992H59.0859V21.6704Z" fill="white"/>
<path d="M59.0859 24.3584H55.8459V26.1872H59.0859V24.3584Z" fill="white"/>
<path d="M59.0859 27.0464H55.8459V28.8752H59.0859V27.0464Z" fill="white"/>
<path d="M59.0859 29.7328H55.8459V31.5616H59.0859V29.7328Z" fill="white"/>
<path d="M59.0859 32.4208H55.8459V34.2496H59.0859V32.4208Z" fill="white"/>
<path d="M59.0859 35.1072H55.8459V36.936H59.0859V35.1072Z" fill="white"/>
<path d="M48.268 37.7632H45.028V39.592H48.268V37.7632Z" fill="white"/>
<path d="M53.098 37.7632H49.858V39.592H53.098V37.7632Z" fill="white"/>
<path d="M59.0859 37.7632H55.8459V39.592H59.0859V37.7632Z" fill="white"/>
<path d="M48.268 40.4192H45.028V42.248H48.268V40.4192Z" fill="white"/>
<path d="M53.098 40.4192H49.858V42.248H53.098V40.4192Z" fill="white"/>
<path d="M59.0859 40.4192H55.8459V42.248H59.0859V40.4192Z" fill="white"/>
<path d="M48.268 43.0736H45.028V44.9024H48.268V43.0736Z" fill="white"/>
<path d="M53.098 43.0736H49.858V44.9024H53.098V43.0736Z" fill="white"/>
<path d="M59.0859 43.0736H55.8459V44.9024H59.0859V43.0736Z" fill="white"/>
<path d="M48.268 45.7296H45.028V47.5584H48.268V45.7296Z" fill="white"/>
<path d="M53.098 45.7296H49.858V47.5584H53.098V45.7296Z" fill="white"/>
<path d="M59.0859 45.7296H55.8459V47.5584H59.0859V45.7296Z" fill="white"/>
<path d="M48.268 48.384H45.028V50.2128H48.268V48.384Z" fill="white"/>
<path d="M53.098 48.384H49.858V50.2128H53.098V48.384Z" fill="white"/>
<path d="M59.0859 48.384H55.8459V50.2128H59.0859V48.384Z" fill="white"/>
<path d="M88.354 18.9072H86.604V20.5088H88.354V18.9072Z" fill="white"/>
<path d="M91.386 18.9072H89.636V20.5088H91.386V18.9072Z" fill="white"/>
<path d="M88.354 21.3184H86.604V22.92H88.354V21.3184Z" fill="white"/>
<path d="M91.386 21.3184H89.636V22.92H91.386V21.3184Z" fill="white"/>
<path d="M88.354 23.7296H86.604V25.3312H88.354V23.7296Z" fill="white"/>
<path d="M91.386 23.7296H89.636V25.3312H91.386V23.7296Z" fill="white"/>
<path d="M88.354 26.1408H86.604V27.7424H88.354V26.1408Z" fill="white"/>
<path d="M91.386 26.1408H89.636V27.7424H91.386V26.1408Z" fill="white"/>
<path d="M88.354 28.6112H86.604V30.2128H88.354V28.6112Z" fill="white"/>
<path d="M91.386 28.6112H89.636V30.2128H91.386V28.6112Z" fill="white"/>
<path d="M88.354 31.0816H86.604V32.6832H88.354V31.0816Z" fill="white"/>
<path d="M91.386 31.0816H89.636V32.6832H91.386V31.0816Z" fill="white"/>
<path d="M88.354 33.552H86.604V35.1536H88.354V33.552Z" fill="white"/>
<path d="M91.386 33.552H89.636V35.1536H91.386V33.552Z" fill="white"/>
<path d="M88.354 36.0224H86.604V37.624H88.354V36.0224Z" fill="white"/>
<path d="M91.386 36.0224H89.636V37.624H91.386V36.0224Z" fill="white"/>
<path d="M88.354 38.52H86.604V40.1216H88.354V38.52Z" fill="white"/>
<path d="M91.386 38.52H89.636V40.1216H91.386V38.52Z" fill="white"/>
<path d="M88.354 41.0176H86.604V42.6192H88.354V41.0176Z" fill="white"/>
<path d="M91.386 41.0176H89.636V42.6192H91.386V41.0176Z" fill="white"/>
<path d="M88.354 43.5136H86.604V45.1152H88.354V43.5136Z" fill="white"/>
<path d="M91.386 43.5136H89.636V45.1152H91.386V43.5136Z" fill="white"/>
<path d="M88.354 46.0112H86.604V47.6128H88.354V46.0112Z" fill="white"/>
<path d="M91.386 46.0112H89.636V47.6128H91.386V46.0112Z" fill="white"/>
<path d="M131.074 19.168H129.324V21.056H131.074V19.168Z" fill="white"/>
<path d="M134.106 19.168H132.356V21.056H134.106V19.168Z" fill="white"/>
<path d="M131.074 22.008H129.324V23.896H131.074V22.008Z" fill="white"/>
<path d="M134.106 22.008H132.356V23.896H134.106V22.008Z" fill="white"/>
<path d="M131.074 24.8496H129.324V26.7376H131.074V24.8496Z" fill="white"/>
<path d="M134.106 24.8496H132.356V26.7376H134.106V24.8496Z" fill="white"/>
<path d="M131.074 27.6896H129.324V29.5776H131.074V27.6896Z" fill="white"/>
<path d="M134.106 27.6896H132.356V29.5776H134.106V27.6896Z" fill="white"/>
<path d="M131.074 30.6H129.324V32.488H131.074V30.6Z" fill="white"/>
<path d="M134.106 30.6H132.356V32.488H134.106V30.6Z" fill="white"/>
<path d="M131.074 33.5104H129.324V35.3984H131.074V33.5104Z" fill="white"/>
<path d="M134.106 33.5104H132.356V35.3984H134.106V33.5104Z" fill="white"/>
<path d="M131.074 36.4208H129.324V38.3088H131.074V36.4208Z" fill="white"/>
<path d="M134.106 36.4208H132.356V38.3088H134.106V36.4208Z" fill="white"/>
<path d="M131.074 39.3328H129.324V41.2208H131.074V39.3328Z" fill="white"/>
<path d="M134.106 39.3328H132.356V41.2208H134.106V39.3328Z" fill="white"/>
<path d="M131.074 42.2736H129.324V44.1616H131.074V42.2736Z" fill="white"/>
<path d="M134.106 42.2736H132.356V44.1616H134.106V42.2736Z" fill="white"/>
<path d="M131.074 45.216H129.324V47.104H131.074V45.216Z" fill="white"/>
<path d="M134.106 45.216H132.356V47.104H134.106V45.216Z" fill="white"/>
<path d="M131.074 48.1568H129.324V50.0448H131.074V48.1568Z" fill="white"/>
<path d="M134.106 48.1568H132.356V50.0448H134.106V48.1568Z" fill="white"/>
<path d="M131.074 51.0992H129.324V52.9872H131.074V51.0992Z" fill="white"/>
<path d="M134.106 51.0992H132.356V52.9872H134.106V51.0992Z" fill="white"/>
<path d="M94.838 18.9072H93.088V20.5088H94.838V18.9072Z" fill="white"/>
<path d="M97.87 18.9072H96.12V20.5088H97.87V18.9072Z" fill="white"/>
<path d="M94.838 16.4352H93.088V18.0368H94.838V16.4352Z" fill="white"/>
<path d="M97.87 16.4352H96.12V18.0368H97.87V16.4352Z" fill="white"/>
<path d="M94.838 13.9632H93.088V15.5648H94.838V13.9632Z" fill="white"/>
<path d="M97.87 13.9632H96.12V15.5648H97.87V13.9632Z" fill="white"/>
<path d="M94.838 21.3184H93.088V22.92H94.838V21.3184Z" fill="white"/>
<path d="M97.87 21.3184H96.12V22.92H97.87V21.3184Z" fill="white"/>
<path d="M94.838 23.7296H93.088V25.3312H94.838V23.7296Z" fill="white"/>
<path d="M97.87 23.7296H96.12V25.3312H97.87V23.7296Z" fill="white"/>
<path d="M94.838 26.1408H93.088V27.7424H94.838V26.1408Z" fill="white"/>
<path d="M97.87 26.1408H96.12V27.7424H97.87V26.1408Z" fill="white"/>
<path d="M94.838 28.6112H93.088V30.2128H94.838V28.6112Z" fill="white"/>
<path d="M97.87 28.6112H96.12V30.2128H97.87V28.6112Z" fill="white"/>
<path d="M94.838 31.0816H93.088V32.6832H94.838V31.0816Z" fill="white"/>
<path d="M97.87 31.0816H96.12V32.6832H97.87V31.0816Z" fill="white"/>
<path d="M94.838 33.552H93.088V35.1536H94.838V33.552Z" fill="white"/>
<path d="M97.87 33.552H96.12V35.1536H97.87V33.552Z" fill="white"/>
<path d="M94.838 36.0224H93.088V37.624H94.838V36.0224Z" fill="white"/>
<path d="M97.87 36.0224H96.12V37.624H97.87V36.0224Z" fill="white"/>
<path d="M94.838 38.52H93.088V40.1216H94.838V38.52Z" fill="white"/>
<path d="M97.87 38.52H96.12V40.1216H97.87V38.52Z" fill="white"/>
<path d="M94.838 41.0176H93.088V42.6192H94.838V41.0176Z" fill="white"/>
<path d="M97.87 41.0176H96.12V42.6192H97.87V41.0176Z" fill="white"/>
<path d="M94.838 43.5136H93.088V45.1152H94.838V43.5136Z" fill="white"/>
<path d="M97.87 43.5136H96.12V45.1152H97.87V43.5136Z" fill="white"/>
<path d="M94.838 46.0112H93.088V47.6128H94.838V46.0112Z" fill="white"/>
<path d="M97.87 46.0112H96.12V47.6128H97.87V46.0112Z" fill="white"/>
<path d="M36.756 21.1632L19.236 21.1424C19.236 21.1424 20.108 20.2352 21.068 20.1232C21.068 20.1232 22.944 15.6768 26.068 15.6432C28.976 15.6176 30.136 18.384 30.136 18.384C30.136 18.384 31.486 17.1456 32.772 17.7152C34.058 18.2848 34.782 19.9088 34.782 19.9088C34.782 19.9088 36.234 20.5392 36.756 21.1632Z" fill="#EBEBEB"/>
<path d="M111.616 16L133.774 16.0272C133.774 16.0272 133.774 14.8944 130.724 14.6688C130.724 14.6688 127.946 9.7088 123.69 10.376C121.04 10.7792 119.68 13.688 119.68 13.688C119.68 13.688 117.68 11.3952 116.08 11.8368C114.48 12.2784 113.52 14.7168 113.52 14.7168C113.52 14.7168 111.868 15.36 111.616 16Z" fill="#EBEBEB"/>
<path d="M57.86 15.384L72.928 15.4016C72.928 15.4016 71.508 14.3408 70.876 14.3408C70.244 14.3408 68.4 10.784 66.048 10.9312C63.696 11.0784 62.436 13.7248 62.436 13.7248C62.436 13.7248 59.574 13.0032 57.86 15.384Z" fill="#EBEBEB"/>
<path d="M99.95 22.4416L112.834 22.4576C112.834 22.4576 112.194 21.7888 111.488 21.7056C111.488 21.7056 110.122 18.432 107.822 18.4064C105.684 18.3824 104.822 20.4144 104.822 20.4144C104.822 20.4144 103.834 19.5008 102.888 19.9168C101.942 20.3328 101.4 21.5264 101.4 21.5264C101.4 21.5264 100.336 21.984 99.95 22.4416Z" fill="#EBEBEB"/>
<path d="M74.2 67.208C104.558 67.208 129.168 65.5439 129.168 63.4912C129.168 61.4385 104.558 59.7744 74.2 59.7744C43.842 59.7744 19.232 61.4385 19.232 63.4912C19.232 65.5439 43.842 67.208 74.2 67.208Z" fill="#EBEBEB"/>
<path d="M95.966 72.6384C111.016 72.6384 123.216 71.3325 123.216 69.7216C123.216 68.1107 111.016 66.8048 95.966 66.8048C80.9162 66.8048 68.716 68.1107 68.716 69.7216C68.716 71.3325 80.9162 72.6384 95.966 72.6384Z" fill="#EBEBEB"/>
<path d="M9.50201 54.7024L25.876 54.664L42.25 54.6496L75 54.6224L107.75 54.6496L124.124 54.664L140.498 54.7024L124.124 54.7424L107.75 54.7568L75 54.7824L42.25 54.7568L25.876 54.7424L9.50201 54.7024Z" fill="#263238"/>
<path d="M140.498 53.0112H9.50201V54.704H140.498V53.0112Z" fill="#C7C7C7"/>
<path d="M16.242 53.0112C16.3753 53.5699 16.3753 54.1437 16.242 54.7024C16.1701 54.4246 16.1366 54.1413 16.142 53.8576C16.1375 53.5734 16.171 53.2897 16.242 53.0112Z" fill="#263238"/>
<path d="M24.076 53.0112C24.147 53.2897 24.1805 53.5734 24.176 53.8576C24.1815 54.1413 24.1479 54.4246 24.076 54.7024C24.0051 54.4245 23.9716 54.1412 23.976 53.8576C23.9725 53.5734 24.006 53.2898 24.076 53.0112Z" fill="#263238"/>
<path d="M31.91 53.0112C32.0433 53.5699 32.0433 54.1437 31.91 54.7024C31.7767 54.1437 31.7767 53.5699 31.91 53.0112Z" fill="#263238"/>
<path d="M39.746 53.0112C39.8766 53.5701 39.8766 54.1435 39.746 54.7024C39.6127 54.1437 39.6127 53.5699 39.746 53.0112Z" fill="#263238"/>
<path d="M47.58 53.0112C47.7133 53.5699 47.7133 54.1437 47.58 54.7024C47.4466 54.1437 47.4466 53.5699 47.58 53.0112Z" fill="#263238"/>
<path d="M55.414 53.0112C55.4841 53.2898 55.5176 53.5734 55.514 53.8576C55.5185 54.1412 55.485 54.4245 55.414 54.7024C55.3422 54.4246 55.3086 54.1413 55.314 53.8576C55.3105 53.5734 55.344 53.2898 55.414 53.0112Z" fill="#263238"/>
<path d="M63.248 53.0112C63.319 53.2897 63.3525 53.5734 63.348 53.8576C63.3534 54.1413 63.3199 54.4246 63.248 54.7024C63.1147 54.1437 63.1147 53.5699 63.248 53.0112Z" fill="#263238"/>
<path d="M71.082 53.0112C71.2153 53.5699 71.2153 54.1437 71.082 54.7024C70.9487 54.1437 70.9487 53.5699 71.082 53.0112Z" fill="#263238"/>
<path d="M78.918 53.0112C79.0513 53.5699 79.0513 54.1437 78.918 54.7024C78.7847 54.1437 78.7847 53.5699 78.918 53.0112Z" fill="#263238"/>
<path d="M86.752 53.0112C86.8853 53.5699 86.8853 54.1437 86.752 54.7024C86.6801 54.4246 86.6466 54.1413 86.652 53.8576C86.6475 53.5734 86.681 53.2897 86.752 53.0112Z" fill="#263238"/>
<path d="M94.586 53.0112C94.656 53.2898 94.6895 53.5734 94.686 53.8576C94.6914 54.1413 94.6579 54.4246 94.586 54.7024C94.5151 54.4245 94.4816 54.1412 94.486 53.8576C94.4825 53.5734 94.516 53.2898 94.586 53.0112Z" fill="#263238"/>
<path d="M102.42 53.0112C102.553 53.5699 102.553 54.1437 102.42 54.7024C102.287 54.1437 102.287 53.5699 102.42 53.0112Z" fill="#263238"/>
<path d="M110.256 53.0112C110.387 53.5701 110.387 54.1435 110.256 54.7024C110.123 54.1437 110.123 53.5699 110.256 53.0112Z" fill="#263238"/>
<path d="M118.09 53.0112C118.223 53.5699 118.223 54.1437 118.09 54.7024C117.957 54.1437 117.957 53.5699 118.09 53.0112Z" fill="#263238"/>
<path d="M125.924 53.0112C125.994 53.2898 126.028 53.5734 126.024 53.8576C126.028 54.1412 125.995 54.4245 125.924 54.7024C125.852 54.4246 125.819 54.1413 125.824 53.8576C125.819 53.5734 125.853 53.2897 125.924 53.0112Z" fill="#263238"/>
<path d="M133.758 53.0112C133.829 53.2897 133.863 53.5734 133.858 53.8576C133.863 54.1413 133.83 54.4246 133.758 54.7024C133.625 54.1437 133.625 53.5699 133.758 53.0112Z" fill="#263238"/>
<path d="M135.162 50.3888H134.258L134.488 34.952L134.508 33.6656H134.912L134.932 34.952L135.162 50.3888Z" fill="#FFC727"/>
<path d="M134.932 34.952H134.488L134.508 33.6656H134.912L134.932 34.952Z" fill="#263238"/>
<path d="M132.456 28.984L132.81 34.0224L133.226 34.0752L133.604 34.1232V28.6832L132.8 28.8944L132.456 28.984Z" fill="#FFC727"/>
<path d="M132.848 29.5728C132.848 29.5728 131.314 29.584 131.346 29.6528C131.378 29.7216 131.994 29.8592 132.05 29.8912C132.106 29.9232 132.69 30.8176 132.85 30.8176C133.01 30.8176 132.848 29.5728 132.848 29.5728Z" fill="#FFC727"/>
<path d="M132.96 30.9984C132.96 30.9984 131.428 31.0112 131.458 31.08C131.488 31.1488 132.108 31.2864 132.162 31.3184C132.216 31.3504 132.804 32.2432 132.962 32.2432C133.12 32.2432 132.96 30.9984 132.96 30.9984Z" fill="#FFC727"/>
<path d="M133.074 32.4256C133.074 32.4256 131.54 32.4384 131.572 32.5072C131.604 32.576 132.22 32.7136 132.276 32.744C132.332 32.7744 132.916 33.6704 133.076 33.6704C133.236 33.6704 133.074 32.4256 133.074 32.4256Z" fill="#FFC727"/>
<path opacity="0.1" d="M132.8 28.8944L133.226 34.0752L133.604 34.1232V28.6832L132.8 28.8944Z" fill="black"/>
<path d="M136.964 28.984L136.61 34.0224L136.194 34.0752L135.816 34.1232V28.6832L136.62 28.8944L136.964 28.984Z" fill="#FFC727"/>
<path d="M136.574 29.5728C136.574 29.5728 138.106 29.584 138.074 29.6528C138.042 29.7216 137.426 29.8592 137.37 29.8912C137.314 29.9232 136.73 30.8176 136.57 30.8176C136.41 30.8176 136.574 29.5728 136.574 29.5728Z" fill="#FFC727"/>
<path d="M136.46 30.9984C136.46 30.9984 137.994 31.0112 137.962 31.08C137.93 31.1488 137.312 31.2864 137.258 31.3184C137.204 31.3504 136.616 32.2432 136.458 32.2432C136.3 32.2432 136.46 30.9984 136.46 30.9984Z" fill="#FFC727"/>
<path d="M136.348 32.4256C136.348 32.4256 137.88 32.4384 137.848 32.5072C137.816 32.576 137.2 32.7136 137.144 32.744C137.088 32.7744 136.504 33.6704 136.344 33.6704C136.184 33.6704 136.348 32.4256 136.348 32.4256Z" fill="#FFC727"/>
<path opacity="0.1" d="M136.62 28.8944L136.194 34.0752L135.816 34.1232V28.6832L136.62 28.8944Z" fill="black"/>
<path d="M136.15 28.2736L136.024 34.2464H133.396L133.27 28.2736H136.15Z" fill="#FFC727"/>
<path d="M135.646 29.3328C135.646 29.4809 135.591 29.6257 135.488 29.7488C135.385 29.872 135.239 29.9679 135.068 30.0246C134.897 30.0813 134.709 30.0961 134.527 30.0672C134.346 30.0383 134.179 29.967 134.048 29.8623C133.917 29.7576 133.828 29.6241 133.792 29.4789C133.756 29.3336 133.774 29.1831 133.845 29.0462C133.916 28.9094 134.036 28.7925 134.19 28.7102C134.344 28.6279 134.525 28.584 134.71 28.584C134.958 28.584 135.196 28.6629 135.372 28.8033C135.547 28.9437 135.646 29.1342 135.646 29.3328Z" fill="#DD6A57"/>
<path d="M135.646 33.12C135.646 33.2681 135.591 33.4129 135.488 33.536C135.385 33.6591 135.239 33.7551 135.068 33.8118C134.897 33.8685 134.709 33.8833 134.527 33.8544C134.346 33.8255 134.179 33.7542 134.048 33.6495C133.917 33.5448 133.828 33.4113 133.792 33.2661C133.756 33.1208 133.774 32.9703 133.845 32.8334C133.916 32.6966 134.036 32.5797 134.19 32.4974C134.344 32.4151 134.525 32.3712 134.71 32.3712C134.958 32.3712 135.196 32.4501 135.372 32.5905C135.547 32.7309 135.646 32.9214 135.646 33.12Z" fill="white"/>
<path d="M135.646 31.2432C135.646 31.3912 135.59 31.5358 135.487 31.6588C135.384 31.7817 135.238 31.8774 135.067 31.9339C134.896 31.9903 134.708 32.0049 134.526 31.9758C134.345 31.9467 134.178 31.8753 134.047 31.7705C133.917 31.6657 133.828 31.5323 133.792 31.3871C133.756 31.2419 133.775 31.0914 133.845 30.9547C133.916 30.8179 134.036 30.7011 134.19 30.6189C134.344 30.5367 134.525 30.4928 134.71 30.4928C134.833 30.4928 134.955 30.5122 135.069 30.55C135.182 30.5877 135.286 30.643 135.373 30.7127C135.46 30.7824 135.528 30.8651 135.575 30.9562C135.622 31.0472 135.646 31.1447 135.646 31.2432Z" fill="white"/>
<path d="M135.434 53.0112H133.986L134.11 49.9776L134.148 49.0352H135.242L135.288 49.9776L135.434 53.0112Z" fill="#FFC727"/>
<path d="M135.288 49.9776H134.11L134.148 49.0352H135.242L135.288 49.9776Z" fill="#455A64"/>
<path d="M28 56.8464H51.8C51.8 56.8464 49.2 47.952 39.902 47.952C30.604 47.952 28.4 54.8608 28 56.8464Z" fill="#FFC727"/>
<path opacity="0.2" d="M28 56.8464H51.8C51.8 56.8464 49.2 47.952 39.902 47.952C30.604 47.952 28.4 54.8608 28 56.8464Z" fill="black"/>
<path d="M97.06 57.8064H120.86C120.86 57.8064 118.26 48.912 108.962 48.912C99.664 48.912 97.47 55.8208 97.06 57.8064Z" fill="#FFC727"/>
<path opacity="0.2" d="M97.06 57.8064H120.86C120.86 57.8064 118.26 48.912 108.962 48.912C99.664 48.912 97.47 55.8208 97.06 57.8064Z" fill="black"/>
<path d="M22.554 40.624C22.044 41.264 21.154 48.4144 21.096 48.664C21.038 48.9136 20.296 50.008 20.296 50.216C20.296 50.424 20.096 53.6432 20.206 53.8512C20.4469 54.2309 20.7209 54.5966 21.026 54.9456C21.156 55.0704 24.528 57.392 24.906 57.424C25.284 57.456 28.772 57.4752 28.838 57.424C28.904 57.3728 29.306 48.784 39.89 48.784C50.474 48.784 50.358 57.904 50.554 57.9392C50.75 57.9744 98.128 58.8352 98.128 58.8352C98.128 57.4384 98.264 49.128 108.646 49.128C115.41 49.128 118.828 53.5872 118.946 56.8768C118.994 58.2464 118.708 59.7568 118.802 59.7568C119.114 59.7568 120.182 59.8192 120.364 59.7568C120.546 59.6944 122.764 58.5264 122.942 58.4848C123.12 58.4432 124.4 58.4224 124.712 58.36C125.024 58.2976 127.212 56.76 127.252 56.704C127.292 56.648 127.356 56.0384 127.368 55.9856C127.38 55.9328 129.596 53.7664 129.7 53.528C129.804 53.2896 129.842 51.3088 129.842 51.1104C129.842 50.912 125.82 45.6944 124.882 45.1328C123.944 44.5712 117.266 42.696 115.312 42.4128C113.358 42.1296 102.618 40.8496 102.228 40.632C101.838 40.4144 83.498 32 80.308 31.3744C77.73 30.8752 47.89 31.5616 46.328 31.624C44.766 31.6864 40.442 32.312 40.026 32.312C39.61 32.312 34.826 32.2912 34.532 32.3952C34.238 32.4992 34.532 33.416 34.896 33.5824C35.26 33.7488 23.44 39.4992 22.554 40.624Z" fill="#FFC727"/>
<path d="M23.238 40.0816C23.35 40.1648 25.216 40.2016 25.412 40.1392C25.608 40.0768 37.36 33.8224 37.368 33.64C37.368 33.5488 35.168 33.5728 34.896 33.5824C34.624 33.592 23.022 39.9248 23.238 40.0816Z" fill="#455A64"/>
<path d="M36.326 39.9824C36.836 41.1856 98.562 43.4352 98.9 42.8528C99.15 42.4208 93.628 38.8736 91.05 37.7168C88.472 36.56 81.09 33.2176 77.45 32.8736C73.81 32.5296 66.45 32.5536 60.03 32.656C53.662 32.7488 46.164 32.8736 43.508 33.776C41.186 34.576 35.922 39.0256 36.326 39.9824Z" fill="#263238"/>
<path d="M38.048 39.28C38.202 39.7328 51.834 40.9056 67.81 41.4992C83.786 42.0928 91.674 42.1856 91.87 42.1232C92.066 42.0608 91.322 38.656 91.05 38.3744C90.778 38.0928 79.332 33.4064 77.536 33.28C75.74 33.1536 66.032 33.1392 61.136 33.2016C56.24 33.264 46.022 33.7328 44.282 34.2944C42.748 34.7904 37.89 38.8272 38.048 39.28Z" fill="#455A64"/>
<g opacity="0.1">
<path d="M59.2 33.2416L50.05 40.5616C48.418 40.4464 46.908 40.3312 45.552 40.2208L54.03 33.44C55.838 33.3472 57.64 33.28 59.2 33.2416Z" fill="white"/>
<path d="M91.838 41.4016L90.916 42.1392C89.9827 42.1392 88.3727 42.1147 86.086 42.0656L90.846 38.2592C90.917 38.2919 90.984 38.33 91.046 38.3728C91.244 38.5744 91.68 40.3696 91.838 41.4016Z" fill="white"/>
<path d="M66.02 33.1712L56.29 40.96C55.51 40.9168 54.744 40.872 53.998 40.8256L63.546 33.1856C64.33 33.176 65.164 33.1712 66.02 33.1712Z" fill="white"/>
<path d="M86.906 36.5824L80.238 41.92L77.866 41.8496L85.266 35.9296C85.828 36.1488 86.38 36.368 86.906 36.5824Z" fill="white"/>
<path d="M52.4 33.5136L44.17 40.1008L43.542 40.0448L51.654 33.5552L52.4 33.5136Z" fill="white"/>
<path d="M88.324 37.1632L82.324 41.9728L81.648 41.9536L87.872 36.9728L88.324 37.1632Z" fill="white"/>
<path d="M79.69 33.8592L70.04 41.5792L69.368 41.5568L79.2 33.6976L79.69 33.8592Z" fill="white"/>
<path d="M45.86 34.016L38.972 39.52C38.742 39.4832 38.552 39.448 38.406 39.4128L45.006 34.1328C45.256 34.0944 45.54 34.0544 45.86 34.016Z" fill="white"/>
</g>
<path d="M46.6 33.9328C46.664 33.9328 46.694 34 46.638 34.12C46.318 34.8288 43.82 38.8432 43.196 39.7808C43.1567 39.8312 43.1051 39.8748 43.0443 39.9089C42.9834 39.943 42.9146 39.9669 42.842 39.9792L47.242 40.3552C47.1649 40.3304 47.1009 40.2849 47.0611 40.2265C47.0214 40.1681 47.0082 40.1005 47.024 40.0352C47.068 39.8128 48.702 35.0944 49.224 33.9344C49.2824 33.827 49.3866 33.7397 49.518 33.688C49.606 33.688 48.768 33.6976 47.972 33.7632C47.264 33.824 46.6 33.9328 46.6 33.9328Z" fill="#263238"/>
<path d="M52.4 33.5136C52.4 33.5136 52.48 33.5488 52.484 33.6736C52.512 34.784 52.668 40.344 52.534 40.648C52.5254 40.6782 52.5024 40.7046 52.47 40.7216L53.302 40.7744C53.259 40.7276 53.2327 40.6723 53.226 40.6144C53.132 39.6752 53.048 34.5776 53.064 33.6352C53.069 33.5767 53.0962 33.5209 53.142 33.4752L52.4 33.5136Z" fill="#263238"/>
<path d="M66.086 33.4C66.184 33.6464 66.346 40.9056 66.346 41.1392C66.346 41.3728 66.012 41.4288 66.012 41.4288L71.17 41.6208C71.17 41.6208 70.836 41.5456 70.77 41.4208C70.704 41.296 69.09 33.4688 69.1 33.3664C69.11 33.264 69.364 33.168 69.364 33.168H65.764C65.8345 33.1871 65.8995 33.2176 65.9549 33.2575C66.0102 33.2973 66.0548 33.3458 66.086 33.4Z" fill="#263238"/>
<path d="M23.466 41.6448C22.832 41.7088 21.408 42.8944 21.304 43.144C21.2 43.3936 20.81 45.0816 21.018 45.3312C21.226 45.5808 21.982 46.2064 22.632 46.2272C23.282 46.248 26.46 45.04 26.746 44.832C27.032 44.624 27.24 43.3552 26.902 42.9472C26.564 42.5392 24.272 41.5616 23.466 41.6448Z" fill="white"/>
<path d="M26.746 44.832C26.46 45.04 23.282 46.248 22.632 46.2272C22.136 46.2112 21.578 45.8432 21.25 45.5584C21.6196 45.7724 22.0659 45.8846 22.522 45.8784C22.872 45.8528 25.848 44.8288 26.23 44.5488C26.612 44.2688 26.63 43.2144 26.578 43.024C26.526 42.8336 24.606 41.8432 24.606 41.8432C25.556 42.136 26.674 42.6704 26.902 42.9456C27.24 43.36 27.032 44.6224 26.746 44.832Z" fill="#EBEBEB"/>
<path d="M20.836 51.0704C20.66 51.2112 20.6 52.2688 20.784 52.3616C20.968 52.4544 22.034 52.4448 22.242 52.3616C22.45 52.2784 22.984 51.4864 22.944 51.216C22.904 50.9456 21.044 50.904 20.836 51.0704Z" fill="white"/>
<path d="M115.89 45.216C116.452 45.944 120.578 47.232 122.12 47.4352C123.092 47.5632 126.456 47.7328 126.652 47.5952C126.848 47.4576 125.226 45.6576 124.386 45.2192C123.546 44.7808 119.348 43.6576 118.078 43.704C116.808 43.7504 115.324 44.48 115.89 45.216Z" fill="white"/>
<path d="M126.652 47.592C126.452 47.7328 123.092 47.5632 122.12 47.432C120.578 47.2288 116.452 45.9408 115.89 45.2128C115.328 44.4848 116.808 43.7456 118.078 43.6976C118.177 43.693 118.275 43.693 118.374 43.6976C117.192 44.0464 116.95 44.7856 117.67 45.208C118.39 45.6304 120.698 46.6176 121.62 46.824C122.508 47.024 125.82 47.4368 126.108 47.256C126.163 47.2039 126.203 47.1428 126.224 47.0769C126.246 47.0111 126.249 46.9422 126.234 46.8752C126.538 47.248 126.726 47.5392 126.652 47.592Z" fill="#EBEBEB"/>
<g opacity="0.5">
<path d="M36.646 45.0464C36.6499 45.491 36.4343 45.9188 36.046 46.2368C35.6517 46.5612 35.1126 46.7471 34.5471 46.7537C33.9816 46.7603 33.4359 46.5871 33.03 46.272C32.8249 46.113 32.6618 45.9226 32.5505 45.7122C32.4391 45.5018 32.3817 45.2757 32.3817 45.0472C32.3817 44.8187 32.4391 44.5926 32.5505 44.3822C32.6618 44.1718 32.8249 43.9814 33.03 43.8224C33.2307 43.666 33.4681 43.5428 33.7284 43.46C33.9887 43.3771 34.2669 43.3361 34.5471 43.3393C34.8273 43.3426 35.1039 43.3901 35.3611 43.479C35.6183 43.5679 35.851 43.6966 36.046 43.8576C36.4342 44.175 36.6498 44.6023 36.646 45.0464ZM36.646 45.0464C36.6414 44.6045 36.4177 44.182 36.024 43.872C35.8291 43.7218 35.5992 43.6038 35.3473 43.5248C35.0954 43.4457 34.8265 43.4071 34.556 43.4112C34.0181 43.4199 33.5063 43.5981 33.132 43.9072C32.7614 44.2126 32.5541 44.6216 32.5541 45.0472C32.5541 45.4729 32.7614 45.8818 33.132 46.1872C33.5063 46.4963 34.0181 46.6745 34.556 46.6832C34.8265 46.6873 35.0954 46.6487 35.3473 46.5696C35.5992 46.4906 35.8291 46.3726 36.024 46.2224C36.4174 45.9116 36.6411 45.4888 36.646 45.0464Z" fill="black"/>
<path d="M28 50.1232C27.788 49.7456 27.6 49.3648 27.4 48.9808C27.2 48.5968 27.032 48.2128 26.848 47.8272C26.664 47.4416 26.498 47.0528 26.334 46.6624C26.17 46.272 26.006 45.88 25.862 45.4832C26.076 45.8608 26.262 46.2416 26.462 46.624C26.662 47.0064 26.83 47.3936 27.016 47.7792C27.202 48.1648 27.366 48.5536 27.53 48.944C27.694 49.3344 27.852 49.7264 28 50.1232Z" fill="black"/>
<path d="M20.672 50.1232C21.698 50.1072 22.722 50.1088 23.748 50.112L26.822 50.1376L29.896 50.1968C30.92 50.2224 31.944 50.2496 32.968 50.2928C31.944 50.3088 30.918 50.3072 29.894 50.3056L26.818 50.2784L23.744 50.2192C22.72 50.1936 21.696 50.1664 20.672 50.1232Z" fill="black"/>
<path d="M69.068 42.144L69.42 44.1424L69.572 45.144C69.596 45.312 69.618 45.4784 69.634 45.648C69.65 45.8176 69.634 45.984 69.634 46.1536L69.6 50.1888L69.56 52.208L69.538 53.216L69.528 53.7216L69.48 54.224L69.28 56.2368L69.068 58.24L69.196 56.2256L69.34 54.2128L69.376 53.7088V53.2048L69.388 52.1968L69.414 50.1824L69.5 46.1504C69.5 45.9824 69.518 45.8128 69.5 45.648C69.482 45.4832 69.47 45.3136 69.45 45.1472L69.324 44.144L69.068 42.144Z" fill="black"/>
<path d="M96.766 43.0608L97.2 45.0688L97.4 46.08L97.452 46.3312C97.4746 46.4149 97.4873 46.5 97.49 46.5856C97.49 46.7552 97.49 46.9248 97.49 47.096C97.476 48.4544 97.434 49.816 97.382 51.1696C97.3687 51.5088 97.3507 51.848 97.328 52.1872C97.3042 52.5295 97.2221 52.8675 97.084 53.192C96.852 53.8464 96.586 54.4912 96.294 55.1312C96.0092 55.773 95.6697 56.3985 95.278 57.0032L95.12 57.2272C95.066 57.3008 95.004 57.3712 94.946 57.4432C94.8852 57.5155 94.8184 57.5845 94.746 57.6496L94.642 57.7504C94.5855 57.7773 94.5217 57.7927 94.456 57.7952C94.026 57.8304 93.604 57.8352 93.178 57.8464C89.778 57.9024 86.388 57.8784 82.992 57.8592C79.596 57.84 76.202 57.8 72.806 57.7504C69.41 57.7008 66.018 57.6256 62.624 57.5264C60.928 57.4704 59.224 57.4256 57.536 57.304C57.3189 57.2912 57.1035 57.2639 56.892 57.2224C56.772 57.1856 56.702 57.1408 56.6 57.1056C56.498 57.0704 56.412 57.032 56.316 56.9968C55.93 56.8576 55.534 56.7344 55.15 56.5808C54.7609 56.4331 54.4005 56.2413 54.08 56.0112C53.8012 55.7504 53.5433 55.4757 53.308 55.1888C52.352 54.0688 51.438 52.92 50.526 51.776C49.614 50.632 48.71 49.48 47.812 48.328C46.914 47.176 46.028 46.016 45.152 44.8528L44.828 44.4144L44.75 44.2992L44.712 44.2416C44.7057 44.2206 44.7024 44.1992 44.702 44.1776L44.67 43.9248C44.634 43.5856 44.602 43.2464 44.586 42.9072C44.586 42.8224 44.586 42.7376 44.586 42.6512C44.5998 42.5666 44.6226 42.4831 44.654 42.4016C44.712 42.2416 44.782 42.0816 44.854 41.9216C44.996 41.6016 45.148 41.2816 45.306 40.9696C45.1513 41.2896 45.004 41.6096 44.864 41.9296C44.796 42.0896 44.728 42.2496 44.664 42.4096C44.6334 42.4907 44.6114 42.5736 44.598 42.6576C44.598 42.7424 44.598 42.8272 44.598 42.912C44.616 43.2496 44.654 43.5888 44.692 43.9264L44.726 44.1792C44.7279 44.2002 44.7319 44.2211 44.738 44.2416L44.776 44.296C44.802 44.3312 44.824 44.3664 44.852 44.4032L45.18 44.84C46.066 45.9968 46.98 47.1472 47.876 48.296C49.676 50.592 51.49 52.8944 53.396 55.1408C53.627 55.4198 53.8795 55.6869 54.152 55.9408C54.4655 56.1635 54.817 56.3493 55.196 56.4928C55.574 56.6416 55.968 56.7632 56.358 56.904C56.456 56.9392 56.558 56.9744 56.648 57.0128C56.738 57.0512 56.848 57.1024 56.926 57.1248C57.1274 57.1615 57.332 57.1862 57.538 57.1984C59.224 57.3168 60.924 57.3584 62.62 57.408C66.02 57.5008 69.406 57.56 72.8 57.6096C76.194 57.6592 79.588 57.712 82.984 57.7424C86.38 57.7728 89.784 57.8016 93.166 57.7536C93.588 57.744 94.016 57.7392 94.432 57.7056C94.48 57.7056 94.542 57.6896 94.55 57.688L94.65 57.592C94.7188 57.5292 94.7817 57.4623 94.838 57.392C94.894 57.3216 94.956 57.2528 95.01 57.1808L95.166 56.9616C95.5644 56.3597 95.9099 55.7363 96.2 55.096C96.4947 54.456 96.7613 53.8123 97 53.1648C97.136 52.8459 97.2181 52.5139 97.244 52.1776L97.302 51.16C97.37 49.8032 97.426 48.44 97.454 47.088C97.454 46.9184 97.454 46.7488 97.454 46.5808C97.4509 46.4959 97.4389 46.4113 97.418 46.328L97.368 46.0768L97.168 45.072L96.766 43.0608Z" fill="black"/>
<path d="M118.614 46.5136C118.173 46.8104 117.705 47.0805 117.214 47.3216C116.728 47.5728 116.232 47.8096 115.74 48.0512C115.248 48.2928 114.74 48.5168 114.238 48.7408C113.736 48.9648 113.226 49.184 112.708 49.3904C113.19 49.1344 113.68 48.8896 114.17 48.6464L115.65 47.9296L117.142 47.2304L117.89 46.8816C118.14 46.7707 118.382 46.6478 118.614 46.5136Z" fill="black"/>
<path d="M47.148 50.4864L53.76 50.6256L60.374 50.7856L73.6 51.1088L86.824 51.4784L93.436 51.664L100.046 51.872L93.432 51.7328L86.82 51.5728L73.594 51.2496L60.37 50.88L53.758 50.6928L47.148 50.4864Z" fill="black"/>
<path d="M46.758 42.904L46.498 42.9152H46.434C46.42 42.9152 46.418 42.9248 46.41 42.9408C46.399 42.9733 46.3909 43.0065 46.386 43.04C46.3697 43.1756 46.3664 43.312 46.376 43.448C46.3782 43.5155 46.3856 43.5828 46.398 43.6496C46.403 43.6797 46.4124 43.7092 46.426 43.7376H46.446H46.494C46.662 43.7504 46.836 43.7536 47.006 43.7584C47.694 43.776 48.384 43.7936 49.072 43.8032L50.104 43.8272H50.62H50.84C50.8512 43.8108 50.8606 43.7937 50.868 43.776C50.8783 43.7449 50.8863 43.7134 50.892 43.6816C50.9144 43.548 50.9218 43.4131 50.914 43.2784C50.9117 43.2114 50.9044 43.1447 50.892 43.0784C50.8867 43.052 50.8773 43.0262 50.864 43.0016C50.8339 42.9898 50.8014 42.9822 50.768 42.9792C50.434 42.9328 50.086 42.9168 49.744 42.8896C50.0903 42.8819 50.4368 42.8894 50.782 42.912C50.8338 42.9126 50.8844 42.9248 50.928 42.9472C50.9599 42.9809 50.9805 43.0206 50.988 43.0624C51.0066 43.132 51.0192 43.2026 51.026 43.2736C51.041 43.4141 51.041 43.5555 51.026 43.696C51.0215 43.7326 51.0141 43.7689 51.004 43.8048C50.9947 43.8552 50.9609 43.9006 50.91 43.9312C50.8955 43.9396 50.878 43.9441 50.86 43.944H50.82H50.75H50.102L49.066 43.9328C48.378 43.912 47.688 43.896 47 43.856C46.826 43.8432 46.656 43.8352 46.48 43.8144C46.454 43.8132 46.4284 43.8089 46.404 43.8016C46.3885 43.7995 46.3736 43.7952 46.36 43.7888C46.3453 43.7792 46.3342 43.7664 46.328 43.752C46.3105 43.7162 46.2997 43.6784 46.296 43.64C46.2867 43.5699 46.2834 43.4993 46.286 43.4288C46.2887 43.2893 46.3054 43.1502 46.336 43.0128C46.3443 42.9779 46.3563 42.9436 46.372 42.9104C46.3757 42.9013 46.3811 42.8926 46.388 42.8848C46.3929 42.8796 46.3992 42.8754 46.4066 42.8727C46.4139 42.8699 46.4219 42.8685 46.43 42.8688H46.494L46.758 42.904Z" fill="black"/>
<path d="M72.068 43.4048L71.81 43.416H71.746C71.732 43.416 71.728 43.4256 71.72 43.4416C71.7086 43.474 71.7013 43.5072 71.698 43.5408C71.681 43.6764 71.677 43.8128 71.686 43.9488C71.686 44.0176 71.696 44.0848 71.708 44.1504C71.7136 44.1806 71.7237 44.2101 71.738 44.2384H71.756H71.806C71.974 44.2512 72.148 44.2544 72.318 44.2592C73.006 44.2768 73.694 44.2944 74.382 44.304L75.416 44.328H75.93H76.142C76.154 44.328 76.162 44.328 76.142 44.328C76.1538 44.3126 76.1625 44.2959 76.168 44.2784C76.179 44.2474 76.1877 44.2158 76.194 44.184C76.2154 44.0503 76.2227 43.9155 76.216 43.7808C76.2131 43.7138 76.2051 43.647 76.192 43.5808C76.1871 43.5545 76.1783 43.5287 76.166 43.504C76.1359 43.4922 76.1034 43.4846 76.07 43.4816C75.734 43.4352 75.388 43.4192 75.046 43.392C75.3916 43.3846 75.7374 43.3915 76.082 43.4128C76.1341 43.4137 76.1847 43.4265 76.228 43.4496C76.2604 43.4833 76.2817 43.5229 76.29 43.5648C76.308 43.6352 76.318 43.7056 76.328 43.776C76.343 43.9165 76.343 44.0579 76.328 44.1984C76.3235 44.235 76.3161 44.2713 76.306 44.3072C76.286 44.344 76.294 44.384 76.212 44.4336C76.1969 44.4423 76.1786 44.4467 76.16 44.4464H76.122H76.052H75.402L74.368 44.4352C73.678 44.4144 72.99 44.3984 72.3 44.3568C72.128 44.3456 71.958 44.336 71.782 44.3168C71.7554 44.3155 71.7291 44.3112 71.704 44.304C71.6895 44.3009 71.6754 44.2966 71.662 44.2912C71.6478 44.2808 71.6363 44.2683 71.628 44.2544C71.6112 44.2184 71.6011 44.1807 71.598 44.1424C71.5891 44.0722 71.5851 44.0017 71.586 43.9312C71.5903 43.7917 71.6077 43.6526 71.638 43.5152C71.6456 43.4803 71.657 43.4461 71.672 43.4128C71.6768 43.4038 71.6829 43.3952 71.69 43.3872C71.6947 43.3819 71.7011 43.3777 71.7084 43.3749C71.7158 43.3721 71.7239 43.3708 71.732 43.3712H71.796L72.068 43.4048Z" fill="black"/>
</g>
<path d="M46.6471 62.8318C50.4907 59.757 50.4907 54.7717 46.6471 51.6969C42.8036 48.6221 36.572 48.6221 32.7285 51.6969C28.8849 54.7717 28.8849 59.757 32.7284 62.8319C36.572 65.9067 42.8036 65.9067 46.6471 62.8318Z" fill="#263238"/>
<path d="M44.7691 61.3294C47.5754 59.0843 47.5754 55.4444 44.7691 53.1994C41.9628 50.9543 37.4128 50.9543 34.6065 53.1994C31.8002 55.4444 31.8002 59.0843 34.6065 61.3294C37.4128 63.5744 41.9628 63.5744 44.7691 61.3294Z" fill="#DBDBDB"/>
<path d="M39.688 62.5664C43.3475 62.5664 46.314 60.1932 46.314 57.2656C46.314 54.338 43.3475 51.9648 39.688 51.9648C36.0286 51.9648 33.062 54.338 33.062 57.2656C33.062 60.1932 36.0286 62.5664 39.688 62.5664Z" fill="#A6A6A6"/>
<path d="M40.728 55.936H38.646C39.348 55.1232 36.902 52.2912 36.902 52.2912L38 52C38.728 53 39.092 53.2928 39.692 53.2928C40.292 53.2928 40.654 53 41.384 52L42.478 52.2928C42.478 52.2928 40.026 55.1232 40.728 55.936Z" fill="#DBDBDB"/>
<path d="M38.472 56.0368L37.83 57.6208C37.082 56.8352 32.958 57.8224 32.958 57.8224V56.8992C34.372 56.6544 34.832 56.4672 35.018 56.0112C35.204 55.5552 34.966 55.1888 34.004 54.3232L34.69 53.5824C34.69 53.5824 37.29 56.32 38.472 56.0368Z" fill="#DBDBDB"/>
<path d="M37.896 57.784L39.58 58.7632C38.414 59.0832 38.314 62.5312 38.314 62.5312L37.214 62.2544C37.358 61.1024 37.28 60.6944 36.794 60.4128C36.308 60.1312 35.794 60.1968 34.474 60.6624L33.8 59.912C33.8 59.912 37.868 58.7712 37.896 57.784Z" fill="#DBDBDB"/>
<path d="M39.8 58.7632L41.484 57.784C41.512 58.7712 45.574 59.912 45.574 59.912L44.904 60.664C43.58 60.1968 43.07 60.1312 42.586 60.4128C42.102 60.6944 42.022 61.1024 42.166 62.2544L41.066 62.5312C41.066 62.5312 40.96 59.0896 39.8 58.7632Z" fill="#DBDBDB"/>
<path d="M41.546 57.6208L40.902 56.0368C42.084 56.32 44.702 53.5824 44.702 53.5824L45.39 54.3248C44.426 55.1872 44.19 55.5552 44.374 56.0112C44.558 56.4672 45.022 56.6512 46.436 56.9008L46.424 57.8224C46.424 57.8224 42.294 56.8352 41.546 57.6208Z" fill="#DBDBDB"/>
<path d="M39.688 58.7664C40.7506 58.7664 41.612 58.0773 41.612 57.2272C41.612 56.3771 40.7506 55.688 39.688 55.688C38.6254 55.688 37.764 56.3771 37.764 57.2272C37.764 58.0773 38.6254 58.7664 39.688 58.7664Z" fill="#DBDBDB"/>
<path d="M111.995 64.1868C117.104 62.7083 119.748 58.1962 117.9 54.1086C116.052 50.021 110.412 47.906 105.302 49.3844C100.193 50.8629 97.549 55.3751 99.3971 59.4627C101.245 63.5502 106.885 65.6653 111.995 64.1868Z" fill="#263238"/>
<path d="M115.508 58.7363C116.521 55.6665 114.232 52.5209 110.395 51.7104C106.557 50.8999 102.625 52.7314 101.612 55.8012C100.599 58.871 102.889 62.0166 106.726 62.8271C110.563 63.6376 114.495 61.8061 115.508 58.7363Z" fill="#DBDBDB"/>
<path d="M108.556 62.5664C112.215 62.5664 115.182 60.1932 115.182 57.2656C115.182 54.338 112.215 51.9648 108.556 51.9648C104.897 51.9648 101.93 54.338 101.93 57.2656C101.93 60.1932 104.897 62.5664 108.556 62.5664Z" fill="#A6A6A6"/>
<path d="M109.6 55.936H107.514C108.218 55.1232 105.77 52.2912 105.77 52.2912L106.864 51.9984C107.592 52.9984 107.956 53.2912 108.556 53.2912C109.156 53.2912 109.518 52.9984 110.25 51.9984L111.342 52.2912C111.342 52.2912 108.894 55.1232 109.6 55.936Z" fill="#DBDBDB"/>
<path d="M107.34 56.0368L106.698 57.6208C105.95 56.8352 101.826 57.8224 101.826 57.8224L101.816 56.8992C103.23 56.6544 103.69 56.4672 103.876 56.0112C104.062 55.5552 103.824 55.1888 102.862 54.3232L103.548 53.5824C103.548 53.5824 106.158 56.32 107.34 56.0368Z" fill="#DBDBDB"/>
<path d="M106.764 57.784L108.448 58.7632C107.284 59.0832 107.182 62.5312 107.182 62.5312L106.082 62.2544C106.228 61.1024 106.148 60.6944 105.664 60.4128C105.18 60.1312 104.664 60.1968 103.344 60.6624L102.674 59.912C102.674 59.912 106.736 58.7712 106.764 57.784Z" fill="#DBDBDB"/>
<path d="M108.664 58.7632L110.348 57.784C110.376 58.7712 114.436 59.912 114.436 59.912L113.766 60.664C112.442 60.1968 111.932 60.1312 111.448 60.4128C110.964 60.6944 110.884 61.1024 111.028 62.2544L109.928 62.5312C109.928 62.5312 109.828 59.0896 108.664 58.7632Z" fill="#DBDBDB"/>
<path d="M110.414 57.6208L109.77 56.0368C110.952 56.32 113.57 53.5824 113.57 53.5824L114.256 54.3248C113.292 55.1872 113.056 55.5552 113.242 56.0112C113.428 56.4672 113.888 56.6512 115.302 56.9008L115.29 57.8224C115.29 57.8224 111.162 56.8352 110.414 57.6208Z" fill="#DBDBDB"/>
<path d="M108.556 58.7664C109.619 58.7664 110.48 58.0773 110.48 57.2272C110.48 56.3771 109.619 55.688 108.556 55.688C107.493 55.688 106.632 56.3771 106.632 57.2272C106.632 58.0773 107.493 58.7664 108.556 58.7664Z" fill="#DBDBDB"/>
<path d="M89.61 39.1856C89.252 39.4736 89.284 42.04 89.544 42.248C89.804 42.456 93.372 42.6448 93.658 41.0512C93.944 39.4576 90.17 38.7376 89.61 39.1856Z" fill="#FFC727"/>
<path d="M102.628 40.72H99.726C92.174 36.7344 81.81 32.7904 81.81 32.7904L83.53 32.4592C89.804 34.888 101.902 40.4448 102.22 40.6192C102.351 40.6656 102.487 40.6995 102.628 40.72Z" fill="#455A64"/>
<g opacity="0.5">
<path d="M28 52.1216C28.6052 51.3219 29.3455 50.5929 30.2 49.9552C31.0545 49.3113 32.0074 48.7565 33.036 48.304C35.1102 47.4025 37.4397 46.9435 39.8 46.9712L40.68 47.0032L41.12 47.0208C41.266 47.0336 41.412 47.0528 41.558 47.0688L42.43 47.168C42.718 47.216 43.002 47.2768 43.288 47.328C44.4321 47.5542 45.5224 47.9282 46.516 48.4352C47.5031 48.9454 48.3844 49.576 49.128 50.304C49.8523 51.039 50.4714 51.8365 50.974 52.6816C50.4343 51.8559 49.786 51.0787 49.04 50.3632C48.2892 49.6559 47.4052 49.0465 46.42 48.5568C44.448 47.5728 42.106 47.1728 39.8 47.1552C38.6418 47.1406 37.4858 47.24 36.358 47.4512C35.2308 47.6658 34.1422 47.9937 33.118 48.4272C32.0904 48.8605 31.1349 49.3954 30.274 50.0192C29.4039 50.6371 28.6393 51.3439 28 52.1216Z" fill="white"/>
<path d="M96.956 52.1216C97.5611 51.3219 98.3015 50.5929 99.156 49.9552C100.013 49.3108 100.969 48.756 102 48.304C104.075 47.4019 106.406 46.9429 108.768 46.9712L109.648 47.0032L110.088 47.0208C110.234 47.0336 110.38 47.0528 110.524 47.0688L111.398 47.168C111.684 47.216 111.97 47.2768 112.256 47.328C113.4 47.5542 114.49 47.9282 115.484 48.4352C116.471 48.9454 117.352 49.576 118.096 50.304C118.82 51.039 119.439 51.8365 119.942 52.6816C119.37 51.8688 118.78 51.0608 118.008 50.3632C117.256 49.6567 116.372 49.0474 115.388 48.5568C113.416 47.5728 111.074 47.1728 108.766 47.1552C107.608 47.1407 106.453 47.2401 105.326 47.4512C103.06 47.8843 100.968 48.7675 99.242 50.0192C98.3671 50.636 97.5984 51.343 96.956 52.1216Z" fill="white"/>
<path d="M29.42 39.0544C30.954 38.0944 32.51 37.1552 34.076 36.2288C35.642 35.3024 37.226 34.392 38.856 33.5296C39.056 33.4256 39.268 33.32 39.482 33.2224C39.588 33.1712 39.696 33.1232 39.81 33.0784C39.9248 33.0336 40.0446 32.9977 40.168 32.9712C40.64 32.8608 41.112 32.7648 41.584 32.6704C42.532 32.4832 43.48 32.304 44.438 32.1552C45.3994 32.0076 46.3751 31.9273 47.354 31.9152C48.33 31.8992 49.304 31.9008 50.278 31.9376C49.304 31.9376 48.33 31.96 47.36 32.008C46.39 32.037 45.4251 32.1333 44.476 32.296C43.528 32.4672 42.578 32.6416 41.638 32.8352C41.166 32.9328 40.694 33.0304 40.238 33.1424C40.126 33.1664 40.0174 33.1997 39.914 33.2416C39.81 33.2848 39.704 33.3312 39.602 33.3808C39.402 33.4784 39.19 33.5824 38.986 33.688C37.356 34.5328 35.786 35.448 34.186 36.3456L29.42 39.0544Z" fill="white"/>
</g>
<path opacity="0.1" d="M105.77 49.3664C98.23 50.7456 98.12 57.5776 98.12 58.8304C98.12 58.8304 50.74 57.9664 50.546 57.9344C50.388 57.9072 50.436 51.9264 44.844 49.6464C47.356 50.64 50.574 53.0464 51.792 56.56C51.924 56.9344 58.824 57.52 70.618 57.8224C82.412 58.1248 92.664 57.9344 94.618 57.7152C96.572 57.496 98.838 49.3424 105.77 49.3664Z" fill="black"/>
<path opacity="0.1" d="M129.692 53.5184C129.588 53.7584 127.372 55.9184 127.362 55.976C127.352 56.0336 127.284 56.632 127.244 56.696C127.204 56.76 125.016 58.296 124.704 58.3504C124.392 58.4048 123.116 58.4336 122.936 58.4752C122.756 58.5168 120.536 59.6832 120.356 59.7456C120.176 59.808 119.106 59.7456 118.794 59.7456C118.7 59.7456 118.994 58.24 118.938 56.8656C118.852 54.4784 117.03 51.4736 113.45 50.0064C115.392 50.3376 118.632 52.4592 119.94 54.6464C121.248 56.8336 120.912 56.9952 121.218 57.2592C121.524 57.5232 122.538 56.9904 123.006 56.896C123.474 56.8016 125.006 56.7712 125.586 56.6784C126.166 56.5856 126.266 55.7408 126.668 55.5584C127.07 55.376 129.112 54.0704 129.692 53.5184Z" fill="black"/>
<path d="M80 16.9776C79.752 14.9808 78.032 12.9936 75 12.9936C71.968 12.9936 70.26 14.9808 70.012 16.9776C69.63 20.0592 72.23 22.8512 75 25.3984C77.772 22.8512 80.372 20.0592 80 16.9776ZM75 19.2C74.4593 19.1997 73.9308 19.0711 73.4814 18.8305C73.032 18.5899 72.6819 18.2481 72.4754 17.8483C72.2688 17.4485 72.2151 17.0087 72.3209 16.5845C72.4268 16.1603 72.6876 15.7707 73.0702 15.4651C73.4528 15.1594 73.9402 14.9514 74.4706 14.8673C75.001 14.7832 75.5507 14.8269 76.0501 14.9927C76.5496 15.1585 76.9763 15.4391 77.2764 15.799C77.5765 16.1588 77.7364 16.5818 77.736 17.0144C77.7363 17.3017 77.6657 17.5863 77.5282 17.8518C77.3908 18.1173 77.1892 18.3584 76.935 18.5615C76.6809 18.7645 76.3791 18.9254 76.0471 19.035C75.715 19.1446 75.3592 19.2006 75 19.2Z" fill="#FFC727"/>
<path d="M86.918 70.3312C87.318 70.432 98.432 70.3168 98.852 70.096C99.014 70.0144 99.086 68.7168 99.12 67.1472V67.0976C99.12 66.7776 99.132 66.4416 99.134 66.104C99.134 66.0576 99.134 66.0112 99.134 65.9648L98.6 61.3488L91.158 61.408L91.892 65.9808L91.902 66.1616L91.946 67.1088V67.2064C91.946 67.2064 87.714 68.7728 87.284 69.0544C86.854 69.336 86.528 70.24 86.918 70.3312Z" fill="#DD6A57"/>
<path d="M86.918 70.3312C87.318 70.432 98.432 70.3168 98.852 70.096C99.014 70.0144 99.086 68.7168 99.12 67.1472V67.0976C99.12 66.7776 99.132 66.4416 99.134 66.104C99.134 66.0576 99.134 66.0112 99.134 65.9648L91.886 65.9808L91.896 66.1616L91.94 67.1088V67.2064C91.94 67.2064 87.708 68.7728 87.278 69.0544C86.848 69.336 86.528 70.24 86.918 70.3312Z" fill="#EBEBEB"/>
<path d="M86.918 70.3296C87.118 70.3824 90.14 70.376 93.094 70.3296C93.694 70.32 94.278 70.3104 94.842 70.2976C96.948 70.2512 98.69 70.1824 98.842 70.0976C98.994 70.0128 99.076 68.7552 99.108 67.2176C99.108 67.1952 99.108 67.1744 99.108 67.152C99.108 67.1296 99.108 67.1184 99.108 67.1024L91.938 67.112V67.2112C91.938 67.2112 87.704 68.7776 87.276 69.0576C86.848 69.3376 86.528 70.2304 86.918 70.3296Z" fill="#FFC727"/>
<path d="M87.038 69.984C88.914 69.928 96.48 69.8432 98.338 69.9008C98.354 69.9008 98.354 69.9088 98.338 69.9104C96.482 69.9984 88.914 70.0352 87.04 70.0096C87 70.008 87 69.9856 87.038 69.984Z" fill="#263238"/>
<path d="M91.144 67.1328C91.88 67.016 92.784 67.096 93.344 67.512C93.366 67.528 93.344 67.552 93.314 67.5472C92.6059 67.3721 91.8764 67.2584 91.138 67.208C91.1272 67.2057 91.1178 67.2005 91.1113 67.1933C91.1048 67.1861 91.1016 67.1773 91.1023 67.1684C91.103 67.1595 91.1076 67.1511 91.1152 67.1446C91.1228 67.1381 91.133 67.134 91.144 67.1328Z" fill="#263238"/>
<path d="M90.6159 67.3952C91.3519 67.2784 92.2559 67.3584 92.8259 67.7728C92.8479 67.7904 92.8259 67.8144 92.7959 67.808C92.0878 67.6334 91.3583 67.5202 90.6199 67.4704C90.609 67.469 90.599 67.4646 90.5916 67.458C90.5843 67.4514 90.58 67.443 90.5795 67.4341C90.579 67.4253 90.5824 67.4165 90.5891 67.4095C90.5957 67.4024 90.6052 67.3973 90.6159 67.3952Z" fill="#263238"/>
<path d="M90.086 67.6576C90.822 67.5392 91.726 67.6208 92.298 68.0352C92.32 68.0512 92.298 68.0768 92.266 68.0704C91.5586 67.8957 90.8297 67.7825 90.092 67.7328C90.0809 67.7316 90.0708 67.7275 90.0632 67.721C90.0556 67.7145 90.051 67.706 90.0503 67.6972C90.0496 67.6883 90.0528 67.6795 90.0593 67.6723C90.0658 67.6651 90.0752 67.6599 90.086 67.6576Z" fill="#263238"/>
<path d="M93.094 70.328C93.694 70.3184 94.278 70.3088 94.842 70.296C96.948 70.2496 98.69 70.1808 98.842 70.096C98.994 70.0112 99.076 68.7536 99.108 67.216C99.108 67.1936 99.108 67.1728 99.108 67.1504C99.108 67.128 99.108 67.1168 99.108 67.1008C98.13 67.648 94.668 69.4912 93.094 70.328Z" fill="#263238"/>
<path d="M91.454 67.128H99.466C99.466 67.128 97.852 52.16 97.916 51.8976C97.996 51.5632 98.468 50.048 99.098 48.0688L99.728 46.096C100.328 44.2352 100.984 42.2 101.558 40.4288C102.42 37.7744 103.092 35.7136 103.092 35.7136H96.292C96.292 35.7136 95.492 37.72 94.504 40.3312C92.878 44.5744 90.704 50.4112 90.492 51.8352C90.156 54.1264 91.454 67.128 91.454 67.128Z" fill="#455A64"/>
<path d="M91.8 66.0352C93.024 66.0144 92.672 66.0064 93.896 65.9968C94.496 65.9968 98.43 65.9648 98.99 66.0384C99.002 66.0384 99.002 66.0576 98.99 66.0592C98.43 66.1328 94.496 66.1056 93.896 66.1008C92.672 66.0912 93.024 66.0832 91.8 66.064C91.786 66.0624 91.786 66.0352 91.8 66.0352Z" fill="#263238"/>
<path d="M96.3999 50.984C96.6619 50.0576 97.0539 49.1488 97.3999 48.24C98.0946 46.3915 98.7933 44.5445 99.4959 42.6992C99.8466 41.7765 100.199 40.8539 100.552 39.9312C100.732 39.4656 100.91 39 101.094 38.536C101.278 38.072 101.474 37.6304 101.636 37.1712C101.7 36.984 101.736 37.0864 101.652 37.3312C101.484 37.8112 101.316 38.2912 101.142 38.7712C100.798 39.7152 100.451 40.6592 100.1 41.6032C99.4066 43.4805 98.7066 45.3568 97.9999 47.232L96.9379 50.0512C96.7602 50.4989 96.616 50.9546 96.5059 51.416C96.4107 51.8985 96.3872 52.3883 96.4359 52.8752C96.5119 53.856 96.6539 54.8352 96.7679 55.8144C96.8819 56.7936 96.9939 57.7744 97.1079 58.7552C97.3319 60.7051 97.5553 62.656 97.7779 64.608C97.8059 64.8544 97.8339 65.1024 97.8579 65.3504C97.8579 65.432 97.7079 65.4256 97.6979 65.3504C97.4339 63.4208 97.2319 61.4848 97.0039 59.5536C96.7759 57.6224 96.5539 55.7136 96.3299 53.7856C96.2739 53.3056 96.2099 52.8256 96.2079 52.3344C96.208 51.8799 96.2724 51.4269 96.3999 50.984Z" fill="#263238"/>
<path d="M97.072 35.7136C97.544 38.632 98.442 44.1008 99.098 48.0688C100.63 43.2608 103.098 35.7136 103.098 35.7136H97.072Z" fill="#263238"/>
<path d="M95.4 70.416C95.788 70.5184 106.912 70.4352 107.334 70.216C107.496 70.136 107.574 68.8384 107.614 67.2688V67.2192C107.614 66.8992 107.63 66.5632 107.632 66.2256C107.632 66.1792 107.632 66.1328 107.632 66.0864C107.658 63.8208 107.454 61.4688 107.454 61.4688L100.182 61.5072L100.4 66.08V66.2608L100.442 67.208V67.304C100.442 67.304 96.202 68.8608 95.77 69.1392C95.338 69.4176 95.016 70.3152 95.4 70.416Z" fill="#DD6A57"/>
<path d="M95.4 70.416C95.788 70.5184 106.912 70.4352 107.334 70.216C107.496 70.136 107.574 68.8384 107.614 67.2688V67.2192C107.614 66.8992 107.63 66.5632 107.632 66.2256C107.632 66.1792 107.632 66.1328 107.632 66.0864L100.4 66.08V66.2608L100.442 67.208V67.304C100.442 67.304 96.202 68.8608 95.77 69.1392C95.338 69.4176 95.016 70.3152 95.4 70.416Z" fill="#EBEBEB"/>
<path d="M95.4 70.416C95.788 70.5184 106.912 70.4352 107.334 70.216C107.496 70.136 107.574 68.8384 107.614 67.2688V67.2192L100.438 67.2096V67.3056C100.438 67.3056 96.1979 68.8624 95.7659 69.1408C95.3339 69.4192 95.016 70.3152 95.4 70.416Z" fill="#FFC727"/>
<path d="M95.528 70.0704C97.402 70.0192 104.97 69.9568 106.828 70.0192C106.842 70.0192 106.842 70.0288 106.828 70.0288C104.97 70.112 97.402 70.1264 95.528 70.0944C95.488 70.0944 95.488 70.08 95.528 70.0704Z" fill="#263238"/>
<path d="M99.6439 67.232C100.382 67.1152 101.284 67.2 101.844 67.616C101.866 67.632 101.844 67.656 101.812 67.6512C101.105 67.4737 100.376 67.3578 99.6379 67.3056C99.6257 67.305 99.6144 67.3005 99.6063 67.2931C99.5982 67.2858 99.5942 67.2762 99.5949 67.2664C99.5957 67.2566 99.6014 67.2475 99.6105 67.2411C99.6197 67.2346 99.6317 67.2314 99.6439 67.232Z" fill="#263238"/>
<path d="M99.116 67.4928C99.852 67.376 100.756 67.4608 101.316 67.8768C101.338 67.8928 101.316 67.9168 101.286 67.912C100.579 67.7347 99.8501 67.6188 99.112 67.5664C99.0998 67.566 99.0883 67.5617 99.08 67.5545C99.0718 67.5473 99.0674 67.5378 99.068 67.528C99.0685 67.5182 99.0739 67.509 99.0829 67.5024C99.0919 67.4958 99.1038 67.4924 99.116 67.4928Z" fill="#263238"/>
<path d="M98.586 67.752C99.322 67.6368 100.226 67.7216 100.786 68.1376C100.808 68.1536 100.786 68.1776 100.756 68.1728C100.055 67.9965 99.332 67.8806 98.6 67.8272C98.5884 67.8273 98.5772 67.824 98.5685 67.818C98.5597 67.8119 98.5539 67.8036 98.5522 67.7945C98.5505 67.7853 98.553 67.776 98.5592 67.7682C98.5654 67.7604 98.5749 67.7546 98.586 67.752Z" fill="#263238"/>
<path d="M96.522 35.7136C96.522 35.7136 96.678 38.3136 97.422 40.3712C97.482 40.5408 97.546 40.7088 97.622 40.8688C98.3028 41.0878 98.9574 41.3555 99.578 41.6688C99.578 41.6688 99.656 43.76 99.734 46.0912C99.822 48.6992 99.912 51.6064 99.894 52.2224C99.826 54.5296 100.254 67.2176 100.254 67.2176L108.254 67.2432C108.254 67.2432 106.806 53.0752 106.816 52.2304C106.83 50.872 106.428 44.8704 106.116 40.488C105.916 37.7888 105.77 35.7088 105.77 35.7088L96.522 35.7136Z" fill="#455A64"/>
<path d="M100.522 66.08C101.746 66.0624 101.394 66.0544 102.618 66.048C103.218 66.048 107.152 66.032 107.712 66.1088C107.715 66.1088 107.718 66.1098 107.72 66.1116C107.723 66.1134 107.724 66.1159 107.724 66.1184C107.724 66.1209 107.723 66.1234 107.72 66.1252C107.718 66.127 107.715 66.128 107.712 66.128C107.152 66.2 103.216 66.16 102.618 66.152C101.394 66.1392 101.746 66.1328 100.522 66.1072C100.518 66.1062 100.515 66.1044 100.513 66.1019C100.511 66.0995 100.51 66.0966 100.51 66.0936C100.51 66.0906 100.511 66.0877 100.513 66.0853C100.515 66.0828 100.518 66.081 100.522 66.08Z" fill="#263238"/>
<path d="M105.1 36.64C105.248 40.2144 105.404 43.7888 105.604 47.36C105.804 50.9312 106.074 54.5296 106.45 58.1056C106.65 60.104 106.85 62.9152 107.126 64.9088C107.126 64.9216 107.102 64.9264 107.1 64.9088C106.516 61.3632 106.192 56.9776 105.9 53.4096C105.608 49.8416 105.42 46.2672 105.268 42.6896C105.182 40.6672 105.116 38.6464 105.04 36.624C105.044 36.6112 105.098 36.6144 105.1 36.64Z" fill="#263238"/>
<path d="M97.282 40.7152C98.079 40.981 98.8452 41.3022 99.572 41.6752C99.5784 41.6777 99.5832 41.6822 99.5854 41.6876C99.5877 41.693 99.5872 41.6989 99.584 41.704C99.5808 41.7091 99.5752 41.713 99.5685 41.7148C99.5617 41.7166 99.5544 41.7161 99.548 41.7136C98.776 41.4128 97.986 41.1232 97.236 40.7904C97.2235 40.7855 97.214 40.7769 97.2095 40.7664C97.205 40.7559 97.2059 40.7444 97.212 40.7344C97.2181 40.7244 97.2289 40.7168 97.242 40.7132C97.2551 40.7096 97.2695 40.7103 97.282 40.7152Z" fill="#263238"/>
<path d="M96.8 37.84C96.864 38.1152 96.946 38.3872 97.02 38.6592C97.094 38.9312 97.142 39.1776 97.22 39.4304C97.2905 39.6734 97.4459 39.8953 97.668 40.0704C97.794 40.1632 97.932 40.2464 98.068 40.3312L98.294 40.4688C98.284 40.432 98.276 40.3952 98.268 40.3584L98.202 40.0464C98.152 39.8144 98.106 39.5824 98.062 39.3504C97.976 38.8944 97.896 38.4336 97.776 37.9824C97.776 37.9786 97.7779 37.9749 97.7812 37.9722C97.7846 37.9695 97.7892 37.968 97.794 37.968C97.7987 37.968 97.8033 37.9695 97.8067 37.9722C97.8101 37.9749 97.812 37.9786 97.812 37.9824C97.954 38.4288 98.11 38.872 98.234 39.3232C98.294 39.544 98.51 40.6352 98.52 40.7136C98.53 40.792 98.538 40.8736 98.542 40.9536C98.556 41.0348 98.556 41.1172 98.542 41.1984C98.542 41.2176 98.506 41.2144 98.496 41.1984C98.4553 41.122 98.4264 41.042 98.41 40.96C98.3837 40.8825 98.3623 40.804 98.346 40.7248L98.328 40.6368C98.194 40.5712 98.07 40.4848 97.944 40.4128C97.818 40.3408 97.67 40.2528 97.544 40.1712C97.3071 40.0112 97.1363 39.7975 97.054 39.5584C96.9705 39.301 96.917 39.038 96.894 38.7728C96.85 38.464 96.818 38.152 96.764 37.8416C96.764 37.8288 96.8 37.8208 96.8 37.84Z" fill="#263238"/>
<path d="M91.3 23.52L92.264 27.7008C92.31 27.8256 92.226 27.92 92.078 27.912L89.424 27.776C89.3433 27.7666 89.2676 27.7392 89.2054 27.6971C89.1431 27.6549 89.0969 27.5997 89.072 27.5376L88.108 23.3552C88.062 23.232 88.146 23.1376 88.294 23.1456L90.948 23.2816C91.0288 23.2907 91.1048 23.3179 91.1671 23.3601C91.2294 23.4023 91.2755 23.4577 91.3 23.52Z" fill="#37474F"/>
<path d="M90.984 23.4928L91.95 27.68C91.996 27.8032 91.912 27.8976 91.764 27.8896L89.108 27.7536C89.0274 27.7444 88.9517 27.7172 88.8898 27.675C88.8278 27.6328 88.7821 27.5774 88.758 27.5152L87.8 23.3296C87.754 23.2048 87.838 23.112 87.986 23.1184L90.642 23.256C90.7209 23.266 90.7948 23.2935 90.8552 23.3353C90.9157 23.3772 90.9603 23.4317 90.984 23.4928Z" fill="#455A64"/>
<path d="M90.242 23.6432C90.24 23.679 90.2514 23.7144 90.2747 23.745C90.2979 23.7756 90.332 23.8 90.3726 23.8151C90.4132 23.8302 90.4585 23.8352 90.5028 23.8297C90.547 23.8242 90.5882 23.8082 90.6211 23.7839C90.6539 23.7596 90.6771 23.7281 90.6875 23.6932C90.698 23.6584 90.6952 23.6219 90.6797 23.5883C90.6642 23.5547 90.6365 23.5256 90.6002 23.5046C90.564 23.4836 90.5207 23.4717 90.476 23.4704C90.4464 23.4693 90.4168 23.473 90.389 23.4811C90.3612 23.4892 90.3357 23.5017 90.3139 23.5177C90.2921 23.5338 90.2746 23.5532 90.2622 23.5747C90.2499 23.5962 90.243 23.6195 90.242 23.6432Z" fill="#263238"/>
<path d="M99.356 30.1824C97.676 32.6768 94.07 35.8528 92.674 35.8048C92.01 35.7824 90.814 35.8576 89.984 35.208C88.174 33.792 86.76 31.1728 86.538 29.6992C86.458 29.176 89.692 28.1904 90.128 28.6336C91.15 29.672 92.286 31.6736 92.48 31.6736C93.196 31.6608 96.12 29.9232 98.162 28.6992C100.64 27.2 100.026 29.1888 99.356 30.1824Z" fill="#DD6A57"/>
<path d="M86.644 27.0144C87.044 25.976 87.356 25.7584 87.116 24.736C86.96 24.0656 87.428 23.6976 87.978 24.256C88.878 25.168 88.704 26.5968 88.466 27.0768L86.644 27.0144Z" fill="#DD6A57"/>
<path d="M86.66 30.1584C86.66 30.1584 86.174 28.664 86.47 27.5232C86.67 26.7344 87.362 25.056 90.208 24.2816C90.884 24.0976 92.008 24.2192 91.042 24.84C90.356 25.28 89.754 25.3936 89.412 25.7088C89.412 25.7088 90.822 25.9984 91.026 26.5472C91.2025 27.027 91.3361 27.5162 91.426 28.0112C91.3163 28.045 91.2041 28.0733 91.09 28.096C91.09 28.096 91.262 28.6144 90.74 29.3152L86.66 30.1584Z" fill="#DD6A57"/>
<path d="M86.816 26.7952C87.238 26.5392 88.142 26.0112 89.068 25.784C90.098 25.5328 92.168 25.2688 92.392 25.88C92.556 26.3264 91.778 26.4832 91.778 26.4832C91.778 26.4832 92.662 26.5184 92.7 26.9488C92.734 27.3408 92.122 27.4288 92.122 27.4288C92.122 27.4288 92.654 27.5248 92.596 27.9088C92.528 28.3696 91.426 28.0944 90.852 28.512C90.724 28.608 86.816 26.7952 86.816 26.7952Z" fill="#DD6A57"/>
<path d="M89.22 26.6992C90.0188 26.4186 90.9053 26.3388 91.762 26.4704C91.784 26.4704 91.79 26.4896 91.762 26.4896C90.9048 26.4794 90.0492 26.5525 89.214 26.7072C89.214 26.7072 89.214 26.7008 89.22 26.6992Z" fill="#263238"/>
<path d="M89.568 27.52C90.3918 27.3016 91.274 27.2645 92.1219 27.4128C92.1439 27.4128 92.1499 27.4336 92.1219 27.432C91.2668 27.3866 90.408 27.4188 89.562 27.528C89.562 27.528 89.562 27.52 89.568 27.52Z" fill="#263238"/>
<path d="M86.434 30.7664C86.434 30.7664 88.742 34.9648 90.212 35.504C91.682 36.0432 92.588 35.984 93.152 35.9344C93.3676 35.9022 93.5722 35.8334 93.752 35.7328C95.326 34.9328 98.248 31.992 99.468 30.3184C100.382 29.0624 100.37 27.8864 99.092 28.2096C98.6575 28.3352 98.252 28.5174 97.892 28.7488C95.492 30.1888 92.71 31.5456 92.586 31.4864C92.462 31.4272 91.254 29.6928 91.254 29.6928L86.434 30.7664Z" fill="#FFC727"/>
<path d="M92.388 32.3664C92.414 32.5553 92.3796 32.7463 92.288 32.9216C92.2719 32.8276 92.2719 32.7324 92.288 32.6384C92.3045 32.5443 92.3382 32.4527 92.388 32.3664Z" fill="white"/>
<path d="M89.376 33.4048C89.392 33.4988 89.392 33.594 89.376 33.688C89.3604 33.7819 89.3281 33.8735 89.28 33.96C89.2639 33.866 89.2639 33.7708 89.28 33.6768C89.2962 33.583 89.3285 33.4915 89.376 33.4048Z" fill="white"/>
<path d="M94.686 34.4176C94.702 34.5116 94.702 34.6068 94.686 34.7008C94.6707 34.7947 94.6383 34.8863 94.59 34.9728C94.5613 34.7839 94.5958 34.5923 94.69 34.4176H94.686Z" fill="white"/>
<path d="M96.144 30.2928C96.16 30.3868 96.16 30.482 96.144 30.576C96.1287 30.6699 96.0963 30.7615 96.048 30.848C96.0319 30.754 96.0319 30.6588 96.048 30.5648C96.0635 30.4709 96.0958 30.3793 96.144 30.2928Z" fill="white"/>
<path d="M96.614 31.984C96.3779 32.0049 96.1391 31.9773 95.92 31.904C96.0374 31.8912 96.1565 31.8912 96.274 31.904C96.3915 31.9175 96.506 31.9444 96.614 31.984Z" fill="white"/>
<path d="M90.468 32.48C90.3505 32.4928 90.2314 32.4928 90.114 32.48C89.9961 32.4681 89.8809 32.4428 89.772 32.4048C89.8893 32.3904 90.0087 32.3904 90.126 32.4048C90.2439 32.4167 90.359 32.442 90.468 32.48Z" fill="white"/>
<path d="M93.5999 33.9456C93.4826 33.96 93.3633 33.96 93.2459 33.9456C93.1286 33.9339 93.0141 33.9086 92.9059 33.8704C93.1419 33.848 93.381 33.875 93.5999 33.9488V33.9456Z" fill="white"/>
<path d="M87.652 31.024C87.5346 31.0376 87.4154 31.0376 87.298 31.024C87.1801 31.0121 87.0649 30.9868 86.956 30.9488C87.0734 30.936 87.1925 30.936 87.31 30.9488C87.4279 30.9607 87.543 30.9861 87.652 31.024Z" fill="white"/>
<path d="M90.694 35.3216C90.4574 35.3439 90.2177 35.3169 89.998 35.2432C90.1153 35.2288 90.2347 35.2288 90.352 35.2432C90.4701 35.2561 90.5853 35.2825 90.694 35.3216Z" fill="white"/>
<path d="M99.728 28.3472C99.8249 28.3815 99.9271 28.4052 100.032 28.4176C100.016 28.3911 99.9977 28.3659 99.976 28.3424C99.8934 28.3352 99.81 28.3368 99.728 28.3472Z" fill="white"/>
<path d="M93.886 31.3344C93.9793 31.3927 94.0621 31.4611 94.132 31.5376C94.2049 31.6124 94.2635 31.6954 94.306 31.784C94.2117 31.7265 94.1288 31.658 94.06 31.5808C93.9863 31.5064 93.9275 31.4233 93.886 31.3344Z" fill="white"/>
<path d="M91 33.6816C91.0939 33.7399 91.1774 33.8083 91.248 33.8848C91.3203 33.9599 91.3789 34.0429 91.422 34.1312C91.3272 34.0737 91.2436 34.0052 91.174 33.928C91.1017 33.8529 91.0431 33.7699 91 33.6816Z" fill="white"/>
<path d="M89.3539 30.5712C89.4478 30.6289 89.5313 30.6968 89.6019 30.7728C89.6742 30.8479 89.7328 30.9309 89.7759 31.0192C89.6811 30.9617 89.5976 30.8932 89.5279 30.816C89.4561 30.7412 89.3976 30.6588 89.3539 30.5712Z" fill="white"/>
<path d="M95.71 33.3888C95.8033 33.4471 95.8861 33.5155 95.956 33.592C96.0289 33.6668 96.0875 33.7498 96.13 33.8384C95.9442 33.7197 95.7996 33.5649 95.71 33.3888Z" fill="white"/>
<path d="M97.884 29.44C97.9783 29.4973 98.0618 29.5652 98.132 29.6416C98.2043 29.7167 98.2628 29.7997 98.306 29.888C98.2121 29.8303 98.1286 29.7624 98.058 29.6864C97.9865 29.6108 97.928 29.528 97.884 29.44Z" fill="white"/>
<path d="M98.026 31.3712C98.1722 31.2211 98.3654 31.1046 98.586 31.0336C98.5144 31.1091 98.4295 31.1759 98.334 31.232C98.2395 31.2892 98.136 31.336 98.026 31.3712Z" fill="white"/>
<path d="M87.814 32.296C87.8859 32.2202 87.9715 32.1533 88.068 32.0976C88.1619 32.0398 88.2656 31.9929 88.376 31.9584C88.2285 32.1081 88.0348 32.2245 87.814 32.296Z" fill="white"/>
<path d="M90.956 31.5392C91.0277 31.4642 91.1126 31.3979 91.208 31.3424C91.3015 31.2841 91.4053 31.2372 91.516 31.2032C91.4438 31.2778 91.359 31.344 91.264 31.4C91.1703 31.4581 91.0665 31.505 90.956 31.5392Z" fill="white"/>
<path d="M94.416 33.0896C94.4876 33.0146 94.5725 32.9483 94.668 32.8928C94.7615 32.8345 94.8653 32.7876 94.976 32.7536C94.9037 32.8282 94.8189 32.8944 94.724 32.9504C94.6298 33.0079 94.5261 33.0547 94.416 33.0896Z" fill="white"/>
<path d="M92.334 35.4016C92.4069 35.3269 92.4924 35.2607 92.588 35.2048C92.6809 35.1458 92.7849 35.0988 92.896 35.0656C92.8236 35.1406 92.738 35.2069 92.642 35.2624C92.5485 35.3207 92.4447 35.3676 92.334 35.4016Z" fill="white"/>
<path opacity="0.1" d="M93.7599 35.7328C95.3339 34.9328 98.256 31.992 99.476 30.3184C100.39 29.0624 100.378 27.8864 99.1 28.2096C98.4 29.1968 95.2919 33.52 93.7599 35.7328Z" fill="black"/>
<path d="M87.022 31.5392C87.198 31.4704 88.856 31.0368 89.222 30.9488C89.588 30.8608 91.06 30.4896 91.444 30.424C91.4466 30.4248 91.4488 30.4263 91.4504 30.4281C91.452 30.43 91.4528 30.4322 91.4528 30.4344C91.4528 30.4366 91.452 30.4388 91.4504 30.4407C91.4488 30.4425 91.4466 30.444 91.444 30.4448C91.084 30.5664 89.596 30.944 89.228 31.04C88.86 31.136 87.212 31.536 87.028 31.56C87.012 31.5616 87.01 31.544 87.022 31.5392Z" fill="#263238"/>
<path d="M95 38.8928C95.16 39.0528 106.444 39.616 106.506 39.5616C106.676 39.4176 104.042 29.4992 101.63 27.7456C101.112 27.3696 99.532 27.664 99.096 27.9408C98.822 28.1152 98.112 29.3072 97.614 30.3008C96.622 32.2912 94.858 38.752 95 38.8928Z" fill="#263238"/>
<path d="M99.386 27.5584C98.902 27.7824 98.364 29.1152 99.354 29.3936C100.344 29.672 101.474 28.4752 101.672 28.072C101.87 27.6688 100.428 27.0768 99.386 27.5584Z" fill="#FFC727"/>
<path d="M99.454 29.2144C100.076 29.3376 101.154 28.584 101.586 27.9712C101.614 27.928 101.54 27.4816 101.48 26.936C101.446 26.6048 101.416 26.2352 101.42 25.896L98.758 26.3904C98.9042 26.8156 98.9841 27.2535 98.996 27.6944C98.9956 27.7407 98.9889 27.7868 98.976 27.832C98.9767 27.84 98.9767 27.848 98.976 27.856C98.916 28.12 98.854 29.0944 99.454 29.2144Z" fill="#DD6A57"/>
<path d="M101.294 25.92C101.206 26.344 100.784 27.856 99.246 27.872C99.1544 27.8724 99.0628 27.8676 98.972 27.8576C98.9707 27.8496 98.9707 27.8416 98.972 27.8336C98.9839 27.7883 98.9906 27.7423 98.992 27.696C98.9775 27.2551 98.8963 26.8172 98.75 26.392L101.294 25.92Z" fill="#263238"/>
<path d="M101.554 23.2512C101.904 23.9872 101.588 26.1872 100.954 26.7072C100.044 27.4608 98.462 27.6128 97.638 26.72C96.838 25.856 97.314 22.9952 98.024 22.5152C99.076 21.808 101.038 22.1616 101.554 23.2512Z" fill="#DD6A57"/>
<path d="M99.068 24.7184C99.068 24.7184 99.082 24.7184 99.08 24.7328C99.054 24.88 99.054 25.0528 99.216 25.1168C99.216 25.1168 99.216 25.1264 99.216 25.1248C99.012 25.0848 99.014 24.856 99.068 24.7184Z" fill="#263238"/>
<path d="M99.254 24.5776C99.554 24.5872 99.512 25.0672 99.234 25.0576C98.956 25.048 99 24.5712 99.254 24.5776Z" fill="#263238"/>
<path d="M98.026 24.664C98.026 24.664 98.012 24.664 98.01 24.6768C98.01 24.8256 97.964 24.9968 97.792 25.0352V25.0448C98 25.032 98.05 24.8 98.026 24.664Z" fill="#263238"/>
<path d="M97.874 24.4992C97.576 24.4656 97.512 24.944 97.786 24.9792C98.06 25.0144 98.124 24.5296 97.874 24.4992Z" fill="#263238"/>
<path d="M99.51 24.3728C99.43 24.3504 99.36 24.3216 99.284 24.2944C99.1992 24.2752 99.1246 24.2342 99.072 24.1776C99.0597 24.1575 99.056 24.1347 99.0614 24.1128C99.0668 24.0908 99.0811 24.0709 99.102 24.056C99.1506 24.0335 99.2058 24.0217 99.262 24.0217C99.3182 24.0217 99.3733 24.0335 99.422 24.056C99.5305 24.0874 99.6204 24.1502 99.674 24.232C99.6821 24.2507 99.6837 24.2708 99.6786 24.2902C99.6735 24.3096 99.6619 24.3275 99.6451 24.342C99.6282 24.3564 99.6067 24.367 99.5829 24.3724C99.5591 24.3778 99.5339 24.378 99.51 24.3728Z" fill="#263238"/>
<path d="M97.658 24.352C97.7393 24.3435 97.8201 24.3318 97.9 24.3168C97.988 24.313 98.0722 24.2867 98.14 24.2416C98.1572 24.2237 98.1665 24.2018 98.1665 24.1792C98.1665 24.1566 98.1572 24.1347 98.14 24.1168C98.1004 24.0851 98.051 24.0625 97.9969 24.0513C97.9427 24.04 97.8858 24.0405 97.832 24.0528C97.7174 24.0635 97.6118 24.108 97.536 24.1776C97.5198 24.1945 97.5102 24.2148 97.5083 24.236C97.5064 24.2572 97.5123 24.2784 97.5253 24.2969C97.5382 24.3155 97.5577 24.3306 97.5813 24.3404C97.6049 24.3501 97.6316 24.3542 97.658 24.352Z" fill="#263238"/>
<path d="M99.256 26.1184C99.208 26.1504 99.16 26.1952 99.092 26.1968C99.022 26.1915 98.954 26.1752 98.892 26.1488C98.9159 26.1794 98.9497 26.2044 98.9898 26.221C99.0299 26.2376 99.0749 26.2453 99.12 26.2432C99.1585 26.2373 99.194 26.2225 99.2221 26.2006C99.2502 26.1787 99.2696 26.1507 99.278 26.12C99.278 26.1168 99.264 26.1136 99.256 26.1184Z" fill="#263238"/>
<path d="M99.1 25.6624C99.0474 25.7184 98.9811 25.7652 98.9051 25.7998C98.8291 25.8345 98.745 25.8564 98.658 25.864C98.5823 25.872 98.5056 25.872 98.43 25.864H98.386L98.346 25.856C98.3361 25.8542 98.3273 25.8497 98.3211 25.8432C98.3149 25.8368 98.3117 25.8289 98.312 25.8208C98.311 25.816 98.311 25.8112 98.312 25.8064V25.7936C98.312 25.6784 98.348 25.5056 98.348 25.5056C98.294 25.5232 98.018 25.6048 98.028 25.5456C98.0899 25.0299 98.2172 24.5206 98.408 24.0256C98.4092 24.0228 98.4115 24.0203 98.4145 24.0186C98.4176 24.0169 98.4212 24.0159 98.425 24.0159C98.4287 24.0159 98.4324 24.0169 98.4354 24.0186C98.4384 24.0203 98.4407 24.0228 98.442 24.0256C98.388 24.5056 98.23 24.968 98.166 25.4464C98.2637 25.4152 98.367 25.3963 98.472 25.3904C98.492 25.3904 98.408 25.7248 98.41 25.776C98.5264 25.7922 98.6457 25.7894 98.7608 25.768C98.8759 25.7466 98.9844 25.7068 99.08 25.6512C99.098 25.64 99.112 25.6512 99.1 25.6624Z" fill="#263238"/>
<path d="M98.538 25.8336C98.6173 25.9138 98.7214 25.9761 98.84 26.0144C98.9051 26.0306 98.9748 26.0306 99.04 26.0144C99.186 25.9824 99.188 25.8736 99.16 25.7808C99.1435 25.7319 99.12 25.6846 99.09 25.64C98.9364 25.7499 98.743 25.8177 98.538 25.8336Z" fill="#263238"/>
<path d="M98.84 26.0144C98.9051 26.0306 98.9748 26.0306 99.04 26.0144C99.186 25.9824 99.188 25.8736 99.16 25.7808C99.0815 25.7851 99.0071 25.8105 98.949 25.8529C98.8909 25.8953 98.8524 25.9523 98.84 26.0144Z" fill="#F392B9"/>
<path d="M100.942 24.9904C100.942 24.9904 101.514 24.264 101.924 24.424C102.334 24.584 101.924 25.6224 101.47 25.7792C101.413 25.8027 101.35 25.8167 101.286 25.8204C101.222 25.8241 101.158 25.8173 101.097 25.8006C101.036 25.7838 100.981 25.7574 100.933 25.723C100.885 25.6885 100.847 25.6467 100.82 25.6L100.942 24.9904Z" fill="#DD6A57"/>
<path d="M101.8 24.72C101.8 24.72 101.8 24.72 101.8 24.7296C101.653 24.7952 101.525 24.8847 101.424 24.9925C101.323 25.1003 101.251 25.2239 101.214 25.3552C101.231 25.3283 101.255 25.3047 101.285 25.286C101.314 25.2673 101.349 25.2539 101.385 25.2467C101.422 25.2396 101.46 25.2389 101.497 25.2446C101.534 25.2504 101.569 25.2624 101.6 25.28C101.6 25.28 101.6 25.296 101.6 25.2944C101.541 25.2818 101.48 25.2839 101.423 25.3005C101.366 25.3171 101.317 25.3474 101.282 25.3872C101.225 25.4543 101.177 25.5262 101.14 25.6016C101.126 25.6272 101.072 25.616 101.082 25.5888C101.054 25.2512 101.352 24.7696 101.8 24.72Z" fill="#263238"/>
<path d="M97.704 23.4752C98.602 23.9312 99.768 23.1696 99.768 23.1696C99.8501 23.3222 99.9922 23.4492 100.173 23.5315C100.353 23.6138 100.562 23.6468 100.768 23.6256C100.768 23.6256 100.992 24.808 101.384 24.7952C101.984 24.776 102.092 23.1504 101.89 22.8384C101.811 22.7389 101.707 22.6537 101.584 22.5882C101.461 22.5226 101.323 22.4781 101.178 22.4576C101.114 22.2665 100.962 22.1019 100.752 21.9968C100.334 21.76 98.952 22.1344 98.952 22.1344C98.8648 21.9865 98.7353 21.8572 98.574 21.7568C98.5354 21.7317 98.4909 21.713 98.4431 21.7021C98.3953 21.6911 98.3452 21.688 98.2959 21.6929C98.2465 21.6978 98.1989 21.7107 98.156 21.7308C98.113 21.7508 98.0756 21.7776 98.046 21.8096C98.1247 21.8955 98.178 21.9945 98.202 22.0992C98.288 22.4448 97.932 22.4544 97.922 22.1392C97.913 22.021 97.957 21.9042 98.046 21.8096C97.862 21.6096 97.572 21.5504 97.404 21.6656C97.08 21.8752 96.956 23.096 97.704 23.4752Z" fill="#263238"/>
<path d="M102.664 28.5472C106.044 31.3616 110.972 38.488 111.58 39.5104C111.994 40.2048 107.46 42.0336 107.268 41.528C107.022 40.888 103.068 32.9056 102.024 29.896C101.444 28.2368 101.966 27.9648 102.664 28.5472Z" fill="#DD6A57"/>
<path d="M107.054 41.0512C107.212 41.3968 107.75 42.8656 108.128 43.048C108.506 43.2304 110.48 43.192 111.476 43.192C112.472 43.192 112.676 42.9696 112.652 42.6944C112.628 42.4192 110.546 42.3744 110.546 42.3744C110.546 42.3744 113.336 43.0144 114.038 43.12C114.74 43.2256 116.358 43.5504 116.592 43.0848C116.696 42.8752 116.254 42.6624 116.254 42.6624C116.254 42.6624 116.932 42.8224 117.04 42.5504C117.164 42.2432 116.624 42.0704 116.624 42.0704C116.624 42.0704 117.048 42.1376 117.058 41.888C117.08 41.328 114.426 41.0528 114.426 41.0528C114.426 41.0528 116.458 41.8448 116.522 41.3888C116.614 40.7488 112.448 40.064 112.014 39.7888C111.731 39.5976 111.495 39.3653 111.32 39.104L107.054 41.0512Z" fill="#DD6A57"/>
<path d="M112.636 42.8336C112.643 42.7947 112.638 42.755 112.622 42.7179C112.605 42.6809 112.578 42.6476 112.542 42.6208C112.47 42.5682 112.387 42.5255 112.298 42.4944C112.114 42.4317 111.923 42.3825 111.728 42.3472C111.328 42.2672 110.928 42.2112 110.528 42.128C110.942 42.1231 111.355 42.1602 111.758 42.2384C111.963 42.2759 112.161 42.3362 112.346 42.4176C112.441 42.4598 112.524 42.5176 112.59 42.5872C112.624 42.6215 112.646 42.6623 112.654 42.7055C112.662 42.7487 112.656 42.7929 112.636 42.8336Z" fill="#263238"/>
<path d="M116.254 42.656C115.966 42.6 115.684 42.5344 115.402 42.4704C115.12 42.4064 114.838 42.3344 114.556 42.2672L113.716 42.056C113.436 41.9856 113.156 41.9168 112.872 41.8496C113.166 41.8743 113.457 41.916 113.744 41.9744C114.032 42.0256 114.316 42.0928 114.598 42.16C114.88 42.2272 115.16 42.304 115.434 42.3888C115.708 42.4736 115.986 42.56 116.254 42.656Z" fill="#263238"/>
<path d="M113.546 41.2912C113.815 41.3052 114.082 41.3352 114.346 41.3808C114.612 41.423 114.875 41.4764 115.134 41.5408C115.393 41.6052 115.648 41.6816 115.896 41.7696C116.145 41.8547 116.387 41.9541 116.618 42.0672C116.362 41.9952 116.112 41.9168 115.856 41.8496C115.6 41.7824 115.348 41.7104 115.092 41.648C114.836 41.5856 114.578 41.5232 114.32 41.4624C114.062 41.4016 113.8 41.3488 113.546 41.2912Z" fill="#263238"/>
<path d="M113.956 40.7584C114.834 40.8211 115.679 41.0552 116.418 41.44C116.004 41.3216 115.604 41.1984 115.194 41.088C114.784 40.9776 114.374 40.8656 113.956 40.7584Z" fill="#263238"/>
<path d="M102.066 30.6768C102.866 33.4352 106.7 40.9808 106.7 40.9808L110.144 39.6528L111.88 38.9824C111.88 38.9824 105.966 31.5904 103.55 29.1728C103.362 28.9872 103.192 28.8272 103.036 28.6928C101.538 27.4128 101.446 28.5488 102.066 30.6768Z" fill="#FFC727"/>
<path d="M106.414 40.16C108.44 39.2176 110.748 38.4752 111.138 38.3232C111.156 38.3232 111.168 38.3408 111.15 38.3472C110.75 38.4816 108.234 39.5584 106.426 40.1856C106.4 40.192 106.4 40.16 106.414 40.16Z" fill="#263238"/>
<path d="M105.686 32.2976C105.702 32.3916 105.702 32.4868 105.686 32.5808C105.671 32.6746 105.64 32.7663 105.592 32.8528C105.574 32.7595 105.574 32.6645 105.592 32.5712C105.607 32.4769 105.638 32.3847 105.686 32.2976Z" fill="white"/>
<path d="M104.094 34.72C104.11 34.814 104.11 34.9092 104.094 35.0032C104.079 35.097 104.047 35.1886 104 35.2752C103.982 35.1813 103.982 35.0858 104 34.992C104.015 34.8982 104.046 34.8065 104.094 34.72Z" fill="white"/>
<path d="M108.106 38.5456C108.122 38.639 108.122 38.7338 108.106 38.8272C108.09 38.9216 108.058 39.0137 108.01 39.1008C107.994 39.0068 107.994 38.9116 108.01 38.8176C108.025 38.7237 108.058 38.6321 108.106 38.5456Z" fill="white"/>
<path d="M107.984 34.3504C108.002 34.4437 108.002 34.5387 107.984 34.632C107.969 34.7263 107.937 34.8185 107.89 34.9056C107.873 34.8117 107.873 34.7163 107.89 34.6224C107.905 34.5286 107.936 34.4369 107.984 34.3504Z" fill="white"/>
<path d="M109.2 36.1184C109.216 36.2124 109.216 36.3076 109.2 36.4016C109.185 36.4959 109.153 36.5881 109.106 36.6752C109.088 36.5814 109.088 36.4858 109.106 36.392C109.121 36.2977 109.152 36.2055 109.2 36.1184Z" fill="white"/>
<path d="M103.8 29.656C103.683 29.6696 103.563 29.6696 103.446 29.656C103.329 29.6443 103.214 29.619 103.106 29.5808C103.223 29.568 103.341 29.568 103.458 29.5808C103.576 29.5927 103.691 29.6181 103.8 29.656Z" fill="white"/>
<path d="M103.766 32.4048C103.53 32.4257 103.291 32.3981 103.072 32.3248C103.189 32.312 103.309 32.312 103.426 32.3248C103.544 32.3383 103.658 32.3652 103.766 32.4048Z" fill="white"/>
<path d="M106.888 33.8784C106.771 33.8912 106.653 33.8912 106.536 33.8784C106.418 33.866 106.303 33.8401 106.194 33.8016C106.311 33.788 106.431 33.788 106.548 33.8016C106.665 33.8138 106.78 33.8397 106.888 33.8784Z" fill="white"/>
<path d="M110 39.4448C109.883 39.4576 109.765 39.4576 109.648 39.4448C109.53 39.4322 109.415 39.4069 109.306 39.3696C109.423 39.3552 109.543 39.3552 109.66 39.3696C109.777 39.3813 109.892 39.4066 110 39.4448Z" fill="white"/>
<path d="M106.75 39.5376C106.633 39.5504 106.515 39.5504 106.398 39.5376C106.28 39.5257 106.165 39.5004 106.056 39.4624C106.173 39.448 106.293 39.448 106.41 39.4624C106.527 39.4741 106.642 39.4994 106.75 39.5376Z" fill="white"/>
<path d="M105.8 36.7856C105.682 36.7984 105.563 36.7984 105.446 36.7856C105.329 36.7732 105.214 36.7473 105.106 36.7088C105.223 36.696 105.342 36.696 105.46 36.7088C105.577 36.7218 105.692 36.7476 105.8 36.7856Z" fill="white"/>
<path d="M108.888 37.536C108.981 37.5943 109.064 37.6627 109.134 37.7392C109.208 37.8136 109.266 37.8967 109.308 37.9856C109.214 37.9277 109.131 37.8592 109.062 37.7824C108.989 37.7076 108.93 37.6246 108.888 37.536Z" fill="white"/>
<path d="M104.296 33.6144C104.389 33.6722 104.472 33.74 104.542 33.816C104.614 33.8912 104.673 33.9741 104.716 34.0624C104.622 34.0051 104.539 33.9371 104.47 33.8608C104.397 33.7862 104.338 33.7031 104.296 33.6144Z" fill="white"/>
<path d="M102.654 30.5024C102.748 30.5603 102.831 30.6288 102.9 30.7056C102.973 30.7804 103.032 30.8634 103.074 30.952C102.98 30.8941 102.897 30.8256 102.828 30.7488C102.754 30.6744 102.696 30.5913 102.654 30.5024Z" fill="white"/>
<path d="M107.4 35.6704C107.494 35.7277 107.578 35.7956 107.648 35.872C107.719 35.9476 107.778 36.0304 107.822 36.1184C107.728 36.0611 107.644 35.9932 107.574 35.9168C107.502 35.8414 107.444 35.7585 107.4 35.6704Z" fill="white"/>
<path d="M105.988 38.096C106.082 38.1543 106.165 38.2227 106.236 38.2992C106.308 38.3743 106.367 38.4573 106.41 38.5456C106.223 38.4276 106.077 38.2727 105.988 38.096Z" fill="white"/>
<path d="M110.252 38.36C110.399 38.2103 110.593 38.0939 110.814 38.0224C110.667 38.1721 110.473 38.2885 110.252 38.36Z" fill="white"/>
<path d="M107.4 40.3536C107.472 40.2786 107.558 40.2123 107.654 40.1568C107.747 40.0978 107.851 40.0508 107.962 40.0176C107.89 40.0926 107.804 40.1589 107.708 40.2144C107.614 40.2727 107.511 40.3196 107.4 40.3536Z" fill="white"/>
<path d="M107.114 37.456C107.261 37.3063 107.455 37.1899 107.676 37.1184C107.603 37.1935 107.518 37.2603 107.422 37.3168C107.328 37.3746 107.224 37.4215 107.114 37.456Z" fill="white"/>
<path d="M104.256 31.472C104.328 31.3965 104.412 31.3297 104.508 31.2736C104.602 31.2158 104.706 31.1689 104.816 31.1344C104.744 31.2102 104.658 31.2771 104.562 31.3328C104.468 31.3903 104.366 31.4371 104.256 31.472Z" fill="white"/>
<path d="M101.88 29.176C101.952 29.1005 102.036 29.0337 102.132 28.9776C102.226 28.9201 102.33 28.8733 102.44 28.8384C102.368 28.9139 102.283 28.9807 102.188 29.0368C102.093 29.094 101.99 29.1408 101.88 29.176Z" fill="white"/>
<path d="M105.634 35.3344C105.706 35.2593 105.791 35.1925 105.886 35.136C105.98 35.0788 106.084 35.032 106.194 34.9968C106.122 35.0723 106.037 35.1391 105.942 35.1952C105.848 35.2524 105.744 35.2992 105.634 35.3344Z" fill="white"/>
<path d="M0.576882 3.59801V2.27273H7.53995V3.59801H4.84251V11H3.27433V3.59801H0.576882ZM9.807 11.1321C9.39222 11.1321 9.01864 11.0582 8.68626 10.9105C8.35671 10.7599 8.09535 10.5384 7.90217 10.2457C7.71183 9.95312 7.61665 9.59233 7.61665 9.16335C7.61665 8.79403 7.68484 8.48864 7.8212 8.24716C7.95756 8.00568 8.14364 7.8125 8.37944 7.66761C8.61523 7.52273 8.88086 7.41335 9.17631 7.33949C9.47461 7.26278 9.78285 7.20739 10.101 7.1733C10.4846 7.13352 10.7956 7.09801 11.0343 7.06676C11.2729 7.03267 11.4462 6.98153 11.5542 6.91335C11.665 6.84233 11.7203 6.73295 11.7203 6.58523V6.55966C11.7203 6.23864 11.6252 5.99006 11.4348 5.81392C11.2445 5.63778 10.9703 5.54972 10.6124 5.54972C10.2346 5.54972 9.93484 5.6321 9.71325 5.79688C9.4945 5.96165 9.34677 6.15625 9.27006 6.38068L7.82972 6.17614C7.94336 5.77841 8.13086 5.44602 8.39222 5.17898C8.65359 4.90909 8.97319 4.70739 9.35103 4.57386C9.72887 4.4375 10.1465 4.36932 10.6039 4.36932C10.9192 4.36932 11.2331 4.40625 11.5456 4.48011C11.8581 4.55398 12.1436 4.67614 12.4022 4.84659C12.6607 5.0142 12.8681 5.2429 13.0243 5.53267C13.1834 5.82244 13.263 6.18466 13.263 6.61932V11H11.78V10.1009H11.7289C11.6351 10.2827 11.503 10.4531 11.3326 10.6122C11.165 10.7685 10.9533 10.8949 10.6976 10.9915C10.4448 11.0852 10.1479 11.1321 9.807 11.1321ZM10.2076 9.99858C10.5172 9.99858 10.7857 9.9375 11.013 9.81534C11.2402 9.69034 11.415 9.52557 11.5371 9.32102C11.6621 9.11648 11.7246 8.89347 11.7246 8.65199V7.88068C11.6763 7.92045 11.5939 7.95739 11.4775 7.99148C11.3638 8.02557 11.236 8.0554 11.0939 8.08097C10.9519 8.10653 10.8113 8.12926 10.6721 8.14915C10.5328 8.16903 10.4121 8.18608 10.3098 8.20028C10.0797 8.23153 9.87376 8.28267 9.69194 8.35369C9.51012 8.42472 9.36665 8.52415 9.26154 8.65199C9.15643 8.77699 9.10387 8.93892 9.10387 9.13778C9.10387 9.42188 9.20756 9.63636 9.41495 9.78125C9.62234 9.92614 9.88654 9.99858 10.2076 9.99858ZM16.0755 4.45455L17.3965 6.87074L18.7388 4.45455H20.3709L18.3979 7.72727L20.405 11H18.7814L17.3965 8.64347L16.0243 11H14.388L16.3823 7.72727L14.4391 4.45455H16.0755ZM21.5641 11V4.45455H23.1067V11H21.5641ZM22.3397 3.52557C22.0953 3.52557 21.8851 3.4446 21.709 3.28267C21.5328 3.1179 21.4448 2.92045 21.4448 2.69034C21.4448 2.45739 21.5328 2.25994 21.709 2.09801C21.8851 1.93324 22.0953 1.85085 22.3397 1.85085C22.5868 1.85085 22.7971 1.93324 22.9703 2.09801C23.1465 2.25994 23.2346 2.45739 23.2346 2.69034C23.2346 2.92045 23.1465 3.1179 22.9703 3.28267C22.7971 3.4446 22.5868 3.52557 22.3397 3.52557Z" fill="black"/>
</g>
<defs>
<clipPath id="clip0_411_1140">
<rect width="150" height="80" fill="white"/>
</clipPath>
</defs>
</svg>
